<?xml version="1.0" standalone="no"?>
<!DOCTYPE svg PUBLIC "-//W3C//DTD SVG 1.1//EN" "http://www.w3.org/Graphics/SVG/1.1/DTD/svg11.dtd" >
<svg xmlns="http://www.w3.org/2000/svg" xmlns:xlink="http://www.w3.org/1999/xlink" version="1.1">
<metadata>
Created by FontForge 20170731 at Fri Oct  4 00:09:15 2019
 By Aleksey,,,
</metadata>
<defs>
<font id="Plain-Bold" horiz-adv-x="604" >
  <font-face 
    font-family="Plain Bold"
    font-weight="700"
    font-stretch="normal"
    units-per-em="1000"
    panose-1="2 11 0 4 2 2 2 2 2 4"
    ascent="803"
    descent="-197"
    x-height="525"
    cap-height="715"
    bbox="-60 -272 1303 1077"
    underline-thickness="50"
    underline-position="-200"
    unicode-range="U+000D-FB02"
  />
<missing-glyph horiz-adv-x="644" 
d="M50 240v49l309 309q16 -9 26 -23zM50 142v49l347 347v-15q0 -20 -13.5 -37.5t-42 -40t-36.5 -30.5q-23 -22 -36 -54zM104 0h-49l261 261h49l-93 -93h-23v-23zM321 168l273 273v-49l-224 -224h-49zM398 0h-49l33 33h2v2l210 210v-49zM50 338v49l148 148l39 -2q0 29 20 52
t55 23h8zM384 133l210 210v-49l-210 -210v49zM50 44v49l206 206v-38h11zM50 583l196 196h49l-44 -44q-53 -14 -92.5 -53.5t-54.5 -93.5l-54 -54v49zM537 482l57 57v-49l-216 -216v7q0 15 6.5 27.5t11 17.5t25.5 20t27 20q2 1 15.5 11t21.5 17.5t20 20.5t20 30t12 37zM50 681
l98 98h49l-147 -147v49zM496 0h-49l147 147v-49zM459 698l81 81h49l-104 -104q-13 12 -26 23zM50 436v49l56 56l46 -3zM506 647l88 88v-49l-70 -70q-7 15 -18 31zM202 0h-49l96 96v-49zM536 579l58 58v-49l-52 -52q0 15 -6 43zM395 732l47 47h49l-62 -62q-17 9 -34 15z
M307 742l37 37h49l-38 -38q-18 2 -28 2zM300 0h-49l33 33h49zM594 49v-49h-49zM50 779h49l-49 -49v49z" />
    <glyph glyph-name="fi" unicode="fi" horiz-adv-x="628" 
d="M93 525v25q0 85 51 130.5t142 45.5q24 0 52 -5v-115q-10 2 -25 2q-64 0 -64 -67v-16h89v-113h-89v-412h-156v412h-70v113h70zM410 587v128h156v-128h-156zM566 0h-156v525h156v-525z" />
    <glyph glyph-name="fl" unicode="fl" horiz-adv-x="631" 
d="M93 525v25q0 85 51 130.5t142 45.5q24 0 52 -5v-115q-10 2 -25 2q-64 0 -64 -67v-16h89v-113h-89v-412h-156v412h-70v113h70zM566 0h-156v715h156v-715z" />
    <glyph glyph-name=".notdef" horiz-adv-x="644" 
d="M50 240v49l309 309q16 -9 26 -23zM50 142v49l347 347v-15q0 -20 -13.5 -37.5t-42 -40t-36.5 -30.5q-23 -22 -36 -54zM104 0h-49l261 261h49l-93 -93h-23v-23zM321 168l273 273v-49l-224 -224h-49zM398 0h-49l33 33h2v2l210 210v-49zM50 338v49l148 148l39 -2q0 29 20 52
t55 23h8zM384 133l210 210v-49l-210 -210v49zM50 44v49l206 206v-38h11zM50 583l196 196h49l-44 -44q-53 -14 -92.5 -53.5t-54.5 -93.5l-54 -54v49zM537 482l57 57v-49l-216 -216v7q0 15 6.5 27.5t11 17.5t25.5 20t27 20q2 1 15.5 11t21.5 17.5t20 20.5t20 30t12 37zM50 681
l98 98h49l-147 -147v49zM496 0h-49l147 147v-49zM459 698l81 81h49l-104 -104q-13 12 -26 23zM50 436v49l56 56l46 -3zM506 647l88 88v-49l-70 -70q-7 15 -18 31zM202 0h-49l96 96v-49zM536 579l58 58v-49l-52 -52q0 15 -6 43zM395 732l47 47h49l-62 -62q-17 9 -34 15z
M307 742l37 37h49l-38 -38q-18 2 -28 2zM300 0h-49l33 33h49zM594 49v-49h-49zM50 779h49l-49 -49v49z" />
    <glyph glyph-name=".notdef" horiz-adv-x="644" 
d="M50 240v49l309 309q16 -9 26 -23zM50 142v49l347 347v-15q0 -20 -13.5 -37.5t-42 -40t-36.5 -30.5q-23 -22 -36 -54zM104 0h-49l261 261h49l-93 -93h-23v-23zM321 168l273 273v-49l-224 -224h-49zM398 0h-49l33 33h2v2l210 210v-49zM50 338v49l148 148l39 -2q0 29 20 52
t55 23h8zM384 133l210 210v-49l-210 -210v49zM50 44v49l206 206v-38h11zM50 583l196 196h49l-44 -44q-53 -14 -92.5 -53.5t-54.5 -93.5l-54 -54v49zM537 482l57 57v-49l-216 -216v7q0 15 6.5 27.5t11 17.5t25.5 20t27 20q2 1 15.5 11t21.5 17.5t20 20.5t20 30t12 37zM50 681
l98 98h49l-147 -147v49zM496 0h-49l147 147v-49zM459 698l81 81h49l-104 -104q-13 12 -26 23zM50 436v49l56 56l46 -3zM506 647l88 88v-49l-70 -70q-7 15 -18 31zM202 0h-49l96 96v-49zM536 579l58 58v-49l-52 -52q0 15 -6 43zM395 732l47 47h49l-62 -62q-17 9 -34 15z
M307 742l37 37h49l-38 -38q-18 2 -28 2zM300 0h-49l33 33h49zM594 49v-49h-49zM50 779h49l-49 -49v49z" />
    <glyph glyph-name=".null" horiz-adv-x="0" 
 />
    <glyph glyph-name="nonmarkingreturn" horiz-adv-x="333" 
 />
    <glyph glyph-name="CR" unicode="&#xd;" horiz-adv-x="0" 
 />
    <glyph glyph-name="space" unicode=" " horiz-adv-x="231" 
 />
    <glyph glyph-name="exclam" unicode="!" horiz-adv-x="327" 
d="M98 208q-2 41 -6.5 116.5t-7 144t-2.5 138.5v108h163v-108q0 -70 -2.5 -138.5t-7 -144t-6.5 -116.5h-131zM244 148v-148h-163v148h163z" />
    <glyph glyph-name="quotedbl" unicode="&#x22;" horiz-adv-x="462" 
d="M66 451q-11 175 -13 264h150q-2 -89 -13 -264h-124zM272 451q-11 175 -13 264h150q-2 -89 -13 -264h-124z" />
    <glyph glyph-name="numbersign" unicode="#" 
d="M184 0h-99l44 216h-94l20 93h93l22 104h-95l20 93h94l43 209h99l-43 -209h94l43 209h99l-43 -209h88l-20 -93h-87l-22 -104h89l-20 -93h-88l-44 -216h-99l44 216h-94zM269 413l-22 -104h94l22 104h-94z" />
    <glyph glyph-name="dollar" unicode="$" 
d="M14 225h168q15 -96 126 -96q50 0 80 22t30 59q0 34 -24 49t-89 33l-49 14q-120 33 -171 80.5t-51 129.5q0 76 51.5 130.5t139.5 71.5v119h153v-118q87 -16 138 -68.5t55 -135.5h-164q-16 83 -109 83q-43 0 -67.5 -19.5t-24.5 -50.5q1 -33 21.5 -49t66.5 -29l55 -15
q129 -37 183.5 -82.5t54.5 -134.5q0 -84 -56.5 -140t-152.5 -73v-134h-153v134q-96 17 -151.5 74.5t-59.5 145.5z" />
    <glyph glyph-name="percent" unicode="%" horiz-adv-x="894" 
d="M202 323q-82 0 -126.5 54t-44.5 148q0 93 44 147t126 54t126 -54.5t44 -147.5q0 -94 -43.5 -147.5t-125.5 -53.5zM136 523q0 -115 65 -115q36 0 50 29.5t14 85.5q0 59 -13.5 88.5t-50.5 29.5t-51 -30t-14 -88zM263 0l275 715h93l-275 -715h-93zM694 -15q-82 0 -126.5 54
t-44.5 148q0 93 44 147t126 54t126 -54.5t44 -147.5q0 -94 -43.5 -147.5t-125.5 -53.5zM628 185q0 -115 65 -115q36 0 50 29.5t14 85.5q0 59 -13.5 88.5t-50.5 29.5t-51 -30t-14 -88z" />
    <glyph glyph-name="ampersand" unicode="&#x26;" horiz-adv-x="700" 
d="M581 -15q-54 56 -77 83q-79 -82 -204 -82q-120 0 -187.5 59t-67.5 158q0 132 149 205q-73 69 -73 149q0 74 56.5 123.5t146.5 49.5q89 0 145 -45t56 -119q0 -109 -130 -181q18 -19 53.5 -58.5t44.5 -49.5q29 58 41 116l147 -9q-28 -125 -88 -207l96 -98zM275 311
q-77 -46 -77 -109q0 -43 30.5 -69t75.5 -26q64 0 107 57q-4 4 -136 147zM313 464l16 11q58 38 58 84q0 28 -17.5 45t-46.5 17q-28 0 -45 -17t-17 -45q0 -45 52 -95z" />
    <glyph glyph-name="quotesingle" unicode="'" horiz-adv-x="256" 
d="M66 451q-11 175 -13 264h150q-2 -89 -13 -264h-124z" />
    <glyph glyph-name="parenleft" unicode="(" horiz-adv-x="339" 
d="M33 299q0 160 73 284t194 176v-139q-128 -124 -128 -319q0 -197 128 -319v-139q-121 52 -194 174t-73 282z" />
    <glyph glyph-name="parenright" unicode=")" horiz-adv-x="339" 
d="M306 299q0 -160 -73 -282t-194 -174v139q128 122 128 319q0 195 -128 319v139q121 -52 194 -176t73 -284z" />
    <glyph glyph-name="asterisk" unicode="*" horiz-adv-x="428" 
d="M154 715h120l-20 -114l103 54l37 -115l-113 -17l82 -80l-98 -71l-51 103l-51 -103l-98 71l82 80l-113 17l37 115l102 -54z" />
    <glyph glyph-name="plus" unicode="+" 
d="M47 269v130h188v190h134v-190h188v-130h-188v-190h-134v190h-188z" />
    <glyph glyph-name="comma" unicode="," horiz-adv-x="288" 
d="M243 166l-93 -255h-137l72 255h158z" />
    <glyph glyph-name="hyphen" unicode="-" horiz-adv-x="417" 
d="M57 230v135h303v-135h-303z" />
    <glyph glyph-name="period" unicode="." horiz-adv-x="277" 
d="M57 0v166h163v-166h-163z" />
    <glyph glyph-name="slash" unicode="/" horiz-adv-x="478" 
d="M22 -105l290 820h144l-288 -820h-146z" />
    <glyph glyph-name="zero" unicode="0" horiz-adv-x="638" 
d="M319 115q61 0 85 55t24 181q0 132 -24 191.5t-85 59.5t-85 -59.5t-24 -191.5q0 -126 24 -181t85 -55zM319 732q65 0 114 -20t79.5 -53.5t49.5 -83t26 -102.5t7 -118q0 -88 -12.5 -152t-42.5 -115t-85.5 -77t-135.5 -26t-135.5 26t-85.5 77t-42.5 115t-12.5 152
q0 65 7 118t26 102.5t49.5 83t79.5 53.5t114 20z" />
    <glyph glyph-name="one" unicode="1" horiz-adv-x="448" 
d="M197 478h-175v113h16q70 0 116 32.5t63 91.5h140v-715h-160v478z" />
    <glyph glyph-name="two" unicode="2" horiz-adv-x="616" 
d="M571 0h-530v129q126 98 238 189q65 53 92 96.5t27 88.5q0 42 -24.5 65.5t-67.5 23.5q-50 0 -74.5 -31t-24.5 -83h-160q1 118 70 186t191 68q120 0 189.5 -59t69.5 -159q0 -141 -165 -266q-29 -23 -80 -60t-78 -59q22 1 59 1h268v-130z" />
    <glyph glyph-name="three" unicode="3" horiz-adv-x="618" 
d="M30 217h162q4 -50 32.5 -76.5t78.5 -26.5q53 0 81 27t28 73q0 100 -144 100h-13v127q131 0 131 89q0 34 -23.5 54t-61.5 20q-39 0 -63 -21.5t-25 -63.5h-155q2 97 69 155t180 58q109 0 175.5 -53.5t66.5 -140.5q0 -62 -29 -96.5t-85 -53.5v-2q144 -46 144 -182
q0 -100 -74.5 -160t-201.5 -60q-125 0 -197.5 61.5t-75.5 171.5z" />
    <glyph glyph-name="four" unicode="4" horiz-adv-x="646" 
d="M613 269v-130h-101v-139h-155v139h-334v124l304 452h185v-446h101zM169 268q27 1 88 1h100v169q0 1 3 124h-2q-43 -76 -75 -124l-54 -82z" />
    <glyph glyph-name="five" unicode="5" horiz-adv-x="611" 
d="M33 207h171q6 -41 33 -66t71 -25q50 0 78.5 32t28.5 86q0 51 -28.5 83t-76.5 32q-63 0 -96 -58l-159 26l44 398h429v-132h-302q-10 -83 -20 -147h1q57 43 139 43q103 0 168 -65t65 -173q0 -117 -74.5 -185.5t-198.5 -68.5q-117 0 -191 61t-82 159z" />
    <glyph glyph-name="six" unicode="6" horiz-adv-x="629" 
d="M578 546l-166 1q-21 63 -87 63q-54 0 -84 -51.5t-30 -136.5q52 52 152 52q98 0 162.5 -62t64.5 -175q0 -111 -72.5 -180.5t-198.5 -69.5q-133 0 -205 89t-72 252q0 196 71.5 302t219.5 106q106 0 167.5 -54t77.5 -136zM320 347q-47 0 -77 -31t-30 -83t30.5 -83.5
t77.5 -31.5t77 31t30 82q0 53 -30.5 84.5t-77.5 31.5z" />
    <glyph glyph-name="seven" unicode="7" horiz-adv-x="545" 
d="M281 0h-176q96 300 263 581l-1 1q-22 -1 -120 -1h-223v134h507v-128q-130 -219 -250 -587z" />
    <glyph glyph-name="eight" unicode="8" horiz-adv-x="621" 
d="M311 -16q-125 0 -199 58t-74 156q0 133 146 183v2q-118 40 -118 158q0 82 67.5 136.5t175.5 54.5q110 0 178 -54.5t68 -136.5q0 -118 -118 -158v-2q146 -52 146 -183q0 -98 -74 -156t-198 -58zM310 315q-49 0 -80 -28.5t-31 -74.5q0 -44 30.5 -72t80.5 -28q49 0 79 28
t30 72q0 46 -30 74.5t-79 28.5zM311 606q-43 0 -68.5 -24t-25.5 -60t26 -60t68 -24t67.5 24t25.5 60t-25.5 60t-67.5 24z" />
    <glyph glyph-name="nine" unicode="9" horiz-adv-x="629" 
d="M48 170l169 -1q21 -63 87 -63q54 0 83.5 49.5t29.5 136.5q-19 -19 -58.5 -35.5t-92.5 -16.5q-98 0 -162 63t-64 176q0 109 72.5 179t197.5 70q133 0 205 -89.5t72 -256.5q0 -403 -292 -403q-106 0 -168.5 54.5t-78.5 136.5zM309 370q47 0 77 31t30 83t-30.5 83.5
t-77.5 31.5t-77 -31t-30 -82q0 -53 30.5 -84.5t77.5 -31.5z" />
    <glyph glyph-name="colon" unicode=":" horiz-adv-x="277" 
d="M57 0v166h163v-166h-163zM57 324v166h163v-166h-163z" />
    <glyph glyph-name="semicolon" unicode=";" horiz-adv-x="301" 
d="M81 324v166h163v-166h-163zM246 166l-93 -255h-137l72 255h158z" />
    <glyph glyph-name="less" unicode="&#x3c;" 
d="M505 625v-150l-291 -137v-3l291 -138v-152l-435 230v118z" />
    <glyph glyph-name="equal" unicode="=" 
d="M53 363v134h498v-134h-498zM53 175v134h498v-134h-498z" />
    <glyph glyph-name="greater" unicode="&#x3e;" 
d="M99 475v150l435 -232v-118l-435 -230v152l291 138v3z" />
    <glyph glyph-name="question" unicode="?" horiz-adv-x="559" 
d="M188 494h-157q2 109 68 171.5t184 62.5q114 0 178.5 -57t64.5 -144q0 -103 -97 -181l-9 -7q-46 -38 -61.5 -62t-15.5 -69h-142q0 71 16 108t63 79l38 35q46 41 46 94q0 34 -23 56t-62 22q-46 0 -69 -28t-22 -80zM355 148v-148h-163v148h163z" />
    <glyph glyph-name="at" unicode="@" horiz-adv-x="815" 
d="M536 538h92l-44 -241q-7 -36 -7 -45q0 -22 23 -22q39 0 69.5 52.5t30.5 123.5q0 108 -74.5 178t-195.5 70q-132 0 -217 -86.5t-85 -215.5q0 -132 86 -215.5t223 -83.5q117 0 216 62l48 -53q-118 -87 -267 -87q-177 0 -286.5 106t-109.5 271q0 160 112 269.5t279 109.5
q151 0 251.5 -89.5t100.5 -223.5q0 -113 -59 -190t-145 -77q-30 0 -51 13.5t-30 31.5q-47 -49 -119 -49t-116 47.5t-44 127.5q0 92 56 159.5t142 67.5q77 0 115 -59zM425 459q-50 0 -79.5 -40.5t-29.5 -95.5q0 -41 21 -65.5t59 -24.5q50 0 79.5 41t29.5 98q0 41 -20.5 64
t-59.5 23z" />
    <glyph glyph-name="A" unicode="A" horiz-adv-x="720" 
d="M-10 0q117 320 274 715h197l267 -715h-172q-8 23 -29.5 80t-33.5 89h-270l-64 -169h-169zM267 299h181q-15 47 -45.5 139.5t-44.5 140.5h-2q-19 -68 -89 -280z" />
    <glyph glyph-name="B" unicode="B" horiz-adv-x="652" 
d="M74 0v715h189q64 0 94 -1q234 -8 234 -183q0 -61 -35.5 -100.5t-95.5 -53.5q66 -8 111 -51t45 -122q0 -166 -189 -197q-43 -7 -107 -7h-246zM235 305v-174h59q80 0 119 18.5t39 70.5q0 85 -130 85h-87zM235 584v-157h62q70 0 101.5 18t31.5 64q0 43 -30 59t-91 16h-74z
" />
    <glyph glyph-name="C" unicode="C" horiz-adv-x="763" 
d="M557 224h183q-35 -113 -124 -175t-219 -62q-164 0 -263 99t-99 271q0 169 100 270t264 101q129 0 219 -65t124 -180l-179 -1q-47 109 -165 109q-90 0 -141 -63t-51 -172q0 -104 51.5 -166t140.5 -62q108 0 159 96z" />
    <glyph glyph-name="D" unicode="D" horiz-adv-x="739" 
d="M74 0v715h178q68 0 103 -1q161 -6 254.5 -99t93.5 -255q0 -95 -40 -180t-105 -120q-56 -38 -124 -49t-184 -11h-176zM238 577v-438h56q65 0 107 13q129 38 129 207q0 163 -129 205q-39 13 -97 13h-66z" />
    <glyph glyph-name="E" unicode="E" horiz-adv-x="591" 
d="M236 292v-152h312v-140h-474v715h470v-140h-308v-145h283v-138h-283z" />
    <glyph glyph-name="F" unicode="F" horiz-adv-x="573" 
d="M238 0h-164v715h462v-140h-298v-145h277v-138h-277v-292z" />
    <glyph glyph-name="G" unicode="G" horiz-adv-x="791" 
d="M402 728q129 0 217.5 -64.5t122.5 -180.5l-179 -1q-47 109 -164 109q-90 0 -141.5 -63.5t-51.5 -167.5q0 -108 52.5 -171.5t144.5 -63.5q146 0 177 137q-32 -1 -92 -1h-128v133h382v-394h-153v38q0 9 0.5 22.5t0.5 17.5h-1q-32 -40 -89.5 -65.5t-131.5 -25.5
q-148 0 -240.5 103t-92.5 268q0 166 100 268t267 102z" />
    <glyph glyph-name="H" unicode="H" horiz-adv-x="736" 
d="M238 0h-164v715h164v-276h260v276h164v-715h-164v298h-260v-298z" />
    <glyph glyph-name="I" unicode="I" horiz-adv-x="312" 
d="M238 0h-164v715h164v-715z" />
    <glyph glyph-name="J" unicode="J" horiz-adv-x="538" 
d="M241 -15q-113 0 -169 53.5t-56 152.5h160q6 -63 61 -63q42 0 55 31.5t13 109.5v446h165v-448q0 -142 -52 -212t-177 -70z" />
    <glyph glyph-name="K" unicode="K" horiz-adv-x="663" 
d="M238 0h-164v715h164v-317h2q31 48 64.5 96t88 122.5t71.5 98.5h197q-50 -64 -142.5 -179.5t-121.5 -152.5l281 -383h-202q-197 290 -236 355h-2v-355z" />
    <glyph glyph-name="L" unicode="L" horiz-adv-x="559" 
d="M74 715h164v-574h300v-141h-464v715z" />
    <glyph glyph-name="M" unicode="M" horiz-adv-x="959" 
d="M74 0v715h263l88 -300q32 -110 58 -214h1q6 22 27.5 93.5t37.5 128.5l83 292h253v-715h-154v334q0 87 4 237h-2q-16 -65 -56 -198l-110 -373h-171l-109 365q-41 137 -56 206h-2q3 -75 3 -231v-340h-158z" />
    <glyph glyph-name="N" unicode="N" horiz-adv-x="767" 
d="M693 715v-715h-209l-155 300q-83 160 -105 219h-1q2 -58 2 -227v-292h-151v715h212l182 -358q6 -11 76 -165h1q-3 88 -3 207v316h151z" />
    <glyph glyph-name="O" unicode="O" horiz-adv-x="797" 
d="M398 728q164 0 264 -101t100 -270q0 -172 -99.5 -271t-265.5 -99q-164 0 -263 99t-99 271q0 169 100 270t263 101zM398 128q89 0 140 62t51 166q0 108 -51 171.5t-140 63.5q-90 0 -141 -63t-51 -172q0 -104 51.5 -166t140.5 -62z" />
    <glyph glyph-name="P" unicode="P" horiz-adv-x="637" 
d="M74 0v715h214q52 0 76 -1q117 -4 182 -64t65 -164q0 -120 -81 -181q-39 -30 -92.5 -40t-139.5 -10h-60v-255h-164zM238 576v-187h83q125 0 125 94q0 48 -31 70.5t-97 22.5h-80z" />
    <glyph glyph-name="Q" unicode="Q" horiz-adv-x="797" 
d="M397 728q164 0 264.5 -101t100.5 -270q0 -171 -99 -270l131 -137h-195l-59 60q-66 -23 -143 -23q-164 0 -263 99t-99 271q0 169 99.5 270t262.5 101zM304 252l199 3l47 -49q39 59 39 150q0 108 -51 171.5t-140 63.5q-90 0 -141 -63t-51 -172q0 -104 51.5 -166t140.5 -62
q17 0 25 1z" />
    <glyph glyph-name="R" unicode="R" horiz-adv-x="648" 
d="M237 258v-258h-163v715h264q130 0 193 -44q81 -59 81 -167q0 -87 -44.5 -141t-113.5 -77l179 -286h-184l-151 258h-61zM237 576v-187h92q59 0 91 24t32 70q0 49 -33.5 71t-100.5 22h-81z" />
    <glyph glyph-name="S" unicode="S" horiz-adv-x="631" 
d="M27 217h168q15 -98 126 -98q50 0 80 23t30 60q0 34 -24 49t-90 34l-49 14q-119 34 -170 83t-51 132q0 96 74 155t196 59q119 0 190.5 -56.5t76.5 -158.5h-164q-16 85 -109 85q-44 0 -68.5 -20t-24.5 -52q1 -33 21.5 -49t67.5 -30l55 -16q129 -37 183.5 -83.5t54.5 -137.5
q0 -102 -78.5 -162.5t-207.5 -60.5t-206 61.5t-81 168.5z" />
    <glyph glyph-name="T" unicode="T" horiz-adv-x="586" 
d="M375 0h-164v574h-189v141h542v-141h-189v-574z" />
    <glyph glyph-name="U" unicode="U" horiz-adv-x="708" 
d="M354 128q123 0 123 166v421h164v-426q0 -129 -56 -203q-73 -98 -231 -98t-231 98q-56 74 -56 203v426h164v-421q0 -166 123 -166z" />
    <glyph glyph-name="V" unicode="V" horiz-adv-x="679" 
d="M239 0q-134 394 -239 715h181l113 -383q16 -54 47 -181h3q36 139 50 184l114 380h171l-239 -715h-201z" />
    <glyph glyph-name="W" unicode="W" horiz-adv-x="966" 
d="M950 715q-24 -120 -73 -358t-73 -357h-215l-75 406q-11 57 -26 169h-3q-10 -73 -27 -164l-78 -411h-219q-24 120 -72 357.5t-73 357.5h166q10 -56 27.5 -167.5t27.5 -166.5l14 -79q8 -50 23 -161h4q15 102 42 240l65 334h211l59 -318q31 -163 42 -258h4q5 54 25 163
l72 413h152z" />
    <glyph glyph-name="X" unicode="X" horiz-adv-x="667" 
d="M659 715q-40 -61 -119.5 -180t-109.5 -165q46 -71 133 -201.5t112 -168.5h-195q-36 60 -150 243q-13 -20 -154 -243h-184q28 42 114 170t130 195l-228 350h191q21 -37 74 -123.5t63 -103.5q22 36 70 112.5t71 114.5h182z" />
    <glyph glyph-name="Y" unicode="Y" horiz-adv-x="622" 
d="M629 715l-236 -447v-268h-164v268q-149 287 -233 447h183l137 -295h2q40 96 135 295h176z" />
    <glyph glyph-name="Z" unicode="Z" horiz-adv-x="597" 
d="M35 0v131l222 304l101 140q-44 -1 -124 -1h-186v141h500v-132q-25 -36 -75 -103l-144 -199q-25 -35 -105 -141q47 1 130 1h210v-141h-529z" />
    <glyph glyph-name="bracketleft" unicode="[" horiz-adv-x="361" 
d="M329 -15v-98h-246v828h246v-97h-113v-633h113z" />
    <glyph glyph-name="backslash" unicode="\" horiz-adv-x="478" 
d="M166 715l290 -820h-146l-288 820h144z" />
    <glyph glyph-name="bracketright" unicode="]" horiz-adv-x="361" 
d="M32 -113v98h113v633h-113v97h246v-828h-246z" />
    <glyph glyph-name="asciicircum" unicode="^" 
d="M250 684h104q25 -48 95 -184.5t110 -211.5h-148q-17 35 -40 83t-43 88.5t-24 48.5h-3q-1 -1 -43.5 -86.5t-65.5 -133.5h-147q42 79 118 227t87 169z" />
    <glyph glyph-name="underscore" unicode="_" horiz-adv-x="588" 
d="M56 -166v109h476v-109h-476z" />
    <glyph glyph-name="grave" unicode="`" horiz-adv-x="257" 
d="M349 596h-168l-141 119h205z" />
    <glyph glyph-name="a" unicode="a" horiz-adv-x="575" 
d="M530 0h-141q-4 40 -3 59q-21 -21 -38 -33.5t-52 -24t-79 -11.5q-86 0 -138 41.5t-52 114.5q0 154 299 180q5 0 22.5 1.5t23.5 1.5q0 55 -20 81t-64 26q-79 0 -87 -75h-150q6 83 68 131.5t169 48.5q119 0 175 -53t56 -183v-160q0 -102 11 -145zM371 215q0 11 1 18l-27 -3
q-89 -10 -124 -27t-35 -52q0 -28 21.5 -44.5t57.5 -16.5q106 0 106 125z" />
    <glyph glyph-name="b" unicode="b" horiz-adv-x="641" 
d="M209 0h-147v715h156v-138q0 -13 -0.5 -53.5t-0.5 -53.5q56 70 161 70q104 0 167 -73t63 -200q0 -126 -65 -203t-172 -77q-111 0 -163 83q1 -17 1 -70zM325 421q-53 0 -85 -42t-32 -111q0 -72 31 -116t86 -44q54 0 86 44t32 113t-32 112.5t-86 43.5z" />
    <glyph glyph-name="c" unicode="c" horiz-adv-x="594" 
d="M416 187h153q-18 -93 -86.5 -148t-174.5 -55q-125 0 -201 77.5t-76 200.5q0 124 77 202t201 78q105 0 173 -53t86 -150h-157q-22 80 -100 80q-55 0 -87 -42t-32 -114q0 -76 32.5 -115.5t90.5 -39.5q36 0 64 20t37 59z" />
    <glyph glyph-name="d" unicode="d" horiz-adv-x="641" 
d="M579 0h-147q0 53 1 70q-52 -83 -165 -83q-106 0 -170.5 75t-64.5 200q0 127 65 202.5t168 75.5q102 0 158 -70q0 13 -0.5 53.5t-0.5 53.5v138h156v-715zM316 421q-54 0 -86 -43.5t-32 -112.5t32 -113t86 -44q55 0 86 44t31 116q0 69 -32 111t-85 42z" />
    <glyph glyph-name="e" unicode="e" 
d="M411 156h159q-25 -79 -93 -125.5t-171 -46.5q-125 0 -199.5 76t-74.5 204q0 123 77 201t200 78q128 0 198.5 -79.5t70.5 -211.5l-1 -26h-390q4 -58 38 -91.5t86 -33.5q73 0 100 55zM191 323h230q-6 52 -35.5 80.5t-77.5 28.5t-79 -29t-38 -80z" />
    <glyph glyph-name="f" unicode="f" horiz-adv-x="352" 
d="M93 525v25q0 85 51 130.5t142 45.5q24 0 52 -5v-115q-10 2 -25 2q-64 0 -64 -67v-16h89v-113h-89v-412h-156v412h-70v113h70z" />
    <glyph glyph-name="g" unicode="g" horiz-adv-x="643" 
d="M46 -19h164q27 -64 100 -64q69 0 97.5 46t26.5 139h-2q-21 -35 -64.5 -57.5t-101.5 -22.5q-105 0 -168.5 71t-63.5 187q0 115 66 187.5t168 72.5q60 0 101.5 -23t62.5 -58q-2 21 -2 66h151v-443q0 -135 -71.5 -206.5t-205.5 -71.5q-111 0 -176.5 47t-81.5 130zM317 421
q-54 0 -86 -39.5t-32 -102.5q0 -61 31.5 -99.5t86.5 -38.5q51 0 84 38.5t33 104.5q0 61 -32 99t-85 38z" />
    <glyph glyph-name="h" unicode="h" horiz-adv-x="616" 
d="M218 0h-156v715h156v-112q0 -94 -1 -138q47 73 155 73t157 -84q18 -33 24 -72.5t6 -112.5v-269h-156v254q0 84 -18.5 123t-67.5 39q-99 0 -99 -147v-269z" />
    <glyph glyph-name="i" unicode="i" horiz-adv-x="280" 
d="M62 587v128h156v-128h-156zM218 0h-156v525h156v-525z" />
    <glyph glyph-name="j" unicode="j" horiz-adv-x="280" 
d="M218 525v-524q0 -106 -40 -149.5t-143 -43.5q-38 0 -70 6v108q8 -1 17 -1q43 0 61.5 19.5t18.5 63.5v521h156zM62 587v128h156v-128h-156z" />
    <glyph glyph-name="k" unicode="k" horiz-adv-x="582" 
d="M218 0h-156v715h156v-423h1q75 103 159 233h188q-28 -35 -76 -93t-79 -95.5t-41 -52.5q39 -57 218 -284h-198q-23 37 -65.5 98t-71.5 104t-34 56h-1v-258z" />
    <glyph glyph-name="l" unicode="l" horiz-adv-x="286" 
d="M221 0h-156v715h156v-715z" />
    <glyph glyph-name="m" unicode="m" horiz-adv-x="935" 
d="M548 0h-156v254q0 87 -17 124.5t-63 37.5q-94 0 -94 -147v-269h-156v445q0 53 -1 80h149v-72q19 37 58.5 61t99.5 24q105 0 152 -88h2q21 36 64.5 62t107.5 26q81 0 132.5 -54t51.5 -173v-311h-156v254q0 87 -17 124.5t-63 37.5q-94 0 -94 -147v-269z" />
    <glyph glyph-name="n" unicode="n" horiz-adv-x="616" 
d="M218 0h-156v445q0 53 -1 80h149v-72q18 36 59.5 60.5t102.5 24.5q108 0 157 -84q18 -33 24 -72.5t6 -112.5v-269h-156v254q0 84 -18.5 123t-67.5 39q-99 0 -99 -147v-269z" />
    <glyph glyph-name="o" unicode="o" horiz-adv-x="628" 
d="M313 543q127 0 205.5 -78t78.5 -203q0 -124 -77.5 -201t-205.5 -77q-129 0 -206 77t-77 202q0 124 78 202t204 78zM312 420q-57 0 -88.5 -42.5t-31.5 -114.5q0 -74 31 -115t90 -41q58 0 89 41t31 114q0 72 -31 115t-90 43z" />
    <glyph glyph-name="p" unicode="p" horiz-adv-x="641" 
d="M62 525h153q0 -13 -0.5 -31t-0.5 -24q22 28 64 49t100 21q104 0 167 -73t63 -200q0 -126 -65 -203t-172 -77q-103 0 -154 67q1 -31 1 -112v-122h-156v705zM325 421q-53 0 -85 -42t-32 -111q0 -72 31 -116t86 -44q54 0 86 44t32 113t-32 112.5t-86 43.5z" />
    <glyph glyph-name="q" unicode="q" horiz-adv-x="641" 
d="M425 525h154v-705h-156v138q0 14 2 98q-49 -69 -155 -69q-108 0 -172.5 74.5t-64.5 199.5q0 127 65 203t168 76q104 0 159 -69v54zM316 421q-54 0 -86 -43.5t-32 -112.5t32 -113t86 -44q55 0 86 44t31 116q0 69 -32 111t-85 42z" />
    <glyph glyph-name="r" unicode="r" horiz-adv-x="400" 
d="M62 0v430q0 62 -1 95h145q0 -47 -2 -83h2q38 96 146 96q22 0 32 -2v-142q-17 4 -41 4q-34 0 -57 -9.5t-36.5 -25.5t-20.5 -48t-9 -64t-2 -86v-165h-156z" />
    <glyph glyph-name="s" unicode="s" horiz-adv-x="560" 
d="M24 172h161q15 -77 103 -77q37 0 60 13.5t23 35.5q0 23 -19.5 34t-68.5 23l-67 18q-92 26 -132.5 60t-40.5 100q0 75 62.5 119.5t173.5 44.5q104 0 168 -43t72 -127h-152q-19 61 -93 61q-35 0 -54 -12t-19 -33q0 -23 21.5 -34t85.5 -27l35 -9q105 -27 147 -62t42 -103
q0 -79 -65 -124.5t-181 -45.5q-122 0 -186 46t-76 142z" />
    <glyph glyph-name="t" unicode="t" horiz-adv-x="375" 
d="M94 412h-79v113h79v140h156v-140h95v-113h-95v-179q0 -78 10 -102.5t52 -24.5q14 0 27 3v-115q-30 -6 -62 -6q-99 0 -141 40t-42 146v238z" />
    <glyph glyph-name="u" unicode="u" horiz-adv-x="612" 
d="M394 525h156v-445q0 -53 1 -80h-149v72q-19 -37 -58.5 -61t-99.5 -24q-108 0 -157 84q-18 33 -24 72.5t-6 112.5v269h156v-254q0 -84 18 -123t66 -39q97 0 97 147v269z" />
    <glyph glyph-name="v" unicode="v" horiz-adv-x="552" 
d="M188 0l-182 525h165q11 -38 49 -167t57 -203h3q8 36 21 84.5t24 85t30.5 102t29.5 98.5h162q-33 -96 -95.5 -273.5t-88.5 -251.5h-175z" />
    <glyph glyph-name="w" unicode="w" horiz-adv-x="856" 
d="M160 0q-28 97 -78.5 280t-68.5 245h160l46 -193q10 -43 22 -108t16 -86h3q22 116 43 205l41 182h169l44 -185q11 -46 43 -204h2l42 203l42 186h158q-27 -95 -77 -271.5t-71 -253.5h-189l-39 160q-32 132 -39 177h-3q-15 -78 -39 -176l-39 -161h-188z" />
    <glyph glyph-name="x" unicode="x" horiz-adv-x="546" 
d="M2 0l178 272l-163 253h173q12 -24 43.5 -82t41.5 -78q6 11 36 69.5t49 90.5h165q-27 -44 -85 -134.5t-75 -117.5q29 -45 93 -140.5t88 -132.5h-174q-69 123 -99 180q-28 -55 -101 -180h-170z" />
    <glyph glyph-name="y" unicode="y" horiz-adv-x="550" 
d="M136 -180q49 150 61 187q-21 56 -91 238.5t-104 279.5h166q19 -64 56 -180t53 -174h5q17 74 99 354h161q-35 -96 -139 -396t-107 -309h-160z" />
    <glyph glyph-name="z" unicode="z" horiz-adv-x="527" 
d="M35 0v114q41 45 101.5 114.5t103 118.5t56.5 63q0 1 -1 1q-42 -2 -123 -2h-128v116h436v-114q-89 -99 -260 -295v-1q90 2 133 2h142v-117h-460z" />
    <glyph glyph-name="braceleft" unicode="{" horiz-adv-x="337" 
d="M31 266v69q37 10 51 31.5t14 77.5v149q0 72 28.5 99t111.5 27l60 -1v-92q-36 -2 -49 -17.5t-13 -63.5v-91q0 -79 -13.5 -106t-59.5 -46v-2q46 -19 59.5 -46t13.5 -106v-95q0 -47 12.5 -61.5t49.5 -16.5v-92q-43 -1 -60 -1q-83 0 -111.5 27t-28.5 99v149q0 56 -14 77.5
t-51 31.5z" />
    <glyph glyph-name="bar" unicode="|" horiz-adv-x="305" 
d="M84 -62v793h137v-793h-137z" />
    <glyph glyph-name="braceright" unicode="}" horiz-adv-x="337" 
d="M306 335v-69q-37 -10 -51 -31.5t-14 -77.5v-149q0 -72 -28.5 -99t-111.5 -27l-60 1v92q37 2 49.5 16.5t12.5 61.5v95q0 79 13.5 106t59.5 46v2q-46 19 -59.5 46t-13.5 106v91q0 48 -13 63.5t-49 17.5v92q43 1 60 1q83 0 111.5 -27t28.5 -99v-149q0 -56 14 -77.5t51 -31.5
z" />
    <glyph glyph-name="asciitilde" unicode="~" 
d="M477 430l89 -69q-71 -129 -162 -129q-42 0 -115 34l-17 8q-54 25 -72 25q-20 0 -36.5 -14.5t-36.5 -51.5l-89 69q71 129 162 129q42 0 115 -34l17 -8q54 -25 72 -25q20 0 36.5 14.5t36.5 51.5z" />
    <glyph glyph-name="uni00A0" unicode="&#xa0;" horiz-adv-x="231" 
 />
    <glyph glyph-name="exclamdown" unicode="&#xa1;" horiz-adv-x="310" 
d="M90 315h132q2 -41 6.5 -117.5t7 -145t2.5 -139.5v-109h-164v109q0 71 2.5 139.5t7 145t6.5 117.5zM237 525v-149h-164v149h164z" />
    <glyph glyph-name="cent" unicode="&#xa2;" 
d="M421 187h153q-15 -77 -65.5 -128.5t-129.5 -67.5v-73h-133v73q-97 19 -153.5 92.5t-56.5 178.5t57 179t153 95v86h133v-85q78 -15 128.5 -65.5t65.5 -131.5h-157q-13 43 -40 62v-280q34 21 45 65zM197 263q0 -98 52 -135v269q-52 -41 -52 -134z" />
    <glyph glyph-name="sterling" unicode="&#xa3;" 
d="M549 117v-117h-484v109q61 6 90 37.5t29 76.5q0 40 -21 90h-124v114h77q-13 47 -13 91q0 91 62.5 150t175.5 59q108 0 166.5 -54t60.5 -151h-143q-12 88 -88 88q-86 0 -86 -96q0 -38 16 -84h165v-117h-122q20 -56 20 -98q0 -57 -31 -99q25 1 105 1h145z" />
    <glyph glyph-name="currency" unicode="&#xa4;" 
d="M474 79l-53 52q-56 -29 -119.5 -29t-118.5 30l-55 -54l-109 110l55 55q-28 56 -28 118t28 117l-55 56l109 110l56 -56q55 28 118 28.5t118 -27.5l54 54l110 -109l-53 -53q30 -56 30 -120.5t-29 -120.5l52 -52zM213 269q38 -37 90.5 -37t90.5 37t38.5 91t-37.5 91
q-37 37 -91 37t-91 -37q-38 -38 -38 -91t38 -91z" />
    <glyph glyph-name="yen" unicode="&#xa5;" 
d="M618 715l-127 -239h62v-113h-121l-39 -74h160v-113h-171v-176h-164v176h-169v113h158q-5 9 -18.5 35.5t-20.5 38.5h-119v113h61q-65 123 -125 239h183l137 -295h2q40 96 135 295h176z" />
    <glyph glyph-name="brokenbar" unicode="&#xa6;" horiz-adv-x="307" 
d="M85 428v303h137v-303h-137zM85 -62v303h137v-303h-137z" />
    <glyph glyph-name="section" unicode="&#xa7;" 
d="M46 78h159q5 -32 30 -52t67 -20q38 0 60.5 13t22.5 36q0 9 -2.5 16.5t-10 14t-13.5 11.5t-20 11.5t-23 10t-30 11t-32 12.5l-56 22q-81 32 -122.5 73t-41.5 104q0 87 100 126q0 1 0.5 1t0.5 1q-19 13 -28.5 21.5t-21.5 32t-12 54.5q0 69 61.5 110.5t171.5 41.5
q102 0 164.5 -42.5t66.5 -121.5h-150q-13 56 -87 56q-35 0 -54 -11.5t-19 -31.5q0 -21 20 -33t78 -35l38 -15q113 -46 159.5 -84.5t46.5 -102.5q0 -47 -21.5 -77.5t-66.5 -53.5q34 -25 50 -50t16 -63q0 -75 -68 -121.5t-180 -46.5q-111 0 -178 49.5t-75 132.5zM378 235
q18 3 31.5 19.5t13.5 34.5q0 28 -24 43.5t-96 44.5l-79 31q-19 -5 -31.5 -18t-12.5 -32q0 -26 21.5 -41.5t80.5 -40.5z" />
    <glyph glyph-name="dieresis" unicode="&#xa8;" horiz-adv-x="491" 
d="M125 596v119h124v-119h-124zM321 596v119h123v-119h-123z" />
    <glyph glyph-name="copyright" unicode="&#xa9;" horiz-adv-x="827" 
d="M507 277h114q-21 -69 -75.5 -106.5t-132.5 -37.5q-100 0 -160 60t-60 164q0 102 61 163.5t160 61.5q78 0 133 -39.5t75 -109.5h-111q-27 62 -99 62q-52 0 -82 -37.5t-30 -100.5q0 -61 30 -97.5t82 -36.5q67 0 95 54zM790 360q0 -158 -110 -267.5t-268 -109.5
q-156 0 -265.5 110t-109.5 267q0 156 109.5 266t267.5 110q157 0 266.5 -110t109.5 -266zM721 360q0 128 -90 219t-217 91q-129 0 -218 -90.5t-89 -219.5t89 -220.5t217 -91.5t218 91t90 221z" />
    <glyph glyph-name="ordfeminine" unicode="&#xaa;" horiz-adv-x="469" 
d="M414 179h-108q-2 34 -2 40q-22 -23 -48.5 -35.5t-73.5 -12.5q-65 0 -104.5 31.5t-39.5 86.5q0 113 224 133l34 3q-3 79 -63 79q-55 0 -62 -55h-115q5 62 50.5 98.5t126.5 36.5q90 0 133.5 -40.5t43.5 -137.5v-139q0 -48 4 -88zM295 353l-16 -2q-119 -15 -119 -58
q0 -20 16 -32t42 -12q76 0 77 96v8z" />
    <glyph glyph-name="guillemotleft" unicode="&#xab;" horiz-adv-x="541" 
d="M283 473l-96 -187l96 -188h-144l-102 188l102 187h144zM496 473l-91 -187l91 -188h-142l-102 188l102 187h142z" />
    <glyph glyph-name="logicalnot" unicode="&#xac;" 
d="M41 333v134h505v-330h-145v196h-360z" />
    <glyph glyph-name="uni00AD" unicode="&#xad;" horiz-adv-x="417" 
d="M57 230v135h303v-135h-303z" />
    <glyph glyph-name="registered" unicode="&#xae;" horiz-adv-x="536" 
d="M239 464v-96h-71v271h119q32 0 54 -11q41 -21 41 -70q0 -61 -56 -83l65 -107h-81l-55 96h-16zM239 581v-60h31q41 0 41 30t-45 30h-27zM502 501q0 -97 -68 -165.5t-166 -68.5q-97 0 -165 68.5t-68 165.5t68 165.5t166 68.5q97 0 165 -68.5t68 -165.5zM452 501
q0 77 -53.5 131.5t-129.5 54.5q-77 0 -130.5 -54.5t-53.5 -131.5t53.5 -132t129.5 -55t130 55t54 132z" />
    <glyph glyph-name="macron" unicode="&#xaf;" horiz-adv-x="428" 
d="M80 606v93h273v-93h-273z" />
    <glyph glyph-name="degree" unicode="&#xb0;" horiz-adv-x="403" 
d="M202 400q-71 0 -119 47t-48 117t48 117.5t119 47.5q70 0 118 -47.5t48 -117.5t-47.5 -117t-118.5 -47zM131 564q0 -30 20.5 -50t50.5 -20t50 20t20 50t-20 50.5t-50 20.5t-50.5 -20t-20.5 -51z" />
    <glyph glyph-name="plusminus" unicode="&#xb1;" 
d="M51 0v134h498v-134h-498zM47 329v130h188v140h134v-140h188v-130h-188v-140h-134v140h-188z" />
    <glyph glyph-name="twosuperior" unicode="&#xb2;" horiz-adv-x="445" 
d="M390 271h-337v84q113 88 149 117q71 57 71 110q0 24 -13.5 37t-37.5 13q-56 0 -56 -69h-112q1 75 47.5 119t123.5 44t120.5 -37t43.5 -100q0 -87 -100 -165q-25 -20 -46 -34q-30 -22 -44 -31h191v-88z" />
    <glyph glyph-name="threesuperior" unicode="&#xb3;" horiz-adv-x="415" 
d="M38 418h105q5 -62 62 -62q61 0 61 56t-82 56h-13v84q79 0 79 49q0 18 -12.5 29t-33.5 11q-48 0 -48 -51h-104q2 62 44 99t111 37q68 0 109.5 -33.5t41.5 -86.5q0 -63 -61 -91q79 -30 79 -109q0 -61 -46 -98.5t-125 -37.5q-77 0 -121.5 39t-45.5 109z" />
    <glyph glyph-name="acute" unicode="&#xb4;" horiz-adv-x="427" 
d="M252 596h-168l104 119h205z" />
    <glyph glyph-name="mu" unicode="&#xb5;" horiz-adv-x="617" 
d="M218 -180h-156v705h156v-254q0 -84 18 -123t66 -39q97 0 97 147v269h156v-445q0 -53 1 -80h-149v72q-40 -82 -141 -82q-28 0 -48 5v-175z" />
    <glyph glyph-name="paragraph" unicode="&#xb6;" horiz-adv-x="667" 
d="M377 608v-721h-107v389q-100 0 -172 62t-72 159q0 112 89 174q38 26 81 35t108 9h297v-107h-43v-721h-107v721h-74z" />
    <glyph glyph-name="periodcentered" unicode="&#xb7;" horiz-adv-x="277" 
d="M57 236v166h163v-166h-163z" />
    <glyph glyph-name="cedilla" unicode="&#xb8;" horiz-adv-x="369" 
d="M84 -163l93 114h146l-76 -114h-163z" />
    <glyph glyph-name="onesuperior" unicode="&#xb9;" horiz-adv-x="296" 
d="M134 569h-108v69h10q88 0 109 77h88v-439h-99v293z" />
    <glyph glyph-name="ordmasculine" unicode="&#xba;" horiz-adv-x="495" 
d="M246 588q97 0 155.5 -58t58.5 -153q0 -93 -58.5 -150.5t-154.5 -57.5q-97 0 -154.5 57.5t-57.5 151.5t58 152t153 58zM245 495q-41 0 -64.5 -32t-23.5 -85q0 -55 23 -85.5t66 -30.5t66 30.5t23 84.5t-23.5 86t-66.5 32z" />
    <glyph glyph-name="guillemotright" unicode="&#xbb;" horiz-adv-x="541" 
d="M354 286l-96 187h144l102 -187l-102 -188h-144zM136 286l-91 187h142l102 -187l-102 -188h-142z" />
    <glyph glyph-name="onequarter" unicode="&#xbc;" horiz-adv-x="819" 
d="M630 83h-214v76l126 180l69 101h118v-276h58v-81h-58v-83h-99v83zM189 0l275 715h93l-275 -715h-93zM138 569h-108v69h10q88 0 109 77h88v-439h-99v293zM627 164v97q0 32 2 68l-44 -68l-65 -97h107z" />
    <glyph glyph-name="onehalf" unicode="&#xbd;" horiz-adv-x="844" 
d="M803 0h-337v84q113 88 149 117q71 57 71 110q0 24 -13.5 37t-37.5 13q-56 0 -56 -69h-112q1 75 47.5 119t123.5 44t120.5 -37t43.5 -100q0 -87 -100 -165q-25 -20 -46 -34q-30 -22 -44 -31h191v-88zM189 0l275 715h93l-275 -715h-93zM138 569h-108v69h10q88 0 109 77h88
v-439h-99v293z" />
    <glyph glyph-name="threequarters" unicode="&#xbe;" horiz-adv-x="917" 
d="M729 83h-214v76l126 180l69 101h118v-276h58v-81h-58v-83h-99v83zM34 418h105q5 -62 62 -62q61 0 61 56t-82 56h-13v84q79 0 79 49q0 18 -12.5 29t-33.5 11q-48 0 -48 -51h-104q2 62 44 99t111 37q68 0 109.5 -33.5t41.5 -86.5q0 -63 -61 -91q79 -30 79 -109
q0 -61 -46 -98.5t-125 -37.5q-77 0 -121.5 39t-45.5 109zM288 0l275 715h93l-275 -715h-93zM726 164v97q0 32 2 68l-44 -68l-65 -97h107z" />
    <glyph glyph-name="questiondown" unicode="&#xbf;" horiz-adv-x="552" 
d="M367 31h157q-2 -109 -68 -171.5t-184 -62.5q-114 0 -178.5 57t-64.5 144q0 103 97 181l9 7q46 38 61.5 62t15.5 69h142q0 -71 -16 -108t-63 -79l-38 -35q-46 -41 -46 -94q0 -34 23 -56t62 -22q46 0 69 28t22 80zM200 377v148h163v-148h-163z" />
    <glyph glyph-name="Agrave" unicode="&#xc0;" horiz-adv-x="720" 
d="M-10 0q117 320 274 715h197l267 -715h-172q-8 23 -29.5 80t-33.5 89h-270l-64 -169h-169zM267 299h181q-15 47 -45.5 139.5t-44.5 140.5h-2q-19 -68 -89 -280zM465 761h-162l-139 115h197z" />
    <glyph glyph-name="Aacute" unicode="&#xc1;" horiz-adv-x="720" 
d="M-10 0q117 320 274 715h197l267 -715h-172q-8 23 -29.5 80t-33.5 89h-270l-64 -169h-169zM267 299h181q-15 47 -45.5 139.5t-44.5 140.5h-2q-19 -68 -89 -280zM426 761h-162l104 115h197z" />
    <glyph glyph-name="Acircumflex" unicode="&#xc2;" horiz-adv-x="720" 
d="M-10 0q117 320 274 715h197l267 -715h-172q-8 23 -29.5 80t-33.5 89h-270l-64 -169h-169zM267 299h181q-15 47 -45.5 139.5t-44.5 140.5h-2q-19 -68 -89 -280zM276 876h160l106 -115h-137l-47 51l-48 -51h-137z" />
    <glyph glyph-name="Atilde" unicode="&#xc3;" horiz-adv-x="720" 
d="M-10 0q117 320 274 715h197l267 -715h-172q-8 23 -29.5 80t-33.5 89h-270l-64 -169h-169zM267 299h181q-15 47 -45.5 139.5t-44.5 140.5h-2q-19 -68 -89 -280zM356 777q-36 18 -47 18q-25 0 -28 -31h-84q-1 51 27 86.5t78 35.5q29 0 69 -20q34 -17 48 -17q13 0 19 7.5
t9 26.5h81q0 -55 -26.5 -90.5t-72.5 -35.5q-33 0 -73 20z" />
    <glyph glyph-name="Adieresis" unicode="&#xc4;" horiz-adv-x="720" 
d="M-10 0q117 320 274 715h197l267 -715h-172q-8 23 -29.5 80t-33.5 89h-270l-64 -169h-169zM267 299h181q-15 47 -45.5 139.5t-44.5 140.5h-2q-19 -68 -89 -280zM203 754v119h124v-119h-124zM399 754v119h123v-119h-123z" />
    <glyph glyph-name="Aring" unicode="&#xc5;" horiz-adv-x="720" 
d="M-10 0q117 320 274 715h197l267 -715h-172q-8 23 -29.5 80t-33.5 89h-270l-64 -169h-169zM356 738q-45 0 -76 32t-31 77q0 44 32 75.5t76 31.5q45 0 76.5 -31.5t31.5 -75.5q0 -45 -31.5 -77t-77.5 -32zM267 299h181q-15 47 -45.5 139.5t-44.5 140.5h-2q-19 -68 -89 -280z
M317 847q0 -17 11.5 -29t27.5 -12q17 0 28.5 11.5t11.5 29.5q0 16 -11.5 27.5t-28.5 11.5q-16 0 -27.5 -11.5t-11.5 -27.5z" />
    <glyph glyph-name="AE" unicode="&#xc6;" horiz-adv-x="994" 
d="M651 292l3 -152h297v-140h-468l-4 169h-232l-95 -169h-172l413 715h554v-140h-302l3 -145h274v-138h-271zM318 299h157q-4 210 -6 280h-2q-50 -100 -149 -280z" />
    <glyph glyph-name="Ccedilla" unicode="&#xc7;" horiz-adv-x="763" 
d="M557 224h183q-35 -113 -124 -175t-219 -62q-164 0 -263 99t-99 271q0 169 100 270t264 101q129 0 219 -65t124 -180l-179 -1q-47 109 -165 109q-90 0 -141 -63t-51 -172q0 -104 51.5 -166t140.5 -62q108 0 159 96zM243 -163l93 114h146l-76 -114h-163z" />
    <glyph glyph-name="Egrave" unicode="&#xc8;" horiz-adv-x="591" 
d="M236 292v-152h312v-140h-474v715h470v-140h-308v-145h283v-138h-283zM416 761h-162l-139 115h197z" />
    <glyph glyph-name="Eacute" unicode="&#xc9;" horiz-adv-x="591" 
d="M236 292v-152h312v-140h-474v715h470v-140h-308v-145h283v-138h-283zM353 761h-162l104 115h197z" />
    <glyph glyph-name="Ecircumflex" unicode="&#xca;" horiz-adv-x="591" 
d="M236 292v-152h312v-140h-474v715h470v-140h-308v-145h283v-138h-283zM231 876h160l106 -115h-137l-47 51l-48 -51h-137z" />
    <glyph glyph-name="Edieresis" unicode="&#xcb;" horiz-adv-x="591" 
d="M236 292v-152h312v-140h-474v715h470v-140h-308v-145h283v-138h-283zM153 754v119h124v-119h-124zM349 754v119h123v-119h-123z" />
    <glyph glyph-name="Igrave" unicode="&#xcc;" horiz-adv-x="312" 
d="M238 0h-164v715h164v-715zM248 761h-162l-139 115h197z" />
    <glyph glyph-name="Iacute" unicode="&#xcd;" horiz-adv-x="312" 
d="M238 0h-164v715h164v-715zM236 761h-162l104 115h197z" />
    <glyph glyph-name="Icircumflex" unicode="&#xce;" horiz-adv-x="312" 
d="M238 0h-164v715h164v-715zM74 876h160l106 -115h-137l-47 51l-48 -51h-137z" />
    <glyph glyph-name="Idieresis" unicode="&#xcf;" horiz-adv-x="312" 
d="M238 0h-164v715h164v-715zM-3 754v119h124v-119h-124zM193 754v119h123v-119h-123z" />
    <glyph glyph-name="Eth" unicode="&#xd0;" horiz-adv-x="745" 
d="M20 294v138h60v283h178q68 0 103 -1q161 -6 254.5 -99t93.5 -255q0 -95 -40 -180t-105 -120q-56 -38 -124 -49t-184 -11h-176v294h-60zM244 577v-145h106v-138h-106v-155h56q65 0 107 13q129 38 129 207q0 163 -129 205q-39 13 -97 13h-66z" />
    <glyph glyph-name="Ntilde" unicode="&#xd1;" horiz-adv-x="767" 
d="M693 715v-715h-209l-155 300q-83 160 -105 219h-1q2 -58 2 -227v-292h-151v715h212l182 -358q6 -11 76 -165h1q-3 88 -3 207v316h151zM392 777q-36 18 -47 18q-25 0 -28 -31h-84q-1 51 27 86.5t78 35.5q29 0 69 -20q34 -17 48 -17q13 0 19 7.5t9 26.5h81
q0 -55 -26.5 -90.5t-72.5 -35.5q-33 0 -73 20z" />
    <glyph glyph-name="Ograve" unicode="&#xd2;" horiz-adv-x="797" 
d="M398 728q164 0 264 -101t100 -270q0 -172 -99.5 -271t-265.5 -99q-164 0 -263 99t-99 271q0 169 100 270t263 101zM398 128q89 0 140 62t51 166q0 108 -51 171.5t-140 63.5q-90 0 -141 -63t-51 -172q0 -104 51.5 -166t140.5 -62zM505 761h-162l-139 115h197z" />
    <glyph glyph-name="Oacute" unicode="&#xd3;" horiz-adv-x="797" 
d="M398 728q164 0 264 -101t100 -270q0 -172 -99.5 -271t-265.5 -99q-164 0 -263 99t-99 271q0 169 100 270t263 101zM398 128q89 0 140 62t51 166q0 108 -51 171.5t-140 63.5q-90 0 -141 -63t-51 -172q0 -104 51.5 -166t140.5 -62zM458 761h-162l104 115h197z" />
    <glyph glyph-name="Ocircumflex" unicode="&#xd4;" horiz-adv-x="797" 
d="M398 728q164 0 264 -101t100 -270q0 -172 -99.5 -271t-265.5 -99q-164 0 -263 99t-99 271q0 169 100 270t263 101zM398 128q89 0 140 62t51 166q0 108 -51 171.5t-140 63.5q-90 0 -141 -63t-51 -172q0 -104 51.5 -166t140.5 -62zM319 876h160l106 -115h-137l-47 51
l-48 -51h-137z" />
    <glyph glyph-name="Otilde" unicode="&#xd5;" horiz-adv-x="797" 
d="M398 728q164 0 264 -101t100 -270q0 -172 -99.5 -271t-265.5 -99q-164 0 -263 99t-99 271q0 169 100 270t263 101zM398 128q89 0 140 62t51 166q0 108 -51 171.5t-140 63.5q-90 0 -141 -63t-51 -172q0 -104 51.5 -166t140.5 -62zM392 777q-36 18 -47 18q-25 0 -28 -31
h-84q-1 51 27 86.5t78 35.5q29 0 69 -20q34 -17 48 -17q13 0 19 7.5t9 26.5h81q0 -55 -26.5 -90.5t-72.5 -35.5q-33 0 -73 20z" />
    <glyph glyph-name="Odieresis" unicode="&#xd6;" horiz-adv-x="797" 
d="M398 728q164 0 264 -101t100 -270q0 -172 -99.5 -271t-265.5 -99q-164 0 -263 99t-99 271q0 169 100 270t263 101zM398 128q89 0 140 62t51 166q0 108 -51 171.5t-140 63.5q-90 0 -141 -63t-51 -172q0 -104 51.5 -166t140.5 -62zM236 754v119h124v-119h-124zM432 754v119
h123v-119h-123z" />
    <glyph glyph-name="multiply" unicode="&#xd7;" 
d="M445 556l93 -93l-143 -143l143 -143l-93 -93l-143 143l-143 -143l-93 93l143 143l-143 143l93 93l143 -143z" />
    <glyph glyph-name="Oslash" unicode="&#xd8;" horiz-adv-x="797" 
d="M398 728q55 0 103 -12l43 76l142 -77l-41 -73q117 -101 117 -285q0 -172 -99.5 -271t-265.5 -99q-63 0 -117 15l-45 -80l-142 77l46 82q-104 99 -104 276q0 169 100 270t263 101zM398 128q89 0 140 62t51 166q0 81 -29 137l-206 -361q19 -4 44 -4zM206 356q0 -67 22 -119
l200 352q-18 2 -30 2q-90 0 -141 -63t-51 -172z" />
    <glyph glyph-name="Ugrave" unicode="&#xd9;" horiz-adv-x="708" 
d="M354 128q123 0 123 166v421h164v-426q0 -129 -56 -203q-73 -98 -231 -98t-231 98q-56 74 -56 203v426h164v-421q0 -166 123 -166zM464 761h-162l-139 115h197z" />
    <glyph glyph-name="Uacute" unicode="&#xda;" horiz-adv-x="708" 
d="M354 128q123 0 123 166v421h164v-426q0 -129 -56 -203q-73 -98 -231 -98t-231 98q-56 74 -56 203v426h164v-421q0 -166 123 -166zM405 761h-162l104 115h197z" />
    <glyph glyph-name="Ucircumflex" unicode="&#xdb;" horiz-adv-x="708" 
d="M354 128q123 0 123 166v421h164v-426q0 -129 -56 -203q-73 -98 -231 -98t-231 98q-56 74 -56 203v426h164v-421q0 -166 123 -166zM273 876h160l106 -115h-137l-47 51l-48 -51h-137z" />
    <glyph glyph-name="Udieresis" unicode="&#xdc;" horiz-adv-x="708" 
d="M354 128q123 0 123 166v421h164v-426q0 -129 -56 -203q-73 -98 -231 -98t-231 98q-56 74 -56 203v426h164v-421q0 -166 123 -166zM195 754v119h124v-119h-124zM391 754v119h123v-119h-123z" />
    <glyph glyph-name="Yacute" unicode="&#xdd;" horiz-adv-x="622" 
d="M629 715l-236 -447v-268h-164v268q-149 287 -233 447h183l137 -295h2q40 96 135 295h176zM376 761h-162l104 115h197z" />
    <glyph glyph-name="Thorn" unicode="&#xde;" horiz-adv-x="626" 
d="M74 715h164v-121h50q52 0 76 -1q117 -4 182 -64t65 -164q0 -120 -81 -181q-39 -30 -92.5 -40t-139.5 -10h-60v-134h-164v715zM238 455v-187h83q125 0 125 94q0 48 -31 70.5t-97 22.5h-80z" />
    <glyph glyph-name="germandbls" unicode="&#xdf;" horiz-adv-x="600" 
d="M62 0v477q0 138 69 196q61 50 169 50q111 0 172.5 -45.5t61.5 -126.5q0 -119 -116 -146q68 -18 108.5 -65.5t40.5 -124.5q0 -107 -65 -164t-171 -57q-31 0 -64 5v112q13 -2 26 -2q51 0 84 28.5t33 86.5q0 113 -129 113h-13v115h9q100 0 100 82q0 34 -19.5 53.5
t-58.5 19.5q-60 0 -76 -56q-5 -20 -5 -58v-493h-156z" />
    <glyph glyph-name="agrave" unicode="&#xe0;" horiz-adv-x="575" 
d="M530 0h-141q-4 40 -3 59q-21 -21 -38 -33.5t-52 -24t-79 -11.5q-86 0 -138 41.5t-52 114.5q0 154 299 180q5 0 22.5 1.5t23.5 1.5q0 55 -20 81t-64 26q-79 0 -87 -75h-150q6 83 68 131.5t169 48.5q119 0 175 -53t56 -183v-160q0 -102 11 -145zM371 215q0 11 1 18l-27 -3
q-89 -10 -124 -27t-35 -52q0 -28 21.5 -44.5t57.5 -16.5q106 0 106 125zM398 596h-168l-141 119h205z" />
    <glyph glyph-name="aacute" unicode="&#xe1;" horiz-adv-x="575" 
d="M530 0h-141q-4 40 -3 59q-21 -21 -38 -33.5t-52 -24t-79 -11.5q-86 0 -138 41.5t-52 114.5q0 154 299 180q5 0 22.5 1.5t23.5 1.5q0 55 -20 81t-64 26q-79 0 -87 -75h-150q6 83 68 131.5t169 48.5q119 0 175 -53t56 -183v-160q0 -102 11 -145zM371 215q0 11 1 18l-27 -3
q-89 -10 -124 -27t-35 -52q0 -28 21.5 -44.5t57.5 -16.5q106 0 106 125zM346 596h-168l104 119h205z" />
    <glyph glyph-name="acircumflex" unicode="&#xe2;" horiz-adv-x="575" 
d="M530 0h-141q-4 40 -3 59q-21 -21 -38 -33.5t-52 -24t-79 -11.5q-86 0 -138 41.5t-52 114.5q0 154 299 180q5 0 22.5 1.5t23.5 1.5q0 55 -20 81t-64 26q-79 0 -87 -75h-150q6 83 68 131.5t169 48.5q119 0 175 -53t56 -183v-160q0 -102 11 -145zM371 215q0 11 1 18l-27 -3
q-89 -10 -124 -27t-35 -52q0 -28 21.5 -44.5t57.5 -16.5q106 0 106 125zM208 715h159l106 -119h-137l-47 51l-48 -51h-137z" />
    <glyph glyph-name="atilde" unicode="&#xe3;" horiz-adv-x="575" 
d="M530 0h-141q-4 40 -3 59q-21 -21 -38 -33.5t-52 -24t-79 -11.5q-86 0 -138 41.5t-52 114.5q0 154 299 180q5 0 22.5 1.5t23.5 1.5q0 55 -20 81t-64 26q-79 0 -87 -75h-150q6 83 68 131.5t169 48.5q119 0 175 -53t56 -183v-160q0 -102 11 -145zM371 215q0 11 1 18l-27 -3
q-89 -10 -124 -27t-35 -52q0 -28 21.5 -44.5t57.5 -16.5q106 0 106 125zM283 609q-36 18 -47 18q-25 0 -28 -31h-84q-1 51 27 86.5t78 35.5q29 0 69 -20q34 -17 48 -17q13 0 19 7.5t9 26.5h81q0 -55 -26.5 -90.5t-72.5 -35.5q-33 0 -73 20z" />
    <glyph glyph-name="adieresis" unicode="&#xe4;" horiz-adv-x="575" 
d="M530 0h-141q-4 40 -3 59q-21 -21 -38 -33.5t-52 -24t-79 -11.5q-86 0 -138 41.5t-52 114.5q0 154 299 180q5 0 22.5 1.5t23.5 1.5q0 55 -20 81t-64 26q-79 0 -87 -75h-150q6 83 68 131.5t169 48.5q119 0 175 -53t56 -183v-160q0 -102 11 -145zM371 215q0 11 1 18l-27 -3
q-89 -10 -124 -27t-35 -52q0 -28 21.5 -44.5t57.5 -16.5q106 0 106 125zM126 596v119h124v-119h-124zM322 596v119h123v-119h-123z" />
    <glyph glyph-name="aring" unicode="&#xe5;" horiz-adv-x="575" 
d="M530 0h-141q-4 40 -3 59q-21 -21 -38 -33.5t-52 -24t-79 -11.5q-86 0 -138 41.5t-52 114.5q0 154 299 180q5 0 22.5 1.5t23.5 1.5q0 55 -20 81t-64 26q-79 0 -87 -75h-150q6 83 68 131.5t169 48.5q119 0 175 -53t56 -183v-160q0 -102 11 -145zM371 215q0 11 1 18l-27 -3
q-89 -10 -124 -27t-35 -52q0 -28 21.5 -44.5t57.5 -16.5q106 0 106 125zM287 568q-45 0 -76 32t-31 77q0 44 32 75.5t76 31.5q45 0 76.5 -31.5t31.5 -75.5q0 -45 -31.5 -77t-77.5 -32zM248 677q0 -17 11.5 -29t27.5 -12q17 0 28.5 11.5t11.5 29.5q0 16 -11.5 27.5
t-28.5 11.5q-16 0 -27.5 -11.5t-11.5 -27.5z" />
    <glyph glyph-name="ae" unicode="&#xe6;" horiz-adv-x="928" 
d="M736 156h158q-25 -79 -92.5 -125.5t-170.5 -46.5q-128 0 -203 78q-75 -73 -205 -73q-93 0 -144.5 41.5t-51.5 115.5q0 45 24.5 78.5t69.5 52.5t93 29.5t111 16.5q4 0 22 1.5t25 1.5q-1 57 -21 82.5t-65 25.5q-37 0 -59 -19.5t-26 -53.5h-151q6 83 67 131t170 48
q117 0 173 -56q79 59 175 59q128 0 197.5 -79.5t69.5 -211.5l-1 -26h-389q4 -58 38 -91.5t86 -33.5q72 0 100 55zM516 323h230q-6 52 -35.5 80.5t-77.5 28.5t-79 -29t-38 -80zM371 233l-26 -3q-89 -11 -123.5 -27.5t-34.5 -50.5q0 -28 21 -44t57 -16q50 0 77.5 29.5
t28.5 99.5v12z" />
    <glyph glyph-name="ccedilla" unicode="&#xe7;" horiz-adv-x="594" 
d="M416 187h153q-18 -93 -86.5 -148t-174.5 -55q-125 0 -201 77.5t-76 200.5q0 124 77 202t201 78q105 0 173 -53t86 -150h-157q-22 80 -100 80q-55 0 -87 -42t-32 -114q0 -76 32.5 -115.5t90.5 -39.5q36 0 64 20t37 59zM145 -163l93 114h146l-76 -114h-163z" />
    <glyph glyph-name="egrave" unicode="&#xe8;" 
d="M411 156h159q-25 -79 -93 -125.5t-171 -46.5q-125 0 -199.5 76t-74.5 204q0 123 77 201t200 78q128 0 198.5 -79.5t70.5 -211.5l-1 -26h-390q4 -58 38 -91.5t86 -33.5q73 0 100 55zM191 323h230q-6 52 -35.5 80.5t-77.5 28.5t-79 -29t-38 -80zM423 596h-168l-141 119h205
z" />
    <glyph glyph-name="eacute" unicode="&#xe9;" 
d="M411 156h159q-25 -79 -93 -125.5t-171 -46.5q-125 0 -199.5 76t-74.5 204q0 123 77 201t200 78q128 0 198.5 -79.5t70.5 -211.5l-1 -26h-390q4 -58 38 -91.5t86 -33.5q73 0 100 55zM191 323h230q-6 52 -35.5 80.5t-77.5 28.5t-79 -29t-38 -80zM374 596h-168l104 119h205z
" />
    <glyph glyph-name="ecircumflex" unicode="&#xea;" 
d="M411 156h159q-25 -79 -93 -125.5t-171 -46.5q-125 0 -199.5 76t-74.5 204q0 123 77 201t200 78q128 0 198.5 -79.5t70.5 -211.5l-1 -26h-390q4 -58 38 -91.5t86 -33.5q73 0 100 55zM191 323h230q-6 52 -35.5 80.5t-77.5 28.5t-79 -29t-38 -80zM231 715h159l106 -119h-137
l-47 51l-48 -51h-137z" />
    <glyph glyph-name="edieresis" unicode="&#xeb;" 
d="M411 156h159q-25 -79 -93 -125.5t-171 -46.5q-125 0 -199.5 76t-74.5 204q0 123 77 201t200 78q128 0 198.5 -79.5t70.5 -211.5l-1 -26h-390q4 -58 38 -91.5t86 -33.5q73 0 100 55zM191 323h230q-6 52 -35.5 80.5t-77.5 28.5t-79 -29t-38 -80zM151 596v119h124v-119h-124
zM347 596v119h123v-119h-123z" />
    <glyph glyph-name="igrave" unicode="&#xec;" horiz-adv-x="280" 
d="M218 0h-156v525h156v-525zM249 596h-168l-141 119h205z" />
    <glyph glyph-name="iacute" unicode="&#xed;" horiz-adv-x="280" 
d="M218 0h-156v525h156v-525zM217 596h-168l104 119h205z" />
    <glyph glyph-name="icircumflex" unicode="&#xee;" horiz-adv-x="280" 
d="M218 0h-156v525h156v-525zM61 715h159l106 -119h-137l-47 51l-48 -51h-137z" />
    <glyph glyph-name="idieresis" unicode="&#xef;" horiz-adv-x="280" 
d="M218 0h-156v525h156v-525zM-18 596v119h124v-119h-124zM178 596v119h123v-119h-123z" />
    <glyph glyph-name="eth" unicode="&#xf0;" horiz-adv-x="634" 
d="M430 729l71 -72l-73 -25q171 -150 171 -354q0 -139 -77 -216t-210 -77q-125 0 -202.5 75.5t-77.5 199.5q0 130 76 205t182 75q38 0 60 -10l3 3q-24 25 -59 54l-112 -38l-71 73l88 29q-58 35 -118 64h222l34 -18zM313 420q-57 0 -88.5 -42.5t-31.5 -114.5q0 -74 31 -115
t90 -41q58 0 89 41t31 114q0 72 -31 115t-90 43z" />
    <glyph glyph-name="ntilde" unicode="&#xf1;" horiz-adv-x="616" 
d="M218 0h-156v445q0 53 -1 80h149v-72q18 36 59.5 60.5t102.5 24.5q108 0 157 -84q18 -33 24 -72.5t6 -112.5v-269h-156v254q0 84 -18.5 123t-67.5 39q-99 0 -99 -147v-269zM318 609q-36 18 -47 18q-25 0 -28 -31h-84q-1 51 27 86.5t78 35.5q29 0 69 -20q34 -17 48 -17
q13 0 19 7.5t9 26.5h81q0 -55 -26.5 -90.5t-72.5 -35.5q-33 0 -73 20z" />
    <glyph glyph-name="ograve" unicode="&#xf2;" horiz-adv-x="628" 
d="M313 543q127 0 205.5 -78t78.5 -203q0 -124 -77.5 -201t-205.5 -77q-129 0 -206 77t-77 202q0 124 78 202t204 78zM312 420q-57 0 -88.5 -42.5t-31.5 -114.5q0 -74 31 -115t90 -41q58 0 89 41t31 114q0 72 -31 115t-90 43zM422 596h-168l-141 119h205z" />
    <glyph glyph-name="oacute" unicode="&#xf3;" horiz-adv-x="628" 
d="M313 543q127 0 205.5 -78t78.5 -203q0 -124 -77.5 -201t-205.5 -77q-129 0 -206 77t-77 202q0 124 78 202t204 78zM312 420q-57 0 -88.5 -42.5t-31.5 -114.5q0 -74 31 -115t90 -41q58 0 89 41t31 114q0 72 -31 115t-90 43zM373 596h-168l104 119h205z" />
    <glyph glyph-name="ocircumflex" unicode="&#xf4;" horiz-adv-x="628" 
d="M313 543q127 0 205.5 -78t78.5 -203q0 -124 -77.5 -201t-205.5 -77q-129 0 -206 77t-77 202q0 124 78 202t204 78zM312 420q-57 0 -88.5 -42.5t-31.5 -114.5q0 -74 31 -115t90 -41q58 0 89 41t31 114q0 72 -31 115t-90 43zM233 715h159l106 -119h-137l-47 51l-48 -51
h-137z" />
    <glyph glyph-name="otilde" unicode="&#xf5;" horiz-adv-x="628" 
d="M313 543q127 0 205.5 -78t78.5 -203q0 -124 -77.5 -201t-205.5 -77q-129 0 -206 77t-77 202q0 124 78 202t204 78zM312 420q-57 0 -88.5 -42.5t-31.5 -114.5q0 -74 31 -115t90 -41q58 0 89 41t31 114q0 72 -31 115t-90 43zM305 609q-36 18 -47 18q-25 0 -28 -31h-84
q-1 51 27 86.5t78 35.5q29 0 69 -20q34 -17 48 -17q13 0 19 7.5t9 26.5h81q0 -55 -26.5 -90.5t-72.5 -35.5q-33 0 -73 20z" />
    <glyph glyph-name="odieresis" unicode="&#xf6;" horiz-adv-x="628" 
d="M313 543q127 0 205.5 -78t78.5 -203q0 -124 -77.5 -201t-205.5 -77q-129 0 -206 77t-77 202q0 124 78 202t204 78zM312 420q-57 0 -88.5 -42.5t-31.5 -114.5q0 -74 31 -115t90 -41q58 0 89 41t31 114q0 72 -31 115t-90 43zM152 596v119h124v-119h-124zM348 596v119h123
v-119h-123z" />
    <glyph glyph-name="divide" unicode="&#xf7;" 
d="M53 254v134h498v-134h-498zM226 56v146h152v-146h-152zM226 440v146h152v-146h-152z" />
    <glyph glyph-name="oslash" unicode="&#xf8;" horiz-adv-x="628" 
d="M313 543q34 0 71 -8l34 60l123 -62l-34 -58q90 -79 90 -213q0 -124 -77.5 -201t-205.5 -77q-44 0 -81 9l-32 -56l-122 63l33 57q-81 78 -81 206q0 124 78 202t204 78zM433 262q0 37 -10 72l-130 -226q6 -1 20 -1q58 0 89 41t31 114zM312 420q-57 0 -88.5 -42.5
t-31.5 -114.5q0 -37 7 -64l125 220q-4 1 -12 1z" />
    <glyph glyph-name="ugrave" unicode="&#xf9;" horiz-adv-x="612" 
d="M394 525h156v-445q0 -53 1 -80h-149v72q-19 -37 -58.5 -61t-99.5 -24q-108 0 -157 84q-18 33 -24 72.5t-6 112.5v269h156v-254q0 -84 18 -123t66 -39q97 0 97 147v269zM408 596h-168l-141 119h205z" />
    <glyph glyph-name="uacute" unicode="&#xfa;" horiz-adv-x="612" 
d="M394 525h156v-445q0 -53 1 -80h-149v72q-19 -37 -58.5 -61t-99.5 -24q-108 0 -157 84q-18 33 -24 72.5t-6 112.5v269h156v-254q0 -84 18 -123t66 -39q97 0 97 147v269zM355 596h-168l104 119h205z" />
    <glyph glyph-name="ucircumflex" unicode="&#xfb;" horiz-adv-x="612" 
d="M394 525h156v-445q0 -53 1 -80h-149v72q-19 -37 -58.5 -61t-99.5 -24q-108 0 -157 84q-18 33 -24 72.5t-6 112.5v269h156v-254q0 -84 18 -123t66 -39q97 0 97 147v269zM224 715h159l106 -119h-137l-47 51l-48 -51h-137z" />
    <glyph glyph-name="udieresis" unicode="&#xfc;" horiz-adv-x="612" 
d="M394 525h156v-445q0 -53 1 -80h-149v72q-19 -37 -58.5 -61t-99.5 -24q-108 0 -157 84q-18 33 -24 72.5t-6 112.5v269h156v-254q0 -84 18 -123t66 -39q97 0 97 147v269zM149 596v119h124v-119h-124zM345 596v119h123v-119h-123z" />
    <glyph glyph-name="yacute" unicode="&#xfd;" horiz-adv-x="550" 
d="M136 -180q49 150 61 187q-21 56 -91 238.5t-104 279.5h166q19 -64 56 -180t53 -174h5q17 74 99 354h161q-35 -96 -139 -396t-107 -309h-160zM338 596h-168l104 119h205z" />
    <glyph glyph-name="thorn" unicode="&#xfe;" horiz-adv-x="641" 
d="M217 472q22 27 63 47.5t98 20.5q104 0 167 -73t63 -200q0 -126 -65 -203t-172 -77q-103 0 -154 67q1 -31 1 -112v-122h-156v895h156v-122q0 -37 -0.5 -78t-0.5 -43zM325 421q-53 0 -85 -42t-32 -111q0 -72 31 -116t86 -44q54 0 86 44t32 113t-32 112.5t-86 43.5z" />
    <glyph glyph-name="ydieresis" unicode="&#xff;" horiz-adv-x="550" 
d="M136 -180q49 150 61 187q-21 56 -91 238.5t-104 279.5h166q19 -64 56 -180t53 -174h5q17 74 99 354h161q-35 -96 -139 -396t-107 -309h-160zM123 596v119h124v-119h-124zM319 596v119h123v-119h-123z" />
    <glyph glyph-name="Amacron" unicode="&#x100;" horiz-adv-x="720" 
d="M-10 0q117 320 274 715h197l267 -715h-172q-8 23 -29.5 80t-33.5 89h-270l-64 -169h-169zM267 299h181q-15 47 -45.5 139.5t-44.5 140.5h-2q-19 -68 -89 -280zM221 765v93h273v-93h-273z" />
    <glyph glyph-name="amacron" unicode="&#x101;" horiz-adv-x="575" 
d="M530 0h-141q-4 40 -3 59q-21 -21 -38 -33.5t-52 -24t-79 -11.5q-86 0 -138 41.5t-52 114.5q0 154 299 180q5 0 22.5 1.5t23.5 1.5q0 55 -20 81t-64 26q-79 0 -87 -75h-150q6 83 68 131.5t169 48.5q119 0 175 -53t56 -183v-160q0 -102 11 -145zM371 215q0 11 1 18l-27 -3
q-89 -10 -124 -27t-35 -52q0 -28 21.5 -44.5t57.5 -16.5q106 0 106 125zM152 606v93h273v-93h-273z" />
    <glyph glyph-name="Abreve" unicode="&#x102;" horiz-adv-x="720" 
d="M-10 0q117 320 274 715h197l267 -715h-172q-8 23 -29.5 80t-33.5 89h-270l-64 -169h-169zM358 745q-63 0 -101.5 34.5t-46.5 96.5h95q9 -41 53 -41q40 0 53 41h94q-8 -62 -46.5 -96.5t-100.5 -34.5zM267 299h181q-15 47 -45.5 139.5t-44.5 140.5h-2q-19 -68 -89 -280z
" />
    <glyph glyph-name="abreve" unicode="&#x103;" horiz-adv-x="575" 
d="M530 0h-141q-4 40 -3 59q-21 -21 -38 -33.5t-52 -24t-79 -11.5q-86 0 -138 41.5t-52 114.5q0 154 299 180q5 0 22.5 1.5t23.5 1.5q0 55 -20 81t-64 26q-79 0 -87 -75h-150q6 83 68 131.5t169 48.5q119 0 175 -53t56 -183v-160q0 -102 11 -145zM371 215q0 11 1 18l-27 -3
q-89 -10 -124 -27t-35 -52q0 -28 21.5 -44.5t57.5 -16.5q106 0 106 125zM289 584q-63 0 -101.5 34.5t-46.5 96.5h95q9 -41 53 -41q40 0 53 41h94q-8 -62 -46.5 -96.5t-100.5 -34.5z" />
    <glyph glyph-name="Aogonek" unicode="&#x104;" horiz-adv-x="720" 
d="M-10 0q117 320 274 715h197l267 -715h-172q-8 23 -29.5 80t-33.5 89h-270l-64 -169h-169zM267 299h181q-15 47 -45.5 139.5t-44.5 140.5h-2q-19 -68 -89 -280zM697 -49l93 -114h-163l-76 114h146z" />
    <glyph glyph-name="aogonek" unicode="&#x105;" horiz-adv-x="575" 
d="M530 0h-141q-4 40 -3 59q-21 -21 -38 -33.5t-52 -24t-79 -11.5q-86 0 -138 41.5t-52 114.5q0 154 299 180q5 0 22.5 1.5t23.5 1.5q0 55 -20 81t-64 26q-79 0 -87 -75h-150q6 83 68 131.5t169 48.5q119 0 175 -53t56 -183v-160q0 -102 11 -145zM371 215q0 11 1 18l-27 -3
q-89 -10 -124 -27t-35 -52q0 -28 21.5 -44.5t57.5 -16.5q106 0 106 125zM524 -49l93 -114h-163l-76 114h146z" />
    <glyph glyph-name="Cacute" unicode="&#x106;" horiz-adv-x="763" 
d="M557 224h183q-35 -113 -124 -175t-219 -62q-164 0 -263 99t-99 271q0 169 100 270t264 101q129 0 219 -65t124 -180l-179 -1q-47 109 -165 109q-90 0 -141 -63t-51 -172q0 -104 51.5 -166t140.5 -62q108 0 159 96zM470 761h-162l104 115h197z" />
    <glyph glyph-name="cacute" unicode="&#x107;" horiz-adv-x="594" 
d="M416 187h153q-18 -93 -86.5 -148t-174.5 -55q-125 0 -201 77.5t-76 200.5q0 124 77 202t201 78q105 0 173 -53t86 -150h-157q-22 80 -100 80q-55 0 -87 -42t-32 -114q0 -76 32.5 -115.5t90.5 -39.5q36 0 64 20t37 59zM364 596h-168l104 119h205z" />
    <glyph glyph-name="Ccircumflex" unicode="&#x108;" horiz-adv-x="763" 
d="M557 224h183q-35 -113 -124 -175t-219 -62q-164 0 -263 99t-99 271q0 169 100 270t264 101q129 0 219 -65t124 -180l-179 -1q-47 109 -165 109q-90 0 -141 -63t-51 -172q0 -104 51.5 -166t140.5 -62q108 0 159 96zM318 876h160l106 -115h-137l-47 51l-48 -51h-137z" />
    <glyph glyph-name="ccircumflex" unicode="&#x109;" horiz-adv-x="594" 
d="M416 187h153q-18 -93 -86.5 -148t-174.5 -55q-125 0 -201 77.5t-76 200.5q0 124 77 202t201 78q105 0 173 -53t86 -150h-157q-22 80 -100 80q-55 0 -87 -42t-32 -114q0 -76 32.5 -115.5t90.5 -39.5q36 0 64 20t37 59zM232 715h159l106 -119h-137l-47 51l-48 -51h-137z
" />
    <glyph glyph-name="Cdotaccent" unicode="&#x10a;" horiz-adv-x="763" 
d="M557 224h183q-35 -113 -124 -175t-219 -62q-164 0 -263 99t-99 271q0 169 100 270t264 101q129 0 219 -65t124 -180l-179 -1q-47 109 -165 109q-90 0 -141 -63t-51 -172q0 -104 51.5 -166t140.5 -62q108 0 159 96zM339 761v115h122v-115h-122z" />
    <glyph glyph-name="cdotaccent" unicode="&#x10b;" horiz-adv-x="594" 
d="M416 187h153q-18 -93 -86.5 -148t-174.5 -55q-125 0 -201 77.5t-76 200.5q0 124 77 202t201 78q105 0 173 -53t86 -150h-157q-22 80 -100 80q-55 0 -87 -42t-32 -114q0 -76 32.5 -115.5t90.5 -39.5q36 0 64 20t37 59zM251 596v119h124v-119h-124z" />
    <glyph glyph-name="Ccaron" unicode="&#x10c;" horiz-adv-x="763" 
d="M557 224h183q-35 -113 -124 -175t-219 -62q-164 0 -263 99t-99 271q0 169 100 270t264 101q129 0 219 -65t124 -180l-179 -1q-47 109 -165 109q-90 0 -141 -63t-51 -172q0 -104 51.5 -166t140.5 -62q108 0 159 96zM483 761h-160l-103 115h137l48 -51l47 51h137z" />
    <glyph glyph-name="ccaron" unicode="&#x10d;" horiz-adv-x="594" 
d="M416 187h153q-18 -93 -86.5 -148t-174.5 -55q-125 0 -201 77.5t-76 200.5q0 124 77 202t201 78q105 0 173 -53t86 -150h-157q-22 80 -100 80q-55 0 -87 -42t-32 -114q0 -76 32.5 -115.5t90.5 -39.5q36 0 64 20t37 59zM391 596h-159l-104 119h137l48 -51l47 51h137z" />
    <glyph glyph-name="Dcaron" unicode="&#x10e;" horiz-adv-x="739" 
d="M74 0v715h178q68 0 103 -1q161 -6 254.5 -99t93.5 -255q0 -95 -40 -180t-105 -120q-56 -38 -124 -49t-184 -11h-176zM238 577v-438h56q65 0 107 13q129 38 129 207q0 163 -129 205q-39 13 -97 13h-66zM423 761h-160l-103 115h137l48 -51l47 51h137z" />
    <glyph glyph-name="dcaron" unicode="&#x10f;" horiz-adv-x="755" 
d="M579 0h-147q0 53 1 70q-52 -83 -165 -83q-106 0 -170.5 75t-64.5 200q0 127 65 202.5t168 75.5q102 0 158 -70q0 13 -0.5 53.5t-0.5 53.5v138h156v-715zM316 421q-54 0 -86 -43.5t-32 -112.5t32 -113t86 -44q55 0 86 44t31 116q0 69 -32 111t-85 42zM841 715l-93 -255
h-134l72 255h155z" />
    <glyph glyph-name="Dcroat" unicode="&#x110;" horiz-adv-x="745" 
d="M20 294v138h60v283h178q68 0 103 -1q161 -6 254.5 -99t93.5 -255q0 -95 -40 -180t-105 -120q-56 -38 -124 -49t-184 -11h-176v294h-60zM244 577v-145h106v-138h-106v-155h56q65 0 107 13q129 38 129 207q0 163 -129 205q-39 13 -97 13h-66z" />
    <glyph glyph-name="dcroat" unicode="&#x111;" horiz-adv-x="641" 
d="M372 563v108h51v44h156v-44h47v-108h-47v-563h-147q0 53 1 70q-52 -83 -165 -83q-106 0 -170.5 75t-64.5 200q0 127 65 202.5t168 75.5q102 0 158 -70q0 10 -0.5 44t-0.5 49h-51zM316 421q-54 0 -86 -43.5t-32 -112.5t32 -113t86 -44q55 0 86 44t31 116q0 69 -32 111
t-85 42z" />
    <glyph glyph-name="Emacron" unicode="&#x112;" horiz-adv-x="591" 
d="M236 292v-152h312v-140h-474v715h470v-140h-308v-145h283v-138h-283zM174 765v93h273v-93h-273z" />
    <glyph glyph-name="emacron" unicode="&#x113;" 
d="M411 156h159q-25 -79 -93 -125.5t-171 -46.5q-125 0 -199.5 76t-74.5 204q0 123 77 201t200 78q128 0 198.5 -79.5t70.5 -211.5l-1 -26h-390q4 -58 38 -91.5t86 -33.5q73 0 100 55zM191 323h230q-6 52 -35.5 80.5t-77.5 28.5t-79 -29t-38 -80zM174 606v93h273v-93h-273z
" />
    <glyph glyph-name="Ebreve" unicode="&#x114;" horiz-adv-x="591" 
d="M236 292v-152h312v-140h-474v715h470v-140h-308v-145h283v-138h-283zM313 745q-63 0 -101.5 34.5t-46.5 96.5h95q9 -41 53 -41q40 0 53 41h94q-8 -62 -46.5 -96.5t-100.5 -34.5z" />
    <glyph glyph-name="ebreve" unicode="&#x115;" 
d="M411 156h159q-25 -79 -93 -125.5t-171 -46.5q-125 0 -199.5 76t-74.5 204q0 123 77 201t200 78q128 0 198.5 -79.5t70.5 -211.5l-1 -26h-390q4 -58 38 -91.5t86 -33.5q73 0 100 55zM191 323h230q-6 52 -35.5 80.5t-77.5 28.5t-79 -29t-38 -80zM313 584q-63 0 -101.5 34.5
t-46.5 96.5h95q9 -41 53 -41q40 0 53 41h94q-8 -62 -46.5 -96.5t-100.5 -34.5z" />
    <glyph glyph-name="Edotaccent" unicode="&#x116;" horiz-adv-x="591" 
d="M236 292v-152h312v-140h-474v715h470v-140h-308v-145h283v-138h-283zM255 761v115h122v-115h-122z" />
    <glyph glyph-name="edotaccent" unicode="&#x117;" 
d="M411 156h159q-25 -79 -93 -125.5t-171 -46.5q-125 0 -199.5 76t-74.5 204q0 123 77 201t200 78q128 0 198.5 -79.5t70.5 -211.5l-1 -26h-390q4 -58 38 -91.5t86 -33.5q73 0 100 55zM191 323h230q-6 52 -35.5 80.5t-77.5 28.5t-79 -29t-38 -80zM247 596v119h124v-119h-124
z" />
    <glyph glyph-name="Eogonek" unicode="&#x118;" horiz-adv-x="591" 
d="M236 292v-152h312v-140h-474v715h470v-140h-308v-145h283v-138h-283zM374 -49l93 -114h-163l-76 114h146z" />
    <glyph glyph-name="eogonek" unicode="&#x119;" 
d="M411 156h159q-25 -79 -93 -125.5t-171 -46.5q-125 0 -199.5 76t-74.5 204q0 123 77 201t200 78q128 0 198.5 -79.5t70.5 -211.5l-1 -26h-390q4 -58 38 -91.5t86 -33.5q73 0 100 55zM191 323h230q-6 52 -35.5 80.5t-77.5 28.5t-79 -29t-38 -80zM358 -49l93 -114h-163
l-76 114h146z" />
    <glyph glyph-name="Ecaron" unicode="&#x11a;" horiz-adv-x="591" 
d="M236 292v-152h312v-140h-474v715h470v-140h-308v-145h283v-138h-283zM392 761h-160l-103 115h137l48 -51l47 51h137z" />
    <glyph glyph-name="ecaron" unicode="&#x11b;" 
d="M411 156h159q-25 -79 -93 -125.5t-171 -46.5q-125 0 -199.5 76t-74.5 204q0 123 77 201t200 78q128 0 198.5 -79.5t70.5 -211.5l-1 -26h-390q4 -58 38 -91.5t86 -33.5q73 0 100 55zM191 323h230q-6 52 -35.5 80.5t-77.5 28.5t-79 -29t-38 -80zM388 596h-159l-104 119h137
l48 -51l47 51h137z" />
    <glyph glyph-name="Gcircumflex" unicode="&#x11c;" horiz-adv-x="791" 
d="M402 728q129 0 217.5 -64.5t122.5 -180.5l-179 -1q-47 109 -164 109q-90 0 -141.5 -63.5t-51.5 -167.5q0 -108 52.5 -171.5t144.5 -63.5q146 0 177 137q-32 -1 -92 -1h-128v133h382v-394h-153v38q0 9 0.5 22.5t0.5 17.5h-1q-32 -40 -89.5 -65.5t-131.5 -25.5
q-148 0 -240.5 103t-92.5 268q0 166 100 268t267 102zM322 876h160l106 -115h-137l-47 51l-48 -51h-137z" />
    <glyph glyph-name="gcircumflex" unicode="&#x11d;" horiz-adv-x="643" 
d="M46 -19h164q27 -64 100 -64q69 0 97.5 46t26.5 139h-2q-21 -35 -64.5 -57.5t-101.5 -22.5q-105 0 -168.5 71t-63.5 187q0 115 66 187.5t168 72.5q60 0 101.5 -23t62.5 -58q-2 21 -2 66h151v-443q0 -135 -71.5 -206.5t-205.5 -71.5q-111 0 -176.5 47t-81.5 130zM317 421
q-54 0 -86 -39.5t-32 -102.5q0 -61 31.5 -99.5t86.5 -38.5q51 0 84 38.5t33 104.5q0 61 -32 99t-85 38zM247 715h159l106 -119h-137l-47 51l-48 -51h-137z" />
    <glyph glyph-name="Gbreve" unicode="&#x11e;" horiz-adv-x="791" 
d="M402 728q129 0 217.5 -64.5t122.5 -180.5l-179 -1q-47 109 -164 109q-90 0 -141.5 -63.5t-51.5 -167.5q0 -108 52.5 -171.5t144.5 -63.5q146 0 177 137q-32 -1 -92 -1h-128v133h382v-394h-153v38q0 9 0.5 22.5t0.5 17.5h-1q-32 -40 -89.5 -65.5t-131.5 -25.5
q-148 0 -240.5 103t-92.5 268q0 166 100 268t267 102zM406 745q-63 0 -101.5 34.5t-46.5 96.5h95q9 -41 53 -41q40 0 53 41h94q-8 -62 -46.5 -96.5t-100.5 -34.5z" />
    <glyph glyph-name="gbreve" unicode="&#x11f;" horiz-adv-x="643" 
d="M46 -19h164q27 -64 100 -64q69 0 97.5 46t26.5 139h-2q-21 -35 -64.5 -57.5t-101.5 -22.5q-105 0 -168.5 71t-63.5 187q0 115 66 187.5t168 72.5q60 0 101.5 -23t62.5 -58q-2 21 -2 66h151v-443q0 -135 -71.5 -206.5t-205.5 -71.5q-111 0 -176.5 47t-81.5 130zM317 421
q-54 0 -86 -39.5t-32 -102.5q0 -61 31.5 -99.5t86.5 -38.5q51 0 84 38.5t33 104.5q0 61 -32 99t-85 38zM323 584q-63 0 -101.5 34.5t-46.5 96.5h95q9 -41 53 -41q40 0 53 41h94q-8 -62 -46.5 -96.5t-100.5 -34.5z" />
    <glyph glyph-name="Gdotaccent" unicode="&#x120;" horiz-adv-x="791" 
d="M402 728q129 0 217.5 -64.5t122.5 -180.5l-179 -1q-47 109 -164 109q-90 0 -141.5 -63.5t-51.5 -167.5q0 -108 52.5 -171.5t144.5 -63.5q146 0 177 137q-32 -1 -92 -1h-128v133h382v-394h-153v38q0 9 0.5 22.5t0.5 17.5h-1q-32 -40 -89.5 -65.5t-131.5 -25.5
q-148 0 -240.5 103t-92.5 268q0 166 100 268t267 102zM340 761v115h122v-115h-122z" />
    <glyph glyph-name="gdotaccent" unicode="&#x121;" horiz-adv-x="643" 
d="M46 -19h164q27 -64 100 -64q69 0 97.5 46t26.5 139h-2q-21 -35 -64.5 -57.5t-101.5 -22.5q-105 0 -168.5 71t-63.5 187q0 115 66 187.5t168 72.5q60 0 101.5 -23t62.5 -58q-2 21 -2 66h151v-443q0 -135 -71.5 -206.5t-205.5 -71.5q-111 0 -176.5 47t-81.5 130zM317 421
q-54 0 -86 -39.5t-32 -102.5q0 -61 31.5 -99.5t86.5 -38.5q51 0 84 38.5t33 104.5q0 61 -32 99t-85 38zM258 596v119h124v-119h-124z" />
    <glyph glyph-name="Gcommaaccent" unicode="&#x122;" horiz-adv-x="791" 
d="M402 728q129 0 217.5 -64.5t122.5 -180.5l-179 -1q-47 109 -164 109q-90 0 -141.5 -63.5t-51.5 -167.5q0 -108 52.5 -171.5t144.5 -63.5q146 0 177 137q-32 -1 -92 -1h-128v133h382v-394h-153v38q0 9 0.5 22.5t0.5 17.5h-1q-32 -40 -89.5 -65.5t-131.5 -25.5
q-148 0 -240.5 103t-92.5 268q0 166 100 268t267 102zM274 -163l93 114h146l-76 -114h-163z" />
    <glyph glyph-name="gcommaaccent" unicode="&#x123;" horiz-adv-x="643" 
d="M46 -19h164q27 -64 100 -64q69 0 97.5 46t26.5 139h-2q-21 -35 -64.5 -57.5t-101.5 -22.5q-105 0 -168.5 71t-63.5 187q0 115 66 187.5t168 72.5q60 0 101.5 -23t62.5 -58q-2 21 -2 66h151v-443q0 -135 -71.5 -206.5t-205.5 -71.5q-111 0 -176.5 47t-81.5 130zM317 421
q-54 0 -86 -39.5t-32 -102.5q0 -61 31.5 -99.5t86.5 -38.5q51 0 84 38.5t33 104.5q0 61 -32 99t-85 38zM474 715l-93 -114h-146l76 114h163z" />
    <glyph glyph-name="Hcircumflex" unicode="&#x124;" horiz-adv-x="736" 
d="M238 0h-164v715h164v-276h260v276h164v-715h-164v298h-260v-298zM284 876h160l106 -115h-137l-47 51l-48 -51h-137z" />
    <glyph glyph-name="hcircumflex" unicode="&#x125;" horiz-adv-x="616" 
d="M218 0h-156v715h156v-112q0 -94 -1 -138q47 73 155 73t157 -84q18 -33 24 -72.5t6 -112.5v-269h-156v254q0 84 -18.5 123t-67.5 39q-99 0 -99 -147v-269zM60 876h160l106 -115h-137l-47 51l-48 -51h-137z" />
    <glyph glyph-name="Hbar" unicode="&#x126;" horiz-adv-x="736" 
d="M238 0h-164v715h164v-68h260v68h164v-715h-164v298h-260v-298zM238 439h260v67h-260v-67z" />
    <glyph glyph-name="hbar" unicode="&#x127;" horiz-adv-x="616" 
d="M15 563v108h47v44h156v-44h51v-108h-51q0 -17 -0.5 -50t-0.5 -48q47 73 155 73t157 -84q18 -33 24 -72.5t6 -112.5v-269h-156v254q0 84 -18.5 123t-67.5 39q-99 0 -99 -147v-269h-156v563h-47z" />
    <glyph glyph-name="Itilde" unicode="&#x128;" horiz-adv-x="312" 
d="M239 0h-164v715h164v-715zM151 777q-36 18 -47 18q-25 0 -28 -31h-84q-1 51 27 86.5t78 35.5q29 0 69 -20q34 -17 48 -17q13 0 19 7.5t9 26.5h81q0 -55 -26.5 -90.5t-72.5 -35.5q-33 0 -73 20z" />
    <glyph glyph-name="itilde" unicode="&#x129;" horiz-adv-x="280" 
d="M219 0h-156v525h156v-525zM135 609q-36 18 -47 18q-25 0 -28 -31h-84q-1 51 27 86.5t78 35.5q29 0 69 -20q34 -17 48 -17q13 0 19 7.5t9 26.5h81q0 -55 -26.5 -90.5t-72.5 -35.5q-33 0 -73 20z" />
    <glyph glyph-name="Imacron" unicode="&#x12a;" horiz-adv-x="312" 
d="M238 0h-164v715h164v-715zM21 765v93h273v-93h-273z" />
    <glyph glyph-name="imacron" unicode="&#x12b;" horiz-adv-x="280" 
d="M218 0h-156v525h156v-525zM-7 606v93h273v-93h-273z" />
    <glyph glyph-name="Ibreve" unicode="&#x12c;" horiz-adv-x="312" 
d="M238 0h-164v715h164v-715zM158 745q-63 0 -101.5 34.5t-46.5 96.5h95q9 -41 53 -41q40 0 53 41h94q-8 -62 -46.5 -96.5t-100.5 -34.5z" />
    <glyph glyph-name="ibreve" unicode="&#x12d;" horiz-adv-x="280" 
d="M218 0h-156v525h156v-525zM141 584q-63 0 -101.5 34.5t-46.5 96.5h95q9 -41 53 -41q40 0 53 41h94q-8 -62 -46.5 -96.5t-100.5 -34.5z" />
    <glyph glyph-name="Iogonek" unicode="&#x12e;" horiz-adv-x="312" 
d="M238 0h-164v715h164v-715zM226 -49l93 -114h-163l-76 114h146z" />
    <glyph glyph-name="iogonek" unicode="&#x12f;" horiz-adv-x="280" 
d="M62 587v128h156v-128h-156zM218 0h-156v525h156v-525zM209 -49l93 -114h-163l-76 114h146z" />
    <glyph glyph-name="Idotaccent" unicode="&#x130;" horiz-adv-x="312" 
d="M238 0h-164v715h164v-715zM95 761v115h122v-115h-122z" />
    <glyph glyph-name="dotlessi" unicode="&#x131;" horiz-adv-x="280" 
d="M218 0h-156v525h156v-525z" />
    <glyph glyph-name="IJ" unicode="&#x132;" horiz-adv-x="850" 
d="M238 0h-164v715h164v-715zM553 -15q-113 0 -169 53.5t-56 152.5h160q6 -63 61 -63q42 0 55 31.5t13 109.5v446h165v-448q0 -142 -52 -212t-177 -70z" />
    <glyph glyph-name="ij" unicode="&#x133;" horiz-adv-x="560" 
d="M62 587v128h156v-128h-156zM218 0h-156v525h156v-525zM498 525v-524q0 -106 -40 -149.5t-143 -43.5q-39 0 -70 6v108q8 -1 17 -1q43 0 61.5 19.5t18.5 63.5v521h156zM342 587v128h156v-128h-156z" />
    <glyph glyph-name="Jcircumflex" unicode="&#x134;" horiz-adv-x="538" 
d="M241 -15q-113 0 -169 53.5t-56 152.5h160q6 -63 61 -63q42 0 55 31.5t13 109.5v446h165v-448q0 -142 -52 -212t-177 -70zM305 876h160l106 -115h-137l-47 51l-48 -51h-137z" />
    <glyph glyph-name="jcircumflex" unicode="&#x135;" horiz-adv-x="280" 
d="M218 525v-524q0 -106 -40 -149.5t-143 -43.5q-38 0 -70 6v108q8 -1 17 -1q43 0 61.5 19.5t18.5 63.5v521h156zM60 715h159l106 -119h-137l-47 51l-48 -51h-137z" />
    <glyph glyph-name="Kcommaaccent" unicode="&#x136;" horiz-adv-x="663" 
d="M238 0h-164v715h164v-317h2q31 48 64.5 96t88 122.5t71.5 98.5h197q-50 -64 -142.5 -179.5t-121.5 -152.5l281 -383h-202q-197 290 -236 355h-2v-355zM222 -163l93 114h146l-76 -114h-163z" />
    <glyph glyph-name="kcommaaccent" unicode="&#x137;" horiz-adv-x="582" 
d="M218 0h-156v715h156v-423h1q75 103 159 233h188q-28 -35 -76 -93t-79 -95.5t-41 -52.5q39 -57 218 -284h-198q-23 37 -65.5 98t-71.5 104t-34 56h-1v-258zM164 -163l93 114h146l-76 -114h-163z" />
    <glyph glyph-name="kgreenlandic" unicode="&#x138;" horiz-adv-x="582" 
d="M62 525h156v-233h1q75 103 159 233h188q-28 -35 -76 -93t-79 -95.5t-41 -52.5q39 -57 218 -284h-198q-23 37 -65.5 98t-71.5 104t-34 56h-1v-258h-156v525z" />
    <glyph glyph-name="Lacute" unicode="&#x139;" horiz-adv-x="559" 
d="M74 715h164v-574h300v-141h-464v715zM245 761h-162l104 115h197z" />
    <glyph glyph-name="lacute" unicode="&#x13a;" horiz-adv-x="286" 
d="M221 0h-156v715h156v-715zM224 761h-162l104 115h197z" />
    <glyph glyph-name="Lcommaaccent" unicode="&#x13b;" horiz-adv-x="559" 
d="M74 715h164v-574h300v-141h-464v715zM172 -163l93 114h146l-76 -114h-163z" />
    <glyph glyph-name="lcommaaccent" unicode="&#x13c;" horiz-adv-x="286" 
d="M221 0h-156v715h156v-715zM-5 -163l93 114h146l-76 -114h-163z" />
    <glyph glyph-name="Lcaron" unicode="&#x13d;" horiz-adv-x="561" 
d="M74 715h164v-574h300v-141h-464v715zM528 715l-93 -255h-134l72 255h155z" />
    <glyph glyph-name="lcaron" unicode="&#x13e;" horiz-adv-x="395" 
d="M221 0h-156v715h156v-715zM481 715l-93 -255h-134l72 255h155z" />
    <glyph glyph-name="Ldot" unicode="&#x13f;" horiz-adv-x="560" 
d="M74 715h164v-574h300v-141h-464v715zM318 322v166h163v-166h-163z" />
    <glyph glyph-name="ldot" unicode="&#x140;" horiz-adv-x="441" 
d="M221 0h-156v715h156v-715zM282 236v166h163v-166h-163z" />
    <glyph glyph-name="Lslash" unicode="&#x141;" horiz-adv-x="571" 
d="M86 715h164v-226l105 68v-134l-105 -68v-214h300v-141h-464v248l-76 -49v134l76 49v333z" />
    <glyph glyph-name="lslash" unicode="&#x142;" horiz-adv-x="325" 
d="M235 0h-156v276l-62 -40v134l62 40v305h156v-204l67 44v-134l-67 -44v-377z" />
    <glyph glyph-name="Nacute" unicode="&#x143;" horiz-adv-x="767" 
d="M693 715v-715h-209l-155 300q-83 160 -105 219h-1q2 -58 2 -227v-292h-151v715h212l182 -358q6 -11 76 -165h1q-3 88 -3 207v316h151zM438 761h-162l104 115h197z" />
    <glyph glyph-name="nacute" unicode="&#x144;" horiz-adv-x="616" 
d="M218 0h-156v445q0 53 -1 80h149v-72q18 36 59.5 60.5t102.5 24.5q108 0 157 -84q18 -33 24 -72.5t6 -112.5v-269h-156v254q0 84 -18.5 123t-67.5 39q-99 0 -99 -147v-269zM388 596h-168l104 119h205z" />
    <glyph glyph-name="Ncommaaccent" unicode="&#x145;" horiz-adv-x="767" 
d="M693 715v-715h-209l-155 300q-83 160 -105 219h-1q2 -58 2 -227v-292h-151v715h212l182 -358q6 -11 76 -165h1q-3 88 -3 207v316h151zM234 -163l93 114h146l-76 -114h-163z" />
    <glyph glyph-name="ncommaaccent" unicode="&#x146;" horiz-adv-x="616" 
d="M218 0h-156v445q0 53 -1 80h149v-72q18 36 59.5 60.5t102.5 24.5q108 0 157 -84q18 -33 24 -72.5t6 -112.5v-269h-156v254q0 84 -18.5 123t-67.5 39q-99 0 -99 -147v-269zM164 -163l93 114h146l-76 -114h-163z" />
    <glyph glyph-name="Ncaron" unicode="&#x147;" horiz-adv-x="767" 
d="M693 715v-715h-209l-155 300q-83 160 -105 219h-1q2 -58 2 -227v-292h-151v715h212l182 -358q6 -11 76 -165h1q-3 88 -3 207v316h151zM472 761h-160l-103 115h137l48 -51l47 51h137z" />
    <glyph glyph-name="ncaron" unicode="&#x148;" horiz-adv-x="616" 
d="M218 0h-156v445q0 53 -1 80h149v-72q18 36 59.5 60.5t102.5 24.5q108 0 157 -84q18 -33 24 -72.5t6 -112.5v-269h-156v254q0 84 -18.5 123t-67.5 39q-99 0 -99 -147v-269zM401 596h-159l-104 119h137l48 -51l47 51h137z" />
    <glyph glyph-name="napostrophe" unicode="&#x149;" horiz-adv-x="742" 
d="M344 0h-156v445q0 53 -1 80h149v-72q18 36 59.5 60.5t102.5 24.5q108 0 157 -84q18 -33 24 -72.5t6 -112.5v-269h-156v254q0 84 -18.5 123t-67.5 39q-99 0 -99 -147v-269zM214 715l-93 -255h-134l72 255h155z" />
    <glyph glyph-name="Eng" unicode="&#x14a;" horiz-adv-x="767" 
d="M693 715v-625q0 -141 -54.5 -211.5t-179.5 -70.5q-102 0 -157.5 51t-62.5 141h159q10 -58 67 -58t66 58h-47l-155 300q-83 160 -105 219h-1q2 -58 2 -227v-292h-151v715h212l182 -358q6 -11 76 -165h1q-3 88 -3 207v316h151z" />
    <glyph glyph-name="eng" unicode="&#x14b;" horiz-adv-x="616" 
d="M403 4v250q0 84 -18.5 123t-67.5 39q-99 0 -99 -147v-269h-156v445q0 53 -1 80h149v-72q18 36 59.5 60.5t102.5 24.5q108 0 157 -84q18 -33 24 -72.5t6 -112.5v-269q0 -105 -40.5 -148.5t-142.5 -43.5q-38 0 -70 6v108q8 -1 17 -1q43 0 61.5 19.5t18.5 63.5z" />
    <glyph glyph-name="Omacron" unicode="&#x14c;" horiz-adv-x="797" 
d="M398 728q164 0 264 -101t100 -270q0 -172 -99.5 -271t-265.5 -99q-164 0 -263 99t-99 271q0 169 100 270t263 101zM398 128q89 0 140 62t51 166q0 108 -51 171.5t-140 63.5q-90 0 -141 -63t-51 -172q0 -104 51.5 -166t140.5 -62zM264 765v93h273v-93h-273z" />
    <glyph glyph-name="omacron" unicode="&#x14d;" horiz-adv-x="628" 
d="M313 543q127 0 205.5 -78t78.5 -203q0 -124 -77.5 -201t-205.5 -77q-129 0 -206 77t-77 202q0 124 78 202t204 78zM312 420q-57 0 -88.5 -42.5t-31.5 -114.5q0 -74 31 -115t90 -41q58 0 89 41t31 114q0 72 -31 115t-90 43zM175 606v93h273v-93h-273z" />
    <glyph glyph-name="Obreve" unicode="&#x14e;" horiz-adv-x="797" 
d="M398 728q164 0 264 -101t100 -270q0 -172 -99.5 -271t-265.5 -99q-164 0 -263 99t-99 271q0 169 100 270t263 101zM398 128q89 0 140 62t51 166q0 108 -51 171.5t-140 63.5q-90 0 -141 -63t-51 -172q0 -104 51.5 -166t140.5 -62zM398 745q-63 0 -101.5 34.5t-46.5 96.5
h95q9 -41 53 -41q40 0 53 41h94q-8 -62 -46.5 -96.5t-100.5 -34.5z" />
    <glyph glyph-name="obreve" unicode="&#x14f;" horiz-adv-x="628" 
d="M313 543q127 0 205.5 -78t78.5 -203q0 -124 -77.5 -201t-205.5 -77q-129 0 -206 77t-77 202q0 124 78 202t204 78zM312 420q-57 0 -88.5 -42.5t-31.5 -114.5q0 -74 31 -115t90 -41q58 0 89 41t31 114q0 72 -31 115t-90 43zM316 584q-63 0 -101.5 34.5t-46.5 96.5h95
q9 -41 53 -41q40 0 53 41h94q-8 -62 -46.5 -96.5t-100.5 -34.5z" />
    <glyph glyph-name="Ohungarumlaut" unicode="&#x150;" horiz-adv-x="797" 
d="M398 728q164 0 264 -101t100 -270q0 -172 -99.5 -271t-265.5 -99q-164 0 -263 99t-99 271q0 169 100 270t263 101zM398 128q89 0 140 62t51 166q0 108 -51 171.5t-140 63.5q-90 0 -141 -63t-51 -172q0 -104 51.5 -166t140.5 -62zM332 761h-155l105 115h190zM581 761h-155
l105 115h190z" />
    <glyph glyph-name="ohungarumlaut" unicode="&#x151;" horiz-adv-x="628" 
d="M313 543q127 0 205.5 -78t78.5 -203q0 -124 -77.5 -201t-205.5 -77q-129 0 -206 77t-77 202q0 124 78 202t204 78zM312 420q-57 0 -88.5 -42.5t-31.5 -114.5q0 -74 31 -115t90 -41q58 0 89 41t31 114q0 72 -31 115t-90 43zM247 596h-155l107 119h190zM496 596h-155
l107 119h190z" />
    <glyph glyph-name="OE" unicode="&#x152;" horiz-adv-x="1094" 
d="M737 292v-152h314v-140h-472v37q-81 -51 -191 -51q-165 0 -259 102.5t-94 267.5q0 164 96 267.5t257 103.5q111 0 191 -52v40h468v-140h-310v-145h285v-138h-285zM396 128q88 0 138.5 61.5t50.5 166.5q0 109 -50 172t-139 63t-139.5 -63t-50.5 -172q0 -105 50.5 -166.5
t139.5 -61.5z" />
    <glyph glyph-name="oe" unicode="&#x153;" horiz-adv-x="983" 
d="M790 156h159q-25 -79 -92 -125.5t-170 -46.5q-113 0 -186 67q-77 -67 -188 -67q-129 0 -205 77t-76 202q0 124 77 202t203 78q114 0 191 -71q76 71 187 71q128 0 197.5 -79.5t69.5 -211.5l-1 -26h-386q4 -58 37 -91.5t85 -33.5q70 0 98 55zM311 420q-57 0 -87.5 -42.5
t-30.5 -114.5q0 -74 30 -115t89 -41q58 0 88 41t30 114t-30.5 115.5t-88.5 42.5zM574 323h226q-13 109 -111 109q-47 0 -77.5 -28.5t-37.5 -80.5z" />
    <glyph glyph-name="Racute" unicode="&#x154;" horiz-adv-x="648" 
d="M237 258v-258h-163v715h264q130 0 193 -44q81 -59 81 -167q0 -87 -44.5 -141t-113.5 -77l179 -286h-184l-151 258h-61zM237 576v-187h92q59 0 91 24t32 70q0 49 -33.5 71t-100.5 22h-81zM365 761h-162l104 115h197z" />
    <glyph glyph-name="racute" unicode="&#x155;" horiz-adv-x="400" 
d="M62 0v430q0 62 -1 95h145q0 -47 -2 -83h2q38 96 146 96q22 0 32 -2v-142q-17 4 -41 4q-34 0 -57 -9.5t-36.5 -25.5t-20.5 -48t-9 -64t-2 -86v-165h-156zM222 596h-168l104 119h205z" />
    <glyph glyph-name="Rcommaaccent" unicode="&#x156;" horiz-adv-x="648" 
d="M237 258v-258h-163v715h264q130 0 193 -44q81 -59 81 -167q0 -87 -44.5 -141t-113.5 -77l179 -286h-184l-151 258h-61zM237 576v-187h92q59 0 91 24t32 70q0 49 -33.5 71t-100.5 22h-81zM173 -163l93 114h146l-76 -114h-163z" />
    <glyph glyph-name="rcommaaccent" unicode="&#x157;" horiz-adv-x="400" 
d="M62 0v430q0 62 -1 95h145q0 -47 -2 -83h2q38 96 146 96q22 0 32 -2v-142q-17 4 -41 4q-34 0 -57 -9.5t-36.5 -25.5t-20.5 -48t-9 -64t-2 -86v-165h-156zM-6 -163l93 114h146l-76 -114h-163z" />
    <glyph glyph-name="Rcaron" unicode="&#x158;" horiz-adv-x="648" 
d="M237 258v-258h-163v715h264q130 0 193 -44q81 -59 81 -167q0 -87 -44.5 -141t-113.5 -77l179 -286h-184l-151 258h-61zM237 576v-187h92q59 0 91 24t32 70q0 49 -33.5 71t-100.5 22h-81zM396 761h-160l-103 115h137l48 -51l47 51h137z" />
    <glyph glyph-name="rcaron" unicode="&#x159;" horiz-adv-x="400" 
d="M62 0v430q0 62 -1 95h145q0 -47 -2 -83h2q38 96 146 96q22 0 32 -2v-142q-17 4 -41 4q-34 0 -57 -9.5t-36.5 -25.5t-20.5 -48t-9 -64t-2 -86v-165h-156zM260 596h-159l-104 119h137l48 -51l47 51h137z" />
    <glyph glyph-name="Sacute" unicode="&#x15a;" horiz-adv-x="631" 
d="M27 217h168q15 -98 126 -98q50 0 80 23t30 60q0 34 -24 49t-90 34l-49 14q-119 34 -170 83t-51 132q0 96 74 155t196 59q119 0 190.5 -56.5t76.5 -158.5h-164q-16 85 -109 85q-44 0 -68.5 -20t-24.5 -52q1 -33 21.5 -49t67.5 -30l55 -16q129 -37 183.5 -83.5t54.5 -137.5
q0 -102 -78.5 -162.5t-207.5 -60.5t-206 61.5t-81 168.5zM375 761h-162l104 115h197z" />
    <glyph glyph-name="sacute" unicode="&#x15b;" horiz-adv-x="560" 
d="M24 172h161q15 -77 103 -77q37 0 60 13.5t23 35.5q0 23 -19.5 34t-68.5 23l-67 18q-92 26 -132.5 60t-40.5 100q0 75 62.5 119.5t173.5 44.5q104 0 168 -43t72 -127h-152q-19 61 -93 61q-35 0 -54 -12t-19 -33q0 -23 21.5 -34t85.5 -27l35 -9q105 -27 147 -62t42 -103
q0 -79 -65 -124.5t-181 -45.5q-122 0 -186 46t-76 142zM333 596h-168l104 119h205z" />
    <glyph glyph-name="Scircumflex" unicode="&#x15c;" horiz-adv-x="631" 
d="M27 217h168q15 -98 126 -98q50 0 80 23t30 60q0 34 -24 49t-90 34l-49 14q-119 34 -170 83t-51 132q0 96 74 155t196 59q119 0 190.5 -56.5t76.5 -158.5h-164q-16 85 -109 85q-44 0 -68.5 -20t-24.5 -52q1 -33 21.5 -49t67.5 -30l55 -16q129 -37 183.5 -83.5t54.5 -137.5
q0 -102 -78.5 -162.5t-207.5 -60.5t-206 61.5t-81 168.5zM237 876h160l106 -115h-137l-47 51l-48 -51h-137z" />
    <glyph glyph-name="scircumflex" unicode="&#x15d;" horiz-adv-x="560" 
d="M24 172h161q15 -77 103 -77q37 0 60 13.5t23 35.5q0 23 -19.5 34t-68.5 23l-67 18q-92 26 -132.5 60t-40.5 100q0 75 62.5 119.5t173.5 44.5q104 0 168 -43t72 -127h-152q-19 61 -93 61q-35 0 -54 -12t-19 -33q0 -23 21.5 -34t85.5 -27l35 -9q105 -27 147 -62t42 -103
q0 -79 -65 -124.5t-181 -45.5q-122 0 -186 46t-76 142zM201 715h159l106 -119h-137l-47 51l-48 -51h-137z" />
    <glyph glyph-name="Scedilla" unicode="&#x15e;" horiz-adv-x="631" 
d="M27 217h168q15 -98 126 -98q50 0 80 23t30 60q0 34 -24 49t-90 34l-49 14q-119 34 -170 83t-51 132q0 96 74 155t196 59q119 0 190.5 -56.5t76.5 -158.5h-164q-16 85 -109 85q-44 0 -68.5 -20t-24.5 -52q1 -33 21.5 -49t67.5 -30l55 -16q129 -37 183.5 -83.5t54.5 -137.5
q0 -102 -78.5 -162.5t-207.5 -60.5t-206 61.5t-81 168.5zM161 -163l93 114h146l-76 -114h-163z" />
    <glyph glyph-name="scedilla" unicode="&#x15f;" horiz-adv-x="560" 
d="M24 172h161q15 -77 103 -77q37 0 60 13.5t23 35.5q0 23 -19.5 34t-68.5 23l-67 18q-92 26 -132.5 60t-40.5 100q0 75 62.5 119.5t173.5 44.5q104 0 168 -43t72 -127h-152q-19 61 -93 61q-35 0 -54 -12t-19 -33q0 -23 21.5 -34t85.5 -27l35 -9q105 -27 147 -62t42 -103
q0 -79 -65 -124.5t-181 -45.5q-122 0 -186 46t-76 142zM131 -163l93 114h146l-76 -114h-163z" />
    <glyph glyph-name="Scaron" unicode="&#x160;" horiz-adv-x="631" 
d="M27 217h168q15 -98 126 -98q50 0 80 23t30 60q0 34 -24 49t-90 34l-49 14q-119 34 -170 83t-51 132q0 96 74 155t196 59q119 0 190.5 -56.5t76.5 -158.5h-164q-16 85 -109 85q-44 0 -68.5 -20t-24.5 -52q1 -33 21.5 -49t67.5 -30l55 -16q129 -37 183.5 -83.5t54.5 -137.5
q0 -102 -78.5 -162.5t-207.5 -60.5t-206 61.5t-81 168.5zM399 761h-160l-103 115h137l48 -51l47 51h137z" />
    <glyph glyph-name="scaron" unicode="&#x161;" horiz-adv-x="560" 
d="M24 172h161q15 -77 103 -77q37 0 60 13.5t23 35.5q0 23 -19.5 34t-68.5 23l-67 18q-92 26 -132.5 60t-40.5 100q0 75 62.5 119.5t173.5 44.5q104 0 168 -43t72 -127h-152q-19 61 -93 61q-35 0 -54 -12t-19 -33q0 -23 21.5 -34t85.5 -27l35 -9q105 -27 147 -62t42 -103
q0 -79 -65 -124.5t-181 -45.5q-122 0 -186 46t-76 142zM360 596h-159l-104 119h137l48 -51l47 51h137z" />
    <glyph glyph-name="uni0162" unicode="&#x162;" horiz-adv-x="586" 
d="M138 -163l93 114h146l-76 -114h-163zM375 0h-164v574h-189v141h542v-141h-189v-574z" />
    <glyph glyph-name="uni0163" unicode="&#x163;" horiz-adv-x="375" 
d="M71 -163l93 114h146l-76 -114h-163zM94 412h-79v113h79v140h156v-140h95v-113h-95v-179q0 -78 10 -102.5t52 -24.5q14 0 27 3v-115q-30 -6 -62 -6q-99 0 -141 40t-42 146v238z" />
    <glyph glyph-name="Tcaron" unicode="&#x164;" horiz-adv-x="586" 
d="M375 0h-164v574h-189v141h542v-141h-189v-574zM372 761h-160l-103 115h137l48 -51l47 51h137z" />
    <glyph glyph-name="tcaron" unicode="&#x165;" horiz-adv-x="496" 
d="M94 412h-79v113h79v140h156v-140h95v-113h-95v-179q0 -78 10 -102.5t52 -24.5q14 0 27 3v-115q-30 -6 -62 -6q-99 0 -141 40t-42 146v238zM600 715l-93 -255h-134l72 255h155z" />
    <glyph glyph-name="Tbar" unicode="&#x166;" horiz-adv-x="600" 
d="M78 294v138h140v142h-189v141h542v-141h-189v-142h143v-138h-143v-294h-164v294h-140z" />
    <glyph glyph-name="tbar" unicode="&#x167;" horiz-adv-x="378" 
d="M97 412h-79v113h79v140h156v-140h95v-113h-95v-66h95v-108h-95v-5q0 -78 10 -102.5t52 -24.5q13 0 27 3v-115q-30 -6 -62 -6q-99 0 -141 40t-42 146v64h-79v108h79v66z" />
    <glyph glyph-name="Utilde" unicode="&#x168;" horiz-adv-x="708" 
d="M354 128q123 0 123 166v421h164v-426q0 -129 -56 -203q-73 -98 -231 -98t-231 98q-56 74 -56 203v426h164v-421q0 -166 123 -166zM357 777q-36 18 -47 18q-25 0 -28 -31h-84q-1 51 27 86.5t78 35.5q29 0 69 -20q34 -17 48 -17q13 0 19 7.5t9 26.5h81q0 -55 -26.5 -90.5
t-72.5 -35.5q-33 0 -73 20z" />
    <glyph glyph-name="utilde" unicode="&#x169;" horiz-adv-x="612" 
d="M394 525h156v-445q0 -53 1 -80h-149v72q-19 -37 -58.5 -61t-99.5 -24q-108 0 -157 84q-18 33 -24 72.5t-6 112.5v269h156v-254q0 -84 18 -123t66 -39q97 0 97 147v269zM302 609q-36 18 -47 18q-25 0 -28 -31h-84q-1 51 27 86.5t78 35.5q29 0 69 -20q34 -17 48 -17
q13 0 19 7.5t9 26.5h81q0 -55 -26.5 -90.5t-72.5 -35.5q-33 0 -73 20z" />
    <glyph glyph-name="Umacron" unicode="&#x16a;" horiz-adv-x="708" 
d="M354 128q123 0 123 166v421h164v-426q0 -129 -56 -203q-73 -98 -231 -98t-231 98q-56 74 -56 203v426h164v-421q0 -166 123 -166zM220 765v93h273v-93h-273z" />
    <glyph glyph-name="umacron" unicode="&#x16b;" horiz-adv-x="612" 
d="M394 525h156v-445q0 -53 1 -80h-149v72q-19 -37 -58.5 -61t-99.5 -24q-108 0 -157 84q-18 33 -24 72.5t-6 112.5v269h156v-254q0 -84 18 -123t66 -39q97 0 97 147v269zM171 606v93h273v-93h-273z" />
    <glyph glyph-name="Ubreve" unicode="&#x16c;" horiz-adv-x="708" 
d="M354 128q123 0 123 166v421h164v-426q0 -129 -56 -203q-73 -98 -231 -98t-231 98q-56 74 -56 203v426h164v-421q0 -166 123 -166zM358 745q-63 0 -101.5 34.5t-46.5 96.5h95q9 -41 53 -41q40 0 53 41h94q-8 -62 -46.5 -96.5t-100.5 -34.5z" />
    <glyph glyph-name="ubreve" unicode="&#x16d;" horiz-adv-x="612" 
d="M394 525h156v-445q0 -53 1 -80h-149v72q-19 -37 -58.5 -61t-99.5 -24q-108 0 -157 84q-18 33 -24 72.5t-6 112.5v269h156v-254q0 -84 18 -123t66 -39q97 0 97 147v269zM313 584q-63 0 -101.5 34.5t-46.5 96.5h95q9 -41 53 -41q40 0 53 41h94q-8 -62 -46.5 -96.5
t-100.5 -34.5z" />
    <glyph glyph-name="Uring" unicode="&#x16e;" horiz-adv-x="708" 
d="M354 128q123 0 123 166v421h164v-426q0 -129 -56 -203q-73 -98 -231 -98t-231 98q-56 74 -56 203v426h164v-421q0 -166 123 -166zM356 738q-45 0 -76 32t-31 77q0 44 32 75.5t76 31.5q45 0 76.5 -31.5t31.5 -75.5q0 -45 -31.5 -77t-77.5 -32zM317 847q0 -17 11.5 -29
t27.5 -12q17 0 28.5 11.5t11.5 29.5q0 16 -11.5 27.5t-28.5 11.5q-16 0 -27.5 -11.5t-11.5 -27.5z" />
    <glyph glyph-name="uring" unicode="&#x16f;" horiz-adv-x="612" 
d="M394 525h156v-445q0 -53 1 -80h-149v72q-19 -37 -58.5 -61t-99.5 -24q-108 0 -157 84q-18 33 -24 72.5t-6 112.5v269h156v-254q0 -84 18 -123t66 -39q97 0 97 147v269zM311 568q-45 0 -76 32t-31 77q0 44 32 75.5t76 31.5q45 0 76.5 -31.5t31.5 -75.5q0 -45 -31.5 -77
t-77.5 -32zM272 677q0 -17 11.5 -29t27.5 -12q17 0 28.5 11.5t11.5 29.5q0 16 -11.5 27.5t-28.5 11.5q-16 0 -27.5 -11.5t-11.5 -27.5z" />
    <glyph glyph-name="Uhungarumlaut" unicode="&#x170;" horiz-adv-x="708" 
d="M354 128q123 0 123 166v421h164v-426q0 -129 -56 -203q-73 -98 -231 -98t-231 98q-56 74 -56 203v426h164v-421q0 -166 123 -166zM290 761h-155l105 115h190zM539 761h-155l105 115h190z" />
    <glyph glyph-name="uhungarumlaut" unicode="&#x171;" horiz-adv-x="612" 
d="M394 525h156v-445q0 -53 1 -80h-149v72q-19 -37 -58.5 -61t-99.5 -24q-108 0 -157 84q-18 33 -24 72.5t-6 112.5v269h156v-254q0 -84 18 -123t66 -39q97 0 97 147v269zM240 596h-155l107 119h190zM489 596h-155l107 119h190z" />
    <glyph glyph-name="Uogonek" unicode="&#x172;" horiz-adv-x="708" 
d="M354 128q123 0 123 166v421h164v-426q0 -129 -56 -203q-73 -98 -231 -98t-231 98q-56 74 -56 203v426h164v-421q0 -166 123 -166zM404 -49l93 -114h-163l-76 114h146z" />
    <glyph glyph-name="uogonek" unicode="&#x173;" horiz-adv-x="612" 
d="M394 525h156v-445q0 -53 1 -80h-149v72q-19 -37 -58.5 -61t-99.5 -24q-108 0 -157 84q-18 33 -24 72.5t-6 112.5v269h156v-254q0 -84 18 -123t66 -39q97 0 97 147v269zM350 -49l93 -114h-163l-76 114h146z" />
    <glyph glyph-name="Wcircumflex" unicode="&#x174;" horiz-adv-x="966" 
d="M950 715q-24 -120 -73 -358t-73 -357h-215l-75 406q-11 57 -26 169h-3q-10 -73 -27 -164l-78 -411h-219q-24 120 -72 357.5t-73 357.5h166q10 -56 27.5 -167.5t27.5 -166.5l14 -79q8 -50 23 -161h4q15 102 42 240l65 334h211l59 -318q31 -163 42 -258h4q5 54 25 163
l72 413h152zM406 876h160l106 -115h-137l-47 51l-48 -51h-137z" />
    <glyph glyph-name="wcircumflex" unicode="&#x175;" horiz-adv-x="856" 
d="M160 0q-28 97 -78.5 280t-68.5 245h160l46 -193q10 -43 22 -108t16 -86h3q22 116 43 205l41 182h169l44 -185q11 -46 43 -204h2l42 203l42 186h158q-27 -95 -77 -271.5t-71 -253.5h-189l-39 160q-32 132 -39 177h-3q-15 -78 -39 -176l-39 -161h-188zM349 715h159
l106 -119h-137l-47 51l-48 -51h-137z" />
    <glyph glyph-name="Ycircumflex" unicode="&#x176;" horiz-adv-x="622" 
d="M629 715l-236 -447v-268h-164v268q-149 287 -233 447h183l137 -295h2q40 96 135 295h176zM236 876h160l106 -115h-137l-47 51l-48 -51h-137z" />
    <glyph glyph-name="ycircumflex" unicode="&#x177;" horiz-adv-x="550" 
d="M136 -180q49 150 61 187q-21 56 -91 238.5t-104 279.5h166q19 -64 56 -180t53 -174h5q17 74 99 354h161q-35 -96 -139 -396t-107 -309h-160zM202 715h159l106 -119h-137l-47 51l-48 -51h-137z" />
    <glyph glyph-name="Ydieresis" unicode="&#x178;" horiz-adv-x="622" 
d="M629 715l-236 -447v-268h-164v268q-149 287 -233 447h183l137 -295h2q40 96 135 295h176zM152 754v119h124v-119h-124zM348 754v119h123v-119h-123z" />
    <glyph glyph-name="Zacute" unicode="&#x179;" horiz-adv-x="597" 
d="M35 0v131l222 304l101 140q-44 -1 -124 -1h-186v141h500v-132q-25 -36 -75 -103l-144 -199q-25 -35 -105 -141q47 1 130 1h210v-141h-529zM360 761h-162l104 115h197z" />
    <glyph glyph-name="zacute" unicode="&#x17a;" horiz-adv-x="527" 
d="M35 0v114q41 45 101.5 114.5t103 118.5t56.5 63q0 1 -1 1q-42 -2 -123 -2h-128v116h436v-114q-89 -99 -260 -295v-1q90 2 133 2h142v-117h-460zM326 596h-168l104 119h205z" />
    <glyph glyph-name="Zdotaccent" unicode="&#x17b;" horiz-adv-x="597" 
d="M35 0v131l222 304l101 140q-44 -1 -124 -1h-186v141h500v-132q-25 -36 -75 -103l-144 -199q-25 -35 -105 -141q47 1 130 1h210v-141h-529zM236 761v115h122v-115h-122z" />
    <glyph glyph-name="zdotaccent" unicode="&#x17c;" horiz-adv-x="527" 
d="M35 0v114q41 45 101.5 114.5t103 118.5t56.5 63q0 1 -1 1q-42 -2 -123 -2h-128v116h436v-114q-89 -99 -260 -295v-1q90 2 133 2h142v-117h-460zM201 596v119h124v-119h-124z" />
    <glyph glyph-name="Zcaron" unicode="&#x17d;" horiz-adv-x="597" 
d="M35 0v131l222 304l101 140q-44 -1 -124 -1h-186v141h500v-132q-25 -36 -75 -103l-144 -199q-25 -35 -105 -141q47 1 130 1h210v-141h-529zM388 761h-160l-103 115h137l48 -51l47 51h137z" />
    <glyph glyph-name="zcaron" unicode="&#x17e;" horiz-adv-x="527" 
d="M35 0v114q41 45 101.5 114.5t103 118.5t56.5 63q0 1 -1 1q-42 -2 -123 -2h-128v116h436v-114q-89 -99 -260 -295v-1q90 2 133 2h142v-117h-460zM347 596h-159l-104 119h137l48 -51l47 51h137z" />
    <glyph glyph-name="uni0186" unicode="&#x186;" horiz-adv-x="763" 
d="M23 224h183q51 -96 159 -96q89 0 140.5 62t51.5 166q0 109 -51 172t-141 63q-118 0 -165 -109l-179 1q34 115 124 180t219 65q164 0 264 -101t100 -270q0 -172 -99 -271t-263 -99q-130 0 -219 62t-124 175z" />
    <glyph glyph-name="uni018F" unicode="&#x18f;" horiz-adv-x="779" 
d="M27 404h545q-8 88 -58 137t-132 49q-108 0 -158 -88l-180 5q34 96 124 158.5t217 62.5q163 0 261 -102.5t98 -267.5q0 -164 -96.5 -267.5t-267.5 -103.5q-174 0 -264.5 106t-90.5 270q0 11 2 41zM211 288q2 -76 46 -121.5t125 -45.5q78 0 127 49.5t57 117.5h-355z" />
    <glyph glyph-name="uni0190" unicode="&#x190;" horiz-adv-x="601" 
d="M422 217h162q-3 -110 -75.5 -171.5t-197.5 -61.5q-127 0 -201.5 60t-74.5 160q0 136 144 182v2q-56 19 -85 53.5t-29 96.5q0 87 66.5 140.5t175.5 53.5q113 0 180 -58t69 -155h-155q-1 42 -25 63.5t-63 21.5q-38 0 -61.5 -20t-23.5 -54q0 -89 131 -89v-127h-13
q-144 0 -144 -100q0 -46 28 -73t81 -27q50 0 78.5 26.5t32.5 76.5z" />
    <glyph glyph-name="florin" unicode="&#x192;" horiz-adv-x="473" 
d="M44 359l18 124h106l1 4q16 119 68.5 179.5t153.5 60.5q41 0 66 -6l-16 -134q-21 7 -38 7q-36 0 -53 -26t-26 -85h106l-18 -124h-105l-38 -274q-20 -146 -67 -205t-152 -59q-48 0 -83 12l14 122q23 -8 48 -8q41 0 58.5 33.5t26.5 103.5l37 275h-107z" />
    <glyph glyph-name="uni019D" unicode="&#x19d;" horiz-adv-x="767" 
d="M74 715h212l182 -358q6 -11 76 -165h1q-3 88 -3 207v316h151v-715h-209l-155 300q-83 160 -105 219h-1q2 -58 2 -227v-291q0 -106 -40 -149.5t-143 -43.5q-33 0 -65 6v108q8 -1 17 -1q43 0 61.5 19.5t18.5 63.5v711z" />
    <glyph glyph-name="uni019F" unicode="&#x19f;" horiz-adv-x="797" 
d="M398 728q164 0 264 -101t100 -270q0 -172 -99.5 -271t-265.5 -99q-164 0 -263 99t-99 271q0 169 100 270t263 101zM398 128q74 0 122.5 43.5t62.5 120.5h-371q14 -77 62.5 -120.5t123.5 -43.5zM398 591q-73 0 -120.5 -42t-64.5 -118h368q-16 76 -63.5 118t-119.5 42z" />
    <glyph glyph-name="Ohorn" unicode="&#x1a0;" horiz-adv-x="797" 
d="M398 728q164 0 264 -101t100 -270q0 -172 -99.5 -271t-265.5 -99q-164 0 -263 99t-99 271q0 169 100 270t263 101zM398 128q89 0 140 62t51 166q0 108 -51 171.5t-140 63.5q-90 0 -141 -63t-51 -172q0 -104 51.5 -166t140.5 -62zM775 906l-85 -191h-130l55 191h160z" />
    <glyph glyph-name="ohorn" unicode="&#x1a1;" horiz-adv-x="630" 
d="M313 543q127 0 205.5 -78t78.5 -203q0 -124 -77.5 -201t-205.5 -77q-129 0 -206 77t-77 202q0 124 78 202t204 78zM312 420q-57 0 -88.5 -42.5t-31.5 -114.5q0 -74 31 -115t90 -41q58 0 89 41t31 114q0 72 -31 115t-90 43zM669 715l-85 -191h-130l55 191h160z" />
    <glyph glyph-name="Uhorn" unicode="&#x1af;" horiz-adv-x="708" 
d="M637 906l-85 -191h89v-426q0 -129 -56 -203q-73 -98 -231 -98t-231 98q-56 74 -56 203v426h164v-421q0 -166 123 -166t123 166v421h-55l55 191h160z" />
    <glyph glyph-name="uhorn" unicode="&#x1b0;" horiz-adv-x="612" 
d="M563 715l-85 -190h72v-445q0 -53 1 -80h-149v72q-19 -37 -58.5 -61t-99.5 -24q-108 0 -157 84q-18 33 -24 72.5t-6 112.5v269h156v-254q0 -84 18 -123t66 -39q97 0 97 147v268h-46l55 191h160z" />
    <glyph glyph-name="uni01C4" unicode="&#x1c4;" horiz-adv-x="1336" 
d="M74 0v715h178q68 0 103 -1q161 -6 254.5 -99t93.5 -255q0 -95 -40 -180t-105 -120q-56 -38 -124 -49t-184 -11h-176zM774 0v131l222 304l101 140q-44 -1 -124 -1h-186v141h500v-132q-25 -36 -75 -103l-144 -199q-25 -35 -105 -141q47 1 130 1h210v-141h-529zM238 577
v-438h56q65 0 107 13q129 38 129 207q0 163 -129 205q-39 13 -97 13h-66zM1127 761h-160l-103 115h137l48 -51l47 51h137z" />
    <glyph glyph-name="uni01C5" unicode="&#x1c5;" horiz-adv-x="1266" 
d="M74 0v715h178q68 0 103 -1q161 -6 254.5 -99t93.5 -255q0 -95 -40 -180t-105 -120q-56 -38 -124 -49t-184 -11h-176zM238 577v-438h56q65 0 107 13q129 38 129 207q0 163 -129 205q-39 13 -97 13h-66zM774 0v114q41 45 101.5 114.5t103 118.5t56.5 63q0 1 -1 1
q-42 -2 -123 -2h-128v116h436v-114q-88 -99 -260 -295v-1q90 2 133 2h142v-117h-460zM1086 596h-159l-104 119h137l48 -51l47 51h137z" />
    <glyph glyph-name="uni01C6" unicode="&#x1c6;" horiz-adv-x="1168" 
d="M579 0h-147q0 53 1 70q-52 -83 -165 -83q-106 0 -170.5 75t-64.5 200q0 127 65 202.5t168 75.5q102 0 158 -70q0 13 -0.5 53.5t-0.5 53.5v138h156v-715zM316 421q-54 0 -86 -43.5t-32 -112.5t32 -113t86 -44q55 0 86 44t31 116q0 69 -32 111t-85 42zM676 0v114
q41 45 101.5 114.5t103 118.5t56.5 63q0 1 -1 1q-42 -2 -123 -2h-128v116h436v-114q-89 -99 -260 -295v-1q90 2 133 2h142v-117h-460zM988 596h-159l-104 119h137l48 -51l47 51h137z" />
    <glyph glyph-name="uni01C7" unicode="&#x1c7;" horiz-adv-x="1097" 
d="M74 715h164v-574h300v-141h-464v715zM800 -15q-113 0 -169 53.5t-56 152.5h160q6 -63 61 -63q42 0 55 31.5t13 109.5v446h165v-448q0 -142 -52 -212t-177 -70z" />
    <glyph glyph-name="uni01C8" unicode="&#x1c8;" horiz-adv-x="839" 
d="M74 715h164v-574h300v-141h-464v715zM777 525v-524q0 -106 -40 -149.5t-143 -43.5q-38 0 -70 6v108q8 -1 17 -1q43 0 61.5 19.5t18.5 63.5v521h156zM621 587v128h156v-128h-156z" />
    <glyph glyph-name="uni01C9" unicode="&#x1c9;" horiz-adv-x="566" 
d="M221 0h-156v715h156v-715zM504 525v-524q0 -106 -40 -149.5t-143 -43.5q-39 0 -70 6v108q8 -1 17 -1q43 0 61.5 19.5t18.5 63.5v521h156zM348 587v128h156v-128h-156z" />
    <glyph glyph-name="uni01CA" unicode="&#x1ca;" horiz-adv-x="1305" 
d="M693 715v-715h-209l-155 300q-83 160 -105 219h-1q2 -58 2 -227v-292h-151v715h212l182 -358q6 -11 76 -165h1q-3 88 -3 207v316h151zM1008 -15q-113 0 -169 53.5t-56 152.5h160q6 -63 61 -63q42 0 55 31.5t13 109.5v446h165v-448q0 -142 -52 -212t-177 -70z" />
    <glyph glyph-name="uni01CB" unicode="&#x1cb;" horiz-adv-x="1047" 
d="M693 715v-715h-209l-155 300q-83 160 -105 219h-1q2 -58 2 -227v-292h-151v715h212l182 -358q6 -11 76 -165h1q-3 88 -3 207v316h151zM985 525v-524q0 -106 -40 -149.5t-143 -43.5q-38 0 -70 6v108q8 -1 17 -1q43 0 61.5 19.5t18.5 63.5v521h156zM829 587v128h156v-128
h-156z" />
    <glyph glyph-name="uni01CC" unicode="&#x1cc;" horiz-adv-x="896" 
d="M218 0h-156v445q0 53 -1 80h149v-72q18 36 59.5 60.5t102.5 24.5q108 0 157 -84q18 -33 24 -72.5t6 -112.5v-269h-156v254q0 84 -18.5 123t-67.5 39q-99 0 -99 -147v-269zM834 525v-524q0 -106 -40 -149.5t-143 -43.5q-39 0 -70 6v108q8 -1 17 -1q43 0 61.5 19.5
t18.5 63.5v521h156zM678 587v128h156v-128h-156z" />
    <glyph glyph-name="uni01F1" unicode="&#x1f1;" horiz-adv-x="1325" 
d="M74 0v715h178q68 0 103 -1q161 -6 254.5 -99t93.5 -255q0 -95 -40 -180t-105 -120q-56 -38 -124 -49t-184 -11h-176zM763 0v131l222 304l101 140q-44 -1 -124 -1h-186v141h500v-132q-25 -36 -75 -103l-144 -199q-25 -35 -105 -141q47 1 130 1h210v-141h-529zM238 577
v-438h56q65 0 107 13q129 38 129 207q0 163 -129 205q-39 13 -97 13h-66z" />
    <glyph glyph-name="uni01F2" unicode="&#x1f2;" horiz-adv-x="1266" 
d="M74 0v715h178q68 0 103 -1q161 -6 254.5 -99t93.5 -255q0 -95 -40 -180t-105 -120q-56 -38 -124 -49t-184 -11h-176zM238 577v-438h56q65 0 107 13q129 38 129 207q0 163 -129 205q-39 13 -97 13h-66zM774 0v114q41 45 101.5 114.5t103 118.5t56.5 63q0 1 -1 1
q-42 -2 -123 -2h-128v116h436v-114q-88 -99 -260 -295v-1q90 2 133 2h142v-117h-460z" />
    <glyph glyph-name="uni01F3" unicode="&#x1f3;" horiz-adv-x="1168" 
d="M579 0h-147q0 53 1 70q-52 -83 -165 -83q-106 0 -170.5 75t-64.5 200q0 127 65 202.5t168 75.5q102 0 158 -70q0 13 -0.5 53.5t-0.5 53.5v138h156v-715zM316 421q-54 0 -86 -43.5t-32 -112.5t32 -113t86 -44q55 0 86 44t31 116q0 69 -32 111t-85 42zM676 0v114
q41 45 101.5 114.5t103 118.5t56.5 63q0 1 -1 1q-42 -2 -123 -2h-128v116h436v-114q-89 -99 -260 -295v-1q90 2 133 2h142v-117h-460z" />
    <glyph glyph-name="Aringacute" unicode="&#x1fa;" horiz-adv-x="720" 
d="M-10 0q117 320 274 715h197l267 -715h-172q-8 23 -29.5 80t-33.5 89h-270l-64 -169h-169zM267 299h181q-15 47 -45.5 139.5t-44.5 140.5h-2q-19 -68 -89 -280zM356 730q-45 0 -76 32t-31 77q0 44 32 75.5t76 31.5q45 0 76.5 -31.5t31.5 -75.5q0 -45 -31.5 -77t-77.5 -32z
M317 839q0 -17 11.5 -29t27.5 -12q17 0 28.5 11.5t11.5 29.5q0 16 -11.5 27.5t-28.5 11.5q-16 0 -27.5 -11.5t-11.5 -27.5zM423 962h-162l104 115h197z" />
    <glyph glyph-name="aringacute" unicode="&#x1fb;" horiz-adv-x="575" 
d="M530 0h-141q-4 40 -3 59q-21 -21 -38 -33.5t-52 -24t-79 -11.5q-86 0 -138 41.5t-52 114.5q0 154 299 180q5 0 22.5 1.5t23.5 1.5q0 55 -20 81t-64 26q-79 0 -87 -75h-150q6 83 68 131.5t169 48.5q119 0 175 -53t56 -183v-160q0 -102 11 -145zM371 215q0 11 1 18l-27 -3
q-89 -10 -124 -27t-35 -52q0 -28 21.5 -44.5t57.5 -16.5q106 0 106 125zM295 555q-45 0 -76 32t-31 77q0 44 32 75.5t76 31.5q45 0 76.5 -31.5t31.5 -75.5q0 -45 -31.5 -77t-77.5 -32zM256 664q0 -17 11.5 -29t27.5 -12q17 0 28.5 11.5t11.5 29.5q0 16 -11.5 27.5
t-28.5 11.5q-16 0 -27.5 -11.5t-11.5 -27.5zM351 783h-168l104 119h205z" />
    <glyph glyph-name="AEacute" unicode="&#x1fc;" horiz-adv-x="994" 
d="M651 292l3 -152h297v-140h-468l-4 169h-232l-95 -169h-172l413 715h554v-140h-302l3 -145h274v-138h-271zM318 299h157q-4 210 -6 280h-2q-50 -100 -149 -280zM685 761h-162l104 115h197z" />
    <glyph glyph-name="aeacute" unicode="&#x1fd;" horiz-adv-x="928" 
d="M736 156h158q-25 -79 -92.5 -125.5t-170.5 -46.5q-128 0 -203 78q-75 -73 -205 -73q-93 0 -144.5 41.5t-51.5 115.5q0 45 24.5 78.5t69.5 52.5t93 29.5t111 16.5q4 0 22 1.5t25 1.5q-1 57 -21 82.5t-65 25.5q-37 0 -59 -19.5t-26 -53.5h-151q6 83 67 131t170 48
q117 0 173 -56q79 59 175 59q128 0 197.5 -79.5t69.5 -211.5l-1 -26h-389q4 -58 38 -91.5t86 -33.5q72 0 100 55zM516 323h230q-6 52 -35.5 80.5t-77.5 28.5t-79 -29t-38 -80zM371 233l-26 -3q-89 -11 -123.5 -27.5t-34.5 -50.5q0 -28 21 -44t57 -16q50 0 77.5 29.5
t28.5 99.5v12zM524 596h-168l104 119h205z" />
    <glyph glyph-name="Oslashacute" unicode="&#x1fe;" horiz-adv-x="797" 
d="M398 728q55 0 103 -12l43 76l142 -77l-41 -73q117 -101 117 -285q0 -172 -99.5 -271t-265.5 -99q-63 0 -117 15l-45 -80l-142 77l46 82q-104 99 -104 276q0 169 100 270t263 101zM398 128q89 0 140 62t51 166q0 81 -29 137l-206 -361q19 -4 44 -4zM206 356q0 -67 22 -119
l200 352q-18 2 -30 2q-90 0 -141 -63t-51 -172zM478 761h-162l104 115h197z" />
    <glyph glyph-name="oslashacute" unicode="&#x1ff;" horiz-adv-x="628" 
d="M379 596h-168l104 119h205zM313 543q34 0 71 -8l34 60l123 -62l-34 -58q90 -79 90 -213q0 -124 -77.5 -201t-205.5 -77q-44 0 -81 9l-32 -56l-122 63l33 57q-81 78 -81 206q0 124 78 202t204 78zM433 262q0 37 -10 72l-130 -226q6 -1 20 -1q58 0 89 41t31 114zM312 420
q-57 0 -88.5 -42.5t-31.5 -114.5q0 -37 7 -64l125 220q-4 1 -12 1z" />
    <glyph glyph-name="uni0218" unicode="&#x218;" horiz-adv-x="631" 
d="M166 -163l93 114h146l-76 -114h-163zM27 217h168q15 -98 126 -98q50 0 80 23t30 60q0 34 -24 49t-90 34l-49 14q-119 34 -170 83t-51 132q0 96 74 155t196 59q119 0 190.5 -56.5t76.5 -158.5h-164q-16 85 -109 85q-44 0 -68.5 -20t-24.5 -52q1 -33 21.5 -49t67.5 -30
l55 -16q129 -37 183.5 -83.5t54.5 -137.5q0 -102 -78.5 -162.5t-207.5 -60.5t-206 61.5t-81 168.5z" />
    <glyph glyph-name="uni0219" unicode="&#x219;" horiz-adv-x="560" 
d="M125 -163l93 114h146l-76 -114h-163zM24 172h161q15 -77 103 -77q37 0 60 13.5t23 35.5q0 23 -19.5 34t-68.5 23l-67 18q-92 26 -132.5 60t-40.5 100q0 75 62.5 119.5t173.5 44.5q104 0 168 -43t72 -127h-152q-19 61 -93 61q-35 0 -54 -12t-19 -33q0 -23 21.5 -34
t85.5 -27l35 -9q105 -27 147 -62t42 -103q0 -79 -65 -124.5t-181 -45.5q-122 0 -186 46t-76 142z" />
    <glyph glyph-name="uni021A" unicode="&#x21a;" horiz-adv-x="586" 
d="M138 -163l93 114h146l-76 -114h-163zM375 0h-164v574h-189v141h542v-141h-189v-574z" />
    <glyph glyph-name="uni021B" unicode="&#x21b;" horiz-adv-x="375" 
d="M71 -163l93 114h146l-76 -114h-163zM94 412h-79v113h79v140h156v-140h95v-113h-95v-179q0 -78 10 -102.5t52 -24.5q14 0 27 3v-115q-30 -6 -62 -6q-99 0 -141 40t-42 146v238z" />
    <glyph glyph-name="uni021D" unicode="&#x21d;" horiz-adv-x="584" 
d="M14 28h162q4 -50 32.5 -76.5t78.5 -26.5q53 0 81 27t28 73q0 100 -144 100h-13v127q131 0 131 89q0 34 -23.5 54t-61.5 20q-39 0 -63 -21.5t-25 -63.5h-155q2 97 69 155t180 58q109 0 175.5 -53.5t66.5 -140.5q0 -62 -29 -96.5t-85 -53.5v-2q144 -46 144 -182
q0 -100 -74.5 -160t-201.5 -60q-125 0 -197.5 61.5t-75.5 171.5z" />
    <glyph glyph-name="uni0226" unicode="&#x226;" horiz-adv-x="720" 
d="M-10 0q117 320 274 715h197l267 -715h-172q-8 23 -29.5 80t-33.5 89h-270l-64 -169h-169zM267 299h181q-15 47 -45.5 139.5t-44.5 140.5h-2q-19 -68 -89 -280zM299 761v115h122v-115h-122z" />
    <glyph glyph-name="uni0227" unicode="&#x227;" horiz-adv-x="575" 
d="M530 0h-141q-4 40 -3 59q-21 -21 -38 -33.5t-52 -24t-79 -11.5q-86 0 -138 41.5t-52 114.5q0 154 299 180q5 0 22.5 1.5t23.5 1.5q0 55 -20 81t-64 26q-79 0 -87 -75h-150q6 83 68 131.5t169 48.5q119 0 175 -53t56 -183v-160q0 -102 11 -145zM371 215q0 11 1 18l-27 -3
q-89 -10 -124 -27t-35 -52q0 -28 21.5 -44.5t57.5 -16.5q106 0 106 125zM229 596v119h124v-119h-124z" />
    <glyph glyph-name="uni0232" unicode="&#x232;" horiz-adv-x="622" 
d="M629 715l-236 -447v-268h-164v268q-149 287 -233 447h183l137 -295h2q40 96 135 295h176zM181 765v93h273v-93h-273z" />
    <glyph glyph-name="uni0233" unicode="&#x233;" horiz-adv-x="550" 
d="M136 -180q49 150 61 187q-21 56 -91 238.5t-104 279.5h166q19 -64 56 -180t53 -174h5q17 74 99 354h161q-35 -96 -139 -396t-107 -309h-160zM146 606v93h273v-93h-273z" />
    <glyph glyph-name="dotlessj" unicode="&#x237;" horiz-adv-x="280" 
d="M218 525v-524q0 -106 -40 -149.5t-143 -43.5q-38 0 -70 6v108q8 -1 17 -1q43 0 61.5 19.5t18.5 63.5v521h156z" />
    <glyph glyph-name="uni0254" unicode="&#x254;" horiz-adv-x="594" 
d="M178 339h-153q18 93 86.5 148t174.5 55q125 0 201 -77.5t76 -200.5q0 -124 -77 -202t-201 -78q-105 0 -173 53t-86 150h157q22 -80 100 -80q55 0 87 42t32 114q0 76 -32.5 115.5t-90.5 39.5q-36 0 -64 -20t-37 -59z" />
    <glyph glyph-name="uni0259" unicode="&#x259;" 
d="M193 369h-159q25 79 93 125.5t171 46.5q125 0 199.5 -76t74.5 -204q0 -123 -77 -201t-200 -78q-128 0 -198.5 79.5t-70.5 211.5l1 26h390q-4 58 -38 91.5t-86 33.5q-73 0 -100 -55zM413 202h-230q6 -52 35.5 -80.5t77.5 -28.5t79 29t38 80z" />
    <glyph glyph-name="uni025B" unicode="&#x25b;" horiz-adv-x="584" 
d="M408 28h162q-3 -110 -75.5 -171.5t-197.5 -61.5q-127 0 -201.5 60t-74.5 160q0 136 144 182v2q-56 19 -85 53.5t-29 96.5q0 87 66.5 140.5t175.5 53.5q113 0 180 -58t69 -155h-155q-1 42 -25 63.5t-63 21.5q-38 0 -61.5 -20t-23.5 -54q0 -89 131 -89v-127h-13
q-144 0 -144 -100q0 -46 28 -73t81 -27q50 0 78.5 26.5t32.5 76.5z" />
    <glyph glyph-name="uni0272" unicode="&#x272;" horiz-adv-x="616" 
d="M-18 -79q43 0 61.5 19.5t18.5 63.5v441q0 53 -1 80h149v-72q18 36 59.5 60.5t102.5 24.5q108 0 157 -84q18 -33 24 -72.5t6 -112.5v-269h-156v254q0 84 -18.5 123t-67.5 39q-99 0 -99 -147v-268q0 -106 -40 -149.5t-143 -43.5q-38 0 -70 6v108q8 -1 17 -1z" />
    <glyph glyph-name="uni0275" unicode="&#x275;" horiz-adv-x="628" 
d="M313 543q127 0 205.5 -78t78.5 -203q0 -124 -77.5 -201t-205.5 -77q-129 0 -206 77t-77 202q0 124 78 202t204 78zM313 107q96 0 115 104h-231q20 -104 116 -104zM312 420q-43 0 -72.5 -25.5t-40.5 -70.5h227q-24 96 -114 96z" />
    <glyph glyph-name="apostrophemod" unicode="&#x2bc;" horiz-adv-x="276" 
d="M246 715l-93 -255h-134l72 255h155z" />
    <glyph glyph-name="circumflex" unicode="&#x2c6;" horiz-adv-x="503" 
d="M178 715h159l106 -119h-137l-47 51l-48 -51h-137z" />
    <glyph glyph-name="caron" unicode="&#x2c7;" horiz-adv-x="503" 
d="M337 596h-159l-104 119h137l48 -51l47 51h137z" />
    <glyph glyph-name="breve" unicode="&#x2d8;" horiz-adv-x="465" 
d="M233 584q-63 0 -101.5 34.5t-46.5 96.5h95q9 -41 53 -41q40 0 53 41h94q-8 -62 -46.5 -96.5t-100.5 -34.5z" />
    <glyph glyph-name="dotaccent" unicode="&#x2d9;" horiz-adv-x="328" 
d="M102 596v119h124v-119h-124z" />
    <glyph glyph-name="ring" unicode="&#x2da;" horiz-adv-x="405" 
d="M239 568q-45 0 -76 32t-31 77q0 44 32 75.5t76 31.5q45 0 76.5 -31.5t31.5 -75.5q0 -45 -31.5 -77t-77.5 -32zM200 677q0 -17 11.5 -29t27.5 -12q17 0 28.5 11.5t11.5 29.5q0 16 -11.5 27.5t-28.5 11.5q-16 0 -27.5 -11.5t-11.5 -27.5z" />
    <glyph glyph-name="ogonek" unicode="&#x2db;" horiz-adv-x="331" 
d="M200 -49l93 -114h-163l-76 114h146z" />
    <glyph glyph-name="tilde" unicode="&#x2dc;" horiz-adv-x="470" 
d="M304 609q-36 18 -47 18q-25 0 -28 -31h-84q-1 51 27 86.5t78 35.5q29 0 69 -20q34 -17 48 -17q13 0 19 7.5t9 26.5h81q0 -55 -26.5 -90.5t-72.5 -35.5q-33 0 -73 20z" />
    <glyph glyph-name="hungarumlaut" unicode="&#x2dd;" horiz-adv-x="612" 
d="M217 596h-155l107 119h190zM466 596h-155l107 119h190z" />
    <glyph glyph-name="uni032C" unicode="&#x32c;" horiz-adv-x="503" 
d="M172 -49h159l106 -119h-137l-47 51l-48 -51h-137z" />
    <glyph glyph-name="uni0394" unicode="&#x394;" horiz-adv-x="671" 
d="M243 715h186l243 -715h-673zM336 565l-136 -439h272z" />
    <glyph glyph-name="uni03A9" unicode="&#x3a9;" horiz-adv-x="820" 
d="M410 589q-90 0 -141.5 -60.5t-51.5 -148.5q0 -167 149 -246v-134h-319v135h123q-123 86 -123 253q0 143 97 241t266 98t266 -98t97 -241q0 -167 -123 -253h123v-135h-319v134q149 79 149 246q0 88 -51.5 148.5t-141.5 60.5z" />
    <glyph glyph-name="uni03BC" unicode="&#x3bc;" horiz-adv-x="617" 
d="M218 -180h-156v705h156v-254q0 -84 18 -123t66 -39q97 0 97 147v269h156v-445q0 -53 1 -80h-149v72q-40 -82 -141 -82q-28 0 -48 5v-175z" />
    <glyph glyph-name="pi" unicode="&#x3c0;" horiz-adv-x="689" 
d="M650 397h-89v-164q0 -78 10 -102.5t52 -24.5q13 0 27 3v-115q-30 -6 -62 -6q-99 0 -141 40t-42 146v223h-148v-397h-156v397h-84v128h633v-128z" />
    <glyph glyph-name="Wgrave" unicode="&#x1e80;" horiz-adv-x="966" 
d="M950 715q-24 -120 -73 -358t-73 -357h-215l-75 406q-11 57 -26 169h-3q-10 -73 -27 -164l-78 -411h-219q-24 120 -72 357.5t-73 357.5h166q10 -56 27.5 -167.5t27.5 -166.5l14 -79q8 -50 23 -161h4q15 102 42 240l65 334h211l59 -318q31 -163 42 -258h4q5 54 25 163
l72 413h152zM586 761h-162l-139 115h197z" />
    <glyph glyph-name="wgrave" unicode="&#x1e81;" horiz-adv-x="856" 
d="M160 0q-28 97 -78.5 280t-68.5 245h160l46 -193q10 -43 22 -108t16 -86h3q22 116 43 205l41 182h169l44 -185q11 -46 43 -204h2l42 203l42 186h158q-27 -95 -77 -271.5t-71 -253.5h-189l-39 160q-32 132 -39 177h-3q-15 -78 -39 -176l-39 -161h-188zM534 596h-168
l-141 119h205z" />
    <glyph glyph-name="Wacute" unicode="&#x1e82;" horiz-adv-x="966" 
d="M950 715q-24 -120 -73 -358t-73 -357h-215l-75 406q-11 57 -26 169h-3q-10 -73 -27 -164l-78 -411h-219q-24 120 -72 357.5t-73 357.5h166q10 -56 27.5 -167.5t27.5 -166.5l14 -79q8 -50 23 -161h4q15 102 42 240l65 334h211l59 -318q31 -163 42 -258h4q5 54 25 163
l72 413h152zM551 761h-162l104 115h197z" />
    <glyph glyph-name="wacute" unicode="&#x1e83;" horiz-adv-x="856" 
d="M160 0q-28 97 -78.5 280t-68.5 245h160l46 -193q10 -43 22 -108t16 -86h3q22 116 43 205l41 182h169l44 -185q11 -46 43 -204h2l42 203l42 186h158q-27 -95 -77 -271.5t-71 -253.5h-189l-39 160q-32 132 -39 177h-3q-15 -78 -39 -176l-39 -161h-188zM503 596h-168
l104 119h205z" />
    <glyph glyph-name="Wdieresis" unicode="&#x1e84;" horiz-adv-x="966" 
d="M950 715q-24 -120 -73 -358t-73 -357h-215l-75 406q-11 57 -26 169h-3q-10 -73 -27 -164l-78 -411h-219q-24 120 -72 357.5t-73 357.5h166q10 -56 27.5 -167.5t27.5 -166.5l14 -79q8 -50 23 -161h4q15 102 42 240l65 334h211l59 -318q31 -163 42 -258h4q5 54 25 163
l72 413h152zM330 754v119h124v-119h-124zM526 754v119h123v-119h-123z" />
    <glyph glyph-name="wdieresis" unicode="&#x1e85;" horiz-adv-x="856" 
d="M160 0q-28 97 -78.5 280t-68.5 245h160l46 -193q10 -43 22 -108t16 -86h3q22 116 43 205l41 182h169l44 -185q11 -46 43 -204h2l42 203l42 186h158q-27 -95 -77 -271.5t-71 -253.5h-189l-39 160q-32 132 -39 177h-3q-15 -78 -39 -176l-39 -161h-188zM268 596v119h124
v-119h-124zM464 596v119h123v-119h-123z" />
    <glyph glyph-name="uni1EA0" unicode="&#x1ea0;" horiz-adv-x="720" 
d="M-10 0q117 320 274 715h197l267 -715h-172q-8 23 -29.5 80t-33.5 89h-270l-64 -169h-169zM267 299h181q-15 47 -45.5 139.5t-44.5 140.5h-2q-19 -68 -89 -280zM295 -166v119h124v-119h-124z" />
    <glyph glyph-name="uni1EA1" unicode="&#x1ea1;" horiz-adv-x="575" 
d="M530 0h-141q-4 40 -3 59q-21 -21 -38 -33.5t-52 -24t-79 -11.5q-86 0 -138 41.5t-52 114.5q0 154 299 180q5 0 22.5 1.5t23.5 1.5q0 55 -20 81t-64 26q-79 0 -87 -75h-150q6 83 68 131.5t169 48.5q119 0 175 -53t56 -183v-160q0 -102 11 -145zM371 215q0 11 1 18l-27 -3
q-89 -10 -124 -27t-35 -52q0 -28 21.5 -44.5t57.5 -16.5q106 0 106 125zM226 -166v119h124v-119h-124z" />
    <glyph glyph-name="uni1EB8" unicode="&#x1eb8;" horiz-adv-x="591" 
d="M236 292v-152h312v-140h-474v715h470v-140h-308v-145h283v-138h-283zM242 -166v119h124v-119h-124z" />
    <glyph glyph-name="uni1EB9" unicode="&#x1eb9;" 
d="M411 156h159q-25 -79 -93 -125.5t-171 -46.5q-125 0 -199.5 76t-74.5 204q0 123 77 201t200 78q128 0 198.5 -79.5t70.5 -211.5l-1 -26h-390q4 -58 38 -91.5t86 -33.5q73 0 100 55zM191 323h230q-6 52 -35.5 80.5t-77.5 28.5t-79 -29t-38 -80zM226 -166v119h124v-119
h-124z" />
    <glyph glyph-name="uni1ECA" unicode="&#x1eca;" horiz-adv-x="312" 
d="M238 0h-164v715h164v-715zM95 -166v119h124v-119h-124z" />
    <glyph glyph-name="uni1ECB" unicode="&#x1ecb;" horiz-adv-x="280" 
d="M62 587v128h156v-128h-156zM218 0h-156v525h156v-525zM79 -166v119h124v-119h-124z" />
    <glyph glyph-name="uni1ECC" unicode="&#x1ecc;" horiz-adv-x="797" 
d="M398 728q164 0 264 -101t100 -270q0 -172 -99.5 -271t-265.5 -99q-164 0 -263 99t-99 271q0 169 100 270t263 101zM398 128q89 0 140 62t51 166q0 108 -51 171.5t-140 63.5q-90 0 -141 -63t-51 -172q0 -104 51.5 -166t140.5 -62zM341 -166v119h124v-119h-124z" />
    <glyph glyph-name="uni1ECD" unicode="&#x1ecd;" horiz-adv-x="628" 
d="M313 543q127 0 205.5 -78t78.5 -203q0 -124 -77.5 -201t-205.5 -77q-129 0 -206 77t-77 202q0 124 78 202t204 78zM312 420q-57 0 -88.5 -42.5t-31.5 -114.5q0 -74 31 -115t90 -41q58 0 89 41t31 114q0 72 -31 115t-90 43zM252 -166v119h124v-119h-124z" />
    <glyph glyph-name="uni1EE4" unicode="&#x1ee4;" horiz-adv-x="708" 
d="M354 128q123 0 123 166v421h164v-426q0 -129 -56 -203q-73 -98 -231 -98t-231 98q-56 74 -56 203v426h164v-421q0 -166 123 -166zM291 -166v119h124v-119h-124z" />
    <glyph glyph-name="uni1EE5" unicode="&#x1ee5;" horiz-adv-x="612" 
d="M394 525h156v-445q0 -53 1 -80h-149v72q-19 -37 -58.5 -61t-99.5 -24q-108 0 -157 84q-18 33 -24 72.5t-6 112.5v269h156v-254q0 -84 18 -123t66 -39q97 0 97 147v269zM241 -166v119h124v-119h-124z" />
    <glyph glyph-name="Ygrave" unicode="&#x1ef2;" horiz-adv-x="622" 
d="M629 715l-236 -447v-268h-164v268q-149 287 -233 447h183l137 -295h2q40 96 135 295h176zM416 761h-162l-139 115h197z" />
    <glyph glyph-name="ygrave" unicode="&#x1ef3;" horiz-adv-x="550" 
d="M136 -180q49 150 61 187q-21 56 -91 238.5t-104 279.5h166q19 -64 56 -180t53 -174h5q17 74 99 354h161q-35 -96 -139 -396t-107 -309h-160zM380 596h-168l-141 119h205z" />
    <glyph glyph-name="enspace" unicode="&#x2002;" horiz-adv-x="500" 
 />
    <glyph glyph-name="emspace" unicode="&#x2003;" horiz-adv-x="1000" 
 />
    <glyph glyph-name="threeperemspace" unicode="&#x2004;" horiz-adv-x="0" 
 />
    <glyph glyph-name="fourperemspace" unicode="&#x2005;" horiz-adv-x="250" 
 />
    <glyph glyph-name="thinspace" unicode="&#x2009;" horiz-adv-x="133" 
 />
    <glyph glyph-name="hairspace" unicode="&#x200a;" horiz-adv-x="75" 
 />
    <glyph glyph-name="endash" unicode="&#x2013;" horiz-adv-x="592" 
d="M58 235v133h476v-133h-476z" />
    <glyph glyph-name="emdash" unicode="&#x2014;" horiz-adv-x="957" 
d="M58 235v133h841v-133h-841z" />
    <glyph glyph-name="quoteleft" unicode="&#x2018;" horiz-adv-x="291" 
d="M37 460l93 255h134l-72 -255h-155z" />
    <glyph glyph-name="quoteright" unicode="&#x2019;" horiz-adv-x="288" 
d="M267 715l-93 -255h-134l72 255h155z" />
    <glyph glyph-name="quotesinglbase" unicode="&#x201a;" horiz-adv-x="288" 
d="M243 166l-93 -255h-137l72 255h158z" />
    <glyph glyph-name="quotedblleft" unicode="&#x201c;" horiz-adv-x="507" 
d="M254 460l93 255h133l-72 -255h-154zM37 460l93 255h133l-72 -255h-154z" />
    <glyph glyph-name="quotedblright" unicode="&#x201d;" horiz-adv-x="503" 
d="M265 715l-93 -255h-132l72 255h153zM482 715l-93 -255h-132l72 255h153z" />
    <glyph glyph-name="quotedblbase" unicode="&#x201e;" horiz-adv-x="505" 
d="M243 166l-93 -255h-137l72 255h158zM460 166l-93 -255h-137l72 255h158z" />
    <glyph glyph-name="dagger" unicode="&#x2020;" horiz-adv-x="510" 
d="M332 715v-169h146v-130h-146v-484h-153v484h-147v130h147v169h153z" />
    <glyph glyph-name="daggerdbl" unicode="&#x2021;" horiz-adv-x="536" 
d="M345 416v-185h146v-130h-146v-169h-153v169h-147v130h147v185h-147v130h147v169h153v-169h146v-130h-146z" />
    <glyph glyph-name="bullet" unicode="&#x2022;" horiz-adv-x="525" 
d="M263 138q-82 0 -139.5 57t-57.5 139t57 138.5t140 56.5q81 0 138.5 -57t57.5 -138q0 -82 -57.5 -139t-138.5 -57z" />
    <glyph glyph-name="ellipsis" unicode="&#x2026;" horiz-adv-x="939" 
d="M57 0v166h163v-166h-163zM388 0v166h163v-166h-163zM719 0v166h163v-166h-163z" />
    <glyph glyph-name="perthousand" unicode="&#x2030;" horiz-adv-x="1297" 
d="M202 323q-82 0 -126.5 54t-44.5 148q0 93 44 147t126 54t126 -54.5t44 -147.5q0 -94 -43.5 -147.5t-125.5 -53.5zM136 523q0 -115 65 -115q36 0 50 29.5t14 85.5q0 59 -13.5 88.5t-50.5 29.5t-51 -30t-14 -88zM263 0l275 715h93l-275 -715h-93zM694 -15q-82 0 -126.5 54
t-44.5 148q0 93 44 147t126 54t126 -54.5t44 -147.5q0 -94 -43.5 -147.5t-125.5 -53.5zM628 185q0 -115 65 -115q36 0 50 29.5t14 85.5q0 59 -13.5 88.5t-50.5 29.5t-51 -30t-14 -88zM1097 -15q-82 0 -126.5 54t-44.5 148q0 93 44 147t126 54t126 -54.5t44 -147.5
q0 -94 -43.5 -147.5t-125.5 -53.5zM1031 185q0 -115 65 -115q36 0 50 29.5t14 85.5q0 59 -13.5 88.5t-50.5 29.5t-51 -30t-14 -88z" />
    <glyph glyph-name="guilsinglleft" unicode="&#x2039;" horiz-adv-x="327" 
d="M283 473l-96 -187l96 -188h-144l-102 188l102 187h144z" />
    <glyph glyph-name="guilsinglright" unicode="&#x203a;" horiz-adv-x="327" 
d="M140 286l-96 187h144l102 -187l-102 -188h-144z" />
    <glyph glyph-name="fraction" unicode="&#x2044;" horiz-adv-x="422" 
d="M-6 -105l290 820h144l-288 -820h-146z" />
    <glyph glyph-name="Euro" unicode="&#x20ac;" 
d="M-4 364l33 116h47q13 108 63 169q68 83 206 83q232 0 256 -235l-158 -1q-8 54 -30 80t-68 26q-50 0 -74.5 -30.5t-32.5 -91.5h224l-33 -116h-196v-38h189l-33 -116h-149q9 -48 33.5 -71.5t71.5 -23.5t68.5 25t29.5 78l157 -1q-14 -116 -75.5 -174t-179.5 -58
q-135 0 -201 75q-50 55 -64 150h-84l33 116h41v38h-74z" />
    <glyph glyph-name="trademark" unicode="&#x2122;" horiz-adv-x="963" 
d="M694 297h-87q-54 172 -104 319h-3q1 -59 1 -189v-130h-92v418h161q41 -126 86 -280q60 204 84 280h157v-418h-94v184q0 27 0.5 72t0.5 64h-3q-34 -105 -107 -320zM362 715v-81h-105v-337h-99v337h-105v81h309z" />
    <glyph glyph-name="Omega" unicode="&#x2126;" horiz-adv-x="820" 
d="M410 589q-90 0 -141.5 -60.5t-51.5 -148.5q0 -167 149 -246v-134h-319v135h123q-123 86 -123 253q0 143 97 241t266 98t266 -98t97 -241q0 -167 -123 -253h123v-135h-319v134q149 79 149 246q0 88 -51.5 148.5t-141.5 60.5z" />
    <glyph glyph-name="onethird" unicode="&#x2153;" horiz-adv-x="841" 
d="M468 142h105q5 -62 62 -62q61 0 61 56q0 59 -82 59h-13v85q79 0 79 51q0 18 -12.5 29t-33.5 11q-48 0 -48 -51h-104q2 62 44 99t111 37q68 0 109.5 -33.5t41.5 -86.5q0 -66 -61 -94q79 -30 79 -112q0 -61 -46 -98.5t-125 -37.5q-77 0 -121.5 39t-45.5 109zM189 0l275 715
h93l-275 -715h-93zM138 569h-108v69h10q88 0 109 77h88v-439h-99v293z" />
    <glyph glyph-name="twothirds" unicode="&#x2154;" horiz-adv-x="961" 
d="M759 -8q-78 0 -124 36.5t-46 98.5q0 80 81 112q-64 30 -64 97q0 52 42 86.5t110 34.5q70 0 112 -34.5t42 -86.5q0 -68 -64 -98q81 -32 81 -111q0 -62 -46 -98.5t-124 -36.5zM758 196q-28 0 -46 -17t-18 -43q0 -25 17.5 -41.5t46.5 -16.5t46 16.5t17 41.5q0 26 -17.5 43
t-45.5 17zM759 372q-24 0 -38.5 -13.5t-14.5 -34.5t14.5 -34.5t38.5 -13.5t38.5 13.5t14.5 34.5t-14.5 34.5t-38.5 13.5zM301 0l275 715h93l-275 -715h-93zM373 276h-330v84q13 10 61 46.5t88 68.5q71 57 71 110q0 24 -13.5 37t-37.5 13q-56 0 -56 -69h-112q1 75 47.5 119
t123.5 44t120.5 -37t43.5 -100q0 -87 -100 -165q-2 -1 -46 -32q-30 -22 -44 -31h184v-88z" />
    <glyph glyph-name="oneeighth" unicode="&#x215b;" horiz-adv-x="852" 
d="M647 -8q-78 0 -124 36.5t-46 98.5q0 80 81 112q-64 30 -64 97q0 52 42 86.5t110 34.5q70 0 112 -34.5t42 -86.5q0 -68 -64 -98q81 -32 81 -111q0 -62 -46 -98.5t-124 -36.5zM646 196q-28 0 -46 -17t-18 -43q0 -25 17.5 -41.5t46.5 -16.5t46 16.5t17 41.5q0 26 -17.5 43
t-45.5 17zM647 372q-24 0 -38.5 -13.5t-14.5 -34.5t14.5 -34.5t38.5 -13.5t38.5 13.5t14.5 34.5t-14.5 34.5t-38.5 13.5zM189 0l275 715h93l-275 -715h-93zM138 569h-108v69h10q88 0 109 77h88v-439h-99v293z" />
    <glyph glyph-name="threeeighths" unicode="&#x215c;" horiz-adv-x="955" 
d="M753 -8q-78 0 -124 36.5t-46 98.5q0 80 81 112q-64 30 -64 97q0 52 42 86.5t110 34.5q70 0 112 -34.5t42 -86.5q0 -68 -64 -98q81 -32 81 -111q0 -62 -46 -98.5t-124 -36.5zM752 196q-28 0 -46 -17t-18 -43q0 -25 17.5 -41.5t46.5 -16.5t46 16.5t17 41.5q0 26 -17.5 43
t-45.5 17zM753 372q-24 0 -38.5 -13.5t-14.5 -34.5t14.5 -34.5t38.5 -13.5t38.5 13.5t14.5 34.5t-14.5 34.5t-38.5 13.5zM295 0l275 715h93l-275 -715h-93zM33 418h105q5 -62 62 -62q61 0 61 56t-82 56h-13v84q79 0 79 49q0 18 -12.5 29t-33.5 11q-48 0 -48 -51h-104
q2 62 44 99t111 37q68 0 109.5 -33.5t41.5 -86.5q0 -63 -61 -91q79 -30 79 -109q0 -61 -46 -98.5t-125 -37.5q-77 0 -121.5 39t-45.5 109z" />
    <glyph glyph-name="fiveeighths" unicode="&#x215d;" horiz-adv-x="951" 
d="M32 412h111q8 -56 59 -56q29 0 45 17.5t16 48.5q0 29 -16 46.5t-44 17.5q-37 0 -55 -37l-103 18l26 248h268v-88h-184q-1 -10 -4 -35t-5 -42q33 21 79 21q63 0 103.5 -39t40.5 -105q0 -73 -46 -116t-123 -43q-71 0 -117 40t-51 104zM747 -8q-78 0 -124 36.5t-46 98.5
q0 80 81 112q-64 30 -64 97q0 52 42 86.5t110 34.5q70 0 112 -34.5t42 -86.5q0 -68 -64 -98q81 -32 81 -111q0 -62 -46 -98.5t-124 -36.5zM746 196q-28 0 -46 -17t-18 -43q0 -25 17.5 -41.5t46.5 -16.5t46 16.5t17 41.5q0 26 -17.5 43t-45.5 17zM747 372q-24 0 -38.5 -13.5
t-14.5 -34.5t14.5 -34.5t38.5 -13.5t38.5 13.5t14.5 34.5t-14.5 34.5t-38.5 13.5zM289 0l275 715h93l-275 -715h-93z" />
    <glyph glyph-name="seveneighths" unicode="&#x215e;" horiz-adv-x="864" 
d="M660 -8q-78 0 -124 36.5t-46 98.5q0 80 81 112q-64 30 -64 97q0 52 42 86.5t110 34.5q70 0 112 -34.5t42 -86.5q0 -68 -64 -98q81 -32 81 -111q0 -62 -46 -98.5t-124 -36.5zM659 196q-28 0 -46 -17t-18 -43q0 -25 17.5 -41.5t46.5 -16.5t46 16.5t17 41.5q0 26 -17.5 43
t-45.5 17zM660 372q-24 0 -38.5 -13.5t-14.5 -34.5t14.5 -34.5t38.5 -13.5t38.5 13.5t14.5 34.5t-14.5 34.5t-38.5 13.5zM202 0l275 715h93l-275 -715h-93zM190 276h-111q57 178 160 354l-1 1q-13 -1 -73 -1h-133v84h311v-78q-83 -142 -153 -360z" />
    <glyph glyph-name="arrowleft" unicode="&#x2190;" horiz-adv-x="820" 
d="M780 252h-513l255 -252h-193q-31 32 -147 156t-162 170q47 47 165 172t144 152h193q-197 -196 -255 -252h513v-146z" />
    <glyph glyph-name="arrowup" unicode="&#x2191;" horiz-adv-x="720" 
d="M287 0v508l-252 -251v184q31 31 154.5 147t170.5 162q47 -47 172 -164.5t153 -144.5v-184q-197 193 -253 251v-508h-145z" />
    <glyph glyph-name="arrowright" unicode="&#x2192;" horiz-adv-x="820" 
d="M552 252h-513v146h513l-255 252h193q26 -27 144 -152t165 -172q-46 -46 -162 -170t-147 -156h-193q197 196 255 252z" />
    <glyph glyph-name="arrowdown" unicode="&#x2193;" horiz-adv-x="720" 
d="M287 207v508h145v-508l253 251v-184q-28 -27 -153 -144.5t-172 -164.5q-47 46 -170.5 162t-154.5 147v184q196 -193 252 -251z" />
    <glyph glyph-name="uni2196" unicode="&#x2196;" horiz-adv-x="750" 
d="M327 440l361 -361l-103 -102l-359 359v-356l-125 126q4 420 4 452q64 1 232.5 3.5t216.5 2.5l130 -124q-277 -2 -357 0z" />
    <glyph glyph-name="uni2197" unicode="&#x2197;" horiz-adv-x="750" 
d="M61 79l361 361h-357l130 124q48 0 216.5 -2.5t232.5 -3.5q0 -32 4 -452l-125 -126q-1 276 0 356l-359 -359z" />
    <glyph glyph-name="uni2198" unicode="&#x2198;" horiz-adv-x="750" 
d="M423 121l-361 361l103 102l359 -359v356l125 -126q-4 -420 -4 -452q-64 -1 -232.5 -3.5t-216.5 -2.5l-130 124q277 2 357 0z" />
    <glyph glyph-name="uni2199" unicode="&#x2199;" horiz-adv-x="750" 
d="M689 481l-361 -361h357l-130 -124q-48 0 -216.5 2.5t-232.5 3.5q0 32 -4 452l125 126q1 -276 0 -356l359 359z" />
    <glyph glyph-name="partialdiff" unicode="&#x2202;" horiz-adv-x="634" 
d="M79 715h229q291 -155 291 -441q0 -135 -77.5 -212t-209.5 -77q-125 0 -202.5 75.5t-77.5 199.5q0 130 76 205t182 75q38 0 60 -10l3 3q-80 88 -274 182zM313 420q-57 0 -88.5 -42.5t-31.5 -114.5q0 -74 31 -115t90 -41q58 0 89 41t31 114q0 72 -31 115t-90 43z" />
    <glyph glyph-name="Delta" unicode="&#x2206;" horiz-adv-x="719" 
d="M267 715h186l243 -715h-673zM360 565l-136 -439h272z" />
    <glyph glyph-name="product" unicode="&#x220f;" horiz-adv-x="826" 
d="M701 575v-688h-164v688h-248v-688h-164v688h-87v140h750v-140h-87z" />
    <glyph glyph-name="summation" unicode="&#x2211;" horiz-adv-x="624" 
d="M38 15l250 282l-246 281v137h533v-140h-337l238 -270l-250 -278h360v-140h-548v128z" />
    <glyph glyph-name="minus" unicode="&#x2212;" 
d="M53 254v134h498v-134h-498z" />
    <glyph glyph-name="uni2219" unicode="&#x2219;" horiz-adv-x="277" 
d="M57 236v166h163v-166h-163z" />
    <glyph glyph-name="radical" unicode="&#x221a;" 
d="M7 396v129h197l62 -196q11 -33 25.5 -86.5t24.5 -86.5h2q31 125 47 185l100 374h156l-217 -715h-177q-8 23 -136 396h-84z" />
    <glyph glyph-name="infinity" unicode="&#x221e;" horiz-adv-x="840" 
d="M229 517q28 0 52.5 -6t51.5 -23.5t41 -28.5t48 -39q41 36 62 52t56.5 30.5t73.5 14.5q80 0 128.5 -52t48.5 -135q0 -74 -46 -128.5t-128 -54.5q-41 0 -79.5 16.5t-61 34.5t-56.5 51q-35 -33 -58 -51.5t-60.5 -34.5t-76.5 -16q-86 0 -131 54t-45 129q0 83 49 135t131 52z
M607 276q26 0 41 15.5t15 41.5q0 24 -15 40t-39 16q-42 0 -107 -58q24 -19 36 -28t32 -18t37 -9zM234 276q17 0 37 9t32.5 18.5t34.5 27.5q-67 58 -106 58q-24 0 -39 -16t-15 -40q0 -26 15 -41.5t41 -15.5z" />
    <glyph glyph-name="integral" unicode="&#x222b;" 
d="M413 474l-54 -389q-20 -146 -67 -205t-152 -59q-48 0 -83 12l14 122q23 -8 48 -8q41 0 58.5 33.5t26.5 103.5l55 403q16 119 68.5 179.5t153.5 60.5q41 0 66 -6l-16 -134q-21 7 -38 7q-37 0 -54 -28t-26 -92z" />
    <glyph glyph-name="approxequal" unicode="&#x2248;" 
d="M478 542l89 -69q-71 -129 -162 -129q-42 0 -115 34l-17 8q-54 25 -72 25q-20 0 -36.5 -14.5t-36.5 -51.5l-89 69q71 129 162 129q42 0 115 -34l17 -8q54 -25 72 -25q20 0 36.5 14.5t36.5 51.5zM475 291l89 -69q-71 -129 -162 -129q-42 0 -115 34l-17 8q-54 25 -72 25
q-20 0 -36.5 -14.5t-36.5 -51.5l-89 69q71 129 162 129q42 0 115 -34l17 -8q54 -25 72 -25q20 0 36.5 14.5t36.5 51.5z" />
    <glyph glyph-name="notequal" unicode="&#x2260;" 
d="M53 367v130h239l36 73h139l-36 -73h120v-130h-183l-30 -62h213v-130h-276l-41 -85h-139l41 85h-83v130h146l30 62h-176z" />
    <glyph glyph-name="lessequal" unicode="&#x2264;" 
d="M72 0v134h435v-134h-435zM507 645v-150l-288 -87v-3l288 -88v-152l-435 180v118z" />
    <glyph glyph-name="greaterequal" unicode="&#x2265;" 
d="M531 134v-134h-435v134h435zM96 495v150l435 -182v-118l-435 -180v152l288 88v3z" />
    <glyph glyph-name="dotmath" unicode="&#x22c5;" horiz-adv-x="277" 
d="M57 236v166h163v-166h-163z" />
    <glyph glyph-name="lozenge" unicode="&#x25ca;" 
d="M374 0h-144l-220 356l220 359h144l219 -359zM302 142l124 214l-124 217l-125 -217z" />
    <glyph glyph-name="commaaccent" unicode="&#xf6c3;" horiz-adv-x="369" 
d="M84 -163l93 114h146l-76 -114h-163z" />
    <glyph glyph-name="uniF8FF" unicode="&#xf8ff;" horiz-adv-x="529" 
d="M265 104q-94 0 -160 65.5t-66 159.5t65.5 158.5t160.5 64.5q93 0 159 -65t66 -158q0 -94 -66 -159.5t-159 -65.5z" />
    <glyph glyph-name="glyph5" horiz-adv-x="644" 
d="M50 240v49l309 309q16 -9 26 -23zM50 142v49l347 347v-15q0 -20 -13.5 -37.5t-42 -40t-36.5 -30.5q-23 -22 -36 -54zM104 0h-49l261 261h49l-93 -93h-23v-23zM321 168l273 273v-49l-224 -224h-49zM398 0h-49l33 33h2v2l210 210v-49zM50 338v49l148 148l39 -2q0 29 20 52
t55 23h8zM384 133l210 210v-49l-210 -210v49zM50 44v49l206 206v-38h11zM50 583l196 196h49l-44 -44q-53 -14 -92.5 -53.5t-54.5 -93.5l-54 -54v49zM537 482l57 57v-49l-216 -216v7q0 15 6.5 27.5t11 17.5t25.5 20t27 20q2 1 15.5 11t21.5 17.5t20 20.5t20 30t12 37zM50 681
l98 98h49l-147 -147v49zM496 0h-49l147 147v-49zM459 698l81 81h49l-104 -104q-13 12 -26 23zM50 436v49l56 56l46 -3zM506 647l88 88v-49l-70 -70q-7 15 -18 31zM202 0h-49l96 96v-49zM536 579l58 58v-49l-52 -52q0 15 -6 43zM395 732l47 47h49l-62 -62q-17 9 -34 15z
M307 742l37 37h49l-38 -38q-18 2 -28 2zM300 0h-49l33 33h49zM594 49v-49h-49zM50 779h49l-49 -49v49z" />
    <glyph glyph-name="NULL" horiz-adv-x="0" 
 />
    <glyph glyph-name="NULL" horiz-adv-x="0" 
 />
    <glyph glyph-name="acute.caps" horiz-adv-x="427" 
d="M282 761h-162l104 115h197z" />
    <glyph glyph-name="grave.caps" horiz-adv-x="512" 
d="M401 761h-162l-139 115h197z" />
    <glyph glyph-name="circumflex.caps" horiz-adv-x="503" 
d="M174 876h160l106 -115h-137l-47 51l-48 -51h-137z" />
    <glyph glyph-name="caron.caps" horiz-adv-x="502" 
d="M334 761h-160l-103 115h137l48 -51l47 51h137z" />
    <glyph glyph-name="tilde.caps" horiz-adv-x="470" 
d="M242 777q-36 18 -47 18q-25 0 -28 -31h-84q-1 51 27 86.5t78 35.5q29 0 69 -20q34 -17 48 -17q13 0 19 7.5t9 26.5h81q0 -55 -26.5 -90.5t-72.5 -35.5q-33 0 -73 20z" />
    <glyph glyph-name="macron.caps" horiz-adv-x="428" 
d="M110 765v93h273v-93h-273z" />
    <glyph glyph-name="breve.caps" horiz-adv-x="465" 
d="M249 745q-63 0 -101.5 34.5t-46.5 96.5h95q9 -41 53 -41q40 0 53 41h94q-8 -62 -46.5 -96.5t-100.5 -34.5z" />
    <glyph glyph-name="dotaccent.caps" horiz-adv-x="328" 
d="M103 761v115h122v-115h-122z" />
    <glyph glyph-name="ring.caps" horiz-adv-x="405" 
d="M247 738q-45 0 -76 32t-31 77q0 44 32 75.5t76 31.5q45 0 76.5 -31.5t31.5 -75.5q0 -45 -31.5 -77t-77.5 -32zM208 847q0 -17 11.5 -29t27.5 -12q17 0 28.5 11.5t11.5 29.5q0 16 -11.5 27.5t-28.5 11.5q-16 0 -27.5 -11.5t-11.5 -27.5z" />
    <glyph glyph-name="cedilla.caps" horiz-adv-x="369" 
d="M84 -163l93 114h146l-76 -114h-163z" />
    <glyph glyph-name="ogonek.caps" horiz-adv-x="331" 
d="M200 -49l93 -114h-163l-76 114h146z" />
    <glyph glyph-name="hungarumlaut.caps" horiz-adv-x="612" 
d="M224 761h-155l105 115h190zM473 761h-155l105 115h190z" />
    <glyph glyph-name="dieresis.caps" horiz-adv-x="491" 
d="M104 754v119h124v-119h-124zM300 754v119h123v-119h-123z" />
    <glyph glyph-name="horn" horiz-adv-x="264" 
d="M248 715l-85 -191h-130l55 191h160z" />
    <glyph glyph-name="zero.plf" horiz-adv-x="638" 
d="M319 115q61 0 85 55t24 181q0 132 -24 191.5t-85 59.5t-85 -59.5t-24 -191.5q0 -126 24 -181t85 -55zM319 732q65 0 114 -20t79.5 -53.5t49.5 -83t26 -102.5t7 -118q0 -88 -12.5 -152t-42.5 -115t-85.5 -77t-135.5 -26t-135.5 26t-85.5 77t-42.5 115t-12.5 152
q0 65 7 118t26 102.5t49.5 83t79.5 53.5t114 20z" />
    <glyph glyph-name="one.plf" horiz-adv-x="448" 
d="M197 478h-175v113h16q70 0 116 32.5t63 91.5h140v-715h-160v478z" />
    <glyph glyph-name="two.plf" horiz-adv-x="616" 
d="M571 0h-530v129q126 98 238 189q65 53 92 96.5t27 88.5q0 42 -24.5 65.5t-67.5 23.5q-50 0 -74.5 -31t-24.5 -83h-160q1 118 70 186t191 68q120 0 189.5 -59t69.5 -159q0 -141 -165 -266q-29 -23 -80 -60t-78 -59q22 1 59 1h268v-130z" />
    <glyph glyph-name="three.plf" horiz-adv-x="618" 
d="M30 217h162q4 -50 32.5 -76.5t78.5 -26.5q53 0 81 27t28 73q0 100 -144 100h-13v127q131 0 131 89q0 34 -23.5 54t-61.5 20q-39 0 -63 -21.5t-25 -63.5h-155q2 97 69 155t180 58q109 0 175.5 -53.5t66.5 -140.5q0 -62 -29 -96.5t-85 -53.5v-2q144 -46 144 -182
q0 -100 -74.5 -160t-201.5 -60q-125 0 -197.5 61.5t-75.5 171.5z" />
    <glyph glyph-name="four.plf" horiz-adv-x="646" 
d="M613 269v-130h-101v-139h-155v139h-334v124l304 452h185v-446h101zM169 268q27 1 88 1h100v169q0 1 3 124h-2q-43 -76 -75 -124l-54 -82z" />
    <glyph glyph-name="five.plf" horiz-adv-x="611" 
d="M33 207h171q6 -41 33 -66t71 -25q50 0 78.5 32t28.5 86q0 51 -28.5 83t-76.5 32q-63 0 -96 -58l-159 26l44 398h429v-132h-302q-10 -83 -20 -147h1q57 43 139 43q103 0 168 -65t65 -173q0 -117 -74.5 -185.5t-198.5 -68.5q-117 0 -191 61t-82 159z" />
    <glyph glyph-name="six.plf" horiz-adv-x="629" 
d="M578 546l-166 1q-21 63 -87 63q-54 0 -84 -51.5t-30 -136.5q52 52 152 52q98 0 162.5 -62t64.5 -175q0 -111 -72.5 -180.5t-198.5 -69.5q-133 0 -205 89t-72 252q0 196 71.5 302t219.5 106q106 0 167.5 -54t77.5 -136zM320 347q-47 0 -77 -31t-30 -83t30.5 -83.5
t77.5 -31.5t77 31t30 82q0 53 -30.5 84.5t-77.5 31.5z" />
    <glyph glyph-name="seven.plf" horiz-adv-x="545" 
d="M281 0h-176q96 300 263 581l-1 1q-22 -1 -120 -1h-223v134h507v-128q-130 -219 -250 -587z" />
    <glyph glyph-name="eight.plf" horiz-adv-x="621" 
d="M311 -16q-125 0 -199 58t-74 156q0 133 146 183v2q-118 40 -118 158q0 82 67.5 136.5t175.5 54.5q110 0 178 -54.5t68 -136.5q0 -118 -118 -158v-2q146 -52 146 -183q0 -98 -74 -156t-198 -58zM310 315q-49 0 -80 -28.5t-31 -74.5q0 -44 30.5 -72t80.5 -28q49 0 79 28
t30 72q0 46 -30 74.5t-79 28.5zM311 606q-43 0 -68.5 -24t-25.5 -60t26 -60t68 -24t67.5 24t25.5 60t-25.5 60t-67.5 24z" />
    <glyph glyph-name="nine.plf" horiz-adv-x="629" 
d="M48 170l169 -1q21 -63 87 -63q54 0 83.5 49.5t29.5 136.5q-19 -19 -58.5 -35.5t-92.5 -16.5q-98 0 -162 63t-64 176q0 109 72.5 179t197.5 70q133 0 205 -89.5t72 -256.5q0 -403 -292 -403q-106 0 -168.5 54.5t-78.5 136.5zM309 370q47 0 77 31t30 83t-30.5 83.5
t-77.5 31.5t-77 -31t-30 -82q0 -53 30.5 -84.5t77.5 -31.5z" />
    <glyph glyph-name="Gtilde" horiz-adv-x="791" 
d="M402 728q129 0 217.5 -64.5t122.5 -180.5l-179 -1q-47 109 -164 109q-90 0 -141.5 -63.5t-51.5 -167.5q0 -108 52.5 -171.5t144.5 -63.5q146 0 177 137q-32 -1 -92 -1h-128v133h382v-394h-153v38q0 9 0.5 22.5t0.5 17.5h-1q-32 -40 -89.5 -65.5t-131.5 -25.5
q-148 0 -240.5 103t-92.5 268q0 166 100 268t267 102zM395 777q-36 18 -47 18q-25 0 -28 -31h-84q-1 51 27 86.5t78 35.5q29 0 69 -20q34 -17 48 -17q13 0 19 7.5t9 26.5h81q0 -55 -26.5 -90.5t-72.5 -35.5q-33 0 -73 20z" />
    <glyph glyph-name="gtilde" horiz-adv-x="643" 
d="M46 -19h164q27 -64 100 -64q69 0 97.5 46t26.5 139h-2q-21 -35 -64.5 -57.5t-101.5 -22.5q-105 0 -168.5 71t-63.5 187q0 115 66 187.5t168 72.5q60 0 101.5 -23t62.5 -58q-2 21 -2 66h151v-443q0 -135 -71.5 -206.5t-205.5 -71.5q-111 0 -176.5 47t-81.5 130zM317 421
q-54 0 -86 -39.5t-32 -102.5q0 -61 31.5 -99.5t86.5 -38.5q51 0 84 38.5t33 104.5q0 61 -32 99t-85 38zM331 609q-36 18 -47 18q-25 0 -28 -31h-84q-1 51 27 86.5t78 35.5q29 0 69 -20q34 -17 48 -17q13 0 19 7.5t9 26.5h81q0 -55 -26.5 -90.5t-72.5 -35.5q-33 0 -73 20z
" />
    <glyph glyph-name="Mcircumflex" horiz-adv-x="959" 
d="M74 0v715h263l88 -300q32 -110 58 -214h1q6 22 27.5 93.5t37.5 128.5l83 292h253v-715h-154v334q0 87 4 237h-2q-16 -65 -56 -198l-110 -373h-171l-109 365q-41 137 -56 206h-2q3 -75 3 -231v-340h-158zM403 876h160l106 -115h-137l-47 51l-48 -51h-137z" />
    <glyph glyph-name="mcircumflex" horiz-adv-x="935" 
d="M548 0h-156v254q0 87 -17 124.5t-63 37.5q-94 0 -94 -147v-269h-156v445q0 53 -1 80h149v-72q19 37 58.5 61t99.5 24q105 0 152 -88h2q21 36 64.5 62t107.5 26q81 0 132.5 -54t51.5 -173v-311h-156v254q0 87 -17 124.5t-63 37.5q-94 0 -94 -147v-269zM402 715h159
l106 -119h-137l-47 51l-48 -51h-137z" />
    <glyph glyph-name="Mmacron" horiz-adv-x="959" 
d="M74 0v715h263l88 -300q32 -110 58 -214h1q6 22 27.5 93.5t37.5 128.5l83 292h253v-715h-154v334q0 87 4 237h-2q-16 -65 -56 -198l-110 -373h-171l-109 365q-41 137 -56 206h-2q3 -75 3 -231v-340h-158zM347 765v93h273v-93h-273z" />
    <glyph glyph-name="mmacron" horiz-adv-x="935" 
d="M548 0h-156v254q0 87 -17 124.5t-63 37.5q-94 0 -94 -147v-269h-156v445q0 53 -1 80h149v-72q19 37 58.5 61t99.5 24q105 0 152 -88h2q21 36 64.5 62t107.5 26q81 0 132.5 -54t51.5 -173v-311h-156v254q0 87 -17 124.5t-63 37.5q-94 0 -94 -147v-269zM339 606v93h273v-93
h-273z" />
    <glyph glyph-name="Ncircumflex" horiz-adv-x="767" 
d="M693 715v-715h-209l-155 300q-83 160 -105 219h-1q2 -58 2 -227v-292h-151v715h212l182 -358q6 -11 76 -165h1q-3 88 -3 207v316h151zM313 876h160l106 -115h-137l-47 51l-48 -51h-137z" />
    <glyph glyph-name="ncircumflex" horiz-adv-x="616" 
d="M218 0h-156v445q0 53 -1 80h149v-72q18 36 59.5 60.5t102.5 24.5q108 0 157 -84q18 -33 24 -72.5t6 -112.5v-269h-156v254q0 84 -18.5 123t-67.5 39q-99 0 -99 -147v-269zM247 715h159l106 -119h-137l-47 51l-48 -51h-137z" />
    <glyph glyph-name="Ndieresis" horiz-adv-x="767" 
d="M693 715v-715h-209l-155 300q-83 160 -105 219h-1q2 -58 2 -227v-292h-151v715h212l182 -358q6 -11 76 -165h1q-3 88 -3 207v316h151zM240 754v119h124v-119h-124zM436 754v119h123v-119h-123z" />
    <glyph glyph-name="ndieresis" horiz-adv-x="616" 
d="M218 0h-156v445q0 53 -1 80h149v-72q18 36 59.5 60.5t102.5 24.5q108 0 157 -84q18 -33 24 -72.5t6 -112.5v-269h-156v254q0 84 -18.5 123t-67.5 39q-99 0 -99 -147v-269zM173 596v119h124v-119h-124zM369 596v119h123v-119h-123z" />
    <glyph glyph-name="Nmacron" horiz-adv-x="767" 
d="M693 715v-715h-209l-155 300q-83 160 -105 219h-1q2 -58 2 -227v-292h-151v715h212l182 -358q6 -11 76 -165h1q-3 88 -3 207v316h151zM259 765v93h273v-93h-273z" />
    <glyph glyph-name="nmacron" horiz-adv-x="616" 
d="M218 0h-156v445q0 53 -1 80h149v-72q18 36 59.5 60.5t102.5 24.5q108 0 157 -84q18 -33 24 -72.5t6 -112.5v-269h-156v254q0 84 -18.5 123t-67.5 39q-99 0 -99 -147v-269zM194 606v93h273v-93h-273z" />
    <glyph glyph-name="Pmacron" horiz-adv-x="637" 
d="M74 0v715h214q52 0 76 -1q117 -4 182 -64t65 -164q0 -120 -81 -181q-39 -30 -92.5 -40t-139.5 -10h-60v-255h-164zM238 576v-187h83q125 0 125 94q0 48 -31 70.5t-97 22.5h-80zM171 765v93h273v-93h-273z" />
    <glyph glyph-name="pmacron" horiz-adv-x="641" 
d="M62 525h153q0 -13 -0.5 -31t-0.5 -24q22 28 64 49t100 21q104 0 167 -73t63 -200q0 -126 -65 -203t-172 -77q-103 0 -154 67q1 -31 1 -112v-122h-156v705zM325 421q-53 0 -85 -42t-32 -111q0 -72 31 -116t86 -44q54 0 86 44t32 113t-32 112.5t-86 43.5zM191 606v93h273
v-93h-273z" />
    <glyph glyph-name="registered.alt" horiz-adv-x="823" 
d="M361 297v-156h-105v433h172q78 0 117 -27q49 -36 49 -101q0 -96 -94 -132l107 -173h-118l-91 156h-37zM361 488v-109h56q74 0 74 54q0 30 -20 42.5t-61 12.5h-49zM788 360q0 -158 -110 -267.5t-268 -109.5q-156 0 -265.5 110t-109.5 267q0 156 109.5 266t267.5 110
q157 0 266.5 -110t109.5 -266zM719 360q0 128 -90 219t-217 91q-129 0 -218 -90.5t-89 -219.5t89 -220.5t217 -91.5t218 91t90 221z" />
    <glyph glyph-name="uni00AD.case" horiz-adv-x="417" 
d="M57 290v135h303v-135h-303z" />
    <glyph glyph-name="endash.case" horiz-adv-x="592" 
d="M58 295v133h476v-133h-476z" />
    <glyph glyph-name="emdash.case" horiz-adv-x="957" 
d="M58 295v133h841v-133h-841z" />
    <glyph glyph-name="hyphen.case" horiz-adv-x="417" 
d="M57 290v135h303v-135h-303z" />
    <glyph glyph-name="guillemotleft.case" horiz-adv-x="547" 
d="M286 533l-96 -187l96 -188h-144l-102 188l102 187h144zM499 533l-91 -187l91 -188h-142l-102 188l102 187h142z" />
    <glyph glyph-name="guillemotright.case" horiz-adv-x="547" 
d="M357 346l-96 187h144l102 -187l-102 -188h-144zM139 346l-91 187h142l102 -187l-102 -188h-142z" />
    <glyph glyph-name="guilsinglleft.case" horiz-adv-x="332" 
d="M286 533l-96 -187l96 -188h-144l-102 188l102 187h144z" />
    <glyph glyph-name="guilsinglright.case" horiz-adv-x="332" 
d="M142 346l-96 187h144l102 -187l-102 -188h-144z" />
    <glyph glyph-name="parenleft.case" horiz-adv-x="343" 
d="M34 349q0 160 73 284t194 176v-139q-128 -124 -128 -319q0 -197 128 -319v-139q-121 52 -194 174t-73 282z" />
    <glyph glyph-name="parenright.case" horiz-adv-x="343" 
d="M309 349q0 -160 -73 -282t-194 -174v139q128 122 128 319q0 195 -128 319v139q121 -52 194 -176t73 -284z" />
    <glyph glyph-name="bracketleft.case" horiz-adv-x="371" 
d="M335 35v-98h-246v828h246v-97h-113v-633h113z" />
    <glyph glyph-name="bracketright.case" horiz-adv-x="371" 
d="M36 -63v98h113v633h-113v97h246v-828h-246z" />
    <glyph glyph-name="braceleft.case" horiz-adv-x="349" 
d="M37 316v69q37 10 51 31.5t14 77.5v149q0 72 28.5 99t111.5 27l60 -1v-92q-36 -2 -49 -17.5t-13 -63.5v-91q0 -79 -13.5 -106t-59.5 -46v-2q46 -19 59.5 -46t13.5 -106v-95q0 -47 12.5 -61.5t49.5 -16.5v-92q-43 -1 -60 -1q-83 0 -111.5 27t-28.5 99v149q0 56 -14 77.5
t-51 31.5z" />
    <glyph glyph-name="braceright.case" horiz-adv-x="349" 
d="M312 385v-69q-37 -10 -51 -31.5t-14 -77.5v-149q0 -72 -28.5 -99t-111.5 -27l-60 1v92q37 2 49.5 16.5t12.5 61.5v95q0 79 13.5 106t59.5 46v2q-46 19 -59.5 46t-13.5 106v91q0 48 -13 63.5t-49 17.5v92q43 1 60 1q83 0 111.5 -27t28.5 -99v-149q0 -56 14 -77.5t51 -31.5
z" />
    <glyph glyph-name="bar.case" horiz-adv-x="317" 
d="M90 -12v793h137v-793h-137z" />
    <glyph glyph-name="minus.case" 
d="M53 294v134h498v-134h-498z" />
    <glyph glyph-name="multiply.case" 
d="M445 596l93 -93l-143 -143l143 -143l-93 -93l-143 143l-143 -143l-93 93l143 143l-143 143l93 93l143 -143z" />
    <glyph glyph-name="plus.case" 
d="M47 309v130h188v190h134v-190h188v-130h-188v-190h-134v190h-188z" />
    <glyph glyph-name="less.case" 
d="M505 665v-150l-291 -137v-3l291 -138v-152l-435 230v118z" />
    <glyph glyph-name="equal.case" 
d="M53 403v134h498v-134h-498zM53 215v134h498v-134h-498z" />
    <glyph glyph-name="greater.case" 
d="M99 515v150l435 -232v-118l-435 -230v152l291 138v3z" />
    <glyph glyph-name="at.case" horiz-adv-x="815" 
d="M536 538h92l-44 -241q-7 -36 -7 -45q0 -22 23 -22q39 0 69.5 52.5t30.5 123.5q0 108 -74.5 178t-195.5 70q-132 0 -217 -86.5t-85 -215.5q0 -132 86 -215.5t223 -83.5q117 0 216 62l48 -53q-118 -87 -267 -87q-177 0 -286.5 106t-109.5 271q0 160 112 269.5t279 109.5
q151 0 251.5 -89.5t100.5 -223.5q0 -113 -59 -190t-145 -77q-30 0 -51 13.5t-30 31.5q-47 -49 -119 -49t-116 47.5t-44 127.5q0 92 56 159.5t142 67.5q77 0 115 -59zM425 459q-50 0 -79.5 -40.5t-29.5 -95.5q0 -41 21 -65.5t59 -24.5q50 0 79.5 41t29.5 98q0 41 -20.5 64
t-59.5 23z" />
    <glyph glyph-name="notequal.case" 
d="M54 407v130h239l36 73h139l-36 -73h120v-130h-183l-30 -62h213v-130h-276l-41 -85h-139l41 85h-83v130h146l30 62h-176z" />
    <glyph glyph-name="plusminus.case" 
d="M51 40v134h498v-134h-498zM47 369v130h188v140h134v-140h188v-130h-188v-140h-134v140h-188z" />
    <glyph glyph-name="lessequal.case" 
d="M74 40v134h435v-134h-435zM509 685v-150l-288 -87v-3l288 -88v-152l-435 180v118z" />
    <glyph glyph-name="greaterequal.case" 
d="M530 174v-134h-435v134h435zM95 535v150l435 -182v-118l-435 -180v152l288 88v3z" />
    <glyph glyph-name="logicalnot.case" 
d="M40 373v134h505v-330h-145v196h-360z" />
    <glyph glyph-name="approxequal.case" 
d="M478 552l89 -69q-71 -129 -162 -129q-42 0 -115 34l-17 8q-54 25 -72 25q-20 0 -36.5 -14.5t-36.5 -51.5l-89 69q71 129 162 129q42 0 115 -34l17 -8q54 -25 72 -25q20 0 36.5 14.5t36.5 51.5zM475 301l89 -69q-71 -129 -162 -129q-42 0 -115 34l-17 8q-54 25 -72 25
q-20 0 -36.5 -14.5t-36.5 -51.5l-89 69q71 129 162 129q42 0 115 -34l17 -8q54 -25 72 -25q20 0 36.5 14.5t36.5 51.5z" />
    <glyph glyph-name="divide.case" 
d="M53 294v134h498v-134h-498zM226 96v146h152v-146h-152zM226 480v146h152v-146h-152z" />
    <glyph glyph-name="infinity.case" horiz-adv-x="817" 
d="M218 547q28 0 52.5 -6t51.5 -23.5t41 -28.5t48 -39q41 36 62 52t56.5 30.5t73.5 14.5q80 0 128.5 -52t48.5 -135q0 -74 -46 -128.5t-128 -54.5q-41 0 -79.5 16.5t-61 34.5t-56.5 51q-35 -33 -58 -51.5t-60.5 -34.5t-76.5 -16q-86 0 -131 54t-45 129q0 83 49 135t131 52z
M596 306q26 0 41 15.5t15 41.5q0 24 -15 40t-39 16q-42 0 -107 -58q24 -19 36 -28t32 -18t37 -9zM223 306q17 0 37 9t32.5 18.5t34.5 27.5q-67 58 -106 58q-24 0 -39 -16t-15 -40q0 -26 15 -41.5t41 -15.5z" />
    <glyph glyph-name="zero.posf" horiz-adv-x="640" 
d="M320 113q61 0 85 53.5t24 177.5q0 129 -23.5 187.5t-85.5 58.5t-85.5 -58.5t-23.5 -187.5q0 -124 24 -177.5t85 -53.5zM320 718q65 0 114 -19.5t79.5 -52.5t49.5 -81.5t26 -100.5t7 -116q0 -86 -12.5 -149t-42.5 -113t-85.5 -75.5t-135.5 -25.5t-135.5 25.5t-85.5 75.5
t-42.5 113t-12.5 149q0 64 7 116t26 100.5t49.5 81.5t79.5 52.5t114 19.5z" />
    <glyph glyph-name="one.posf" horiz-adv-x="449" 
d="M198 469h-175v110h16q71 0 116.5 32t62.5 90h140v-701h-160v469z" />
    <glyph glyph-name="two.posf" horiz-adv-x="617" 
d="M571 0h-530v127q106 80 238 185q65 51 92 94t27 87q0 42 -24.5 64.5t-67.5 22.5q-50 0 -74.5 -30t-24.5 -81h-160q1 116 70 182.5t191 66.5q120 0 189.5 -58t69.5 -156q0 -137 -165 -261q-32 -24 -82 -59.5t-76 -56.5q22 1 59 1h268v-128z" />
    <glyph glyph-name="three.posf" horiz-adv-x="619" 
d="M31 213h162q8 -101 111 -101q53 0 81 26.5t28 71.5q0 98 -144 98h-13v124q131 0 131 88q0 33 -23.5 52.5t-61.5 19.5q-39 0 -63 -21t-25 -62h-155q2 95 69 152t180 57q109 0 175.5 -53t66.5 -138q0 -60 -29 -93.5t-85 -53.5v-2q144 -44 144 -178q0 -98 -74.5 -157
t-201.5 -59q-124 0 -197 60.5t-76 168.5z" />
    <glyph glyph-name="four.posf" horiz-adv-x="647" 
d="M614 264v-128h-101v-136h-155v136h-334v122l304 443h185v-437h101zM170 263q27 1 88 1h100v165q0 2 3 122h-2q-41 -71 -75 -122l-54 -80z" />
    <glyph glyph-name="five.posf" horiz-adv-x="611" 
d="M33 203h171q6 -41 33 -65t71 -24q50 0 78.5 31.5t28.5 83.5q0 50 -28.5 81.5t-76.5 31.5q-64 0 -96 -57l-159 26l44 390h429v-130h-302q-10 -81 -20 -144h1q55 42 139 42q103 0 168 -63.5t65 -169.5q0 -115 -74.5 -182t-198.5 -67q-117 0 -191 59.5t-82 156.5z" />
    <glyph glyph-name="six.posf" horiz-adv-x="629" 
d="M578 535l-166 1q-10 30 -29.5 46t-57.5 16q-54 0 -84 -50.5t-30 -133.5q54 51 152 51t162.5 -61.5t64.5 -171.5q0 -108 -72.5 -176.5t-198.5 -68.5q-133 0 -205 87.5t-72 247.5q0 192 71.5 296t219.5 104q106 0 167.5 -53.5t77.5 -133.5zM320 340q-47 0 -77 -30.5
t-30 -80.5q0 -51 30.5 -82t77.5 -31t77 30.5t30 80.5q0 52 -30.5 82.5t-77.5 30.5z" />
    <glyph glyph-name="seven.posf" horiz-adv-x="548" 
d="M282 0h-176q96 293 263 570l-1 1q-22 -1 -120 -1h-223v131h507v-126q-130 -214 -250 -575z" />
    <glyph glyph-name="eight.posf" horiz-adv-x="623" 
d="M312 -16q-125 0 -199 57t-74 153q0 130 146 180v1q-118 40 -118 155q0 81 67.5 134.5t175.5 53.5q110 0 178 -53.5t68 -134.5q0 -115 -118 -155v-1q146 -52 146 -180q0 -96 -74 -153t-198 -57zM311 309q-49 0 -80 -28t-31 -73q0 -43 30.5 -70.5t80.5 -27.5q49 0 79 27.5
t30 70.5q0 45 -30 73t-79 28zM312 594q-43 0 -68.5 -23.5t-25.5 -58.5t26 -59t68 -24t67.5 24t25.5 59t-25.5 58.5t-67.5 23.5z" />
    <glyph glyph-name="nine.posf" horiz-adv-x="629" 
d="M48 167l169 -1q10 -30 29.5 -46t57.5 -16q54 0 83.5 49t29.5 133q-54 -51 -151 -51q-98 0 -162 62t-64 172q0 107 72.5 176t197.5 69q133 0 205 -88t72 -252q0 -395 -292 -395q-106 0 -168.5 54t-78.5 134zM309 363q47 0 77 30.5t30 80.5q0 51 -30.5 82t-77.5 31
t-77 -30.5t-30 -80.5q0 -52 30.5 -82.5t77.5 -30.5z" />
    <glyph glyph-name="brokenbar.case" horiz-adv-x="317" 
d="M90 428v303h137v-303h-137zM90 -62v303h137v-303h-137z" />
    <glyph glyph-name="idotaccent" horiz-adv-x="280" 
d="M62 587v128h156v-128h-156zM218 0h-156v525h156v-525z" />
    <glyph glyph-name="zero.tosf" 
d="M302 113q60 0 83.5 54t23.5 177q0 129 -23.5 187.5t-83.5 58.5t-83.5 -58.5t-23.5 -187.5q0 -123 23.5 -177t83.5 -54zM302 718q64 0 112 -19.5t77.5 -52.5t48 -82t25.5 -100.5t7 -115.5q0 -86 -12 -149t-41.5 -113t-83.5 -75.5t-133 -25.5t-133 25.5t-83.5 75.5
t-41.5 113t-12 149q0 64 7 115.5t25.5 100.5t48 82t77.5 52.5t112 19.5z" />
    <glyph glyph-name="one.tosf" 
d="M275 469h-172v110h16q69 0 114 32t61 90h138v-701h-157v469z" />
    <glyph glyph-name="two.tosf" 
d="M560 0h-520v127q119 92 234 185q63 51 89.5 94t26.5 87q0 42 -24 64.5t-66 22.5q-49 0 -73 -30t-24 -81h-157q1 116 68.5 182.5t187.5 66.5q118 0 186 -58t68 -156q0 -137 -162 -261q-33 -25 -81.5 -60t-73.5 -56q22 1 58 1h263v-128z" />
    <glyph glyph-name="three.tosf" 
d="M28 213h159q8 -101 109 -101q52 0 79.5 26.5t27.5 71.5q0 98 -141 98h-13v124q128 0 128 88q0 33 -22.5 52.5t-60.5 19.5t-61.5 -21t-24.5 -62h-152q2 95 67.5 152t176.5 57q107 0 172 -53t65 -138q0 -60 -28.5 -93.5t-83.5 -53.5v-2q142 -44 142 -178q0 -98 -73 -157
t-198 -59q-122 0 -193.5 60.5t-74.5 168.5z" />
    <glyph glyph-name="four.tosf" 
d="M586 264v-128h-99v-136h-152v136h-327v122l298 443h181v-437h99zM151 263q26 1 86 1h98v165q0 2 3 122h-2q-35 -62 -73 -122l-53 -80z" />
    <glyph glyph-name="five.tosf" 
d="M34 203h168q6 -41 32 -65t70 -24q49 0 77 31.5t28 83.5q0 50 -28 81.5t-75 31.5q-64 0 -94 -57l-156 26l43 390h421v-130h-296q-10 -81 -20 -144h1q54 42 136 42q101 0 165 -63.5t64 -169.5q0 -115 -73 -182t-195 -67q-115 0 -187.5 59.5t-80.5 156.5z" />
    <glyph glyph-name="six.tosf" 
d="M560 536l-163 1q-10 30 -29 46t-56 16q-53 0 -82.5 -50.5t-29.5 -133.5q54 51 149 51q97 0 160 -61t63 -172q0 -108 -71.5 -176.5t-194.5 -68.5q-130 0 -201 87.5t-71 247.5q0 192 70.5 296t215.5 104q104 0 164 -53.5t76 -133.5zM307 341q-46 0 -75.5 -30.5t-29.5 -80.5
q0 -51 30 -82t76 -31t75.5 30.5t29.5 80.5q0 52 -29.5 82.5t-76.5 30.5z" />
    <glyph glyph-name="seven.tosf" 
d="M311 0h-173q95 294 258 570l-1 1q-21 -1 -117 -1h-219v131h497v-126q-129 -218 -245 -575z" />
    <glyph glyph-name="eight.tosf" 
d="M302 -16q-122 0 -195 57t-73 153q0 130 144 180v1q-116 40 -116 155q0 81 66 134.5t172 53.5q108 0 174.5 -53.5t66.5 -134.5q0 -115 -116 -155v-1q144 -52 144 -180q0 -96 -72.5 -153t-194.5 -57zM301 309q-49 0 -79 -28t-30 -73q0 -43 30 -70.5t79 -27.5
q48 0 77.5 27.5t29.5 70.5q0 45 -29.5 73t-77.5 28zM302 594q-42 0 -67 -23.5t-25 -58.5t25.5 -59t66.5 -24t66 24t25 59t-25 58.5t-66 23.5z" />
    <glyph glyph-name="nine.tosf" 
d="M41 171l166 -1q10 -30 29 -46t56 -16q53 0 82 48.5t29 133.5q-54 -51 -148 -51q-96 0 -159 62t-63 172q0 107 71.5 176t193.5 69q131 0 201.5 -88t70.5 -252q0 -395 -287 -395q-104 0 -165 54t-77 134zM297 367q46 0 75.5 30.5t29.5 80.5q0 51 -30 82t-76 31t-75.5 -30.5
t-29.5 -80.5q0 -52 29.5 -82.5t76.5 -30.5z" />
    <glyph glyph-name="a.sub" horiz-adv-x="430" 
d="M396 -123h-108q-2 34 -2 40q-22 -23 -48.5 -35.5t-73.5 -12.5q-65 0 -104.5 31.5t-39.5 86.5q0 113 224 133l34 3q-3 79 -63 79q-55 0 -62 -55h-115q5 62 50.5 98.5t126.5 36.5q90 0 133.5 -40.5t43.5 -137.5v-139q0 -48 4 -88zM277 51l-16 -2q-119 -15 -119 -58
q0 -20 16 -32t42 -12q76 0 77 96v8z" />
    <glyph glyph-name="b.sub" horiz-adv-x="479" 
d="M154 -123h-112v536h119v-144q0 -8 -0.5 -20.5t-0.5 -16.5q43 50 119 50q78 0 126 -55t48 -150t-49 -152.5t-130 -57.5t-120 57v-47zM239 190q-38 0 -61.5 -30.5t-23.5 -81.5q0 -54 23 -86.5t62 -32.5q40 0 64 32.5t24 83.5t-23.5 83t-64.5 32z" />
    <glyph glyph-name="c.sub" horiz-adv-x="449" 
d="M313 21h117q-14 -70 -65.5 -111.5t-131.5 -41.5q-94 0 -151 58t-57 150q0 93 58 152t151 59q79 0 130 -40t65 -113h-120q-16 60 -74 60q-40 0 -63.5 -32t-23.5 -85q0 -56 24 -85.5t66 -29.5q26 0 47 15t28 44z" />
    <glyph glyph-name="d.sub" horiz-adv-x="479" 
d="M437 -123h-113v15.5v18.5v13q-42 -57 -121 -57q-80 0 -128.5 55.5t-48.5 150.5t49 152t127 57q73 0 116 -50v181h119v-536zM238 190q-39 0 -62.5 -32t-23.5 -83q0 -50 23.5 -83t62.5 -33q41 0 64 32.5t23 86.5q0 51 -24 81.5t-63 30.5z" />
    <glyph glyph-name="e.sub" horiz-adv-x="457" 
d="M308 -2h122q-19 -59 -70.5 -94.5t-128.5 -35.5q-95 0 -150.5 56.5t-55.5 153.5q0 92 58 150.5t150 58.5q97 0 150 -59t53 -159l-1 -21h-292q4 -42 29.5 -66.5t61.5 -24.5q54 0 74 41zM146 123h170q-5 38 -27 59t-57 21q-33 0 -56.5 -21.5t-29.5 -58.5z" />
    <glyph glyph-name="f.sub" horiz-adv-x="270" 
d="M73 270v18q0 64 38.5 98.5t106.5 34.5q22 0 40 -4v-88q-8 2 -20 2q-47 0 -47 -50v-11h67v-86h-67v-307h-118v307h-53v86h53z" />
    <glyph glyph-name="g.sub" horiz-adv-x="481" 
d="M36 -137h125q21 -48 73 -48q51 0 72 33t19 100q-39 -57 -123 -57q-79 0 -127 53t-48 141q0 86 50 140.5t127 54.5q83 0 120 -55q-1 7 -1 44h116v-332q0 -102 -54 -155.5t-155 -53.5q-83 0 -132.5 36t-61.5 99zM240 190q-39 0 -63 -30t-24 -76q0 -45 23.5 -73.5
t63.5 -28.5q38 0 62 28.5t24 77.5q0 45 -23.5 73.5t-62.5 28.5z" />
    <glyph glyph-name="h.sub" horiz-adv-x="454" 
d="M161 -123h-119v537h119v-85q0 -66 -1 -99q36 51 115 51q81 0 118 -64q23 -40 23 -138v-202h-119v191q0 62 -14 90.5t-50 28.5q-72 0 -72 -108v-202z" />
    <glyph glyph-name="i.sub" horiz-adv-x="203" 
d="M42 316v98h119v-98h-119zM161 -123h-119v394h119v-394z" />
    <glyph glyph-name="j.sub" horiz-adv-x="202" 
d="M160 270v-392q0 -81 -29.5 -113.5t-107.5 -32.5q-28 0 -53 5v83q6 -1 13 -1q32 0 45.5 14.5t13.5 46.5v390h118zM42 315v98h118v-98h-118z" />
    <glyph glyph-name="k.sub" horiz-adv-x="428" 
d="M161 -123h-119v537h119v-315q38 53 117 172h145q-128 -152 -148 -181q21 -29 163 -213h-151q-6 10 -65 95q-52 75 -61 94v-189z" />
    <glyph glyph-name="l.sub" horiz-adv-x="203" 
d="M161 -123h-119v537h119v-537z" />
    <glyph glyph-name="m.sub" horiz-adv-x="692" 
d="M407 -123h-119v191q0 64 -12.5 92t-45.5 28q-69 0 -69 -109v-202h-119v333q0 41 -1 61h114v-51q33 61 116 61q76 0 116 -65q15 27 47.5 46t80.5 19q62 0 100.5 -40.5t38.5 -130.5v-233h-119v191q0 64 -12.5 92t-45.5 28q-70 0 -70 -109v-202z" />
    <glyph glyph-name="n.sub" horiz-adv-x="454" 
d="M161 -123h-119v333q0 41 -1 61h114v-51q33 61 119 61q81 0 119 -64q23 -39 23 -138v-202h-119v191q0 61 -14 90.5t-50 29.5q-72 0 -72 -109v-202z" />
    <glyph glyph-name="o.sub" horiz-adv-x="475" 
d="M236 286q97 0 155.5 -58t58.5 -153q0 -93 -58.5 -150.5t-154.5 -57.5q-97 0 -154.5 57.5t-57.5 151.5t58 152t153 58zM235 193q-41 0 -64.5 -32t-23.5 -85q0 -55 23 -85.5t66 -30.5t66 30.5t23 84.5t-23.5 86t-66.5 32z" />
    <glyph glyph-name="p.sub" horiz-adv-x="479" 
d="M42 270h117q0 -5 -0.5 -14t-0.5 -12v-13q43 50 121 50q79 0 126.5 -54.5t47.5 -150.5q0 -94 -49 -152t-130 -58q-75 0 -114 47q1 -23 1 -80v-92h-119v529zM239 191q-38 0 -61.5 -31.5t-23.5 -82.5q0 -53 23 -85.5t62 -32.5q41 0 64.5 32.5t23.5 83.5t-24 83.5t-64 32.5z
" />
    <glyph glyph-name="q.sub" horiz-adv-x="479" 
d="M319 269h118v-529h-119v104q0 38 1 70q-41 -49 -114 -49q-81 0 -130 56t-49 150q0 96 49 152.5t127 56.5q75 0 117 -49v38zM238 190q-39 0 -62.5 -33t-23.5 -83q0 -51 23.5 -83.5t62.5 -32.5q41 0 64 32.5t23 85.5q0 52 -24 83t-63 31z" />
    <glyph glyph-name="r.sub" horiz-adv-x="295" 
d="M42 -123v323q0 46 -1 71h111q0 -14 -0.5 -29.5t-0.5 -18.5l1 -10q31 68 108 68q17 0 25 -2v-107q-15 3 -32 3q-59 0 -75.5 -38t-16.5 -136v-124h-119z" />
    <glyph glyph-name="s.sub" horiz-adv-x="423" 
d="M18 11h123q12 -58 75 -58q27 0 44.5 10t17.5 26t-15.5 24.5t-49.5 17.5l-50 13q-68 17 -99 44t-31 77q0 56 46.5 89.5t130.5 33.5q78 0 126 -32.5t55 -95.5h-116q-14 45 -68 45q-25 0 -39.5 -9t-14.5 -23q0 -11 10.5 -19.5t24 -13t43.5 -12.5l27 -7q79 -21 110.5 -47.5
t31.5 -77.5q0 -59 -49 -93t-136 -34q-179 0 -197 142z" />
    <glyph glyph-name="t.sub" horiz-adv-x="289" 
d="M72 185h-59v85h59v105h118v-105h72v-85h-72v-134q0 -57 7.5 -75.5t38.5 -18.5q7 0 21 2v-87q-22 -4 -47 -4q-75 0 -106.5 30t-31.5 109v178z" />
    <glyph glyph-name="u.sub" horiz-adv-x="450" 
d="M289 271h119v-333q0 -41 1 -61h-114v51q-34 -61 -116 -61t-119 64q-22 39 -22 138v202h119v-191q0 -62 13 -91t48 -29q71 0 71 109v202z" />
    <glyph glyph-name="v.sub" horiz-adv-x="413" 
d="M141 -123l-1 1q-10 27 -136 392h125l80 -273q9 40 54 193l24 80h123q-41 -118 -92 -262l-46 -131h-131z" />
    <glyph glyph-name="w.sub" horiz-adv-x="640" 
d="M120 -123l-1 1q-7 26 -18.5 66t-36 127.5t-55.5 198.5h122q20 -81 64 -280q8 50 61 280h129l66 -280l61 280h120l-111 -393h-143l-30 120q-21 86 -29 126q-15 -75 -28 -126l-30 -120h-141z" />
    <glyph glyph-name="x.sub" horiz-adv-x="404" 
d="M-2 -123l133 204l-122 189h132q11 -21 32 -60t31 -58q60 114 62 118h127l-120 -189q48 -75 136 -204h-133q-61 109 -74 133l-74 -133h-130z" />
    <glyph glyph-name="y.sub" horiz-adv-x="411" 
d="M102 -259l-1 1q37 113 46 140q-124 323 -147 388h127q9 -30 83 -262l74 262h122l-184 -529h-120z" />
    <glyph glyph-name="z.sub" horiz-adv-x="399" 
d="M27 -123v86q119 132 192 221q-28 -2 -88 -2h-97v88h328v-86q-95 -106 -193 -220q33 1 97 1h107v-88h-346z" />
    <glyph glyph-name="zero.sub" horiz-adv-x="483" 
d="M241 -33q45 0 63 41t18 135q0 97 -17.5 141.5t-63.5 44.5q-45 0 -62.5 -44.5t-17.5 -141.5q0 -93 17.5 -134.5t62.5 -41.5zM241 429q61 0 103 -22t64 -63t31.5 -88.5t9.5 -109.5q0 -137 -45.5 -207.5t-162.5 -70.5t-162 70.5t-45 207.5q0 62 9 109.5t31.5 88.5t64.5 63
t102 22z" />
    <glyph glyph-name="one.sub" horiz-adv-x="342" 
d="M149 234h-130v87h13q106 0 131 93h108v-537h-122v357z" />
    <glyph glyph-name="two.sub" horiz-adv-x="467" 
d="M431 -123h-399v98q131 102 179 142q88 73 88 137q0 31 -18 48t-50 17q-36 0 -54 -23t-18 -62h-122q0 86 52 139t143 53t143.5 -44t52.5 -120q0 -105 -124 -200q-85 -63 -117 -87q16 1 42 1h202v-99z" />
    <glyph glyph-name="three.sub" horiz-adv-x="466" 
d="M24 44h123q3 -37 24 -57t57 -20q39 0 60 20.5t21 53.5q0 74 -106 74h-11v96q98 0 98 66q0 25 -17.5 39.5t-45.5 14.5t-45.5 -16t-18.5 -47h-118q2 74 50.5 117.5t135.5 43.5q83 0 133 -40t50 -106q0 -84 -83 -113q105 -37 105 -137q0 -76 -55.5 -120.5t-152.5 -44.5
q-93 0 -147.5 46.5t-56.5 129.5z" />
    <glyph glyph-name="four.sub" horiz-adv-x="489" 
d="M463 80v-99h-76v-104h-118v104h-249v95l227 338h140v-334h76zM176 143q-6 -10 -15.5 -23.5t-17.5 -26t-10 -14.5q19 1 63 1h73v125q0 6 0.5 15t1 27.5t0.5 43.5l-2 1q-38 -67 -52 -88z" />
    <glyph glyph-name="five.sub" horiz-adv-x="464" 
d="M27 33h130q5 -31 25 -49.5t51 -18.5q37 0 58.5 24t21.5 63q0 37 -21.5 61t-56.5 24q-48 0 -71 -43l-120 19l33 300h322v-101h-225q-7 -37 -14 -106q42 30 102 30q78 0 127 -48.5t49 -130.5q0 -88 -56 -139t-150 -51q-87 0 -143 45.5t-62 120.5z" />
    <glyph glyph-name="six.sub" horiz-adv-x="476" 
d="M436 284l-126 1q-16 47 -64 47q-38 0 -60.5 -38t-23.5 -99q39 37 112 37q75 0 123 -46.5t48 -131.5q0 -84 -54 -135.5t-150 -51.5q-100 0 -154 66.5t-54 188.5q0 306 219 306q80 0 126 -41t58 -103zM242 136q-34 0 -56 -23.5t-22 -61.5t22.5 -61.5t56.5 -23.5t56.5 23
t22.5 61q0 39 -22.5 62.5t-57.5 23.5z" />
    <glyph glyph-name="seven.sub" horiz-adv-x="416" 
d="M215 -123h-133q76 227 195 435q-24 -1 -63 -1h-193v103h382v-98q-98 -163 -188 -439z" />
    <glyph glyph-name="eight.sub" horiz-adv-x="470" 
d="M235 -132q-94 0 -149.5 43.5t-55.5 117.5q0 99 108 139q-87 27 -87 117q0 62 50.5 103t131.5 41q84 0 135 -41t51 -103q0 -88 -87 -119q108 -40 108 -137q0 -74 -55.5 -117.5t-149.5 -43.5zM234 116q-35 0 -58 -21.5t-23 -55.5q0 -31 22.5 -52.5t58.5 -21.5t58.5 21
t22.5 53q0 34 -22.5 55.5t-58.5 21.5zM235 333q-31 0 -50 -18t-19 -44t19.5 -44t49.5 -18q31 0 50 18t19 44t-19 44t-50 18z" />
    <glyph glyph-name="nine.sub" horiz-adv-x="476" 
d="M37 12l129 -1q16 -47 63 -47q39 0 61 36.5t23 98.5q-39 -37 -111 -37q-74 0 -122.5 47.5t-48.5 132.5q0 82 54.5 134.5t148.5 52.5q101 0 155 -67t54 -192q0 -302 -220 -302q-80 0 -127 41t-59 103zM233 162q34 0 56.5 22.5t22.5 60.5q0 39 -22.5 62.5t-57.5 23.5
q-34 0 -56 -23t-22 -61q0 -39 22.5 -62t56.5 -23z" />
    <glyph glyph-name="zero.sup" horiz-adv-x="483" 
d="M241 392q45 0 63 41t18 135q0 97 -17.5 141.5t-63.5 44.5q-45 0 -62.5 -44.5t-17.5 -141.5q0 -93 17.5 -134.5t62.5 -41.5zM241 854q61 0 103 -22t64 -63t31.5 -88.5t9.5 -109.5q0 -137 -45.5 -207.5t-162.5 -70.5t-162 70.5t-45 207.5q0 62 9 109.5t31.5 88.5t64.5 63
t102 22z" />
    <glyph glyph-name="one.sup" horiz-adv-x="342" 
d="M149 659h-130v87h13q106 0 131 93h108v-537h-122v357z" />
    <glyph glyph-name="two.sup" horiz-adv-x="467" 
d="M431 302h-399v98q131 102 179 142q88 73 88 137q0 31 -18 48t-50 17q-36 0 -54 -23t-18 -62h-122q0 86 52 139t143 53t143.5 -44t52.5 -120q0 -105 -124 -200q-85 -63 -117 -87q16 1 42 1h202v-99z" />
    <glyph glyph-name="three.sup" horiz-adv-x="466" 
d="M24 469h123q3 -37 24 -57t57 -20q39 0 60 20.5t21 53.5q0 74 -106 74h-11v96q98 0 98 66q0 25 -17.5 39.5t-45.5 14.5t-45.5 -16t-18.5 -47h-118q2 74 50.5 117.5t135.5 43.5q83 0 133 -40t50 -106q0 -84 -83 -113q105 -37 105 -137q0 -76 -55.5 -120.5t-152.5 -44.5
q-93 0 -147.5 46.5t-56.5 129.5z" />
    <glyph glyph-name="four.sup" horiz-adv-x="489" 
d="M463 505v-99h-76v-104h-118v104h-249v95l227 338h140v-334h76zM176 568q-6 -10 -15.5 -23.5t-17.5 -26t-10 -14.5q19 1 63 1h73v125q0 6 0.5 15t1 27.5t0.5 43.5l-2 1q-38 -67 -52 -88z" />
    <glyph glyph-name="five.sup" horiz-adv-x="462" 
d="M26 458h130q5 -31 25 -49.5t51 -18.5q37 0 58.5 24t21.5 63q0 37 -21.5 61t-56.5 24q-48 0 -71 -43l-120 19l33 300h322v-101h-225q-7 -37 -14 -106q42 30 102 30q78 0 127 -48.5t49 -130.5q0 -88 -56 -139t-150 -51q-87 0 -143 45.5t-62 120.5z" />
    <glyph glyph-name="six.sup" horiz-adv-x="475" 
d="M436 709l-126 1q-16 47 -64 47q-38 0 -60.5 -38t-23.5 -99q39 37 112 37q75 0 123 -46.5t48 -131.5q0 -84 -54 -135.5t-150 -51.5q-100 0 -154 66.5t-54 188.5q0 306 219 306q80 0 126 -41t58 -103zM242 561q-34 0 -56 -23.5t-22 -61.5t22.5 -61.5t56.5 -23.5t56.5 23
t22.5 61q0 39 -22.5 62.5t-57.5 23.5z" />
    <glyph glyph-name="seven.sup" horiz-adv-x="415" 
d="M215 302h-133q76 227 195 435q-24 -1 -63 -1h-193v103h382v-98q-98 -163 -188 -439z" />
    <glyph glyph-name="eight.sup" horiz-adv-x="470" 
d="M235 293q-94 0 -149.5 43.5t-55.5 117.5q0 99 108 139q-87 27 -87 117q0 62 50.5 103t131.5 41q84 0 135 -41t51 -103q0 -88 -87 -119q108 -40 108 -137q0 -74 -55.5 -117.5t-149.5 -43.5zM234 541q-35 0 -58 -21.5t-23 -55.5q0 -31 22.5 -52.5t58.5 -21.5t58.5 21
t22.5 53q0 34 -22.5 55.5t-58.5 21.5zM235 758q-31 0 -50 -18t-19 -44t19.5 -44t49.5 -18q31 0 50 18t19 44t-19 44t-50 18z" />
    <glyph glyph-name="nine.sup" horiz-adv-x="477" 
d="M38 437l129 -1q16 -47 63 -47q39 0 61 36.5t23 98.5q-39 -37 -111 -37q-74 0 -122.5 47.5t-48.5 132.5q0 82 54.5 134.5t148.5 52.5q101 0 155 -67t54 -192q0 -302 -220 -302q-80 0 -127 41t-59 103zM234 587q34 0 56.5 22.5t22.5 60.5q0 39 -22.5 62.5t-57.5 23.5
q-34 0 -56 -23t-22 -61q0 -39 22.5 -62t56.5 -23z" />
    <glyph glyph-name="a.sup" horiz-adv-x="430" 
d="M396 302h-108q-2 34 -2 40q-22 -23 -48.5 -35.5t-73.5 -12.5q-65 0 -104.5 31.5t-39.5 86.5q0 113 224 133l34 3q-3 79 -63 79q-55 0 -62 -55h-115q5 62 50.5 98.5t126.5 36.5q90 0 133.5 -40.5t43.5 -137.5v-139q0 -48 4 -88zM277 476l-16 -2q-119 -15 -119 -58
q0 -20 16 -32t42 -12q76 0 77 96v8z" />
    <glyph glyph-name="b.sup" horiz-adv-x="479" 
d="M154 302h-112v536h119v-144q0 -8 -0.5 -20.5t-0.5 -16.5q43 50 119 50q78 0 126 -55t48 -150t-49 -152.5t-130 -57.5t-120 57v-47zM239 615q-38 0 -61.5 -30.5t-23.5 -81.5q0 -54 23 -86.5t62 -32.5q40 0 64 32.5t24 83.5t-23.5 83t-64.5 32z" />
    <glyph glyph-name="c.sup" horiz-adv-x="449" 
d="M313 446h117q-14 -70 -65.5 -111.5t-131.5 -41.5q-94 0 -151 58t-57 150q0 93 58 152t151 59q79 0 130 -40t65 -113h-120q-16 60 -74 60q-40 0 -63.5 -32t-23.5 -85q0 -56 24 -85.5t66 -29.5q26 0 47 15t28 44z" />
    <glyph glyph-name="d.sup" horiz-adv-x="479" 
d="M437 302h-113v47q-42 -57 -121 -57q-80 0 -128.5 55.5t-48.5 150.5t49 152t127 57q73 0 116 -50v181h119v-536zM238 615q-39 0 -62.5 -32t-23.5 -83q0 -50 23.5 -83t62.5 -33q41 0 64 32.5t23 86.5q0 51 -24 81.5t-63 30.5z" />
    <glyph glyph-name="e.sup" horiz-adv-x="456" 
d="M308 423h122q-19 -59 -70.5 -94.5t-128.5 -35.5q-95 0 -150.5 56.5t-55.5 153.5q0 92 58 150.5t150 58.5q97 0 150 -59t53 -159l-1 -21h-292q4 -42 29.5 -66.5t61.5 -24.5q54 0 74 41zM146 548h170q-5 38 -27 59t-57 21q-33 0 -56.5 -21.5t-29.5 -58.5z" />
    <glyph glyph-name="f.sup" horiz-adv-x="269" 
d="M72 695v18q0 64 38.5 98.5t106.5 34.5q22 0 40 -4v-88q-8 2 -20 2q-47 0 -47 -50v-11h67v-86h-67v-307h-118v307h-53v86h53z" />
    <glyph glyph-name="g.sup" horiz-adv-x="480" 
d="M35 288h125q21 -48 73 -48q51 0 72 33t19 100q-39 -57 -123 -57q-79 0 -127 53t-48 141q0 86 50 140.5t127 54.5q83 0 120 -55q-1 8 -1 44h116v-332q0 -102 -54 -155.5t-155 -53.5q-83 0 -132.5 36t-61.5 99zM239 615q-39 0 -63 -30t-24 -76q0 -45 23.5 -73.5t63.5 -28.5
q38 0 62 28.5t24 77.5q0 45 -23.5 73.5t-62.5 28.5z" />
    <glyph glyph-name="h.sup" horiz-adv-x="454" 
d="M161 302h-119v537h119v-85q0 -66 -1 -99q36 51 115 51q81 0 118 -64q23 -40 23 -138v-202h-119v191q0 62 -14 90.5t-50 28.5q-72 0 -72 -108v-202z" />
    <glyph glyph-name="i.sup" horiz-adv-x="203" 
d="M42 741v98h119v-98h-119zM161 302h-119v394h119v-394z" />
    <glyph glyph-name="j.sup" horiz-adv-x="202" 
d="M160 695v-392q0 -81 -29.5 -113.5t-107.5 -32.5q-28 0 -53 5v83q6 -1 13 -1q32 0 45.5 14.5t13.5 46.5v390h118zM42 740v98h118v-98h-118z" />
    <glyph glyph-name="k.sup" horiz-adv-x="428" 
d="M161 302h-119v537h119v-315q38 53 117 172h145q-128 -152 -148 -181q21 -29 163 -213h-151q-6 10 -65 95q-52 75 -61 94v-189z" />
    <glyph glyph-name="l.sup" horiz-adv-x="203" 
d="M161 302h-119v537h119v-537z" />
    <glyph glyph-name="m.sup" horiz-adv-x="692" 
d="M407 302h-119v191q0 64 -12.5 92t-45.5 28q-69 0 -69 -109v-202h-119v333q0 41 -1 61h114v-51q33 61 116 61q76 0 116 -65q15 27 47.5 46t80.5 19q62 0 100.5 -40.5t38.5 -130.5v-233h-119v191q0 64 -12.5 92t-45.5 28q-70 0 -70 -109v-202z" />
    <glyph glyph-name="n.sup" horiz-adv-x="454" 
d="M161 302h-119v333q0 41 -1 61h114v-51q33 61 119 61q81 0 119 -64q23 -39 23 -138v-202h-119v191q0 61 -14 90.5t-50 29.5q-72 0 -72 -109v-202z" />
    <glyph glyph-name="o.sup" horiz-adv-x="475" 
d="M236 711q97 0 155.5 -58t58.5 -153q0 -93 -58.5 -150.5t-154.5 -57.5q-97 0 -154.5 57.5t-57.5 151.5t58 152t153 58zM235 618q-41 0 -64.5 -32t-23.5 -85q0 -55 23 -85.5t66 -30.5t66 30.5t23 84.5t-23.5 86t-66.5 32z" />
    <glyph glyph-name="p.sup" horiz-adv-x="479" 
d="M42 695h117q0 -5 -0.5 -14t-0.5 -12v-13q43 50 121 50q79 0 126.5 -54.5t47.5 -150.5q0 -94 -49 -152t-130 -58q-75 0 -114 47q1 -23 1 -80v-92h-119v529zM239 616q-38 0 -61.5 -31.5t-23.5 -82.5q0 -53 23 -85.5t62 -32.5q41 0 64.5 32.5t23.5 83.5t-24 83.5t-64 32.5z
" />
    <glyph glyph-name="q.sup" horiz-adv-x="479" 
d="M319 694h118v-529h-119v104q0 38 1 70q-41 -49 -114 -49q-81 0 -130 56t-49 150q0 96 49 152.5t127 56.5q75 0 117 -49v38zM238 615q-39 0 -62.5 -33t-23.5 -83q0 -51 23.5 -83.5t62.5 -32.5q41 0 64 32.5t23 85.5q0 52 -24 83t-63 31z" />
    <glyph glyph-name="r.sup" horiz-adv-x="295" 
d="M42 302v323q0 46 -1 71h111q0 -14 -0.5 -29.5t-0.5 -18.5l1 -10q31 68 108 68q17 0 25 -2v-107q-15 3 -32 3q-59 0 -75.5 -38t-16.5 -136v-124h-119z" />
    <glyph glyph-name="s.sup" horiz-adv-x="422" 
d="M18 436h123q12 -58 75 -58q27 0 44.5 10t17.5 26t-15.5 24.5t-49.5 17.5l-50 13q-68 17 -99 44t-31 77q0 56 46.5 89.5t130.5 33.5q78 0 126 -32.5t55 -95.5h-116q-14 45 -68 45q-25 0 -39.5 -9t-14.5 -23q0 -11 10.5 -19.5t24 -13t43.5 -12.5l27 -7q79 -21 110.5 -47.5
t31.5 -77.5q0 -59 -49 -93t-136 -34q-179 0 -197 142z" />
    <glyph glyph-name="t.sup" horiz-adv-x="288" 
d="M71 610h-59v85h59v105h118v-105h72v-85h-72v-134q0 -57 7.5 -75.5t38.5 -18.5q7 0 21 2v-87q-22 -4 -47 -4q-75 0 -106.5 30t-31.5 109v178z" />
    <glyph glyph-name="u.sup" horiz-adv-x="450" 
d="M289 696h119v-333q0 -41 1 -61h-114v51q-34 -61 -116 -61t-119 64q-22 39 -22 138v202h119v-191q0 -62 13 -91t48 -29q71 0 71 109v202z" />
    <glyph glyph-name="v.sup" horiz-adv-x="411" 
d="M140 302l-1 1q-10 27 -136 392h125l80 -273q9 40 54 193l24 80h123q-41 -118 -92 -262l-46 -131h-131z" />
    <glyph glyph-name="w.sup" horiz-adv-x="639" 
d="M119 302l-1 1q-7 26 -18.5 66t-36 127.5t-55.5 198.5h122q20 -81 64 -280q8 50 61 280h129l66 -280l61 280h120l-111 -393h-143l-30 120q-21 86 -29 126q-15 -75 -28 -126l-30 -120h-141z" />
    <glyph glyph-name="x.sup" horiz-adv-x="403" 
d="M-3 302l133 204l-122 189h132q11 -21 32 -60t31 -58q60 114 62 118h127l-120 -189q48 -75 136 -204h-133q-61 109 -74 133l-74 -133h-130z" />
    <glyph glyph-name="y.sup" horiz-adv-x="411" 
d="M102 166l-1 1q37 113 46 140q-124 323 -147 388h127q9 -30 83 -262l74 262h122l-184 -529h-120z" />
    <glyph glyph-name="z.sup" horiz-adv-x="399" 
d="M28 302v86q119 132 192 221q-28 -2 -88 -2h-97v88h328v-86q-95 -106 -193 -220q33 1 97 1h107v-88h-346z" />
    <glyph glyph-name="zero.slashplf" horiz-adv-x="638" 
d="M319 732q65 0 114 -20t79.5 -53.5t49.5 -83t26 -102.5t7 -118q0 -88 -12.5 -152t-42.5 -115t-85.5 -77t-135.5 -26t-135.5 26t-85.5 77t-42.5 115t-12.5 152q0 65 7 118t26 102.5t49.5 83t79.5 53.5t114 20zM319 115q61 0 85 55t24 181q0 74 -7 122l-126 -356q7 -2 24 -2
zM210 351q0 -47 3 -84l119 334q-4 1 -13 1q-61 0 -85 -59.5t-24 -191.5z" />
    <glyph glyph-name="zero.slashtlf" 
d="M302 732q65 0 114 -20t79.5 -53.5t49.5 -83t26 -102.5t7 -118q0 -88 -12.5 -152t-42.5 -115t-85.5 -77t-135.5 -26t-135.5 26t-85.5 77t-42.5 115t-12.5 152q0 65 7 118t26 102.5t49.5 83t79.5 53.5t114 20zM302 115q61 0 85 55t24 181q0 74 -7 122l-126 -356q7 -2 24 -2
zM193 351q0 -47 3 -84l119 334q-4 1 -13 1q-61 0 -85 -59.5t-24 -191.5z" />
    <glyph glyph-name="zero.tlf" 
d="M302 115q61 0 85 55t24 181q0 132 -24 191.5t-85 59.5t-85 -59.5t-24 -191.5q0 -126 24 -181t85 -55zM302 732q65 0 114 -20t79.5 -53.5t49.5 -83t26 -102.5t7 -118q0 -88 -12.5 -152t-42.5 -115t-85.5 -77t-135.5 -26t-135.5 26t-85.5 77t-42.5 115t-12.5 152
q0 65 7 118t26 102.5t49.5 83t79.5 53.5t114 20z" />
    <glyph glyph-name="one.tlf" 
d="M276 478h-178v113h19q70 0 116 32.5t63 91.5h140v-715h-160v478z" />
    <glyph glyph-name="two.tlf" 
d="M565 0h-530v129q126 98 238 189q65 53 92 96.5t27 88.5q0 42 -24.5 65.5t-67.5 23.5q-50 0 -74.5 -31t-24.5 -83h-160q1 118 70 186t191 68q120 0 189.5 -59t69.5 -159q0 -141 -165 -266q-29 -23 -80 -60t-78 -59q22 1 59 1h268v-130z" />
    <glyph glyph-name="three.tlf" 
d="M23 217h162q4 -50 32.5 -76.5t78.5 -26.5q53 0 81 27t28 73q0 100 -144 100h-13v127q131 0 131 89q0 34 -23.5 54t-61.5 20q-39 0 -63 -21.5t-25 -63.5h-155q2 97 69 155t180 58q109 0 175.5 -53.5t66.5 -140.5q0 -62 -29 -96.5t-85 -53.5v-2q144 -46 144 -182
q0 -100 -74.5 -160t-201.5 -60q-125 0 -197.5 61.5t-75.5 171.5z" />
    <glyph glyph-name="four.tlf" 
d="M592 269v-130h-101v-139h-155v139h-334v124l304 452h185v-446h101zM148 268q27 1 88 1h100v169q0 1 3 124h-2q-43 -76 -75 -124l-54 -82z" />
    <glyph glyph-name="five.tlf" 
d="M29 207h171q6 -41 33 -66t71 -25q50 0 78.5 32t28.5 86q0 51 -28.5 83t-76.5 32q-63 0 -96 -58l-159 26l44 398h429v-132h-302q-10 -83 -20 -147h1q57 43 139 43q103 0 168 -65t65 -173q0 -117 -74.5 -185.5t-198.5 -68.5q-117 0 -191 61t-82 159z" />
    <glyph glyph-name="six.tlf" 
d="M565 546l-166 1q-21 63 -87 63q-54 0 -84 -51.5t-30 -136.5q52 52 152 52q98 0 162.5 -62t64.5 -175q0 -111 -72.5 -180.5t-198.5 -69.5q-133 0 -205 89t-72 252q0 196 71.5 302t219.5 106q106 0 167.5 -54t77.5 -136zM307 347q-47 0 -77 -31t-30 -83t30.5 -83.5
t77.5 -31.5t77 31t30 82q0 53 -30.5 84.5t-77.5 31.5z" />
    <glyph glyph-name="seven.tlf" 
d="M310 0h-176q96 300 263 581l-1 1q-22 -1 -120 -1h-223v134h507v-128q-130 -219 -250 -587z" />
    <glyph glyph-name="eight.tlf" 
d="M302 -16q-125 0 -199 58t-74 156q0 133 146 183v2q-118 40 -118 158q0 82 67.5 136.5t175.5 54.5q110 0 178 -54.5t68 -136.5q0 -118 -118 -158v-2q146 -52 146 -183q0 -98 -74 -156t-198 -58zM301 315q-49 0 -80 -28.5t-31 -74.5q0 -44 30.5 -72t80.5 -28q49 0 79 28
t30 72q0 46 -30 74.5t-79 28.5zM302 606q-43 0 -68.5 -24t-25.5 -60t26 -60t68 -24t67.5 24t25.5 60t-25.5 60t-67.5 24z" />
    <glyph glyph-name="nine.tlf" 
d="M35 170l169 -1q21 -63 87 -63q54 0 83.5 49.5t29.5 136.5q-19 -19 -58.5 -35.5t-92.5 -16.5q-98 0 -162 63t-64 176q0 109 72.5 179t197.5 70q133 0 205 -89.5t72 -256.5q0 -403 -292 -403q-106 0 -168.5 54.5t-78.5 136.5zM296 370q47 0 77 31t30 83t-30.5 83.5
t-77.5 31.5t-77 -31t-30 -82q0 -53 30.5 -84.5t77.5 -31.5z" />
    <glyph glyph-name="zero.slash" horiz-adv-x="638" 
d="M319 732q65 0 114 -20t79.5 -53.5t49.5 -83t26 -102.5t7 -118q0 -88 -12.5 -152t-42.5 -115t-85.5 -77t-135.5 -26t-135.5 26t-85.5 77t-42.5 115t-12.5 152q0 65 7 118t26 102.5t49.5 83t79.5 53.5t114 20zM319 115q61 0 85 55t24 181q0 74 -7 122l-126 -356q7 -2 24 -2
zM210 351q0 -47 3 -84l119 334q-4 1 -13 1q-61 0 -85 -59.5t-24 -191.5z" />
    </font>
</defs>
</svg>
