<?xml version="1.0" standalone="no"?>
<!DOCTYPE svg PUBLIC "-//W3C//DTD SVG 1.1//EN" "http://www.w3.org/Graphics/SVG/1.1/DTD/svg11.dtd" >
<svg xmlns="http://www.w3.org/2000/svg" xmlns:xlink="http://www.w3.org/1999/xlink" version="1.1">
<metadata>
Created by FontForge 20170731 at Fri Oct  4 00:09:16 2019
 By Aleksey,,,
</metadata>
<defs>
<font id="Plain-Light" horiz-adv-x="560" >
  <font-face 
    font-family="Plain Light"
    font-weight="375"
    font-stretch="normal"
    units-per-em="1000"
    panose-1="2 11 0 4 2 2 2 2 2 4"
    ascent="803"
    descent="-197"
    x-height="525"
    cap-height="715"
    bbox="-45 -271 1272 1077"
    underline-thickness="50"
    underline-position="-200"
    unicode-range="U+000D-FB02"
  />
<missing-glyph horiz-adv-x="644" 
d="M50 240v49l309 309q16 -9 26 -23zM50 142v49l347 347v-15q0 -20 -13.5 -37.5t-42 -40t-36.5 -30.5q-23 -22 -36 -54zM104 0h-49l261 261h49l-93 -93h-23v-23zM321 168l273 273v-49l-224 -224h-49zM398 0h-49l33 33h2v2l210 210v-49zM50 338v49l148 148l39 -2q0 29 20 52
t55 23h8zM384 133l210 210v-49l-210 -210v49zM50 44v49l206 206v-38h11zM50 583l196 196h49l-44 -44q-53 -14 -92.5 -53.5t-54.5 -93.5l-54 -54v49zM537 482l57 57v-49l-216 -216v7q0 15 6.5 27.5t11 17.5t25.5 20t27 20q2 1 15.5 11t21.5 17.5t20 20.5t20 30t12 37zM50 681
l98 98h49l-147 -147v49zM496 0h-49l147 147v-49zM459 698l81 81h49l-104 -104q-13 12 -26 23zM50 436v49l56 56l46 -3zM506 647l88 88v-49l-70 -70q-7 15 -18 31zM202 0h-49l96 96v-49zM536 579l58 58v-49l-52 -52q0 15 -6 43zM395 732l47 47h49l-62 -62q-17 9 -34 15z
M307 742l37 37h49l-38 -38q-18 2 -28 2zM300 0h-49l33 33h49zM594 49v-49h-49zM50 779h49l-49 -49v49z" />
    <glyph glyph-name="fi" unicode="fi" horiz-adv-x="504" 
d="M267 718v-67q-14 2 -24 2q-65 0 -65 -65v-63h89v-62h-89v-463h-83v463h-69v62h69v44q0 152 136 152q18 0 36 -3zM429 614h-85v101h85v-101zM346 525h81v-525h-81v525z" />
    <glyph glyph-name="fl" unicode="fl" horiz-adv-x="507" 
d="M267 718v-67q-14 2 -24 2q-65 0 -65 -65v-63h89v-62h-89v-463h-83v463h-69v62h69v44q0 152 136 152q18 0 36 -3zM343 0v715h83v-715h-83z" />
    <glyph glyph-name=".notdef" horiz-adv-x="644" 
d="M50 240v49l309 309q16 -9 26 -23zM50 142v49l347 347v-15q0 -20 -13.5 -37.5t-42 -40t-36.5 -30.5q-23 -22 -36 -54zM104 0h-49l261 261h49l-93 -93h-23v-23zM321 168l273 273v-49l-224 -224h-49zM398 0h-49l33 33h2v2l210 210v-49zM50 338v49l148 148l39 -2q0 29 20 52
t55 23h8zM384 133l210 210v-49l-210 -210v49zM50 44v49l206 206v-38h11zM50 583l196 196h49l-44 -44q-53 -14 -92.5 -53.5t-54.5 -93.5l-54 -54v49zM537 482l57 57v-49l-216 -216v7q0 15 6.5 27.5t11 17.5t25.5 20t27 20q2 1 15.5 11t21.5 17.5t20 20.5t20 30t12 37zM50 681
l98 98h49l-147 -147v49zM496 0h-49l147 147v-49zM459 698l81 81h49l-104 -104q-13 12 -26 23zM50 436v49l56 56l46 -3zM506 647l88 88v-49l-70 -70q-7 15 -18 31zM202 0h-49l96 96v-49zM536 579l58 58v-49l-52 -52q0 15 -6 43zM395 732l47 47h49l-62 -62q-17 9 -34 15z
M307 742l37 37h49l-38 -38q-18 2 -28 2zM300 0h-49l33 33h49zM594 49v-49h-49zM50 779h49l-49 -49v49z" />
    <glyph glyph-name=".notdef" horiz-adv-x="644" 
d="M50 240v49l309 309q16 -9 26 -23zM50 142v49l347 347v-15q0 -20 -13.5 -37.5t-42 -40t-36.5 -30.5q-23 -22 -36 -54zM104 0h-49l261 261h49l-93 -93h-23v-23zM321 168l273 273v-49l-224 -224h-49zM398 0h-49l33 33h2v2l210 210v-49zM50 338v49l148 148l39 -2q0 29 20 52
t55 23h8zM384 133l210 210v-49l-210 -210v49zM50 44v49l206 206v-38h11zM50 583l196 196h49l-44 -44q-53 -14 -92.5 -53.5t-54.5 -93.5l-54 -54v49zM537 482l57 57v-49l-216 -216v7q0 15 6.5 27.5t11 17.5t25.5 20t27 20q2 1 15.5 11t21.5 17.5t20 20.5t20 30t12 37zM50 681
l98 98h49l-147 -147v49zM496 0h-49l147 147v-49zM459 698l81 81h49l-104 -104q-13 12 -26 23zM50 436v49l56 56l46 -3zM506 647l88 88v-49l-70 -70q-7 15 -18 31zM202 0h-49l96 96v-49zM536 579l58 58v-49l-52 -52q0 15 -6 43zM395 732l47 47h49l-62 -62q-17 9 -34 15z
M307 742l37 37h49l-38 -38q-18 2 -28 2zM300 0h-49l33 33h49zM594 49v-49h-49zM50 779h49l-49 -49v49z" />
    <glyph glyph-name=".null" horiz-adv-x="0" 
 />
    <glyph glyph-name="nonmarkingreturn" horiz-adv-x="333" 
 />
    <glyph glyph-name="CR" unicode="&#xd;" horiz-adv-x="0" 
 />
    <glyph glyph-name="space" unicode=" " horiz-adv-x="255" 
 />
    <glyph glyph-name="exclam" unicode="!" horiz-adv-x="271" 
d="M108 186q-14 350 -14 421v108h83v-108q0 -71 -14 -421h-55zM92 0v111h88v-111h-88z" />
    <glyph glyph-name="quotedbl" unicode="&#x22;" horiz-adv-x="352" 
d="M78 451q-13 200 -14 264h85q-1 -64 -14 -264h-57zM217 451q-13 200 -14 264h85q-1 -64 -14 -264h-57z" />
    <glyph glyph-name="numbersign" unicode="#" 
d="M293 0l47 228h-168l-47 -228h-49l47 228h-107l10 46h106l37 178h-108l9 46h108l45 217h49l-45 -217h168l45 217h49l-45 -217h100l-9 -46h-100l-37 -178h102l-10 -46h-101l-47 -228h-49zM218 452l-37 -178h168l37 178h-168z" />
    <glyph glyph-name="dollar" unicode="$" 
d="M27 206h82q10 -70 55 -108t121 -38q74 0 117 34.5t43 93.5q0 30 -12 52.5t-37.5 39t-48.5 26t-62 22.5l-41 13q-97 31 -144 76t-47 121q0 75 49.5 123.5t138.5 58.5v108h79v-108q87 -8 137 -58t59 -135h-79q-24 129 -157 129q-67 0 -105 -29t-38 -80q0 -52 35 -80
t112 -54l47 -17q98 -31 148.5 -74t50.5 -123q0 -87 -57 -141t-153 -63v-113h-79v114q-92 10 -148 64t-66 146z" />
    <glyph glyph-name="percent" unicode="%" horiz-adv-x="888" 
d="M199 330q-80 0 -122 53t-42 146q0 92 42 144.5t121 52.5q80 0 122 -53t42 -145q0 -93 -41.5 -145.5t-121.5 -52.5zM105 527q0 -141 93 -141q94 0 94 141q0 69 -21 106.5t-73 37.5q-93 0 -93 -144zM278 0l275 715h61l-275 -715h-61zM690 -15q-80 0 -122 53t-42 146
q0 92 42 144.5t121 52.5q80 0 122 -53t42 -145q0 -93 -41.5 -145.5t-121.5 -52.5zM596 182q0 -141 93 -141q94 0 94 141q0 69 -21 106.5t-73 37.5q-93 0 -93 -144z" />
    <glyph glyph-name="ampersand" unicode="&#x26;" horiz-adv-x="670" 
d="M562 382l77 -7q-40 -119 -99 -206l106 -116l-62 -55q-39 43 -91 103q-96 -111 -220 -111q-100 0 -158.5 56t-58.5 145q0 126 171 215q-84 92 -84 166q0 67 48.5 111.5t128.5 44.5q75 0 122 -40t47 -105q0 -114 -148 -189q96 -116 148 -174q43 67 73 162zM444 153
q-80 88 -173 202q-124 -65 -124 -161q0 -60 39.5 -96.5t99.5 -36.5q86 0 158 92zM299 441l25 14q84 45 84 118q0 41 -25.5 65.5t-66.5 24.5t-66 -23.5t-25 -63.5q0 -26 12.5 -52.5t26 -43t35.5 -39.5z" />
    <glyph glyph-name="quotesingle" unicode="'" horiz-adv-x="213" 
d="M78 451q-13 200 -14 264h85q-1 -64 -14 -264h-57z" />
    <glyph glyph-name="parenleft" unicode="(" horiz-adv-x="301" 
d="M42 298q0 145 62 272t162 188v-80q-145 -151 -145 -381q0 -216 145 -371v-82q-99 60 -161.5 185.5t-62.5 268.5z" />
    <glyph glyph-name="parenright" unicode=")" horiz-adv-x="301" 
d="M259 298q0 -143 -62.5 -268.5t-161.5 -185.5v82q145 155 145 371q0 230 -145 381v80q100 -61 162 -188t62 -272z" />
    <glyph glyph-name="asterisk" unicode="*" horiz-adv-x="442" 
d="M254 715l-10 -142l133 53l19 -63l-138 -33l92 -110l-54 -38l-74 120l-76 -120l-53 39l92 108l-139 35l21 62l132 -54l-10 143h65z" />
    <glyph glyph-name="plus" unicode="+" 
d="M59 289v65h188v196h65v-196h189v-65h-189v-197h-65v197h-188z" />
    <glyph glyph-name="comma" unicode="," horiz-adv-x="242" 
d="M176 111l-81 -232h-71l65 232h87z" />
    <glyph glyph-name="hyphen" unicode="-" horiz-adv-x="404" 
d="M66 257v73h272v-73h-272z" />
    <glyph glyph-name="period" unicode="." horiz-adv-x="220" 
d="M66 0v111h88v-111h-88z" />
    <glyph glyph-name="slash" unicode="/" horiz-adv-x="426" 
d="M29 -105l289 820h80l-288 -820h-81z" />
    <glyph glyph-name="zero" unicode="0" horiz-adv-x="609" 
d="M304 729q248 0 248 -373q0 -84 -11.5 -147.5t-38.5 -116t-77 -80t-121 -27.5q-57 0 -100.5 19t-71 51t-45 80t-24 101.5t-6.5 119.5q0 373 247 373zM304 660q-47 0 -79 -23.5t-48 -68t-22.5 -94.5t-6.5 -117q0 -95 12.5 -158.5t48 -104.5t95.5 -41q88 0 122.5 79
t34.5 225q0 66 -6.5 116.5t-23 95t-48.5 68t-79 23.5z" />
    <glyph glyph-name="one" unicode="1" horiz-adv-x="388" 
d="M201 0v547h-172v55q93 2 137 28t53 85h66v-715h-84z" />
    <glyph glyph-name="two" unicode="2" horiz-adv-x="571" 
d="M518 0h-464v72q117 104 205 182q91 81 126.5 141t35.5 123t-37 102t-101 39q-68 0 -106 -43t-41 -126h-85q0 107 63.5 173t172.5 66q108 0 167 -56t59 -150q0 -43 -15 -86t-34 -74t-56 -70t-60 -59.5t-68 -58.5q-22 -19 -128 -101h366v-74z" />
    <glyph glyph-name="three" unicode="3" horiz-adv-x="578" 
d="M42 206h89q18 -153 155 -153q69 0 110 43.5t41 110.5q0 77 -47.5 112.5t-126.5 35.5h-26v65h5q81 0 120.5 29t39.5 96q0 55 -33.5 85t-83.5 30q-55 0 -90 -30.5t-39 -91.5h-83q1 86 60.5 138.5t154.5 52.5q93 0 148.5 -47.5t55.5 -123.5q0 -122 -125 -163
q72 -14 116.5 -62t44.5 -127q0 -99 -65.5 -160t-177.5 -61q-220 0 -243 221z" />
    <glyph glyph-name="four" unicode="4" horiz-adv-x="585" 
d="M547 230v-66h-99v-164h-81v164h-340v62l228 326q79 113 112 163h81v-485h99zM371 611h-2q-59 -95 -117 -181l-47 -69l-92 -131h254v124q0 121 4 257z" />
    <glyph glyph-name="five" unicode="5" horiz-adv-x="569" 
d="M70 338l43 377h371v-74h-307l-29 -241q63 61 158 61q99 0 159.5 -62.5t60.5 -168.5q0 -108 -66.5 -176.5t-175.5 -68.5q-102 0 -166.5 53t-77.5 158h88q7 -62 45.5 -102.5t108.5 -40.5q74 0 115.5 48t41.5 125q0 72 -41.5 120t-111.5 48q-89 0 -134 -70z" />
    <glyph glyph-name="six" unicode="6" horiz-adv-x="601" 
d="M536 532h-88q-9 53 -42 91t-97 38q-88 0 -125.5 -72t-39.5 -225q59 95 185 95q99 0 160 -63.5t61 -168.5q0 -110 -67.5 -176t-175.5 -66q-128 0 -189.5 88t-61.5 274q0 202 64.5 292t192.5 90q97 0 152.5 -54t70.5 -143zM307 393q-74 0 -113.5 -43.5t-39.5 -121.5
q0 -80 39 -128t112 -48t114.5 47t41.5 123q0 79 -40 125t-114 46z" />
    <glyph glyph-name="seven" unicode="7" horiz-adv-x="487" 
d="M192 0h-97q21 54 45.5 109t61.5 135t49 107q53 117 146 292v1q-19 -1 -55 -1h-311v72h440v-66l-24 -53q-173 -375 -255 -596z" />
    <glyph glyph-name="eight" unicode="8" horiz-adv-x="591" 
d="M188 386q-107 45 -107 163q0 78 58 129t157 51t157 -51.5t58 -128.5q0 -115 -108 -163q138 -57 138 -192q0 -95 -63.5 -152t-181.5 -57q-119 0 -182.5 57t-63.5 152q0 72 38 120t100 72zM296 349q-76 0 -118.5 -40.5t-42.5 -108.5q0 -67 41.5 -107t119.5 -40
q75 0 117 40.5t42 106.5q0 68 -42.5 108.5t-116.5 40.5zM296 660q-61 0 -97.5 -33.5t-36.5 -86.5q0 -54 36.5 -88.5t97.5 -34.5t97.5 34.5t36.5 88.5q0 53 -36.5 86.5t-97.5 33.5z" />
    <glyph glyph-name="nine" unicode="9" horiz-adv-x="602" 
d="M64 184h88q7 -54 41 -92t99 -38q88 0 125.5 73.5t39.5 225.5q-59 -95 -185 -95q-100 0 -160.5 63t-60.5 170t68 172.5t176 65.5q126 0 188 -85t62 -269q0 -208 -64 -298.5t-193 -90.5q-98 0 -153.5 53.5t-70.5 144.5zM294 325q74 0 113.5 43.5t39.5 121.5t-39.5 125.5
t-111.5 47.5q-73 0 -115 -45.5t-42 -121.5q0 -79 40.5 -125t114.5 -46z" />
    <glyph glyph-name="colon" unicode=":" horiz-adv-x="220" 
d="M66 0v111h88v-111h-88zM66 379v111h88v-111h-88z" />
    <glyph glyph-name="semicolon" unicode=";" horiz-adv-x="265" 
d="M100 379v111h88v-111h-88zM189 111l-81 -232h-71l65 232h87z" />
    <glyph glyph-name="less" unicode="&#x3c;" 
d="M68 287v65q56 29 396 208v-75q-118 -56 -325 -160v-3q279 -139 325 -162v-78q-72 38 -204.5 106t-191.5 99z" />
    <glyph glyph-name="equal" unicode="=" 
d="M59 382v65h442v-65h-442zM59 201v65h442v-65h-442z" />
    <glyph glyph-name="greater" unicode="&#x3e;" 
d="M491 352v-65q-59 -31 -191.5 -99t-204.5 -106v78q46 23 325 162v3q-207 104 -325 160v75q340 -179 396 -208z" />
    <glyph glyph-name="question" unicode="?" horiz-adv-x="506" 
d="M285 199h-76q1 68 17 105.5t58 74.5q54 48 70 72q28 41 28 92q0 53 -33.5 84.5t-95.5 31.5q-128 0 -133 -148h-84q-1 99 60 158.5t161 59.5q99 0 156.5 -51.5t57.5 -132.5q0 -58 -29 -102t-78 -87q-42 -37 -60 -68t-19 -89zM203 0v107h88v-107h-88z" />
    <glyph glyph-name="at" unicode="@" horiz-adv-x="832" 
d="M564 534h69l-50 -286q-7 -45 37 -45q46 0 80.5 61t34.5 143q0 120 -81 197.5t-216 77.5q-145 0 -236.5 -94t-91.5 -236q0 -147 96 -237.5t244 -90.5q76 0 128.5 21t104.5 62l45 -23q-118 -110 -285 -110q-175 0 -285 104.5t-110 273.5q0 160 110 269.5t280 109.5
q153 0 253 -87.5t100 -222.5q0 -120 -57 -193.5t-146 -73.5q-66 0 -83 48q-43 -49 -119 -49q-72 0 -114.5 43.5t-42.5 121.5q0 91 54.5 158.5t143.5 67.5q87 0 128 -64zM434 489q-62 0 -96 -51.5t-34 -121.5q0 -52 25.5 -83.5t75.5 -31.5q66 0 100 51.5t34 121.5
q0 55 -26.5 85t-78.5 30z" />
    <glyph glyph-name="A" unicode="A" horiz-adv-x="687" 
d="M-2 0l291 715h110l288 -715h-90l-90 225h-336l-89 -225h-84zM340 649q-20 -53 -61 -153t-54 -134l-28 -68h283l-30 77q-12 31 -50.5 127.5t-57.5 150.5h-2z" />
    <glyph glyph-name="B" unicode="B" horiz-adv-x="638" 
d="M92 0v715h204q112 0 174 -28q90 -40 90 -147q0 -122 -108 -163q139 -41 139 -173q0 -117 -92 -167q-69 -37 -197 -37h-210zM176 332v-259h163q76 0 116 32q42 34 42 98q0 129 -181 129h-140zM176 643v-239h130q81 0 120 28t39 94q0 73 -58 99q-41 18 -134 18h-97z" />
    <glyph glyph-name="C" unicode="C" horiz-adv-x="764" 
d="M641 207h88q-38 -103 -123 -162t-206 -59q-157 0 -255.5 103t-98.5 268q0 164 100 268t259 104q123 0 206.5 -59t118.5 -170h-87q-59 157 -239 157q-124 0 -195 -82.5t-71 -216.5t71.5 -217t195.5 -83q166 0 236 149z" />
    <glyph glyph-name="D" unicode="D" horiz-adv-x="717" 
d="M92 0v715h182q127 0 213 -39q182 -84 182 -320q0 -185 -121 -281q-96 -75 -259 -75h-197zM177 642v-569h90q154 0 231 66t77 218q0 139 -77 212.5t-220 73.5q-68 0 -101 -1z" />
    <glyph glyph-name="E" unicode="E" horiz-adv-x="589" 
d="M92 0v715h444v-74h-359v-237h335v-74h-335v-256h366v-74h-451z" />
    <glyph glyph-name="F" unicode="F" horiz-adv-x="572" 
d="M177 0h-85v715h432v-74h-347v-237h323v-74h-323v-330z" />
    <glyph glyph-name="G" unicode="G" horiz-adv-x="790" 
d="M371 368h358v-368h-79v56l1 60q-29 -50 -94 -90t-165 -40q-152 0 -249 101.5t-97 269.5q0 163 98.5 267.5t260.5 104.5q129 0 211 -62t113 -165h-85q-31 70 -85.5 112.5t-154.5 42.5q-121 0 -193.5 -79.5t-72.5 -218.5q0 -138 72 -219.5t192 -81.5q62 0 111.5 21t79 55.5
t45 75.5t17.5 84h-284v74z" />
    <glyph glyph-name="H" unicode="H" horiz-adv-x="701" 
d="M92 0v715h85v-312h347v312h85v-715h-85v330h-347v-330h-85z" />
    <glyph glyph-name="I" unicode="I" horiz-adv-x="269" 
d="M92 0v715h85v-715h-85z" />
    <glyph glyph-name="J" unicode="J" horiz-adv-x="478" 
d="M28 173h83q2 -119 95 -119q61 0 81 45t20 134v482h85v-515q0 -214 -188 -214q-174 0 -176 187z" />
    <glyph glyph-name="K" unicode="K" horiz-adv-x="585" 
d="M92 0v715h86v-328q76 85 178.5 195.5t122.5 132.5h107l-316 -329q58 -71 173.5 -207.5t150.5 -178.5h-107q-154 179 -309 368v-368h-86z" />
    <glyph glyph-name="L" unicode="L" horiz-adv-x="529" 
d="M92 715h85v-641h322v-74h-407v715z" />
    <glyph glyph-name="M" unicode="M" horiz-adv-x="863" 
d="M92 0v715h147l130 -427q8 -24 29 -99.5t31 -106.5h1q11 31 34.5 110.5t30.5 102.5l137 420h139v-715h-85v362q0 40 1.5 152t1.5 139h-1q-71 -233 -88 -283l-123 -370h-108l-142 471q-13 44 -29.5 105.5t-21.5 76.5h-1q2 -116 2 -252v-401h-85z" />
    <glyph glyph-name="N" unicode="N" horiz-adv-x="736" 
d="M644 0h-123l-238 428q-100 184 -105 195h-2q0 -17 0.5 -127t0.5 -144v-352h-85v715h129l243 -441l98 -181h2q0 17 -1.5 94t-1.5 115v413h83v-715z" />
    <glyph glyph-name="O" unicode="O" horiz-adv-x="809" 
d="M404 729q160 0 259.5 -103t99.5 -269t-98 -268.5t-260 -102.5q-161 0 -260 103t-99 268t99 268.5t259 103.5zM403 658q-123 0 -194.5 -82.5t-71.5 -217.5q0 -134 72 -217.5t195 -83.5q122 0 193.5 83.5t71.5 217.5q0 136 -71 218t-195 82z" />
    <glyph glyph-name="P" unicode="P" horiz-adv-x="587" 
d="M92 0v715h205q100 0 157 -29q96 -50 96 -177q0 -107 -73 -161q-65 -49 -185 -49h-115v-299h-85zM177 643v-272h116q76 0 120.5 33.5t44.5 104.5q0 134 -171 134h-110z" />
    <glyph glyph-name="Q" unicode="Q" horiz-adv-x="809" 
d="M404 729q160 0 259.5 -103t99.5 -269q0 -189 -123 -292l116 -115h-113l-73 71q-76 -35 -165 -35q-161 0 -260 103t-99 268t99 268.5t259 103.5zM366 220h117l99 -98q87 84 87 236q0 136 -71 218t-195 82q-123 0 -194.5 -82.5t-71.5 -217.5q0 -134 72 -217.5t195 -83.5
q63 0 109 20z" />
    <glyph glyph-name="R" unicode="R" horiz-adv-x="608" 
d="M92 0v715h203q128 0 186 -40q82 -53 82 -163q0 -88 -51 -136.5t-131 -62.5q27 -45 93.5 -153.5t96.5 -159.5h-103l-176 301h-115v-301h-85zM177 643v-272h117q83 0 126 30q51 34 51 107q0 84 -66 115q-41 20 -111 20h-117z" />
    <glyph glyph-name="S" unicode="S" horiz-adv-x="603" 
d="M36 203h85q11 -71 57.5 -110t125.5 -39q77 0 121.5 35.5t44.5 95.5q0 57 -41.5 86.5t-124.5 55.5l-43 14q-100 31 -149.5 77t-49.5 124q0 85 64.5 136t175.5 51q108 0 170.5 -51.5t72.5 -147.5h-83q-24 132 -163 132q-70 0 -109.5 -29.5t-39.5 -81.5q0 -53 36.5 -81.5
t116.5 -55.5l49 -17q102 -32 154.5 -76t52.5 -125q0 -98 -70.5 -154t-186.5 -56q-114 0 -184.5 56.5t-81.5 160.5z" />
    <glyph glyph-name="T" unicode="T" horiz-adv-x="539" 
d="M227 0v641h-200v74h485v-74h-200v-641h-85z" />
    <glyph glyph-name="U" unicode="U" horiz-adv-x="689" 
d="M344 -14q-67 0 -124.5 24.5t-88.5 67.5q-46 65 -46 193v444h85v-437q0 -99 23 -143q20 -38 59.5 -59t91.5 -21t92.5 21.5t59.5 58.5q23 44 23 143v437h85v-444q0 -128 -46 -193q-31 -43 -89.5 -67.5t-124.5 -24.5z" />
    <glyph glyph-name="V" unicode="V" horiz-adv-x="661" 
d="M332 72h2q6 21 74 210l153 433h89l-264 -715h-112q-32 82 -85 229.5t-106.5 297.5t-67.5 188h93l153 -439q7 -20 32 -90.5t39 -113.5z" />
    <glyph glyph-name="W" unicode="W" horiz-adv-x="899" 
d="M870 715l-157 -715h-119l-84 391q-7 32 -27 123t-29 138h-2q-9 -46 -65 -290l-82 -362h-123l-151 715h92l84 -440q4 -23 13 -65.5t14 -71t10 -66.5h3q8 44 44 202l102 441h127l95 -433q22 -100 41 -207h2q7 39 21 104.5t21 103.5l84 432h86z" />
    <glyph glyph-name="X" unicode="X" horiz-adv-x="616" 
d="M95 0h-93q60 83 256 366q-45 64 -129.5 188t-109.5 161h97q169 -254 192 -287q82 119 190 287h94q-190 -273 -236 -341l261 -374h-103l-209 311q-70 -105 -132 -196t-78 -115z" />
    <glyph glyph-name="Y" unicode="Y" horiz-adv-x="588" 
d="M251 0v275l-244 440h95q34 -67 111 -207t85 -155q27 50 96.5 176t100.5 186h89l-248 -440v-275h-85z" />
    <glyph glyph-name="Z" unicode="Z" horiz-adv-x="570" 
d="M37 0v71q24 36 91 133l247 356q10 14 21.5 30t19.5 27.5t16 23.5h-391v74h487v-71q-49 -76 -84 -126l-237 -341q-62 -90 -72 -103h397v-74h-495z" />
    <glyph glyph-name="bracketleft" unicode="[" horiz-adv-x="313" 
d="M277 -53v-60h-183v828h183v-60h-103v-708h103z" />
    <glyph glyph-name="backslash" unicode="\" horiz-adv-x="426" 
d="M108 715l289 -820h-81l-288 820h80z" />
    <glyph glyph-name="bracketright" unicode="]" horiz-adv-x="313" 
d="M36 -113v60h103v708h-103v60h183v-828h-183z" />
    <glyph glyph-name="asciicircum" unicode="^" 
d="M238 684h84q25 -48 95 -184.5t110 -211.5h-85q-63 133 -160 327h-3q-139 -279 -162 -327h-84q42 79 118 227t87 169z" />
    <glyph glyph-name="underscore" unicode="_" horiz-adv-x="608" 
d="M66 -148v71h476v-71h-476z" />
    <glyph glyph-name="grave" unicode="`" horiz-adv-x="429" 
d="M222 596l-141 119h115l114 -119h-88z" />
    <glyph glyph-name="a" unicode="a" horiz-adv-x="548" 
d="M63 366q0 75 59 124t153 49q104 0 153.5 -53.5t49.5 -173.5q0 -10 -0.5 -38.5t-0.5 -40.5v-129q0 -70 10 -104h-76q-7 38 -7 81q-57 -91 -181 -91q-82 0 -133 40t-51 111t57.5 106.5t164.5 52.5q78 13 138 17q0 83 -30.5 120t-97.5 37q-118 0 -129 -108h-79zM400 233
q0 21 1 26l-44 -6q-45 -7 -70 -11t-56 -11t-46.5 -14t-31 -17.5t-21.5 -24.5t-6 -33q0 -44 31.5 -69t85.5 -25q76 0 116.5 47.5t40.5 137.5z" />
    <glyph glyph-name="b" unicode="b" horiz-adv-x="626" 
d="M77 0v715h83v-153q0 -82 -1 -118q25 41 72 68t112 27q108 0 174 -75.5t66 -197.5q0 -126 -69 -202.5t-177 -76.5q-63 0 -110 26.5t-73 66.5v-80h-77zM325 54q80 0 124 56t44 153q0 94 -44.5 151.5t-123.5 57.5q-80 0 -123.5 -57.5t-43.5 -151.5q0 -97 43.5 -153
t123.5 -56z" />
    <glyph glyph-name="c" unicode="c" horiz-adv-x="588" 
d="M469 166h81q-24 -80 -86.5 -129.5t-158.5 -49.5q-120 0 -191 75t-71 202q0 124 73 199.5t190 75.5q100 0 161 -51t84 -134h-82q-44 118 -163 118q-82 0 -130 -58t-48 -151q0 -96 46.5 -152.5t131.5 -56.5q115 0 163 112z" />
    <glyph glyph-name="d" unicode="d" horiz-adv-x="626" 
d="M549 715v-715h-77v80q-26 -40 -73 -66.5t-110 -26.5q-110 0 -178 73.5t-68 202.5q0 121 68 198.5t172 77.5q126 0 184 -95q-1 36 -1 116v155h83zM301 54q80 0 123.5 56t43.5 153q0 94 -43.5 151t-123.5 57q-79 0 -123.5 -57.5t-44.5 -150.5q0 -97 44 -153t124 -56z" />
    <glyph glyph-name="e" unicode="e" horiz-adv-x="593" 
d="M555 249h-429q4 -92 52.5 -143.5t129.5 -51.5q104 0 152 95h84q-26 -72 -88.5 -117t-149.5 -45q-122 0 -192.5 76t-70.5 198q0 124 72.5 201t191.5 77q122 0 185.5 -79t63.5 -193q0 -6 -0.5 -11.5t-0.5 -6.5zM130 311h339q-8 75 -49 119t-115 44q-73 0 -119 -44.5
t-56 -118.5z" />
    <glyph glyph-name="f" unicode="f" horiz-adv-x="284" 
d="M267 718v-67q-14 2 -24 2q-65 0 -65 -65v-63h89v-62h-89v-463h-83v463h-69v62h69v44q0 152 136 152q18 0 36 -3z" />
    <glyph glyph-name="g" unicode="g" horiz-adv-x="625" 
d="M299 -122q85 0 127 56t42 157v34q-24 -44 -70.5 -72.5t-112.5 -28.5q-109 0 -175 71.5t-66 184.5q0 116 68.5 187.5t173.5 71.5q122 0 182 -90q-1 44 -1 76h82v-421q0 -137 -64 -215t-193 -78q-89 0 -150 50t-81 122h85q37 -105 153 -105zM301 91q72 0 119.5 52t47.5 141
q0 84 -45 135.5t-122 51.5q-78 0 -122.5 -52.5t-44.5 -137.5q0 -84 44.5 -137t122.5 -53z" />
    <glyph glyph-name="h" unicode="h" horiz-adv-x="580" 
d="M77 715h83v-168l-2 -97q55 89 171 89q89 0 134.5 -55t45.5 -156v-328h-83v302q0 170 -129 170q-64 0 -100.5 -45t-36.5 -112v-315h-83v715z" />
    <glyph glyph-name="i" unicode="i" horiz-adv-x="235" 
d="M160 614h-85v101h85v-101zM77 525h81v-525h-81v525z" />
    <glyph glyph-name="j" unicode="j" horiz-adv-x="237" 
d="M65 -109q12 16 12 53v581h83v-566q0 -89 -33 -124q-32 -33 -107 -33q-23 0 -39 4v65q7 -1 20 -1q48 0 64 21zM162 614h-85v101h85v-101z" />
    <glyph glyph-name="k" unicode="k" horiz-adv-x="501" 
d="M496 0h-111q-28 36 -84.5 103t-98.5 116l-42 49v-268h-83v715h83v-429q150 168 211 239h102l-226 -239z" />
    <glyph glyph-name="l" unicode="l" horiz-adv-x="245" 
d="M81 0v715h83v-715h-83z" />
    <glyph glyph-name="m" unicode="m" horiz-adv-x="918" 
d="M77 0v446q0 55 -1 79h82v-75q55 89 168 89q116 0 157 -97q63 97 186 97q88 0 132.5 -54.5t44.5 -156.5v-328h-83v302q0 170 -126 170q-62 0 -98 -43.5t-36 -107.5v-321h-83v302q0 170 -126 170q-63 0 -98.5 -45t-35.5 -112v-315h-83z" />
    <glyph glyph-name="n" unicode="n" horiz-adv-x="580" 
d="M77 0v446q0 55 -1 79h82v-75q55 89 171 89q89 0 134.5 -55t45.5 -156v-328h-83v302q0 170 -129 170q-64 0 -100.5 -45t-36.5 -112v-315h-83z" />
    <glyph glyph-name="o" unicode="o" horiz-adv-x="618" 
d="M307 54q84 0 131 57t47 152q0 93 -47.5 151t-130.5 58q-84 0 -131.5 -58t-47.5 -151q0 -95 47 -152t132 -57zM307 -13q-124 0 -194 76t-70 199q0 122 72.5 199.5t193.5 77.5t193.5 -77.5t72.5 -199.5q0 -123 -72 -199t-196 -76z" />
    <glyph glyph-name="p" unicode="p" horiz-adv-x="626" 
d="M77 525l81 -1v-81q26 41 73 68.5t112 27.5q108 0 174 -75.5t66 -197.5q0 -126 -69 -202.5t-177 -76.5q-117 0 -179 87q2 -56 2 -134v-120h-83v705zM325 54q80 0 124 56t44 153q0 94 -44.5 151.5t-123.5 57.5q-80 0 -123.5 -57.5t-43.5 -151.5q0 -97 43.5 -153t123.5 -56z
" />
    <glyph glyph-name="q" unicode="q" horiz-adv-x="626" 
d="M468 524h81v-704h-83v125q0 49 2 131q-63 -89 -179 -89q-110 0 -178 73.5t-68 202.5q0 121 68 198.5t172 77.5q127 0 186 -97q-1 24 -1 82zM301 54q80 0 123.5 56t43.5 153q0 94 -43.5 151t-123.5 57q-79 0 -123.5 -57.5t-44.5 -150.5q0 -97 44 -153t124 -56z" />
    <glyph glyph-name="r" unicode="r" horiz-adv-x="320" 
d="M155 525v-85q14 42 51 69.5t82 27.5q11 0 16 -1v-79q-12 3 -34 3q-110 0 -110 -173v-287h-83v446q0 55 -1 79h79z" />
    <glyph glyph-name="s" unicode="s" horiz-adv-x="498" 
d="M35 159h81q30 -106 139 -106q54 0 87.5 24t33.5 63q0 36 -25.5 52.5t-85.5 33.5l-62 17q-73 20 -111 51t-38 93q0 70 54 111t141 41q83 0 134.5 -37.5t63.5 -114.5h-78q-25 87 -122 87q-52 0 -81 -21t-29 -55q0 -33 25 -51t80 -34l66 -19q74 -21 111.5 -53.5t37.5 -90.5
q0 -76 -56.5 -119t-147.5 -43q-187 0 -218 171z" />
    <glyph glyph-name="t" unicode="t" horiz-adv-x="303" 
d="M98 463h-81v62h81v142h82v-142h100v-62h-100v-335q0 -75 74 -75q8 0 16 1v-62q-18 -2 -28 -2q-70 0 -107 29.5t-37 101.5v342z" />
    <glyph glyph-name="u" unicode="u" horiz-adv-x="572" 
d="M495 525v-445q0 -53 1 -80h-82v72q-51 -86 -165 -86q-89 0 -133.5 54.5t-44.5 156.5v328h83v-303q0 -169 127 -169q62 0 96.5 45t34.5 111v316h83z" />
    <glyph glyph-name="v" unicode="v" horiz-adv-x="525" 
d="M213 0q-179 482 -195 525h93l96 -277q8 -25 26 -76t32 -94h2q13 40 33.5 96t30.5 86l93 265h85l-200 -525h-96z" />
    <glyph glyph-name="w" unicode="w" horiz-adv-x="815" 
d="M186 0q-109 355 -162 525h90l78 -272q3 -12 21 -76t30 -109h2q10 43 29 115.5t24 91.5l64 250h103l57 -238q8 -33 25 -106t27 -112h2q11 41 35 119.5t33 110.5l67 226h83l-166 -525h-111l-50 203q-29 118 -54 239h-3q-46 -193 -59 -243l-54 -199h-111z" />
    <glyph glyph-name="x" unicode="x" horiz-adv-x="501" 
d="M14 0q163 225 192 267l-183 258h97q8 -13 30.5 -46t54.5 -80t48 -70q111 164 132 196h90q-30 -43 -104 -145.5t-75 -103.5q112 -162 194 -276h-98l-143 215l-144 -215h-91z" />
    <glyph glyph-name="y" unicode="y" horiz-adv-x="519" 
d="M228 -180h-83l73 177q-35 93 -111 290.5t-91 237.5h93q43 -123 153 -430q138 375 157 430h86q-29 -73 -125 -320t-152 -385z" />
    <glyph glyph-name="z" unicode="z" horiz-adv-x="493" 
d="M36 0v62l231 289q75 93 87 109q-36 -1 -155 -1h-153v66h403v-67l-222 -274l-97 -119q18 0 73 0.5t78 0.5h173v-66h-418z" />
    <glyph glyph-name="braceleft" unicode="{" horiz-adv-x="291" 
d="M39 283v35q36 10 49.5 31t13.5 78v166q0 74 21.5 100t92.5 26l28 -1v-58q-37 -2 -49.5 -16t-12.5 -61v-129q0 -81 -11.5 -107t-55.5 -45v-2q44 -19 55.5 -45t11.5 -107v-130q0 -47 12.5 -61t49.5 -16v-58q-11 -1 -28 -1q-71 0 -92.5 26t-21.5 100v166q0 57 -13.5 78
t-49.5 31z" />
    <glyph glyph-name="bar" unicode="|" horiz-adv-x="270" 
d="M95 -62v793h80v-793h-80z" />
    <glyph glyph-name="braceright" unicode="}" horiz-adv-x="291" 
d="M252 318v-35q-36 -10 -49.5 -31t-13.5 -78v-166q0 -74 -21.5 -100t-92.5 -26l-28 1v58q37 2 49.5 16t12.5 61v130q0 81 11.5 107t55.5 45v2q-44 19 -55.5 45t-11.5 107v129q0 47 -12.5 61t-49.5 16v58q11 1 28 1q71 0 92.5 -26t21.5 -100v-166q0 -57 13.5 -78t49.5 -31z
" />
    <glyph glyph-name="asciitilde" unicode="~" 
d="M481 369l54 -36q-61 -105 -146 -105q-41 0 -107 31l-42 20q-50 24 -79 24q-57 0 -85 -68l-52 38q60 100 141 100q43 0 100 -27l46 -22q52 -25 77 -25q57 0 93 70z" />
    <glyph glyph-name="uni00A0" unicode="&#xa0;" horiz-adv-x="255" 
 />
    <glyph glyph-name="exclamdown" unicode="&#xa1;" horiz-adv-x="251" 
d="M98 337h55q14 -353 14 -424v-109h-83v109q0 71 14 424zM82 413v112h88v-112h-88z" />
    <glyph glyph-name="cent" unicode="&#xa2;" 
d="M455 166h81q-21 -72 -74.5 -120t-134.5 -57v-71h-75v72q-104 12 -163.5 85t-59.5 189q0 112 61 185.5t162 86.5v86h75v-85q84 -9 136.5 -58.5t73.5 -124.5h-82q-38 99 -128 115v-413q87 14 128 110zM114 263q0 -84 35.5 -138t102.5 -67v410q-65 -14 -101.5 -69
t-36.5 -136z" />
    <glyph glyph-name="sterling" unicode="&#xa3;" 
d="M501 71v-71h-444v64q126 20 126 144q0 59 -32 127h-107v67h78q-25 75 -25 127q0 86 58 143t158 57q99 0 150.5 -52.5t53.5 -144.5h-79q-7 63 -36 95t-90 32t-95 -38t-34 -95q0 -51 28 -121h172v-70h-147q28 -72 28 -126q0 -86 -70 -140q46 2 146 2h161z" />
    <glyph glyph-name="currency" unicode="&#xa4;" 
d="M470 112l-48 48q-63 -46 -142 -46q-80 0 -143 46l-49 -49l-58 58l49 49q-44 63 -44 141q0 79 46 142l-51 51l58 58l51 -51q64 45 141 45q76 0 140 -45l50 50l58 -58l-49 -49q46 -63 46 -143q0 -77 -45 -141l48 -48zM103 359q0 -73 52 -125t125 -52t125 52t52 125t-52 125
t-125 52t-125 -52t-52 -125z" />
    <glyph glyph-name="yen" unicode="&#xa5;" 
d="M26 216v61h209l-71 127h-138v61h104l-138 250h95q34 -67 111 -207t85 -155q27 50 96.5 176t100.5 186h89l-141 -250h102v-61h-137l-71 -127h208v-61h-209v-216h-85v216h-210z" />
    <glyph glyph-name="brokenbar" unicode="&#xa6;" horiz-adv-x="224" 
d="M72 428v303h80v-303h-80zM72 -62v303h80v-303h-80z" />
    <glyph glyph-name="section" unicode="&#xa7;" 
d="M265 502l93 -39q67 -29 104.5 -64t37.5 -90q0 -51 -24.5 -82t-70.5 -54q75 -42 75 -118t-56.5 -119t-147.5 -43q-187 0 -218 171h81q30 -106 139 -106q54 0 87.5 24t33.5 63q0 16 -4.5 27.5t-26.5 29.5t-63 36l-102 46q-32 14 -52.5 25.5t-43 30.5t-33.5 44t-11 57
q0 82 97 121q-65 38 -65 112q0 70 54 111t141 41q81 0 133.5 -37.5t64.5 -114.5h-78q-25 87 -123 87q-51 0 -80 -20t-29 -55q0 -31 20.5 -47.5t66.5 -36.5zM232 260l110 -51q78 25 78 85q0 38 -27.5 59.5t-94.5 49.5l-71 29q-34 -2 -58.5 -22.5t-24.5 -52.5
q0 -34 20.5 -54.5t67.5 -42.5z" />
    <glyph glyph-name="dieresis" unicode="&#xa8;" horiz-adv-x="491" 
d="M150 609v90h89v-90h-89zM310 609v90h88v-90h-88z" />
    <glyph glyph-name="copyright" unicode="&#xa9;" horiz-adv-x="849" 
d="M561 275h65q-25 -66 -77 -103.5t-126 -37.5q-95 0 -154.5 62t-59.5 162t60 162t157 62q75 0 126 -37.5t73 -108.5h-64q-33 93 -135 93q-71 0 -112 -47t-41 -123t41 -124t112 -48q95 0 135 88zM801 360q0 -158 -110 -267.5t-268 -109.5q-156 0 -265.5 110t-109.5 267
q0 156 109.5 266t267.5 110q157 0 266.5 -110t109.5 -266zM750 360q0 137 -95.5 232.5t-229.5 95.5q-137 0 -231 -95t-94 -233q0 -137 94 -233.5t230 -96.5q135 0 230.5 96t95.5 234z" />
    <glyph glyph-name="ordfeminine" unicode="&#xaa;" horiz-adv-x="449" 
d="M125 455h-57q0 55 44 91.5t114 36.5q78 0 115 -40t37 -130v-28v-12.5t-0.5 -39.5t-0.5 -76q0 -49 8 -78h-55q-5 27 -5 66q-44 -73 -137 -73q-61 0 -99.5 30t-38.5 83t43.5 79.5t124.5 39.5q10 2 23.5 3.5l36 4t43.5 5.5q0 64 -23 92t-74 28q-89 0 -99 -82zM68 454l-1 1h1
v-1zM322 354v20l-96 -15q-60 -9 -86.5 -24t-26.5 -49q0 -35 24 -54t65 -19q59 0 89.5 36t30.5 105z" />
    <glyph glyph-name="guillemotleft" unicode="&#xab;" horiz-adv-x="480" 
d="M236 473l-97 -187l97 -188h-79l-107 188l107 187h79zM423 473l-92 -187l92 -188h-77l-107 188l107 187h77z" />
    <glyph glyph-name="logicalnot" unicode="&#xac;" 
d="M22 395v65h503v-323h-67v258h-436z" />
    <glyph glyph-name="uni00AD" unicode="&#xad;" horiz-adv-x="404" 
d="M66 257v73h272v-73h-272z" />
    <glyph glyph-name="registered" unicode="&#xae;" horiz-adv-x="559" 
d="M198 367v263h76q50 0 70 -14q31 -21 31 -63q0 -63 -61 -74l68 -112h-48l-62 106h-35v-106h-39zM237 595v-87h38q29 0 44 11q15 12 15 33q0 26 -20 36q-14 7 -39 7h-38zM513 500q0 -98 -68.5 -166t-165.5 -68t-165 68.5t-68 165.5t68 165t166 68q97 0 165 -68t68 -165z
M472 500q0 80 -56.5 137t-135.5 57q-81 0 -136.5 -56.5t-55.5 -137.5t55.5 -138t135.5 -57t136.5 57t56.5 138z" />
    <glyph glyph-name="macron" unicode="&#xaf;" horiz-adv-x="428" 
d="M97 628v53h244v-53h-244z" />
    <glyph glyph-name="degree" unicode="&#xb0;" horiz-adv-x="425" 
d="M213 400q-71 0 -119 47t-48 117t48 117.5t119 47.5q70 0 118 -47.5t48 -117.5t-47.5 -117t-118.5 -47zM107 564q0 -43 31 -74t75 -31t74.5 30t30.5 75q0 44 -31 75t-74 31q-44 0 -75 -31t-31 -75z" />
    <glyph glyph-name="plusminus" unicode="&#xb1;" 
d="M58 310v65h188v176h65v-176h189v-65h-189v-177h-65v177h-188zM59 0v65h442v-65h-442z" />
    <glyph glyph-name="twosuperior" unicode="&#xb2;" horiz-adv-x="412" 
d="M66 284v56q76 65 156 146q53 55 53 107q0 34 -19 54.5t-53 20.5q-35 0 -56 -23t-22 -60h-62v5q0 58 40.5 96t101.5 38q64 0 102 -36.5t38 -91.5q0 -48 -29 -89t-81 -89q-53 -48 -90 -77h200v-57h-279z" />
    <glyph glyph-name="threesuperior" unicode="&#xb3;" horiz-adv-x="395" 
d="M164 496v51h2q91 3 91 69q0 28 -18 44t-45 16q-28 0 -45 -17.5t-18 -44.5h-62q0 50 35 81t93 31q57 0 91 -28t34 -76q0 -68 -67 -95q91 -30 91 -116q0 -59 -41.5 -97t-110.5 -38q-131 0 -148 127h67q6 -34 27 -54t57 -20q37 0 59 24t22 60q0 83 -98 83h-16z" />
    <glyph glyph-name="acute" unicode="&#xb4;" horiz-adv-x="427" 
d="M360 715l-141 -119h-88l114 119h115z" />
    <glyph glyph-name="mu" unicode="&#xb5;" horiz-adv-x="578" 
d="M160 -180h-83v705h83v-303q0 -169 127 -169q62 0 96.5 45t34.5 111v316h83v-445q0 -53 1 -80h-82v72q-24 -40 -67.5 -62t-92.5 -22q-52 0 -100 28v-196z" />
    <glyph glyph-name="paragraph" unicode="&#xb6;" horiz-adv-x="609" 
d="M297 648v-761h-73v487q-80 0 -136 47.5t-56 124.5q0 88 67 135q49 34 149 34h290v-67h-43v-761h-73v761h-125z" />
    <glyph glyph-name="periodcentered" unicode="&#xb7;" horiz-adv-x="220" 
d="M66 261v111h88v-111h-88z" />
    <glyph glyph-name="cedilla" unicode="&#xb8;" horiz-adv-x="369" 
d="M107 -163l94 115h86l-75 -115h-105z" />
    <glyph glyph-name="onesuperior" unicode="&#xb9;" horiz-adv-x="276" 
d="M139 608h-107v37q60 1 88 17t36 53h47v-431h-64v324z" />
    <glyph glyph-name="ordmasculine" unicode="&#xba;" horiz-adv-x="490" 
d="M244 217q64 0 99.5 43t35.5 116q0 71 -36 115t-99 44q-64 0 -100 -44t-36 -115q0 -73 35.5 -116t100.5 -43zM244 169q-93 0 -145.5 57t-52.5 149q0 91 54.5 149.5t145.5 58.5q89 0 143.5 -58.5t54.5 -149.5q0 -92 -54 -149t-146 -57z" />
    <glyph glyph-name="guillemotright" unicode="&#xbb;" horiz-adv-x="480" 
d="M341 286l-97 187h79l107 -187l-107 -188h-79zM149 286l-92 187h77l107 -187l-107 -188h-77z" />
    <glyph glyph-name="onequarter" unicode="&#xbc;" horiz-adv-x="798" 
d="M190 0l275 715h61l-275 -715h-61zM141 608h-107v37q60 1 88 17t36 53h47v-431h-64v324zM641 89h-218v49q5 8 89 128.5t116 169.5h74v-294h59v-53h-59v-89h-61v89zM641 142v95q0 90 2 132h-1q-35 -52 -67 -99l-43 -64l-43 -64h152z" />
    <glyph glyph-name="onehalf" unicode="&#xbd;" horiz-adv-x="813" 
d="M483 0v56q86 75 157 148q54 56 54 108q0 34 -19.5 55t-53.5 21q-35 0 -56.5 -23.5t-22.5 -60.5h-62v5q0 58 40.5 96.5t102.5 38.5q65 0 103 -36.5t38 -92.5q0 -49 -29 -90t-82 -90q-54 -48 -91 -78h202v-57h-281zM190 0l275 715h61l-275 -715h-61zM141 608h-107v37
q60 1 88 17t36 53h47v-431h-64v324z" />
    <glyph glyph-name="threequarters" unicode="&#xbe;" horiz-adv-x="889" 
d="M156 496v51h2q91 3 91 69q0 28 -18 44t-45 16q-28 0 -45 -17.5t-18 -44.5h-62q0 50 35 81t93 31q57 0 91 -28t34 -76q0 -68 -67 -95q91 -30 91 -116q0 -59 -41.5 -97t-110.5 -38q-131 0 -148 127h67q6 -34 27 -54t57 -20q37 0 59 24t22 60q0 83 -98 83h-16zM283 0
l275 715h61l-275 -715h-61zM734 89h-218v49q5 8 89 128.5t116 169.5h74v-294h59v-53h-59v-89h-61v89zM734 142v95q0 90 2 132h-1q-35 -52 -67 -99l-43 -64l-43 -64h152z" />
    <glyph glyph-name="questiondown" unicode="&#xbf;" horiz-adv-x="497" 
d="M216 326h76q-1 -68 -17 -105.5t-58 -74.5q-54 -48 -70 -72q-28 -41 -28 -92q0 -53 33.5 -84.5t95.5 -31.5q128 0 133 148h84q1 -99 -60 -158.5t-161 -59.5q-99 0 -156.5 51.5t-57.5 132.5q0 58 29 102t78 87q42 37 60 68t19 89zM298 525v-107h-88v107h88z" />
    <glyph glyph-name="Agrave" unicode="&#xc0;" horiz-adv-x="687" 
d="M-2 0l291 715h110l288 -715h-90l-90 225h-336l-89 -225h-84zM340 649q-20 -53 -61 -153t-54 -134l-28 -68h283l-30 77q-12 31 -50.5 127.5t-57.5 150.5h-2zM322 761l-138 114h115l111 -114h-88z" />
    <glyph glyph-name="Aacute" unicode="&#xc1;" horiz-adv-x="687" 
d="M-2 0l291 715h110l288 -715h-90l-90 225h-336l-89 -225h-84zM340 649q-20 -53 -61 -153t-54 -134l-28 -68h283l-30 77q-12 31 -50.5 127.5t-57.5 150.5h-2zM511 875l-138 -114h-88l111 114h115z" />
    <glyph glyph-name="Acircumflex" unicode="&#xc2;" horiz-adv-x="687" 
d="M-2 0l291 715h110l288 -715h-90l-90 225h-336l-89 -225h-84zM340 649q-20 -53 -61 -153t-54 -134l-28 -68h283l-30 77q-12 31 -50.5 127.5t-57.5 150.5h-2zM298 875h89l97 -114h-78l-64 66l-62 -66h-79z" />
    <glyph glyph-name="Atilde" unicode="&#xc3;" horiz-adv-x="687" 
d="M-2 0l291 715h110l288 -715h-90l-90 225h-336l-89 -225h-84zM340 649q-20 -53 -61 -153t-54 -134l-28 -68h283l-30 77q-12 31 -50.5 127.5t-57.5 150.5h-2zM254 765h-58q7 102 84 102q27 0 72 -22q38 -18 54 -18q25 0 33 40h56q-3 -47 -24 -75t-57 -28q-24 0 -67 19
q-49 21 -59 21q-30 0 -34 -39z" />
    <glyph glyph-name="Adieresis" unicode="&#xc4;" horiz-adv-x="687" 
d="M-2 0l291 715h110l288 -715h-90l-90 225h-336l-89 -225h-84zM340 649q-20 -53 -61 -153t-54 -134l-28 -68h283l-30 77q-12 31 -50.5 127.5t-57.5 150.5h-2zM218 766v90h89v-90h-89zM378 766v90h88v-90h-88z" />
    <glyph glyph-name="Aring" unicode="&#xc5;" horiz-adv-x="687" 
d="M-2 0l291 715h110l288 -715h-90l-90 225h-336l-89 -225h-84zM340 649q-20 -53 -61 -153t-54 -134l-28 -68h283l-30 77q-12 31 -50.5 127.5t-57.5 150.5h-2zM341 748q-37 0 -62 25.5t-25 63.5q0 36 25.5 61.5t62.5 25.5t62.5 -25.5t25.5 -61.5q0 -37 -26 -63t-63 -26z
M295 837q0 -20 13.5 -34.5t32.5 -14.5q20 0 33.5 14t13.5 35q0 19 -13.5 33t-33.5 14q-19 0 -32.5 -14t-13.5 -33z" />
    <glyph glyph-name="AE" unicode="&#xc6;" horiz-adv-x="905" 
d="M852 715v-74h-341l6 -237h311v-74h-310l7 -256h334v-74h-418l-5 201h-249l-114 -201h-85l402 715h462zM433 274l-3 172q-1 46 -1 192h-5q-35 -72 -79 -153l-117 -211h205z" />
    <glyph glyph-name="Ccedilla" unicode="&#xc7;" horiz-adv-x="764" 
d="M641 207h88q-38 -103 -123 -162t-206 -59q-157 0 -255.5 103t-98.5 268q0 164 100 268t259 104q123 0 206.5 -59t118.5 -170h-87q-59 157 -239 157q-124 0 -195 -82.5t-71 -216.5t71.5 -217t195.5 -83q166 0 236 149zM267 -163l94 115h86l-75 -115h-105z" />
    <glyph glyph-name="Egrave" unicode="&#xc8;" horiz-adv-x="589" 
d="M92 0v715h444v-74h-359v-237h335v-74h-335v-256h366v-74h-451zM308 761l-138 114h115l111 -114h-88z" />
    <glyph glyph-name="Eacute" unicode="&#xc9;" horiz-adv-x="589" 
d="M92 0v715h444v-74h-359v-237h335v-74h-335v-256h366v-74h-451zM464 875l-138 -114h-88l111 114h115z" />
    <glyph glyph-name="Ecircumflex" unicode="&#xca;" horiz-adv-x="589" 
d="M92 0v715h444v-74h-359v-237h335v-74h-335v-256h366v-74h-451zM275 875h89l97 -114h-78l-64 66l-62 -66h-79z" />
    <glyph glyph-name="Edieresis" unicode="&#xcb;" horiz-adv-x="589" 
d="M92 0v715h444v-74h-359v-237h335v-74h-335v-256h366v-74h-451zM192 766v90h89v-90h-89zM352 766v90h88v-90h-88z" />
    <glyph glyph-name="Igrave" unicode="&#xcc;" horiz-adv-x="269" 
d="M92 0v715h85v-715h-85zM115 761l-138 114h115l111 -114h-88z" />
    <glyph glyph-name="Iacute" unicode="&#xcd;" horiz-adv-x="269" 
d="M92 0v715h85v-715h-85zM305 875l-138 -114h-88l111 114h115z" />
    <glyph glyph-name="Icircumflex" unicode="&#xce;" horiz-adv-x="269" 
d="M92 0v715h85v-715h-85zM92 875h89l97 -114h-78l-64 66l-62 -66h-79z" />
    <glyph glyph-name="Idieresis" unicode="&#xcf;" horiz-adv-x="269" 
d="M92 0v715h85v-715h-85zM11 766v90h89v-90h-89zM171 766v90h88v-90h-88z" />
    <glyph glyph-name="Eth" unicode="&#xd0;" horiz-adv-x="718" 
d="M11 327v71h82v317h182q127 0 213 -39q182 -84 182 -320q0 -185 -121 -281q-96 -75 -259 -75h-197v327h-82zM178 642v-244h147v-71h-147v-254h90q154 0 231 66t77 218q0 139 -77 212.5t-220 73.5q-68 0 -101 -1z" />
    <glyph glyph-name="Ntilde" unicode="&#xd1;" horiz-adv-x="736" 
d="M644 0h-123l-238 428q-100 184 -105 195h-2q0 -17 0.5 -127t0.5 -144v-352h-85v715h129l243 -441l98 -181h2q0 17 -1.5 94t-1.5 115v413h83v-715zM290 765h-58q7 102 84 102q27 0 72 -22q38 -18 54 -18q25 0 33 40h56q-3 -47 -24 -75t-57 -28q-24 0 -67 19q-49 21 -59 21
q-30 0 -34 -39z" />
    <glyph glyph-name="Ograve" unicode="&#xd2;" horiz-adv-x="809" 
d="M404 729q160 0 259.5 -103t99.5 -269t-98 -268.5t-260 -102.5q-161 0 -260 103t-99 268t99 268.5t259 103.5zM403 658q-123 0 -194.5 -82.5t-71.5 -217.5q0 -134 72 -217.5t195 -83.5q122 0 193.5 83.5t71.5 217.5q0 136 -71 218t-195 82zM407 761l-138 114h115l111 -114
h-88z" />
    <glyph glyph-name="Oacute" unicode="&#xd3;" horiz-adv-x="809" 
d="M404 729q160 0 259.5 -103t99.5 -269t-98 -268.5t-260 -102.5q-161 0 -260 103t-99 268t99 268.5t259 103.5zM403 658q-123 0 -194.5 -82.5t-71.5 -217.5q0 -134 72 -217.5t195 -83.5q122 0 193.5 83.5t71.5 217.5q0 136 -71 218t-195 82zM569 875l-138 -114h-88l111 114
h115z" />
    <glyph glyph-name="Ocircumflex" unicode="&#xd4;" horiz-adv-x="809" 
d="M404 729q160 0 259.5 -103t99.5 -269t-98 -268.5t-260 -102.5q-161 0 -260 103t-99 268t99 268.5t259 103.5zM403 658q-123 0 -194.5 -82.5t-71.5 -217.5q0 -134 72 -217.5t195 -83.5q122 0 193.5 83.5t71.5 217.5q0 136 -71 218t-195 82zM364 875h89l97 -114h-78l-64 66
l-62 -66h-79z" />
    <glyph glyph-name="Otilde" unicode="&#xd5;" horiz-adv-x="809" 
d="M404 729q160 0 259.5 -103t99.5 -269t-98 -268.5t-260 -102.5q-161 0 -260 103t-99 268t99 268.5t259 103.5zM403 658q-123 0 -194.5 -82.5t-71.5 -217.5q0 -134 72 -217.5t195 -83.5q122 0 193.5 83.5t71.5 217.5q0 136 -71 218t-195 82zM322 765h-58q7 102 84 102
q27 0 72 -22q38 -18 54 -18q25 0 33 40h56q-3 -47 -24 -75t-57 -28q-24 0 -67 19q-50 21 -59 21q-30 0 -34 -39z" />
    <glyph glyph-name="Odieresis" unicode="&#xd6;" horiz-adv-x="809" 
d="M404 729q160 0 259.5 -103t99.5 -269t-98 -268.5t-260 -102.5q-161 0 -260 103t-99 268t99 268.5t259 103.5zM403 658q-123 0 -194.5 -82.5t-71.5 -217.5q0 -134 72 -217.5t195 -83.5q122 0 193.5 83.5t71.5 217.5q0 136 -71 218t-195 82zM284 766v90h89v-90h-89z
M444 766v90h88v-90h-88z" />
    <glyph glyph-name="multiply" unicode="&#xd7;" 
d="M115 110l-46 46l164 165l-164 165l46 46l164 -165l166 165l46 -46l-166 -165l166 -165l-46 -46l-166 165z" />
    <glyph glyph-name="Oslash" unicode="&#xd8;" horiz-adv-x="809" 
d="M404 729q81 0 154 -30l49 86l66 -37l-50 -87q67 -49 103.5 -127.5t36.5 -176.5q0 -166 -98 -268.5t-260 -102.5q-80 0 -150 28l-50 -89l-66 34l51 91q-68 49 -106 128.5t-38 178.5q0 165 99 268.5t259 103.5zM403 658q-123 0 -194.5 -82.5t-71.5 -217.5q0 -156 92 -239
l292 514q-53 25 -118 25zM669 358q0 152 -86 233l-291 -512q48 -22 112 -22q122 0 193.5 83.5t71.5 217.5z" />
    <glyph glyph-name="Ugrave" unicode="&#xd9;" horiz-adv-x="689" 
d="M344 -14q-67 0 -124.5 24.5t-88.5 67.5q-46 65 -46 193v444h85v-437q0 -99 23 -143q20 -38 59.5 -59t91.5 -21t92.5 21.5t59.5 58.5q23 44 23 143v437h85v-444q0 -128 -46 -193q-31 -43 -89.5 -67.5t-124.5 -24.5zM331 761l-138 114h115l111 -114h-88z" />
    <glyph glyph-name="Uacute" unicode="&#xda;" horiz-adv-x="689" 
d="M344 -14q-67 0 -124.5 24.5t-88.5 67.5q-46 65 -46 193v444h85v-437q0 -99 23 -143q20 -38 59.5 -59t91.5 -21t92.5 21.5t59.5 58.5q23 44 23 143v437h85v-444q0 -128 -46 -193q-31 -43 -89.5 -67.5t-124.5 -24.5zM491 875l-138 -114h-88l111 114h115z" />
    <glyph glyph-name="Ucircumflex" unicode="&#xdb;" horiz-adv-x="689" 
d="M344 -14q-67 0 -124.5 24.5t-88.5 67.5q-46 65 -46 193v444h85v-437q0 -99 23 -143q20 -38 59.5 -59t91.5 -21t92.5 21.5t59.5 58.5q23 44 23 143v437h85v-444q0 -128 -46 -193q-31 -43 -89.5 -67.5t-124.5 -24.5zM300 875h89l97 -114h-78l-64 66l-62 -66h-79z" />
    <glyph glyph-name="Udieresis" unicode="&#xdc;" horiz-adv-x="689" 
d="M344 -14q-67 0 -124.5 24.5t-88.5 67.5q-46 65 -46 193v444h85v-437q0 -99 23 -143q20 -38 59.5 -59t91.5 -21t92.5 21.5t59.5 58.5q23 44 23 143v437h85v-444q0 -128 -46 -193q-31 -43 -89.5 -67.5t-124.5 -24.5zM224 766v90h89v-90h-89zM384 766v90h88v-90h-88z" />
    <glyph glyph-name="Yacute" unicode="&#xdd;" horiz-adv-x="588" 
d="M251 0v275l-244 440h95q34 -67 111 -207t85 -155q27 50 96.5 176t100.5 186h89l-248 -440v-275h-85zM462 875l-138 -114h-88l111 114h115z" />
    <glyph glyph-name="Thorn" unicode="&#xde;" horiz-adv-x="577" 
d="M92 715h85v-121h120q100 0 157 -29q96 -50 96 -177q0 -107 -73 -161q-65 -49 -185 -49h-115v-178h-85v715zM177 522v-272h116q76 0 120.5 33.5t44.5 104.5q0 134 -171 134h-110z" />
    <glyph glyph-name="germandbls" unicode="&#xdf;" horiz-adv-x="573" 
d="M77 0v485q0 70 12 113t42 72q56 53 158 53q94 0 147 -43t53 -116q0 -105 -109 -150q151 -50 151 -195q0 -107 -65 -164.5t-167 -57.5q-19 0 -43 2v61q9 -1 25 -1q72 0 118.5 36.5t46.5 119.5q0 80 -49.5 120t-131.5 40h-9v57q149 6 149 118q0 52 -32 81t-90 29
q-123 0 -123 -148v-512h-83z" />
    <glyph glyph-name="agrave" unicode="&#xe0;" horiz-adv-x="548" 
d="M63 366q0 75 59 124t153 49q104 0 153.5 -53.5t49.5 -173.5q0 -10 -0.5 -38.5t-0.5 -40.5v-129q0 -70 10 -104h-76q-7 38 -7 81q-57 -91 -181 -91q-82 0 -133 40t-51 111t57.5 106.5t164.5 52.5q78 13 138 17q0 83 -30.5 120t-97.5 37q-118 0 -129 -108h-79zM400 233
q0 21 1 26l-44 -6q-45 -7 -70 -11t-56 -11t-46.5 -14t-31 -17.5t-21.5 -24.5t-6 -33q0 -44 31.5 -69t85.5 -25q76 0 116.5 47.5t40.5 137.5zM272 596l-141 119h115l114 -119h-88z" />
    <glyph glyph-name="aacute" unicode="&#xe1;" horiz-adv-x="548" 
d="M63 366q0 75 59 124t153 49q104 0 153.5 -53.5t49.5 -173.5q0 -10 -0.5 -38.5t-0.5 -40.5v-129q0 -70 10 -104h-76q-7 38 -7 81q-57 -91 -181 -91q-82 0 -133 40t-51 111t57.5 106.5t164.5 52.5q78 13 138 17q0 83 -30.5 120t-97.5 37q-118 0 -129 -108h-79zM400 233
q0 21 1 26l-44 -6q-45 -7 -70 -11t-56 -11t-46.5 -14t-31 -17.5t-21.5 -24.5t-6 -33q0 -44 31.5 -69t85.5 -25q76 0 116.5 47.5t40.5 137.5zM439 715l-141 -119h-88l114 119h115z" />
    <glyph glyph-name="acircumflex" unicode="&#xe2;" horiz-adv-x="548" 
d="M63 366q0 75 59 124t153 49q104 0 153.5 -53.5t49.5 -173.5q0 -10 -0.5 -38.5t-0.5 -40.5v-129q0 -70 10 -104h-76q-7 38 -7 81q-57 -91 -181 -91q-82 0 -133 40t-51 111t57.5 106.5t164.5 52.5q78 13 138 17q0 83 -30.5 120t-97.5 37q-118 0 -129 -108h-79zM400 233
q0 21 1 26l-44 -6q-45 -7 -70 -11t-56 -11t-46.5 -14t-31 -17.5t-21.5 -24.5t-6 -33q0 -44 31.5 -69t85.5 -25q76 0 116.5 47.5t40.5 137.5zM233 715h89q15 -17 48 -59t49 -60h-78l-64 68l-62 -68h-79q16 18 49 60t48 59z" />
    <glyph glyph-name="atilde" unicode="&#xe3;" horiz-adv-x="548" 
d="M63 366q0 75 59 124t153 49q104 0 153.5 -53.5t49.5 -173.5q0 -10 -0.5 -38.5t-0.5 -40.5v-129q0 -70 10 -104h-76q-7 38 -7 81q-57 -91 -181 -91q-82 0 -133 40t-51 111t57.5 106.5t164.5 52.5q78 13 138 17q0 83 -30.5 120t-97.5 37q-118 0 -129 -108h-79zM400 233
q0 21 1 26l-44 -6q-45 -7 -70 -11t-56 -11t-46.5 -14t-31 -17.5t-21.5 -24.5t-6 -33q0 -44 31.5 -69t85.5 -25q76 0 116.5 47.5t40.5 137.5zM178 614h-58q7 102 84 102q27 0 72 -22q38 -18 54 -18q25 0 33 40h56q-3 -47 -24 -75t-57 -28q-24 0 -67 19q-49 21 -59 21
q-30 0 -34 -39z" />
    <glyph glyph-name="adieresis" unicode="&#xe4;" horiz-adv-x="548" 
d="M63 366q0 75 59 124t153 49q104 0 153.5 -53.5t49.5 -173.5q0 -10 -0.5 -38.5t-0.5 -40.5v-129q0 -70 10 -104h-76q-7 38 -7 81q-57 -91 -181 -91q-82 0 -133 40t-51 111t57.5 106.5t164.5 52.5q78 13 138 17q0 83 -30.5 120t-97.5 37q-118 0 -129 -108h-79zM400 233
q0 21 1 26l-44 -6q-45 -7 -70 -11t-56 -11t-46.5 -14t-31 -17.5t-21.5 -24.5t-6 -33q0 -44 31.5 -69t85.5 -25q76 0 116.5 47.5t40.5 137.5zM143 609v90h89v-90h-89zM303 609v90h88v-90h-88z" />
    <glyph glyph-name="aring" unicode="&#xe5;" horiz-adv-x="548" 
d="M63 366q0 75 59 124t153 49q104 0 153.5 -53.5t49.5 -173.5q0 -10 -0.5 -38.5t-0.5 -40.5v-129q0 -70 10 -104h-76q-7 38 -7 81q-57 -91 -181 -91q-82 0 -133 40t-51 111t57.5 106.5t164.5 52.5q78 13 138 17q0 83 -30.5 120t-97.5 37q-118 0 -129 -108h-79zM400 233
q0 21 1 26l-44 -6q-45 -7 -70 -11t-56 -11t-46.5 -14t-31 -17.5t-21.5 -24.5t-6 -33q0 -44 31.5 -69t85.5 -25q76 0 116.5 47.5t40.5 137.5zM278 588q-37 0 -62 25.5t-25 63.5q0 36 25.5 61.5t62.5 25.5t62.5 -25.5t25.5 -61.5q0 -37 -25.5 -63t-63.5 -26zM232 677
q0 -20 13.5 -34.5t32.5 -14.5q20 0 33.5 14t13.5 35q0 19 -13.5 33t-33.5 14q-19 0 -32.5 -14t-13.5 -33z" />
    <glyph glyph-name="ae" unicode="&#xe6;" horiz-adv-x="940" 
d="M902 249h-429q4 -92 52.5 -143.5t129.5 -51.5q105 0 152 95h84q-26 -72 -88.5 -117t-149.5 -45q-151 0 -222 115q-61 -112 -207 -112q-83 0 -134 40t-51 111q0 72 58 107.5t166 52.5q19 3 136 17q0 83 -30.5 119.5t-97.5 36.5q-118 0 -129 -108h-79q0 74 59 123.5
t152 49.5q133 0 177 -90q76 90 203 90q122 0 185.5 -79t63.5 -193q0 -6 -0.5 -11.5t-0.5 -6.5zM477 311h339q-8 75 -49 119t-115 44q-73 0 -119 -44.5t-56 -118.5zM400 233q0 21 1 26l-30 -5q-18 -3 -50 -7.5t-47 -7.5q-79 -13 -113.5 -32.5t-34.5 -63.5t32 -69.5t85 -25.5
q76 0 116.5 47.5t40.5 137.5z" />
    <glyph glyph-name="ccedilla" unicode="&#xe7;" horiz-adv-x="588" 
d="M469 166h81q-24 -80 -86.5 -129.5t-158.5 -49.5q-120 0 -191 75t-71 202q0 124 73 199.5t190 75.5q100 0 161 -51t84 -134h-82q-44 118 -163 118q-82 0 -130 -58t-48 -151q0 -96 46.5 -152.5t131.5 -56.5q115 0 163 112zM173 -163l94 115h86l-75 -115h-105z" />
    <glyph glyph-name="egrave" unicode="&#xe8;" horiz-adv-x="593" 
d="M555 249h-429q4 -92 52.5 -143.5t129.5 -51.5q104 0 152 95h84q-26 -72 -88.5 -117t-149.5 -45q-122 0 -192.5 76t-70.5 198q0 124 72.5 201t191.5 77q122 0 185.5 -79t63.5 -193q0 -6 -0.5 -11.5t-0.5 -6.5zM130 311h339q-8 75 -49 119t-115 44q-73 0 -119 -44.5
t-56 -118.5zM284 596l-141 119h115l114 -119h-88z" />
    <glyph glyph-name="eacute" unicode="&#xe9;" horiz-adv-x="593" 
d="M555 249h-429q4 -92 52.5 -143.5t129.5 -51.5q104 0 152 95h84q-26 -72 -88.5 -117t-149.5 -45q-122 0 -192.5 76t-70.5 198q0 124 72.5 201t191.5 77q122 0 185.5 -79t63.5 -193q0 -6 -0.5 -11.5t-0.5 -6.5zM130 311h339q-8 75 -49 119t-115 44q-73 0 -119 -44.5
t-56 -118.5zM463 715l-141 -119h-88l114 119h115z" />
    <glyph glyph-name="ecircumflex" unicode="&#xea;" horiz-adv-x="593" 
d="M555 249h-429q4 -92 52.5 -143.5t129.5 -51.5q104 0 152 95h84q-26 -72 -88.5 -117t-149.5 -45q-122 0 -192.5 76t-70.5 198q0 124 72.5 201t191.5 77q122 0 185.5 -79t63.5 -193q0 -6 -0.5 -11.5t-0.5 -6.5zM130 311h339q-8 75 -49 119t-115 44q-73 0 -119 -44.5
t-56 -118.5zM261 715h89q15 -17 48 -59t49 -60h-78l-64 68l-62 -68h-79q16 18 49 60t48 59z" />
    <glyph glyph-name="edieresis" unicode="&#xeb;" horiz-adv-x="593" 
d="M555 249h-429q4 -92 52.5 -143.5t129.5 -51.5q104 0 152 95h84q-26 -72 -88.5 -117t-149.5 -45q-122 0 -192.5 76t-70.5 198q0 124 72.5 201t191.5 77q122 0 185.5 -79t63.5 -193q0 -6 -0.5 -11.5t-0.5 -6.5zM130 311h339q-8 75 -49 119t-115 44q-73 0 -119 -44.5
t-56 -118.5zM175 609v90h89v-90h-89zM335 609v90h88v-90h-88z" />
    <glyph glyph-name="igrave" unicode="&#xec;" horiz-adv-x="235" 
d="M77 525h81v-525h-81v525zM102 596l-141 119h115l114 -119h-88z" />
    <glyph glyph-name="iacute" unicode="&#xed;" horiz-adv-x="235" 
d="M77 525h81v-525h-81v525zM299 715l-141 -119h-88l114 119h115z" />
    <glyph glyph-name="icircumflex" unicode="&#xee;" horiz-adv-x="235" 
d="M77 525h81v-525h-81v525zM81 715h89q15 -17 48 -59t49 -60h-78l-64 68l-62 -68h-79q16 18 49 60t48 59z" />
    <glyph glyph-name="idieresis" unicode="&#xef;" horiz-adv-x="235" 
d="M77 525h81v-525h-81v525zM-1 609v90h89v-90h-89zM159 609v90h88v-90h-88z" />
    <glyph glyph-name="eth" unicode="&#xf0;" horiz-adv-x="618" 
d="M140 715h140l43 -26l93 41l41 -40l-82 -37q197 -153 197 -378q0 -134 -68 -211t-197 -77q-123 0 -193 73.5t-70 199.5t70.5 200.5t175.5 74.5q82 0 136 -39l3 3q-41 60 -126 121l-117 -52l-46 41l108 47q-51 32 -108 59zM307 54q84 0 131 57t47 152q0 93 -47.5 151
t-130.5 58q-84 0 -131.5 -58t-47.5 -151q0 -95 47 -152t132 -57z" />
    <glyph glyph-name="ntilde" unicode="&#xf1;" horiz-adv-x="580" 
d="M77 0v446q0 55 -1 79h82v-75q55 89 171 89q89 0 134.5 -55t45.5 -156v-328h-83v302q0 170 -129 170q-64 0 -100.5 -45t-36.5 -112v-315h-83zM220 613h-58q7 102 84 102q27 0 72 -22q38 -18 54 -18q25 0 33 40h56q-3 -47 -24 -75t-57 -28q-24 0 -67 19q-50 21 -59 21
q-30 0 -34 -39z" />
    <glyph glyph-name="ograve" unicode="&#xf2;" horiz-adv-x="618" 
d="M307 54q84 0 131 57t47 152q0 93 -47.5 151t-130.5 58q-84 0 -131.5 -58t-47.5 -151q0 -95 47 -152t132 -57zM307 -13q-124 0 -194 76t-70 199q0 122 72.5 199.5t193.5 77.5t193.5 -77.5t72.5 -199.5q0 -123 -72 -199t-196 -76zM307 596l-141 119h115l114 -119h-88z" />
    <glyph glyph-name="oacute" unicode="&#xf3;" horiz-adv-x="618" 
d="M307 54q84 0 131 57t47 152q0 93 -47.5 151t-130.5 58q-84 0 -131.5 -58t-47.5 -151q0 -95 47 -152t132 -57zM307 -13q-124 0 -194 76t-70 199q0 122 72.5 199.5t193.5 77.5t193.5 -77.5t72.5 -199.5q0 -123 -72 -199t-196 -76zM468 715l-141 -119h-88l114 119h115z" />
    <glyph glyph-name="ocircumflex" unicode="&#xf4;" horiz-adv-x="618" 
d="M307 54q84 0 131 57t47 152q0 93 -47.5 151t-130.5 58q-84 0 -131.5 -58t-47.5 -151q0 -95 47 -152t132 -57zM307 -13q-124 0 -194 76t-70 199q0 122 72.5 199.5t193.5 77.5t193.5 -77.5t72.5 -199.5q0 -123 -72 -199t-196 -76zM267 715h89q15 -17 48 -59t49 -60h-78
l-64 68l-62 -68h-79q16 18 49 60t48 59z" />
    <glyph glyph-name="otilde" unicode="&#xf5;" horiz-adv-x="618" 
d="M307 54q84 0 131 57t47 152q0 93 -47.5 151t-130.5 58q-84 0 -131.5 -58t-47.5 -151q0 -95 47 -152t132 -57zM307 -13q-124 0 -194 76t-70 199q0 122 72.5 199.5t193.5 77.5t193.5 -77.5t72.5 -199.5q0 -123 -72 -199t-196 -76zM222 613h-58q7 102 84 102q27 0 72 -22
q38 -18 54 -18q25 0 33 40h56q-3 -47 -24 -75t-57 -28q-24 0 -67 19q-50 21 -59 21q-30 0 -34 -39z" />
    <glyph glyph-name="odieresis" unicode="&#xf6;" horiz-adv-x="618" 
d="M307 54q84 0 131 57t47 152q0 93 -47.5 151t-130.5 58q-84 0 -131.5 -58t-47.5 -151q0 -95 47 -152t132 -57zM307 -13q-124 0 -194 76t-70 199q0 122 72.5 199.5t193.5 77.5t193.5 -77.5t72.5 -199.5q0 -123 -72 -199t-196 -76zM185 609v90h89v-90h-89zM345 609v90h88
v-90h-88z" />
    <glyph glyph-name="divide" unicode="&#xf7;" 
d="M59 289v65h442v-65h-442zM233 95v111h88v-111h-88zM233 437v111h88v-111h-88z" />
    <glyph glyph-name="oslash" unicode="&#xf8;" horiz-adv-x="618" 
d="M307 -13q-57 0 -105 17l-42 -74l-65 36l42 74q-94 76 -94 222q0 122 72.5 199.5t193.5 77.5q52 0 101 -18l39 68l66 -36l-39 -68q99 -79 99 -223q0 -123 -72 -199t-196 -76zM128 263q0 -98 48 -154l199 350q-33 13 -68 13q-84 0 -131.5 -58t-47.5 -151zM307 54
q84 0 131 57t47 152t-49 152l-199 -349q31 -12 70 -12z" />
    <glyph glyph-name="ugrave" unicode="&#xf9;" horiz-adv-x="572" 
d="M495 525v-445q0 -53 1 -80h-82v72q-51 -86 -165 -86q-89 0 -133.5 54.5t-44.5 156.5v328h83v-303q0 -169 127 -169q62 0 96.5 45t34.5 111v316h83zM279 596l-141 119h115l114 -119h-88z" />
    <glyph glyph-name="uacute" unicode="&#xfa;" horiz-adv-x="572" 
d="M495 525v-445q0 -53 1 -80h-82v72q-51 -86 -165 -86q-89 0 -133.5 54.5t-44.5 156.5v328h83v-303q0 -169 127 -169q62 0 96.5 45t34.5 111v316h83zM435 715l-141 -119h-88l114 119h115z" />
    <glyph glyph-name="ucircumflex" unicode="&#xfb;" horiz-adv-x="572" 
d="M495 525v-445q0 -53 1 -80h-82v72q-51 -86 -165 -86q-89 0 -133.5 54.5t-44.5 156.5v328h83v-303q0 -169 127 -169q62 0 96.5 45t34.5 111v316h83zM248 715h89q15 -17 48 -59t49 -60h-78l-64 68l-62 -68h-79q16 18 49 60t48 59z" />
    <glyph glyph-name="udieresis" unicode="&#xfc;" horiz-adv-x="572" 
d="M495 525v-445q0 -53 1 -80h-82v72q-51 -86 -165 -86q-89 0 -133.5 54.5t-44.5 156.5v328h83v-303q0 -169 127 -169q62 0 96.5 45t34.5 111v316h83zM168 609v90h89v-90h-89zM328 609v90h88v-90h-88z" />
    <glyph glyph-name="yacute" unicode="&#xfd;" horiz-adv-x="519" 
d="M228 -180h-83l73 177q-35 93 -111 290.5t-91 237.5h93q43 -123 153 -430q138 375 157 430h86q-29 -73 -125 -320t-152 -385zM421 715l-141 -119h-88l114 119h115z" />
    <glyph glyph-name="thorn" unicode="&#xfe;" horiz-adv-x="626" 
d="M77 715h83v-120q0 -101 -2 -152q26 41 73 68.5t112 27.5q108 0 174 -75.5t66 -197.5q0 -126 -69 -202.5t-177 -76.5q-117 0 -179 87q2 -56 2 -134v-120h-83v895zM325 54q80 0 124 56t44 153q0 94 -44.5 151.5t-123.5 57.5q-80 0 -123.5 -57.5t-43.5 -151.5
q0 -97 43.5 -153t123.5 -56z" />
    <glyph glyph-name="ydieresis" unicode="&#xff;" horiz-adv-x="519" 
d="M228 -180h-83l73 177q-35 93 -111 290.5t-91 237.5h93q43 -123 153 -430q138 375 157 430h86q-29 -73 -125 -320t-152 -385zM140 609v90h89v-90h-89zM300 609v90h88v-90h-88z" />
    <glyph glyph-name="Amacron" unicode="&#x100;" horiz-adv-x="687" 
d="M-2 0l291 715h110l288 -715h-90l-90 225h-336l-89 -225h-84zM340 649q-20 -53 -61 -153t-54 -134l-28 -68h283l-30 77q-12 31 -50.5 127.5t-57.5 150.5h-2zM220 785v53h244v-53h-244z" />
    <glyph glyph-name="amacron" unicode="&#x101;" horiz-adv-x="548" 
d="M63 366q0 75 59 124t153 49q104 0 153.5 -53.5t49.5 -173.5q0 -10 -0.5 -38.5t-0.5 -40.5v-129q0 -70 10 -104h-76q-7 38 -7 81q-57 -91 -181 -91q-82 0 -133 40t-51 111t57.5 106.5t164.5 52.5q78 13 138 17q0 83 -30.5 120t-97.5 37q-118 0 -129 -108h-79zM400 233
q0 21 1 26l-44 -6q-45 -7 -70 -11t-56 -11t-46.5 -14t-31 -17.5t-21.5 -24.5t-6 -33q0 -44 31.5 -69t85.5 -25q76 0 116.5 47.5t40.5 137.5zM156 628v53h244v-53h-244z" />
    <glyph glyph-name="Abreve" unicode="&#x102;" horiz-adv-x="687" 
d="M-2 0l291 715h110l288 -715h-90l-90 225h-336l-89 -225h-84zM340 649q-20 -53 -61 -153t-54 -134l-28 -68h283l-30 77q-12 31 -50.5 127.5t-57.5 150.5h-2zM342 823q58 0 73 56h63q-20 -110 -136 -110t-136 110h63q15 -56 73 -56z" />
    <glyph glyph-name="abreve" unicode="&#x103;" horiz-adv-x="548" 
d="M63 366q0 75 59 124t153 49q104 0 153.5 -53.5t49.5 -173.5q0 -10 -0.5 -38.5t-0.5 -40.5v-129q0 -70 10 -104h-76q-7 38 -7 81q-57 -91 -181 -91q-82 0 -133 40t-51 111t57.5 106.5t164.5 52.5q78 13 138 17q0 83 -30.5 120t-97.5 37q-118 0 -129 -108h-79zM400 233
q0 21 1 26l-44 -6q-45 -7 -70 -11t-56 -11t-46.5 -14t-31 -17.5t-21.5 -24.5t-6 -33q0 -44 31.5 -69t85.5 -25q76 0 116.5 47.5t40.5 137.5zM280 659q58 0 73 56h63q-20 -110 -136 -110t-136 110h63q15 -56 73 -56z" />
    <glyph glyph-name="Aogonek" unicode="&#x104;" horiz-adv-x="687" 
d="M-2 0l291 715h110l288 -715h-90l-90 225h-336l-89 -225h-84zM340 649q-20 -53 -61 -153t-54 -134l-28 -68h283l-30 77q-12 31 -50.5 127.5t-57.5 150.5h-2zM669 -48l94 -115h-102l-75 115h83z" />
    <glyph glyph-name="aogonek" unicode="&#x105;" horiz-adv-x="548" 
d="M63 366q0 75 59 124t153 49q104 0 153.5 -53.5t49.5 -173.5q0 -10 -0.5 -38.5t-0.5 -40.5v-129q0 -70 10 -104h-76q-7 38 -7 81q-57 -91 -181 -91q-82 0 -133 40t-51 111t57.5 106.5t164.5 52.5q78 13 138 17q0 83 -30.5 120t-97.5 37q-118 0 -129 -108h-79zM400 233
q0 21 1 26l-44 -6q-45 -7 -70 -11t-56 -11t-46.5 -14t-31 -17.5t-21.5 -24.5t-6 -33q0 -44 31.5 -69t85.5 -25q76 0 116.5 47.5t40.5 137.5zM462 -48l94 -115h-102l-75 115h83z" />
    <glyph glyph-name="Cacute" unicode="&#x106;" horiz-adv-x="764" 
d="M641 207h88q-38 -103 -123 -162t-206 -59q-157 0 -255.5 103t-98.5 268q0 164 100 268t259 104q123 0 206.5 -59t118.5 -170h-87q-59 157 -239 157q-124 0 -195 -82.5t-71 -216.5t71.5 -217t195.5 -83q166 0 236 149zM565 875l-138 -114h-88l111 114h115z" />
    <glyph glyph-name="cacute" unicode="&#x107;" horiz-adv-x="588" 
d="M469 166h81q-24 -80 -86.5 -129.5t-158.5 -49.5q-120 0 -191 75t-71 202q0 124 73 199.5t190 75.5q100 0 161 -51t84 -134h-82q-44 118 -163 118q-82 0 -130 -58t-48 -151q0 -96 46.5 -152.5t131.5 -56.5q115 0 163 112zM471 715l-141 -119h-88l114 119h115z" />
    <glyph glyph-name="Ccircumflex" unicode="&#x108;" horiz-adv-x="764" 
d="M641 207h88q-38 -103 -123 -162t-206 -59q-157 0 -255.5 103t-98.5 268q0 164 100 268t259 104q123 0 206.5 -59t118.5 -170h-87q-59 157 -239 157q-124 0 -195 -82.5t-71 -216.5t71.5 -217t195.5 -83q166 0 236 149zM368 875h89l97 -114h-78l-64 66l-62 -66h-79z" />
    <glyph glyph-name="ccircumflex" unicode="&#x109;" horiz-adv-x="588" 
d="M469 166h81q-24 -80 -86.5 -129.5t-158.5 -49.5q-120 0 -191 75t-71 202q0 124 73 199.5t190 75.5q100 0 161 -51t84 -134h-82q-44 118 -163 118q-82 0 -130 -58t-48 -151q0 -96 46.5 -152.5t131.5 -56.5q115 0 163 112zM263 715h89q15 -17 48 -59t49 -60h-78l-64 68
l-62 -68h-79q16 18 49 60t48 59z" />
    <glyph glyph-name="Cdotaccent" unicode="&#x10a;" horiz-adv-x="764" 
d="M641 207h88q-38 -103 -123 -162t-206 -59q-157 0 -255.5 103t-98.5 268q0 164 100 268t259 104q123 0 206.5 -59t118.5 -170h-87q-59 157 -239 157q-124 0 -195 -82.5t-71 -216.5t71.5 -217t195.5 -83q166 0 236 149zM365 769v90h91v-90h-91z" />
    <glyph glyph-name="cdotaccent" unicode="&#x10b;" horiz-adv-x="588" 
d="M469 166h81q-24 -80 -86.5 -129.5t-158.5 -49.5q-120 0 -191 75t-71 202q0 124 73 199.5t190 75.5q100 0 161 -51t84 -134h-82q-44 118 -163 118q-82 0 -130 -58t-48 -151q0 -96 46.5 -152.5t131.5 -56.5q115 0 163 112zM262 609v90h91v-90h-91z" />
    <glyph glyph-name="Ccaron" unicode="&#x10c;" horiz-adv-x="764" 
d="M641 207h88q-38 -103 -123 -162t-206 -59q-157 0 -255.5 103t-98.5 268q0 164 100 268t259 104q123 0 206.5 -59t118.5 -170h-87q-59 157 -239 157q-124 0 -195 -82.5t-71 -216.5t71.5 -217t195.5 -83q166 0 236 149zM453 761h-89l-97 114h79l62 -66l64 66h78z" />
    <glyph glyph-name="ccaron" unicode="&#x10d;" horiz-adv-x="588" 
d="M469 166h81q-24 -80 -86.5 -129.5t-158.5 -49.5q-120 0 -191 75t-71 202q0 124 73 199.5t190 75.5q100 0 161 -51t84 -134h-82q-44 118 -163 118q-82 0 -130 -58t-48 -151q0 -96 46.5 -152.5t131.5 -56.5q115 0 163 112zM352 596h-89q-15 17 -48 59t-49 60h79l62 -68
l64 68h78q-16 -18 -49 -60t-48 -59z" />
    <glyph glyph-name="Dcaron" unicode="&#x10e;" horiz-adv-x="717" 
d="M92 0v715h182q127 0 213 -39q182 -84 182 -320q0 -185 -121 -281q-96 -75 -259 -75h-197zM177 642v-569h90q154 0 231 66t77 218q0 139 -77 212.5t-220 73.5q-68 0 -101 -1zM373 761h-89l-97 114h79l62 -66l64 66h78z" />
    <glyph glyph-name="dcaron" unicode="&#x10f;" horiz-adv-x="702" 
d="M549 715v-715h-77v80q-26 -40 -73 -66.5t-110 -26.5q-110 0 -178 73.5t-68 202.5q0 121 68 198.5t172 77.5q126 0 184 -95q-1 36 -1 116v155h83zM301 54q80 0 123.5 56t43.5 153q0 94 -43.5 151t-123.5 57q-79 0 -123.5 -57.5t-44.5 -150.5q0 -97 44 -153t124 -56z
M774 715l-81 -232h-71l65 232h87z" />
    <glyph glyph-name="Dcroat" unicode="&#x110;" horiz-adv-x="718" 
d="M11 327v71h82v317h182q127 0 213 -39q182 -84 182 -320q0 -185 -121 -281q-96 -75 -259 -75h-197v327h-82zM178 642v-244h147v-71h-147v-254h90q154 0 231 66t77 218q0 139 -77 212.5t-220 73.5q-68 0 -101 -1z" />
    <glyph glyph-name="dcroat" unicode="&#x111;" horiz-adv-x="626" 
d="M549 715v-68h67v-60h-67v-587h-77v80q-26 -40 -73 -66.5t-110 -26.5q-110 0 -178 73.5t-68 202.5q0 121 68 198.5t172 77.5q126 0 184 -95q-1 36 -1 116v27h-80v60h80v68h83zM301 54q80 0 123.5 56t43.5 153q0 94 -43.5 151t-123.5 57q-79 0 -123.5 -57.5t-44.5 -150.5
q0 -97 44 -153t124 -56z" />
    <glyph glyph-name="Emacron" unicode="&#x112;" horiz-adv-x="589" 
d="M92 0v715h444v-74h-359v-237h335v-74h-335v-256h366v-74h-451zM196 785v53h244v-53h-244z" />
    <glyph glyph-name="emacron" unicode="&#x113;" horiz-adv-x="593" 
d="M555 249h-429q4 -92 52.5 -143.5t129.5 -51.5q104 0 152 95h84q-26 -72 -88.5 -117t-149.5 -45q-122 0 -192.5 76t-70.5 198q0 124 72.5 201t191.5 77q122 0 185.5 -79t63.5 -193q0 -6 -0.5 -11.5t-0.5 -6.5zM130 311h339q-8 75 -49 119t-115 44q-73 0 -119 -44.5
t-56 -118.5zM183 628v53h244v-53h-244z" />
    <glyph glyph-name="Ebreve" unicode="&#x114;" horiz-adv-x="589" 
d="M92 0v715h444v-74h-359v-237h335v-74h-335v-256h366v-74h-451zM326 823q58 0 73 56h63q-20 -110 -136 -110t-136 110h63q15 -56 73 -56z" />
    <glyph glyph-name="ebreve" unicode="&#x115;" horiz-adv-x="593" 
d="M555 249h-429q4 -92 52.5 -143.5t129.5 -51.5q104 0 152 95h84q-26 -72 -88.5 -117t-149.5 -45q-122 0 -192.5 76t-70.5 198q0 124 72.5 201t191.5 77q122 0 185.5 -79t63.5 -193q0 -6 -0.5 -11.5t-0.5 -6.5zM130 311h339q-8 75 -49 119t-115 44q-73 0 -119 -44.5
t-56 -118.5zM305 659q58 0 73 56h63q-20 -110 -136 -110t-136 110h63q15 -56 73 -56z" />
    <glyph glyph-name="Edotaccent" unicode="&#x116;" horiz-adv-x="589" 
d="M92 0v715h444v-74h-359v-237h335v-74h-335v-256h366v-74h-451zM270 769v90h91v-90h-91z" />
    <glyph glyph-name="edotaccent" unicode="&#x117;" horiz-adv-x="593" 
d="M555 249h-429q4 -92 52.5 -143.5t129.5 -51.5q104 0 152 95h84q-26 -72 -88.5 -117t-149.5 -45q-122 0 -192.5 76t-70.5 198q0 124 72.5 201t191.5 77q122 0 185.5 -79t63.5 -193q0 -6 -0.5 -11.5t-0.5 -6.5zM130 311h339q-8 75 -49 119t-115 44q-73 0 -119 -44.5
t-56 -118.5zM261 609v90h91v-90h-91z" />
    <glyph glyph-name="Eogonek" unicode="&#x118;" horiz-adv-x="589" 
d="M92 0v715h444v-74h-359v-237h335v-74h-335v-256h366v-74h-451zM356 -48l94 -115h-102l-75 115h83z" />
    <glyph glyph-name="eogonek" unicode="&#x119;" horiz-adv-x="593" 
d="M555 249h-429q4 -92 52.5 -143.5t129.5 -51.5q104 0 152 95h84q-26 -72 -88.5 -117t-149.5 -45q-122 0 -192.5 76t-70.5 198q0 124 72.5 201t191.5 77q122 0 185.5 -79t63.5 -193q0 -6 -0.5 -11.5t-0.5 -6.5zM130 311h339q-8 75 -49 119t-115 44q-73 0 -119 -44.5
t-56 -118.5zM327 -48l94 -115h-102l-75 115h83z" />
    <glyph glyph-name="Ecaron" unicode="&#x11a;" horiz-adv-x="589" 
d="M92 0v715h444v-74h-359v-237h335v-74h-335v-256h366v-74h-451zM361 761h-89l-97 114h79l62 -66l64 66h78z" />
    <glyph glyph-name="ecaron" unicode="&#x11b;" horiz-adv-x="593" 
d="M555 249h-429q4 -92 52.5 -143.5t129.5 -51.5q104 0 152 95h84q-26 -72 -88.5 -117t-149.5 -45q-122 0 -192.5 76t-70.5 198q0 124 72.5 201t191.5 77q122 0 185.5 -79t63.5 -193q0 -6 -0.5 -11.5t-0.5 -6.5zM130 311h339q-8 75 -49 119t-115 44q-73 0 -119 -44.5
t-56 -118.5zM350 596h-89q-15 17 -48 59t-49 60h79l62 -68l64 68h78q-16 -18 -49 -60t-48 -59z" />
    <glyph glyph-name="Gcircumflex" unicode="&#x11c;" horiz-adv-x="790" 
d="M371 368h358v-368h-79v56l1 60q-29 -50 -94 -90t-165 -40q-152 0 -249 101.5t-97 269.5q0 163 98.5 267.5t260.5 104.5q129 0 211 -62t113 -165h-85q-31 70 -85.5 112.5t-154.5 42.5q-121 0 -193.5 -79.5t-72.5 -218.5q0 -138 72 -219.5t192 -81.5q62 0 111.5 21t79 55.5
t45 75.5t17.5 84h-284v74zM369 875h89l97 -114h-78l-64 66l-62 -66h-79z" />
    <glyph glyph-name="gcircumflex" unicode="&#x11d;" horiz-adv-x="625" 
d="M299 -122q85 0 127 56t42 157v34q-24 -44 -70.5 -72.5t-112.5 -28.5q-109 0 -175 71.5t-66 184.5q0 116 68.5 187.5t173.5 71.5q122 0 182 -90q-1 44 -1 76h82v-421q0 -137 -64 -215t-193 -78q-89 0 -150 50t-81 122h85q37 -105 153 -105zM301 91q72 0 119.5 52t47.5 141
q0 84 -45 135.5t-122 51.5q-78 0 -122.5 -52.5t-44.5 -137.5q0 -84 44.5 -137t122.5 -53zM269 715h89q15 -17 48 -59t49 -60h-78l-64 68l-62 -68h-79q16 18 49 60t48 59z" />
    <glyph glyph-name="Gbreve" unicode="&#x11e;" horiz-adv-x="790" 
d="M371 368h358v-368h-79v56l1 60q-29 -50 -94 -90t-165 -40q-152 0 -249 101.5t-97 269.5q0 163 98.5 267.5t260.5 104.5q129 0 211 -62t113 -165h-85q-31 70 -85.5 112.5t-154.5 42.5q-121 0 -193.5 -79.5t-72.5 -218.5q0 -138 72 -219.5t192 -81.5q62 0 111.5 21t79 55.5
t45 75.5t17.5 84h-284v74zM410 823q58 0 73 56h63q-20 -110 -136 -110t-136 110h63q15 -56 73 -56z" />
    <glyph glyph-name="gbreve" unicode="&#x11f;" horiz-adv-x="625" 
d="M299 -122q85 0 127 56t42 157v34q-24 -44 -70.5 -72.5t-112.5 -28.5q-109 0 -175 71.5t-66 184.5q0 116 68.5 187.5t173.5 71.5q122 0 182 -90q-1 44 -1 76h82v-421q0 -137 -64 -215t-193 -78q-89 0 -150 50t-81 122h85q37 -105 153 -105zM301 91q72 0 119.5 52t47.5 141
q0 84 -45 135.5t-122 51.5q-78 0 -122.5 -52.5t-44.5 -137.5q0 -84 44.5 -137t122.5 -53zM317 659q58 0 73 56h63q-20 -110 -136 -110t-136 110h63q15 -56 73 -56z" />
    <glyph glyph-name="Gdotaccent" unicode="&#x120;" horiz-adv-x="790" 
d="M371 368h358v-368h-79v56l1 60q-29 -50 -94 -90t-165 -40q-152 0 -249 101.5t-97 269.5q0 163 98.5 267.5t260.5 104.5q129 0 211 -62t113 -165h-85q-31 70 -85.5 112.5t-154.5 42.5q-121 0 -193.5 -79.5t-72.5 -218.5q0 -138 72 -219.5t192 -81.5q62 0 111.5 21t79 55.5
t45 75.5t17.5 84h-284v74zM366 769v90h91v-90h-91z" />
    <glyph glyph-name="gdotaccent" unicode="&#x121;" horiz-adv-x="625" 
d="M299 -122q85 0 127 56t42 157v34q-24 -44 -70.5 -72.5t-112.5 -28.5q-109 0 -175 71.5t-66 184.5q0 116 68.5 187.5t173.5 71.5q122 0 182 -90q-1 44 -1 76h82v-421q0 -137 -64 -215t-193 -78q-89 0 -150 50t-81 122h85q37 -105 153 -105zM301 91q72 0 119.5 52t47.5 141
q0 84 -45 135.5t-122 51.5q-78 0 -122.5 -52.5t-44.5 -137.5q0 -84 44.5 -137t122.5 -53zM258 609v90h91v-90h-91z" />
    <glyph glyph-name="Gcommaaccent" unicode="&#x122;" horiz-adv-x="790" 
d="M371 368h358v-368h-79v56l1 60q-29 -50 -94 -90t-165 -40q-152 0 -249 101.5t-97 269.5q0 163 98.5 267.5t260.5 104.5q129 0 211 -62t113 -165h-85q-31 70 -85.5 112.5t-154.5 42.5q-121 0 -193.5 -79.5t-72.5 -218.5q0 -138 72 -219.5t192 -81.5q62 0 111.5 21t79 55.5
t45 75.5t17.5 84h-284v74zM275 -163l94 115h83l-75 -115h-102z" />
    <glyph glyph-name="gcommaaccent" unicode="&#x123;" horiz-adv-x="625" 
d="M299 -122q85 0 127 56t42 157v34q-24 -44 -70.5 -72.5t-112.5 -28.5q-109 0 -175 71.5t-66 184.5q0 116 68.5 187.5t173.5 71.5q122 0 182 -90q-1 44 -1 76h82v-421q0 -137 -64 -215t-193 -78q-89 0 -150 50t-81 122h85q37 -105 153 -105zM301 91q72 0 119.5 52t47.5 141
q0 84 -45 135.5t-122 51.5q-78 0 -122.5 -52.5t-44.5 -137.5q0 -84 44.5 -137t122.5 -53zM430 715l-94 -115h-83l75 115h102z" />
    <glyph glyph-name="Hcircumflex" unicode="&#x124;" horiz-adv-x="701" 
d="M92 0v715h85v-312h347v312h85v-715h-85v330h-347v-330h-85zM307 875h89l97 -114h-78l-64 66l-62 -66h-79z" />
    <glyph glyph-name="hcircumflex" unicode="&#x125;" horiz-adv-x="580" 
d="M77 715h83v-168l-2 -97q55 89 171 89q89 0 134.5 -55t45.5 -156v-328h-83v302q0 170 -129 170q-64 0 -100.5 -45t-36.5 -112v-315h-83v715zM78 875h89l97 -114h-78l-64 66l-62 -66h-79z" />
    <glyph glyph-name="Hbar" unicode="&#x126;" horiz-adv-x="701" 
d="M92 0v715h85v-98h347v98h85v-715h-85v330h-347v-330h-85zM177 403h347v140h-347v-140z" />
    <glyph glyph-name="hbar" unicode="&#x127;" horiz-adv-x="580" 
d="M240 647v-60h-80v-40l-2 -97q55 89 171 89q89 0 134.5 -55t45.5 -156v-328h-83v302q0 170 -129 170q-64 0 -100.5 -45t-36.5 -112v-315h-83v587h-67v60h67v68h83v-68h80z" />
    <glyph glyph-name="Itilde" unicode="&#x128;" horiz-adv-x="269" 
d="M92 0v715h85v-715h-85zM48 765h-58q7 102 84 102q27 0 72 -22q38 -18 54 -18q25 0 33 40h56q-3 -47 -24 -75t-57 -28q-24 0 -67 19q-49 21 -59 21q-29 0 -34 -39z" />
    <glyph glyph-name="itilde" unicode="&#x129;" horiz-adv-x="235" 
d="M77 525h81v-525h-81v525zM32 613h-58q7 102 84 102q27 0 72 -22q38 -18 54 -18q25 0 33 40h56q-3 -47 -24 -75t-57 -28q-24 0 -67 19q-50 21 -59 21q-30 0 -34 -39z" />
    <glyph glyph-name="Imacron" unicode="&#x12a;" horiz-adv-x="269" 
d="M92 0v715h85v-715h-85zM14 785v53h244v-53h-244z" />
    <glyph glyph-name="imacron" unicode="&#x12b;" horiz-adv-x="235" 
d="M77 525h81v-525h-81v525zM-5 628v53h244v-53h-244z" />
    <glyph glyph-name="Ibreve" unicode="&#x12c;" horiz-adv-x="269" 
d="M92 0v715h85v-715h-85zM135 823q58 0 73 56h63q-20 -110 -136 -110t-136 110h63q15 -56 73 -56z" />
    <glyph glyph-name="ibreve" unicode="&#x12d;" horiz-adv-x="235" 
d="M77 525h81v-525h-81v525zM119 659q58 0 73 56h63q-20 -110 -136 -110t-136 110h63q15 -56 73 -56z" />
    <glyph glyph-name="Iogonek" unicode="&#x12e;" horiz-adv-x="269" 
d="M92 0v715h85v-715h-85zM171 -48l94 -115h-105l-75 115h86z" />
    <glyph glyph-name="iogonek" unicode="&#x12f;" horiz-adv-x="235" 
d="M160 614h-85v101h85v-101zM77 525h81v-525h-81v525zM153 -48l94 -115h-102l-75 115h83z" />
    <glyph glyph-name="Idotaccent" unicode="&#x130;" horiz-adv-x="269" 
d="M92 0v715h85v-715h-85zM89 769v90h91v-90h-91z" />
    <glyph glyph-name="dotlessi" unicode="&#x131;" horiz-adv-x="235" 
d="M77 525h81v-525h-81v525z" />
    <glyph glyph-name="IJ" unicode="&#x132;" horiz-adv-x="747" 
d="M92 0v715h85v-715h-85zM297 173h83q2 -119 95 -119q61 0 81 45t20 134v482h85v-515q0 -214 -188 -214q-174 0 -176 187z" />
    <glyph glyph-name="ij" unicode="&#x133;" horiz-adv-x="472" 
d="M160 614h-85v101h85v-101zM77 525h81v-525h-81v525zM300 -109q12 17 12 53v581h83v-566q0 -89 -33 -124q-32 -33 -107 -33q-23 0 -39 4v65q7 -1 20 -1q48 0 64 21zM397 614h-85v101h85v-101z" />
    <glyph glyph-name="Jcircumflex" unicode="&#x134;" horiz-adv-x="478" 
d="M28 173h83q2 -119 95 -119q61 0 81 45t20 134v482h85v-515q0 -214 -188 -214q-174 0 -176 187zM304 875h89l97 -114h-78l-64 66l-62 -66h-79z" />
    <glyph glyph-name="jcircumflex" unicode="&#x135;" horiz-adv-x="237" 
d="M65 -109q12 16 12 53v581h83v-566q0 -89 -33 -124q-32 -33 -107 -33q-23 0 -39 4v65q7 -1 20 -1q48 0 64 21zM78 715h89q15 -17 48 -59t49 -60h-78l-64 68l-62 -68h-79q16 18 49 60t48 59z" />
    <glyph glyph-name="Kcommaaccent" unicode="&#x136;" horiz-adv-x="585" 
d="M92 0v715h86v-328q76 85 178.5 195.5t122.5 132.5h107l-316 -329q58 -71 173.5 -207.5t150.5 -178.5h-107q-154 179 -309 368v-368h-86zM182 -163l94 115h83l-75 -115h-102z" />
    <glyph glyph-name="kcommaaccent" unicode="&#x137;" horiz-adv-x="501" 
d="M496 0h-111q-28 36 -84.5 103t-98.5 116l-42 49v-268h-83v715h83v-429q150 168 211 239h102l-226 -239zM133 -163l94 115h83l-75 -115h-102z" />
    <glyph glyph-name="kgreenlandic" unicode="&#x138;" horiz-adv-x="501" 
d="M496 0h-111q-28 36 -84.5 103t-98.5 116l-42 49v-268h-83v525h83v-239q150 168 211 239h102l-226 -239z" />
    <glyph glyph-name="Lacute" unicode="&#x139;" horiz-adv-x="529" 
d="M92 715h85v-641h322v-74h-407v715zM330 875l-138 -114h-88l111 114h115z" />
    <glyph glyph-name="lacute" unicode="&#x13a;" horiz-adv-x="245" 
d="M81 0v715h83v-715h-83zM299 875l-138 -114h-88l111 114h115z" />
    <glyph glyph-name="Lcommaaccent" unicode="&#x13b;" horiz-adv-x="529" 
d="M92 715h85v-641h322v-74h-407v715zM180 -163l94 115h83l-75 -115h-102z" />
    <glyph glyph-name="lcommaaccent" unicode="&#x13c;" horiz-adv-x="245" 
d="M81 0v715h83v-715h-83zM-4 -163l94 115h83l-75 -115h-102z" />
    <glyph glyph-name="Lcaron" unicode="&#x13d;" horiz-adv-x="529" 
d="M92 715h85v-641h322v-74h-407v715zM432 715l-81 -232h-71l65 232h87z" />
    <glyph glyph-name="lcaron" unicode="&#x13e;" horiz-adv-x="313" 
d="M81 0v715h83v-715h-83zM385 715l-81 -232h-71l65 232h87z" />
    <glyph glyph-name="Ldot" unicode="&#x13f;" horiz-adv-x="529" 
d="M92 715h85v-641h322v-74h-407v715zM283 261v111h88v-111h-88z" />
    <glyph glyph-name="ldot" unicode="&#x140;" horiz-adv-x="355" 
d="M81 0v715h83v-715h-83zM256 261v111h88v-111h-88z" />
    <glyph glyph-name="Lslash" unicode="&#x141;" horiz-adv-x="536" 
d="M99 715h85v-290l136 89v-82l-136 -88v-270h322v-74h-407v288l-78 -52v82l78 52v345z" />
    <glyph glyph-name="lslash" unicode="&#x142;" horiz-adv-x="262" 
d="M90 0v313l-72 -47v81l72 47v321h83v-267l81 54v-81l-81 -54v-367h-83z" />
    <glyph glyph-name="Nacute" unicode="&#x143;" horiz-adv-x="736" 
d="M644 0h-123l-238 428q-100 184 -105 195h-2q0 -17 0.5 -127t0.5 -144v-352h-85v715h129l243 -441l98 -181h2q0 17 -1.5 94t-1.5 115v413h83v-715zM535 875l-138 -114h-88l111 114h115z" />
    <glyph glyph-name="nacute" unicode="&#x144;" horiz-adv-x="580" 
d="M77 0v446q0 55 -1 79h82v-75q55 89 171 89q89 0 134.5 -55t45.5 -156v-328h-83v302q0 170 -129 170q-64 0 -100.5 -45t-36.5 -112v-315h-83zM473 715l-141 -119h-88l114 119h115z" />
    <glyph glyph-name="Ncommaaccent" unicode="&#x145;" horiz-adv-x="736" 
d="M644 0h-123l-238 428q-100 184 -105 195h-2q0 -17 0.5 -127t0.5 -144v-352h-85v715h129l243 -441l98 -181h2q0 17 -1.5 94t-1.5 115v413h83v-715zM413 -48l-94 -115h-83l75 115h102z" />
    <glyph glyph-name="ncommaaccent" unicode="&#x146;" horiz-adv-x="580" 
d="M77 0v446q0 55 -1 79h82v-75q55 89 171 89q89 0 134.5 -55t45.5 -156v-328h-83v302q0 170 -129 170q-64 0 -100.5 -45t-36.5 -112v-315h-83zM356 -48l-94 -115h-83l75 115h102z" />
    <glyph glyph-name="Ncaron" unicode="&#x147;" horiz-adv-x="736" 
d="M644 0h-123l-238 428q-100 184 -105 195h-2q0 -17 0.5 -127t0.5 -144v-352h-85v715h129l243 -441l98 -181h2q0 17 -1.5 94t-1.5 115v413h83v-715zM430 761h-89l-97 114h79l62 -66l64 66h78z" />
    <glyph glyph-name="ncaron" unicode="&#x148;" horiz-adv-x="580" 
d="M77 0v446q0 55 -1 79h82v-75q55 89 171 89q89 0 134.5 -55t45.5 -156v-328h-83v302q0 170 -129 170q-64 0 -100.5 -45t-36.5 -112v-315h-83zM361 596h-89q-15 17 -48 59t-49 60h79l62 -68l64 68h78q-16 -18 -49 -60t-48 -59z" />
    <glyph glyph-name="napostrophe" unicode="&#x149;" horiz-adv-x="649" 
d="M146 0v446q0 55 -1 79h82v-75q55 89 171 89q89 0 134.5 -55t45.5 -156v-328h-83v302q0 170 -129 170q-64 0 -100.5 -45t-36.5 -112v-315h-83zM148 715l-81 -232h-71l65 232h87z" />
    <glyph glyph-name="Eng" unicode="&#x14a;" horiz-adv-x="736" 
d="M644 715v-693q0 -214 -188 -214q-174 0 -176 187h83q2 -119 97 -119q51 0 73.5 32t25.5 92h-38l-238 428q-100 184 -105 195h-2q0 -17 0.5 -127t0.5 -144v-352h-85v715h129l243 -441l98 -182h2q0 17 -1.5 94.5t-1.5 115.5v413h83z" />
    <glyph glyph-name="eng" unicode="&#x14b;" horiz-adv-x="580" 
d="M414 -109q12 17 12 53v358q0 170 -129 170q-64 0 -100.5 -45t-36.5 -112v-315h-83v446q0 55 -1 79h82v-75q55 89 171 89q89 0 134.5 -55t45.5 -156v-369q0 -89 -33 -124q-32 -33 -107 -33q-23 0 -39 4v65q7 -1 20 -1q48 0 64 21z" />
    <glyph glyph-name="Omacron" unicode="&#x14c;" horiz-adv-x="809" 
d="M404 729q160 0 259.5 -103t99.5 -269t-98 -268.5t-260 -102.5q-161 0 -260 103t-99 268t99 268.5t259 103.5zM403 658q-123 0 -194.5 -82.5t-71.5 -217.5q0 -134 72 -217.5t195 -83.5q122 0 193.5 83.5t71.5 217.5q0 136 -71 218t-195 82zM276 785v53h244v-53h-244z" />
    <glyph glyph-name="omacron" unicode="&#x14d;" horiz-adv-x="618" 
d="M307 54q84 0 131 57t47 152q0 93 -47.5 151t-130.5 58q-84 0 -131.5 -58t-47.5 -151q0 -95 47 -152t132 -57zM307 -13q-124 0 -194 76t-70 199q0 122 72.5 199.5t193.5 77.5t193.5 -77.5t72.5 -199.5q0 -123 -72 -199t-196 -76zM186 628v53h244v-53h-244z" />
    <glyph glyph-name="Obreve" unicode="&#x14e;" horiz-adv-x="809" 
d="M404 729q160 0 259.5 -103t99.5 -269t-98 -268.5t-260 -102.5q-161 0 -260 103t-99 268t99 268.5t259 103.5zM403 658q-123 0 -194.5 -82.5t-71.5 -217.5q0 -134 72 -217.5t195 -83.5q122 0 193.5 83.5t71.5 217.5q0 136 -71 218t-195 82zM396 823q58 0 73 56h63
q-20 -110 -136 -110t-136 110h63q15 -56 73 -56z" />
    <glyph glyph-name="obreve" unicode="&#x14f;" horiz-adv-x="618" 
d="M307 54q84 0 131 57t47 152q0 93 -47.5 151t-130.5 58q-84 0 -131.5 -58t-47.5 -151q0 -95 47 -152t132 -57zM307 -13q-124 0 -194 76t-70 199q0 122 72.5 199.5t193.5 77.5t193.5 -77.5t72.5 -199.5q0 -123 -72 -199t-196 -76zM307 659q58 0 73 56h63
q-20 -110 -136 -110t-136 110h63q15 -56 73 -56z" />
    <glyph glyph-name="Ohungarumlaut" unicode="&#x150;" horiz-adv-x="809" 
d="M404 729q160 0 259.5 -103t99.5 -269t-98 -268.5t-260 -102.5q-161 0 -260 103t-99 268t99 268.5t259 103.5zM403 658q-123 0 -194.5 -82.5t-71.5 -217.5q0 -134 72 -217.5t195 -83.5q122 0 193.5 83.5t71.5 217.5q0 136 -71 218t-195 82zM475 875l-138 -114h-86l111 114
h113zM661 875l-138 -114h-86l111 114h113z" />
    <glyph glyph-name="ohungarumlaut" unicode="&#x151;" horiz-adv-x="618" 
d="M307 54q84 0 131 57t47 152q0 93 -47.5 151t-130.5 58q-84 0 -131.5 -58t-47.5 -151q0 -95 47 -152t132 -57zM307 -13q-124 0 -194 76t-70 199q0 122 72.5 199.5t193.5 77.5t193.5 -77.5t72.5 -199.5q0 -123 -72 -199t-196 -76zM383 715l-141 -119h-86l114 119h113z
M569 715l-141 -119h-86l114 119h113z" />
    <glyph glyph-name="OE" unicode="&#x152;" horiz-adv-x="1160" 
d="M663 0v97q-102 -111 -270 -111q-153 0 -250 104.5t-97 265.5q0 163 98 267t258 104q156 0 261 -100v88h444v-74h-359v-237h335v-74h-335v-256h366v-74h-451zM403 658q-123 0 -194.5 -82.5t-71.5 -217.5q0 -134 72 -217.5t195 -83.5q122 0 193.5 83.5t71.5 217.5
q0 136 -71 218t-195 82z" />
    <glyph glyph-name="oe" unicode="&#x153;" horiz-adv-x="1028" 
d="M990 249h-429q4 -92 52.5 -143.5t129.5 -51.5q105 0 152 95h84q-26 -72 -88.5 -117t-149.5 -45q-145 0 -217 109q-72 -109 -219 -109q-123 0 -192.5 75.5t-69.5 199.5q0 122 71.5 199.5t192.5 77.5q144 0 218 -113q74 113 217 113q122 0 185.5 -79t63.5 -193
q0 -6 -0.5 -11.5t-0.5 -6.5zM305 54q84 0 130 56.5t46 152.5q0 93 -46.5 151t-129.5 58t-130 -58t-47 -151q0 -96 46 -152.5t131 -56.5zM565 311h339q-8 75 -49 119t-115 44q-73 0 -119 -44.5t-56 -118.5z" />
    <glyph glyph-name="Racute" unicode="&#x154;" horiz-adv-x="608" 
d="M92 0v715h203q128 0 186 -40q82 -53 82 -163q0 -88 -51 -136.5t-131 -62.5q27 -45 93.5 -153.5t96.5 -159.5h-103l-176 301h-115v-301h-85zM177 643v-272h117q83 0 126 30q51 34 51 107q0 84 -66 115q-41 20 -111 20h-117zM452 875l-138 -114h-88l111 114h115z" />
    <glyph glyph-name="racute" unicode="&#x155;" horiz-adv-x="320" 
d="M155 525v-85q14 42 51 69.5t82 27.5q11 0 16 -1v-79q-12 3 -34 3q-110 0 -110 -173v-287h-83v446q0 55 -1 79h79zM308 715l-141 -119h-88l114 119h115z" />
    <glyph glyph-name="Rcommaaccent" unicode="&#x156;" horiz-adv-x="608" 
d="M92 0v715h203q128 0 186 -40q82 -53 82 -163q0 -88 -51 -136.5t-131 -62.5q27 -45 93.5 -153.5t96.5 -159.5h-103l-176 301h-115v-301h-85zM177 643v-272h117q83 0 126 30q51 34 51 107q0 84 -66 115q-41 20 -111 20h-117zM193 -163l94 115h83l-75 -115h-102z" />
    <glyph glyph-name="rcommaaccent" unicode="&#x157;" horiz-adv-x="320" 
d="M155 525v-85q14 42 51 69.5t82 27.5q11 0 16 -1v-79q-12 3 -34 3q-110 0 -110 -173v-287h-83v446q0 55 -1 79h79zM7 -163l94 115h83l-75 -115h-102z" />
    <glyph glyph-name="Rcaron" unicode="&#x158;" horiz-adv-x="608" 
d="M92 0v715h203q128 0 186 -40q82 -53 82 -163q0 -88 -51 -136.5t-131 -62.5q27 -45 93.5 -153.5t96.5 -159.5h-103l-176 301h-115v-301h-85zM177 643v-272h117q83 0 126 30q51 34 51 107q0 84 -66 115q-41 20 -111 20h-117zM349 761h-89l-97 114h79l62 -66l64 66h78z" />
    <glyph glyph-name="rcaron" unicode="&#x159;" horiz-adv-x="320" 
d="M155 525v-85q14 42 51 69.5t82 27.5q11 0 16 -1v-79q-12 3 -34 3q-110 0 -110 -173v-287h-83v446q0 55 -1 79h79zM189 596h-89q-15 17 -48 59t-49 60h79l62 -68l64 68h78q-16 -18 -49 -60t-48 -59z" />
    <glyph glyph-name="Sacute" unicode="&#x15a;" horiz-adv-x="603" 
d="M36 203h85q11 -71 57.5 -110t125.5 -39q77 0 121.5 35.5t44.5 95.5q0 57 -41.5 86.5t-124.5 55.5l-43 14q-100 31 -149.5 77t-49.5 124q0 85 64.5 136t175.5 51q108 0 170.5 -51.5t72.5 -147.5h-83q-24 132 -163 132q-70 0 -109.5 -29.5t-39.5 -81.5q0 -53 36.5 -81.5
t116.5 -55.5l49 -17q102 -32 154.5 -76t52.5 -125q0 -98 -70.5 -154t-186.5 -56q-114 0 -184.5 56.5t-81.5 160.5zM463 875l-138 -114h-88l111 114h115z" />
    <glyph glyph-name="sacute" unicode="&#x15b;" horiz-adv-x="498" 
d="M35 159h81q30 -106 139 -106q54 0 87.5 24t33.5 63q0 36 -25.5 52.5t-85.5 33.5l-62 17q-73 20 -111 51t-38 93q0 70 54 111t141 41q83 0 134.5 -37.5t63.5 -114.5h-78q-25 87 -122 87q-52 0 -81 -21t-29 -55q0 -33 25 -51t80 -34l66 -19q74 -21 111.5 -53.5t37.5 -90.5
q0 -76 -56.5 -119t-147.5 -43q-187 0 -218 171zM417 715l-141 -119h-88l114 119h115z" />
    <glyph glyph-name="Scircumflex" unicode="&#x15c;" horiz-adv-x="603" 
d="M36 203h85q11 -71 57.5 -110t125.5 -39q77 0 121.5 35.5t44.5 95.5q0 57 -41.5 86.5t-124.5 55.5l-43 14q-100 31 -149.5 77t-49.5 124q0 85 64.5 136t175.5 51q108 0 170.5 -51.5t72.5 -147.5h-83q-24 132 -163 132q-70 0 -109.5 -29.5t-39.5 -81.5q0 -53 36.5 -81.5
t116.5 -55.5l49 -17q102 -32 154.5 -76t52.5 -125q0 -98 -70.5 -154t-186.5 -56q-114 0 -184.5 56.5t-81.5 160.5zM255 875h89l97 -114h-78l-64 66l-62 -66h-79z" />
    <glyph glyph-name="scircumflex" unicode="&#x15d;" horiz-adv-x="498" 
d="M35 159h81q30 -106 139 -106q54 0 87.5 24t33.5 63q0 36 -25.5 52.5t-85.5 33.5l-62 17q-73 20 -111 51t-38 93q0 70 54 111t141 41q83 0 134.5 -37.5t63.5 -114.5h-78q-25 87 -122 87q-52 0 -81 -21t-29 -55q0 -33 25 -51t80 -34l66 -19q74 -21 111.5 -53.5t37.5 -90.5
q0 -76 -56.5 -119t-147.5 -43q-187 0 -218 171zM203 715h89q15 -17 48 -59t49 -60h-78l-64 68l-62 -68h-79q16 18 49 60t48 59z" />
    <glyph glyph-name="Scedilla" unicode="&#x15e;" horiz-adv-x="603" 
d="M36 203h85q11 -71 57.5 -110t125.5 -39q77 0 121.5 35.5t44.5 95.5q0 57 -41.5 86.5t-124.5 55.5l-43 14q-100 31 -149.5 77t-49.5 124q0 85 64.5 136t175.5 51q108 0 170.5 -51.5t72.5 -147.5h-83q-24 132 -163 132q-70 0 -109.5 -29.5t-39.5 -81.5q0 -53 36.5 -81.5
t116.5 -55.5l49 -17q102 -32 154.5 -76t52.5 -125q0 -98 -70.5 -154t-186.5 -56q-114 0 -184.5 56.5t-81.5 160.5zM157 -163l94 115h86l-75 -115h-105z" />
    <glyph glyph-name="scedilla" unicode="&#x15f;" horiz-adv-x="498" 
d="M35 159h81q30 -106 139 -106q54 0 87.5 24t33.5 63q0 36 -25.5 52.5t-85.5 33.5l-62 17q-73 20 -111 51t-38 93q0 70 54 111t141 41q83 0 134.5 -37.5t63.5 -114.5h-78q-25 87 -122 87q-52 0 -81 -21t-29 -55q0 -33 25 -51t80 -34l66 -19q74 -21 111.5 -53.5t37.5 -90.5
q0 -76 -56.5 -119t-147.5 -43q-187 0 -218 171zM116 -163l94 115h86l-75 -115h-105z" />
    <glyph glyph-name="Scaron" unicode="&#x160;" horiz-adv-x="603" 
d="M36 203h85q11 -71 57.5 -110t125.5 -39q77 0 121.5 35.5t44.5 95.5q0 57 -41.5 86.5t-124.5 55.5l-43 14q-100 31 -149.5 77t-49.5 124q0 85 64.5 136t175.5 51q108 0 170.5 -51.5t72.5 -147.5h-83q-24 132 -163 132q-70 0 -109.5 -29.5t-39.5 -81.5q0 -53 36.5 -81.5
t116.5 -55.5l49 -17q102 -32 154.5 -76t52.5 -125q0 -98 -70.5 -154t-186.5 -56q-114 0 -184.5 56.5t-81.5 160.5zM356 761h-89l-97 114h79l62 -66l64 66h78z" />
    <glyph glyph-name="scaron" unicode="&#x161;" horiz-adv-x="498" 
d="M35 159h81q30 -106 139 -106q54 0 87.5 24t33.5 63q0 36 -25.5 52.5t-85.5 33.5l-62 17q-73 20 -111 51t-38 93q0 70 54 111t141 41q83 0 134.5 -37.5t63.5 -114.5h-78q-25 87 -122 87q-52 0 -81 -21t-29 -55q0 -33 25 -51t80 -34l66 -19q74 -21 111.5 -53.5t37.5 -90.5
q0 -76 -56.5 -119t-147.5 -43q-187 0 -218 171zM302 596h-89q-15 17 -48 59t-49 60h79l62 -68l64 68h78q-16 -18 -49 -60t-48 -59z" />
    <glyph glyph-name="uni0162" unicode="&#x162;" horiz-adv-x="539" 
d="M140 -163l94 115h83l-75 -115h-102zM227 0v641h-200v74h485v-74h-200v-641h-85z" />
    <glyph glyph-name="uni0163" unicode="&#x163;" horiz-adv-x="303" 
d="M64 -163l94 115h83l-75 -115h-102zM98 463h-81v62h81v142h82v-142h100v-62h-100v-335q0 -75 74 -75q8 0 16 1v-62q-18 -2 -28 -2q-70 0 -107 29.5t-37 101.5v342z" />
    <glyph glyph-name="Tcaron" unicode="&#x164;" horiz-adv-x="539" 
d="M227 0v641h-200v74h485v-74h-200v-641h-85zM317 761h-89l-97 114h79l62 -66l64 66h78z" />
    <glyph glyph-name="tcaron" unicode="&#x165;" horiz-adv-x="363" 
d="M98 463h-81v62h81v142h82v-142h100v-62h-100v-335q0 -75 74 -75q8 0 16 1v-62q-18 -2 -28 -2q-70 0 -107 29.5t-37 101.5v342zM455 715l-81 -232h-71l65 232h87z" />
    <glyph glyph-name="Tbar" unicode="&#x166;" horiz-adv-x="562" 
d="M87 327v72h150v242h-200v74h485v-74h-200v-242h163v-72h-163v-327h-85v327h-150z" />
    <glyph glyph-name="tbar" unicode="&#x167;" horiz-adv-x="306" 
d="M28 290v60h72v113h-81v62h81v142h82v-142h100v-62h-100v-113h76v-60h-76v-162q0 -75 74 -75q8 0 16 1v-62q-18 -2 -28 -2q-70 0 -107 29.5t-37 101.5v169h-72z" />
    <glyph glyph-name="Utilde" unicode="&#x168;" horiz-adv-x="689" 
d="M344 -14q-67 0 -124.5 24.5t-88.5 67.5q-46 65 -46 193v444h85v-437q0 -99 23 -143q20 -38 59.5 -59t91.5 -21t92.5 21.5t59.5 58.5q23 44 23 143v437h85v-444q0 -128 -46 -193q-31 -43 -89.5 -67.5t-124.5 -24.5zM262 765h-58q7 102 84 102q27 0 72 -22q38 -18 54 -18
q25 0 33 40h56q-3 -47 -24 -75t-57 -28q-24 0 -67 19q-49 21 -59 21q-30 0 -34 -39z" />
    <glyph glyph-name="utilde" unicode="&#x169;" horiz-adv-x="572" 
d="M495 525v-445q0 -53 1 -80h-82v72q-51 -86 -165 -86q-89 0 -133.5 54.5t-44.5 156.5v328h83v-303q0 -169 127 -169q62 0 96.5 45t34.5 111v316h83zM209 613h-58q7 102 84 102q27 0 72 -22q38 -18 54 -18q25 0 33 40h56q-3 -47 -24 -75t-57 -28q-24 0 -67 19
q-50 21 -59 21q-29 0 -34 -39z" />
    <glyph glyph-name="Umacron" unicode="&#x16a;" horiz-adv-x="689" 
d="M344 -14q-67 0 -124.5 24.5t-88.5 67.5q-46 65 -46 193v444h85v-437q0 -99 23 -143q20 -38 59.5 -59t91.5 -21t92.5 21.5t59.5 58.5q23 44 23 143v437h85v-444q0 -128 -46 -193q-31 -43 -89.5 -67.5t-124.5 -24.5zM222 785v53h244v-53h-244z" />
    <glyph glyph-name="umacron" unicode="&#x16b;" horiz-adv-x="572" 
d="M495 525v-445q0 -53 1 -80h-82v72q-51 -86 -165 -86q-89 0 -133.5 54.5t-44.5 156.5v328h83v-303q0 -169 127 -169q62 0 96.5 45t34.5 111v316h83zM171 628v53h244v-53h-244z" />
    <glyph glyph-name="Ubreve" unicode="&#x16c;" horiz-adv-x="689" 
d="M344 -14q-67 0 -124.5 24.5t-88.5 67.5q-46 65 -46 193v444h85v-437q0 -99 23 -143q20 -38 59.5 -59t91.5 -21t92.5 21.5t59.5 58.5q23 44 23 143v437h85v-444q0 -128 -46 -193q-31 -43 -89.5 -67.5t-124.5 -24.5zM343 823q58 0 73 56h63q-20 -110 -136 -110t-136 110h63
q15 -56 73 -56z" />
    <glyph glyph-name="ubreve" unicode="&#x16d;" horiz-adv-x="572" 
d="M495 525v-445q0 -53 1 -80h-82v72q-51 -86 -165 -86q-89 0 -133.5 54.5t-44.5 156.5v328h83v-303q0 -169 127 -169q62 0 96.5 45t34.5 111v316h83zM291 659q58 0 73 56h63q-20 -110 -136 -110t-136 110h63q15 -56 73 -56z" />
    <glyph glyph-name="Uring" unicode="&#x16e;" horiz-adv-x="689" 
d="M344 -14q-67 0 -124.5 24.5t-88.5 67.5q-46 65 -46 193v444h85v-437q0 -99 23 -143q20 -38 59.5 -59t91.5 -21t92.5 21.5t59.5 58.5q23 44 23 143v437h85v-444q0 -128 -46 -193q-31 -43 -89.5 -67.5t-124.5 -24.5zM343 748q-37 0 -62 25.5t-25 63.5q0 36 25.5 61.5
t62.5 25.5t62.5 -25.5t25.5 -61.5q0 -37 -26 -63t-63 -26zM297 837q0 -20 13.5 -34.5t32.5 -14.5q20 0 33.5 14t13.5 35q0 19 -13.5 33t-33.5 14q-19 0 -32.5 -14t-13.5 -33z" />
    <glyph glyph-name="uring" unicode="&#x16f;" horiz-adv-x="572" 
d="M495 525v-445q0 -53 1 -80h-82v72q-51 -86 -165 -86q-89 0 -133.5 54.5t-44.5 156.5v328h83v-303q0 -169 127 -169q62 0 96.5 45t34.5 111v316h83zM286 588q-37 0 -62 25.5t-25 63.5q0 36 25.5 61.5t62.5 25.5t62.5 -25.5t25.5 -61.5q0 -37 -25.5 -63t-63.5 -26zM240 677
q0 -20 13.5 -34.5t32.5 -14.5q20 0 33.5 14t13.5 35q0 19 -13.5 33t-33.5 14q-19 0 -32.5 -14t-13.5 -33z" />
    <glyph glyph-name="Uhungarumlaut" unicode="&#x170;" horiz-adv-x="689" 
d="M344 -14q-67 0 -124.5 24.5t-88.5 67.5q-46 65 -46 193v444h85v-437q0 -99 23 -143q20 -38 59.5 -59t91.5 -21t92.5 21.5t59.5 58.5q23 44 23 143v437h85v-444q0 -128 -46 -193q-31 -43 -89.5 -67.5t-124.5 -24.5zM415 875l-138 -114h-86l111 114h113zM601 875l-138 -114
h-86l111 114h113z" />
    <glyph glyph-name="uhungarumlaut" unicode="&#x171;" horiz-adv-x="572" 
d="M495 525v-445q0 -53 1 -80h-82v72q-51 -86 -165 -86q-89 0 -133.5 54.5t-44.5 156.5v328h83v-303q0 -169 127 -169q62 0 96.5 45t34.5 111v316h83zM356 715l-141 -119h-86l114 119h113zM542 715l-141 -119h-86l114 119h113z" />
    <glyph glyph-name="Uogonek" unicode="&#x172;" horiz-adv-x="689" 
d="M344 -14q-67 0 -124.5 24.5t-88.5 67.5q-46 65 -46 193v444h85v-437q0 -99 23 -143q20 -38 59.5 -59t91.5 -21t92.5 21.5t59.5 58.5q23 44 23 143v437h85v-444q0 -128 -46 -193q-31 -43 -89.5 -67.5t-124.5 -24.5zM368 -48l94 -115h-102l-75 115h83z" />
    <glyph glyph-name="uogonek" unicode="&#x173;" horiz-adv-x="572" 
d="M495 525v-445q0 -53 1 -80h-82v72q-51 -86 -165 -86q-89 0 -133.5 54.5t-44.5 156.5v328h83v-303q0 -169 127 -169q62 0 96.5 45t34.5 111v316h83zM311 -48l94 -115h-102l-75 115h83z" />
    <glyph glyph-name="Wcircumflex" unicode="&#x174;" horiz-adv-x="899" 
d="M870 715l-157 -715h-119l-84 391q-7 32 -27 123t-29 138h-2q-9 -46 -65 -290l-82 -362h-123l-151 715h92l84 -440q4 -23 13 -65.5t14 -71t10 -66.5h3q8 44 44 202l102 441h127l95 -433q22 -100 41 -207h2q7 39 21 104.5t21 103.5l84 432h86zM386 875h89l97 -114h-78
l-64 66l-62 -66h-79z" />
    <glyph glyph-name="wcircumflex" unicode="&#x175;" horiz-adv-x="815" 
d="M186 0q-109 355 -162 525h90l78 -272q3 -12 21 -76t30 -109h2q10 43 29 115.5t24 91.5l64 250h103l57 -238q8 -33 25 -106t27 -112h2q11 41 35 119.5t33 110.5l67 226h83l-166 -525h-111l-50 203q-29 118 -54 239h-3q-46 -193 -59 -243l-54 -199h-111zM370 715h89
q15 -17 48 -59t49 -60h-78l-64 68l-62 -68h-79q16 18 49 60t48 59z" />
    <glyph glyph-name="Ycircumflex" unicode="&#x176;" horiz-adv-x="588" 
d="M251 0v275l-244 440h95q34 -67 111 -207t85 -155q27 50 96.5 176t100.5 186h89l-248 -440v-275h-85zM254 875h89l97 -114h-78l-64 66l-62 -66h-79z" />
    <glyph glyph-name="ycircumflex" unicode="&#x177;" horiz-adv-x="519" 
d="M228 -180h-83l73 177q-35 93 -111 290.5t-91 237.5h93q43 -123 153 -430q138 375 157 430h86q-29 -73 -125 -320t-152 -385zM218 715h89q15 -17 48 -59t49 -60h-78l-64 68l-62 -68h-79q16 18 49 60t48 59z" />
    <glyph glyph-name="Ydieresis" unicode="&#x178;" horiz-adv-x="588" 
d="M251 0v275l-244 440h95q34 -67 111 -207t85 -155q27 50 96.5 176t100.5 186h89l-248 -440v-275h-85zM174 766v90h89v-90h-89zM334 766v90h88v-90h-88z" />
    <glyph glyph-name="Zacute" unicode="&#x179;" horiz-adv-x="570" 
d="M37 0v71q24 36 91 133l247 356q10 14 21.5 30t19.5 27.5t16 23.5h-391v74h487v-71q-49 -76 -84 -126l-237 -341q-62 -90 -72 -103h397v-74h-495zM437 875l-138 -114h-88l111 114h115z" />
    <glyph glyph-name="zacute" unicode="&#x17a;" horiz-adv-x="493" 
d="M36 0v62l231 289q75 93 87 109q-36 -1 -155 -1h-153v66h403v-67l-222 -274l-97 -119q18 0 73 0.5t78 0.5h173v-66h-418zM409 715l-141 -119h-88l114 119h115z" />
    <glyph glyph-name="Zdotaccent" unicode="&#x17b;" horiz-adv-x="570" 
d="M37 0v71q24 36 91 133l247 356q10 14 21.5 30t19.5 27.5t16 23.5h-391v74h487v-71q-49 -76 -84 -126l-237 -341q-62 -90 -72 -103h397v-74h-495zM240 769v90h91v-90h-91z" />
    <glyph glyph-name="zdotaccent" unicode="&#x17c;" horiz-adv-x="493" 
d="M36 0v62l231 289q75 93 87 109q-36 -1 -155 -1h-153v66h403v-67l-222 -274l-97 -119q18 0 73 0.5t78 0.5h173v-66h-418zM204 609v90h91v-90h-91z" />
    <glyph glyph-name="Zcaron" unicode="&#x17d;" horiz-adv-x="570" 
d="M37 0v71q24 36 91 133l247 356q10 14 21.5 30t19.5 27.5t16 23.5h-391v74h487v-71q-49 -76 -84 -126l-237 -341q-62 -90 -72 -103h397v-74h-495zM334 761h-89l-97 114h79l62 -66l64 66h78z" />
    <glyph glyph-name="zcaron" unicode="&#x17e;" horiz-adv-x="493" 
d="M36 0v62l231 289q75 93 87 109q-36 -1 -155 -1h-153v66h403v-67l-222 -274l-97 -119q18 0 73 0.5t78 0.5h173v-66h-418zM293 596h-89q-15 17 -48 59t-49 60h79l62 -68l64 68h78q-16 -18 -49 -60t-48 -59z" />
    <glyph glyph-name="uni0186" unicode="&#x186;" horiz-adv-x="764" 
d="M35 207h88q70 -149 236 -149q124 0 195.5 83t71.5 217t-71 216.5t-195 82.5q-180 0 -239 -157h-87q35 111 118.5 170t206.5 59q159 0 259 -104t100 -268q0 -165 -98.5 -268t-255.5 -103q-121 0 -206 59t-123 162z" />
    <glyph glyph-name="uni018F" unicode="&#x18f;" horiz-adv-x="781" 
d="M38 379l607 3q-6 126 -79 201.5t-188 75.5q-53 0 -96 -14.5t-70 -39t-42.5 -48t-26.5 -49.5h-89q12 38 36 73.5t62.5 70.5t98 56t130.5 21q164 0 259 -103.5t95 -264.5q0 -163 -96.5 -269t-255.5 -106q-169 0 -257 105.5t-88 270.5v17zM645 317h-522q5 -124 74.5 -195
t185.5 -71q80 0 140 40t89 99t33 127z" />
    <glyph glyph-name="uni0190" unicode="&#x190;" 
d="M443 206h89q-23 -221 -243 -221q-112 0 -177.5 61t-65.5 160q0 79 44.5 127t116.5 62q-125 41 -125 163q0 76 55.5 123.5t148.5 47.5q95 0 154.5 -52.5t60.5 -138.5h-83q-4 61 -39 91.5t-90 30.5q-50 0 -83.5 -30t-33.5 -85q0 -67 39.5 -96t120.5 -29h5v-65h-26
q-79 0 -126.5 -35.5t-47.5 -112.5q0 -67 41 -110.5t110 -43.5q137 0 155 153z" />
    <glyph glyph-name="florin" unicode="&#x192;" horiz-adv-x="437" 
d="M52 421l9 60h117l2 10q18 124 61 177.5t139 53.5q20 0 38 -3l-9 -67q-10 2 -32 2q-56 0 -80 -38t-36 -120l-2 -15h121l-9 -60h-121l-50 -351q-21 -145 -63.5 -199t-139.5 -54q-20 0 -42 4l9 65q14 -2 28 -2q64 0 87 38t37 137l53 362h-117z" />
    <glyph glyph-name="uni019D" unicode="&#x19d;" horiz-adv-x="736" 
d="M80 -109q12 16 12 53v771h129l243 -441l98 -181h2q0 17 -1.5 94t-1.5 115v413h83v-715h-123l-238 428q-100 184 -105 195h-2q0 -17 0.5 -127t0.5 -144v-393q0 -89 -33 -124q-32 -33 -107 -33q-24 0 -40 4v65q6 -1 19 -1q48 0 64 21z" />
    <glyph glyph-name="uni019F" unicode="&#x19f;" horiz-adv-x="809" 
d="M404 729q160 0 259.5 -103t99.5 -269t-98 -268.5t-260 -102.5q-161 0 -260 103t-99 268t99 268.5t259 103.5zM404 57q114 0 185 74t79 196h-530q8 -122 79 -196t187 -74zM403 658q-114 0 -184 -71t-81 -189h529q-10 119 -80 189.5t-184 70.5z" />
    <glyph glyph-name="Ohorn" unicode="&#x1a0;" horiz-adv-x="809" 
d="M404 729q160 0 259.5 -103t99.5 -269t-98 -268.5t-260 -102.5q-161 0 -260 103t-99 268t99 268.5t259 103.5zM403 658q-123 0 -194.5 -82.5t-71.5 -217.5q0 -134 72 -217.5t195 -83.5q122 0 193.5 83.5t71.5 217.5q0 136 -71 218t-195 82zM717 906l-75 -191h-69l55 191
h89z" />
    <glyph glyph-name="ohorn" unicode="&#x1a1;" horiz-adv-x="618" 
d="M307 54q84 0 131 57t47 152q0 93 -47.5 151t-130.5 58q-84 0 -131.5 -58t-47.5 -151q0 -95 47 -152t132 -57zM307 -13q-124 0 -194 76t-70 199q0 122 72.5 199.5t193.5 77.5t193.5 -77.5t72.5 -199.5q0 -123 -72 -199t-196 -76zM576 715l-75 -191h-69l55 191h89z" />
    <glyph glyph-name="Uhorn" unicode="&#x1af;" horiz-adv-x="689" 
d="M631 906l-75 -191h48v-444q0 -128 -46 -193q-31 -43 -89.5 -67.5t-124.5 -24.5q-67 0 -124.5 24.5t-88.5 67.5q-46 65 -46 193v444h85v-437q0 -99 23 -143q20 -38 59.5 -59t91.5 -21t92.5 21.5t59.5 58.5q23 44 23 143v437h-32l55 191h89z" />
    <glyph glyph-name="uhorn" unicode="&#x1b0;" horiz-adv-x="572" 
d="M527 715l-75 -190h43v-445q0 -53 1 -80h-82v72q-51 -86 -165 -86q-89 0 -133.5 54.5t-44.5 156.5v328h83v-303q0 -169 127 -169q62 0 96.5 45t34.5 111v315h-29l55 191h89z" />
    <glyph glyph-name="uni01C4" unicode="&#x1c4;" horiz-adv-x="1287" 
d="M92 0v715h182q127 0 213 -39q182 -84 182 -320q0 -185 -121 -281q-96 -75 -259 -75h-197zM177 642v-569h90q154 0 231 66t77 218q0 139 -77 212.5t-220 73.5q-68 0 -101 -1zM754 0v71q24 36 91 133l247 356q10 14 21.5 30t19.5 27.5t16 23.5h-391v74h487v-71
q-49 -76 -84 -126l-237 -341q-62 -90 -72 -103h397v-74h-495zM1051 761h-89l-97 114h79l62 -66l64 66h78z" />
    <glyph glyph-name="uni01C5" unicode="&#x1c5;" horiz-adv-x="1210" 
d="M92 0v715h182q127 0 213 -39q182 -84 182 -320q0 -185 -121 -281q-96 -75 -259 -75h-197zM177 642v-569h90q154 0 231 66t77 218q0 139 -77 212.5t-220 73.5q-68 0 -101 -1zM753 0v62l231 289q75 93 87 109q-36 -1 -155 -1h-153v66h403v-67l-222 -274l-97 -119
q18 0 73 0.5t78 0.5h173v-66h-418zM1010 596h-89q-15 17 -48 59t-49 60h79l62 -68l64 68h78q-16 -18 -49 -60t-48 -59z" />
    <glyph glyph-name="uni01C6" unicode="&#x1c6;" horiz-adv-x="1119" 
d="M549 715v-715h-77v80q-26 -40 -73 -66.5t-110 -26.5q-110 0 -178 73.5t-68 202.5q0 121 68 198.5t172 77.5q126 0 184 -95q-1 36 -1 116v155h83zM301 54q80 0 123.5 56t43.5 153q0 94 -43.5 151t-123.5 57q-79 0 -123.5 -57.5t-44.5 -150.5q0 -97 44 -153t124 -56zM662 0
v62l231 289q75 93 87 109q-36 -1 -155 -1h-153v66h403v-67l-222 -274l-97 -119q18 0 73 0.5t78 0.5h173v-66h-418zM919 596h-89q-15 17 -48 59t-49 60h79l62 -68l64 68h78q-16 -18 -49 -60t-48 -59z" />
    <glyph glyph-name="uni01C7" unicode="&#x1c7;" horiz-adv-x="1007" 
d="M92 715h85v-641h322v-74h-407v715zM557 173h83q2 -119 95 -119q61 0 81 45t20 134v482h85v-515q0 -214 -188 -214q-174 0 -176 187z" />
    <glyph glyph-name="uni01C8" unicode="&#x1c8;" horiz-adv-x="766" 
d="M92 715h85v-641h322v-74h-407v715zM594 -109q12 17 12 53v581h83v-566q0 -89 -33 -124q-32 -33 -107 -33q-23 0 -39 4v65q7 -1 20 -1q48 0 64 21zM691 614h-85v101h85v-101z" />
    <glyph glyph-name="uni01C9" unicode="&#x1c9;" horiz-adv-x="482" 
d="M81 0v715h83v-715h-83zM310 -109q12 17 12 53v581h83v-566q0 -89 -33 -124q-32 -33 -107 -33q-23 0 -39 4v65q7 -1 20 -1q48 0 64 21zM407 614h-85v101h85v-101z" />
    <glyph glyph-name="uni01CA" unicode="&#x1ca;" horiz-adv-x="1214" 
d="M644 0h-123l-238 428q-100 184 -105 195h-2q0 -17 0.5 -127t0.5 -144v-352h-85v715h129l243 -441l98 -181h2q0 17 -1.5 94t-1.5 115v413h83v-715zM764 173h83q2 -119 95 -119q61 0 81 45t20 134v482h85v-515q0 -214 -188 -214q-174 0 -176 187z" />
    <glyph glyph-name="uni01CB" unicode="&#x1cb;" horiz-adv-x="973" 
d="M644 0h-123l-238 428q-100 184 -105 195h-2q0 -17 0.5 -127t0.5 -144v-352h-85v715h129l243 -441l98 -181h2q0 17 -1.5 94t-1.5 115v413h83v-715zM801 -109q12 17 12 53v581h83v-566q0 -89 -33 -124q-32 -33 -107 -33q-23 0 -39 4v65q7 -1 20 -1q48 0 64 21zM898 614h-85
v101h85v-101z" />
    <glyph glyph-name="uni01CC" unicode="&#x1cc;" horiz-adv-x="817" 
d="M77 0v446q0 55 -1 79h82v-75q55 89 171 89q89 0 134.5 -55t45.5 -156v-328h-83v302q0 170 -129 170q-64 0 -100.5 -45t-36.5 -112v-315h-83zM645 -109q12 17 12 53v581h83v-566q0 -89 -33 -124q-32 -33 -107 -33q-23 0 -39 4v65q7 -1 20 -1q48 0 64 21zM742 614h-85v101
h85v-101z" />
    <glyph glyph-name="uni01F1" unicode="&#x1f1;" horiz-adv-x="1272" 
d="M92 0v715h182q127 0 213 -39q182 -84 182 -320q0 -185 -121 -281q-96 -75 -259 -75h-197zM177 642v-569h90q154 0 231 66t77 218q0 139 -77 212.5t-220 73.5q-68 0 -101 -1zM739 0v71q24 36 91 133l247 356q10 14 21.5 30t19.5 27.5t16 23.5h-391v74h487v-71
q-49 -76 -84 -126l-237 -341q-62 -90 -72 -103h397v-74h-495z" />
    <glyph glyph-name="uni01F2" unicode="&#x1f2;" horiz-adv-x="1210" 
d="M92 0v715h182q127 0 213 -39q182 -84 182 -320q0 -185 -121 -281q-96 -75 -259 -75h-197zM177 642v-569h90q154 0 231 66t77 218q0 139 -77 212.5t-220 73.5q-68 0 -101 -1zM753 0v62l231 289q75 93 87 109q-36 -1 -155 -1h-153v66h403v-67l-222 -274l-97 -119
q18 0 73 0.5t78 0.5h173v-66h-418z" />
    <glyph glyph-name="uni01F3" unicode="&#x1f3;" horiz-adv-x="1119" 
d="M549 715v-715h-77v80q-26 -40 -73 -66.5t-110 -26.5q-110 0 -178 73.5t-68 202.5q0 121 68 198.5t172 77.5q126 0 184 -95q-1 36 -1 116v155h83zM301 54q80 0 123.5 56t43.5 153q0 94 -43.5 151t-123.5 57q-79 0 -123.5 -57.5t-44.5 -150.5q0 -97 44 -153t124 -56zM662 0
v62l231 289q75 93 87 109q-36 -1 -155 -1h-153v66h403v-67l-222 -274l-97 -119q18 0 73 0.5t78 0.5h173v-66h-418z" />
    <glyph glyph-name="Aringacute" unicode="&#x1fa;" horiz-adv-x="687" 
d="M-2 0l291 715h110l288 -715h-90l-90 225h-336l-89 -225h-84zM340 649q-20 -53 -61 -153t-54 -134l-28 -68h283l-30 77q-12 31 -50.5 127.5t-57.5 150.5h-2zM346 748q-37 0 -62 25.5t-25 63.5q0 36 25.5 61.5t62.5 25.5t62.5 -25.5t25.5 -61.5q0 -37 -25.5 -63t-63.5 -26z
M300 837q0 -20 13.5 -34.5t32.5 -14.5q20 0 33.5 14t13.5 35q0 19 -13.5 33t-33.5 14q-19 0 -32.5 -14t-13.5 -33zM502 1077l-141 -119h-88l114 119h115z" />
    <glyph glyph-name="aringacute" unicode="&#x1fb;" horiz-adv-x="548" 
d="M63 366q0 75 59 124t153 49q104 0 153.5 -53.5t49.5 -173.5q0 -10 -0.5 -38.5t-0.5 -40.5v-129q0 -70 10 -104h-76q-7 38 -7 81q-57 -91 -181 -91q-82 0 -133 40t-51 111t57.5 106.5t164.5 52.5q78 13 138 17q0 83 -30.5 120t-97.5 37q-118 0 -129 -108h-79zM400 233
q0 21 1 26l-44 -6q-45 -7 -70 -11t-56 -11t-46.5 -14t-31 -17.5t-21.5 -24.5t-6 -33q0 -44 31.5 -69t85.5 -25q76 0 116.5 47.5t40.5 137.5zM282 573q-37 0 -62 25.5t-25 63.5q0 36 25.5 61.5t62.5 25.5t62.5 -25.5t25.5 -61.5q0 -38 -25.5 -63.5t-63.5 -25.5zM236 662
q0 -20 13.5 -34.5t32.5 -14.5q20 0 33.5 14t13.5 35q0 19 -13.5 33t-33.5 14q-19 0 -32.5 -14t-13.5 -33zM430 902l-141 -119h-88l114 119h115z" />
    <glyph glyph-name="AEacute" unicode="&#x1fc;" horiz-adv-x="905" 
d="M852 715v-74h-341l6 -237h311v-74h-310l7 -256h334v-74h-418l-5 201h-249l-114 -201h-85l402 715h462zM433 274l-3 172q-1 46 -1 192h-5q-35 -72 -79 -153l-117 -211h205zM762 875l-138 -114h-88l111 114h115z" />
    <glyph glyph-name="aeacute" unicode="&#x1fd;" horiz-adv-x="940" 
d="M902 249h-429q4 -92 52.5 -143.5t129.5 -51.5q105 0 152 95h84q-26 -72 -88.5 -117t-149.5 -45q-151 0 -222 115q-61 -112 -207 -112q-83 0 -134 40t-51 111q0 72 58 107.5t166 52.5q19 3 136 17q0 83 -30.5 119.5t-97.5 36.5q-118 0 -129 -108h-79q0 74 59 123.5
t152 49.5q133 0 177 -90q76 90 203 90q122 0 185.5 -79t63.5 -193q0 -6 -0.5 -11.5t-0.5 -6.5zM477 311h339q-8 75 -49 119t-115 44q-73 0 -119 -44.5t-56 -118.5zM400 233q0 21 1 26l-30 -5q-18 -3 -50 -7.5t-47 -7.5q-79 -13 -113.5 -32.5t-34.5 -63.5t32 -69.5t85 -25.5
q76 0 116.5 47.5t40.5 137.5zM631 715l-141 -119h-88l114 119h115z" />
    <glyph glyph-name="Oslashacute" unicode="&#x1fe;" horiz-adv-x="809" 
d="M404 729q81 0 154 -30l49 86l66 -37l-50 -87q67 -49 103.5 -127.5t36.5 -176.5q0 -166 -98 -268.5t-260 -102.5q-80 0 -150 28l-50 -89l-66 34l51 91q-68 49 -106 128.5t-38 178.5q0 165 99 268.5t259 103.5zM403 658q-123 0 -194.5 -82.5t-71.5 -217.5q0 -156 92 -239
l292 514q-53 25 -118 25zM669 358q0 152 -86 233l-291 -512q48 -22 112 -22q122 0 193.5 83.5t71.5 217.5zM573 875l-138 -114h-88l111 114h115z" />
    <glyph glyph-name="oslashacute" unicode="&#x1ff;" horiz-adv-x="618" 
d="M479 715l-141 -119h-88l114 119h115zM307 -13q-57 0 -105 17l-42 -74l-65 36l42 74q-94 76 -94 222q0 122 72.5 199.5t193.5 77.5q52 0 101 -18l39 68l66 -36l-39 -68q99 -79 99 -223q0 -123 -72 -199t-196 -76zM128 263q0 -98 48 -154l199 350q-33 13 -68 13
q-84 0 -131.5 -58t-47.5 -151zM307 54q84 0 131 57t47 152t-49 152l-199 -349q31 -12 70 -12z" />
    <glyph glyph-name="uni0218" unicode="&#x218;" horiz-adv-x="603" 
d="M173 -163l94 115h83l-75 -115h-102zM36 203h85q11 -71 57.5 -110t125.5 -39q77 0 121.5 35.5t44.5 95.5q0 57 -41.5 86.5t-124.5 55.5l-43 14q-100 31 -149.5 77t-49.5 124q0 85 64.5 136t175.5 51q108 0 170.5 -51.5t72.5 -147.5h-83q-24 132 -163 132
q-70 0 -109.5 -29.5t-39.5 -81.5q0 -53 36.5 -81.5t116.5 -55.5l49 -17q102 -32 154.5 -76t52.5 -125q0 -98 -70.5 -154t-186.5 -56q-114 0 -184.5 56.5t-81.5 160.5z" />
    <glyph glyph-name="uni0219" unicode="&#x219;" horiz-adv-x="498" 
d="M139 -163l94 115h83l-75 -115h-102zM35 159h81q30 -106 139 -106q54 0 87.5 24t33.5 63q0 36 -25.5 52.5t-85.5 33.5l-62 17q-73 20 -111 51t-38 93q0 70 54 111t141 41q83 0 134.5 -37.5t63.5 -114.5h-78q-25 87 -122 87q-52 0 -81 -21t-29 -55q0 -33 25 -51t80 -34
l66 -19q74 -21 111.5 -53.5t37.5 -90.5q0 -76 -56.5 -119t-147.5 -43q-187 0 -218 171z" />
    <glyph glyph-name="uni021A" unicode="&#x21a;" horiz-adv-x="539" 
d="M140 -163l94 115h83l-75 -115h-102zM227 0v641h-200v74h485v-74h-200v-641h-85z" />
    <glyph glyph-name="uni021B" unicode="&#x21b;" horiz-adv-x="303" 
d="M64 -163l94 115h83l-75 -115h-102zM98 463h-81v62h81v142h82v-142h100v-62h-100v-335q0 -75 74 -75q8 0 16 1v-62q-18 -2 -28 -2q-70 0 -107 29.5t-37 101.5v342z" />
    <glyph glyph-name="uni021D" unicode="&#x21d;" horiz-adv-x="541" 
d="M25 17h89q18 -153 155 -153q69 0 110 43.5t41 110.5q0 77 -47.5 112.5t-126.5 35.5h-26v65h5q81 0 120.5 29t39.5 96q0 55 -33.5 85t-83.5 30q-55 0 -90 -30.5t-39 -91.5h-83q1 86 60.5 138.5t154.5 52.5q93 0 148.5 -47.5t55.5 -123.5q0 -122 -125 -163
q72 -14 116.5 -62t44.5 -127q0 -99 -65.5 -160t-177.5 -61q-220 0 -243 221z" />
    <glyph glyph-name="uni0226" unicode="&#x226;" horiz-adv-x="687" 
d="M-2 0l291 715h110l288 -715h-90l-90 225h-336l-89 -225h-84zM340 649q-20 -53 -61 -153t-54 -134l-28 -68h283l-30 77q-12 31 -50.5 127.5t-57.5 150.5h-2zM300 769v90h91v-90h-91z" />
    <glyph glyph-name="uni0227" unicode="&#x227;" horiz-adv-x="548" 
d="M63 366q0 75 59 124t153 49q104 0 153.5 -53.5t49.5 -173.5q0 -10 -0.5 -38.5t-0.5 -40.5v-129q0 -70 10 -104h-76q-7 38 -7 81q-57 -91 -181 -91q-82 0 -133 40t-51 111t57.5 106.5t164.5 52.5q78 13 138 17q0 83 -30.5 120t-97.5 37q-118 0 -129 -108h-79zM400 233
q0 21 1 26l-44 -6q-45 -7 -70 -11t-56 -11t-46.5 -14t-31 -17.5t-21.5 -24.5t-6 -33q0 -44 31.5 -69t85.5 -25q76 0 116.5 47.5t40.5 137.5zM232 609v90h91v-90h-91z" />
    <glyph glyph-name="uni0232" unicode="&#x232;" horiz-adv-x="588" 
d="M251 0v275l-244 440h95q34 -67 111 -207t85 -155q27 50 96.5 176t100.5 186h89l-248 -440v-275h-85zM178 785v53h244v-53h-244z" />
    <glyph glyph-name="uni0233" unicode="&#x233;" horiz-adv-x="519" 
d="M228 -180h-83l73 177q-35 93 -111 290.5t-91 237.5h93q43 -123 153 -430q138 375 157 430h86q-29 -73 -125 -320t-152 -385zM143 628v53h244v-53h-244z" />
    <glyph glyph-name="dotlessj" unicode="&#x237;" horiz-adv-x="237" 
d="M65 -109q12 16 12 53v581h83v-566q0 -89 -33 -124q-32 -33 -107 -33q-23 0 -39 4v65q7 -1 20 -1q48 0 64 21z" />
    <glyph glyph-name="uni0254" unicode="&#x254;" horiz-adv-x="588" 
d="M119 360h-81q24 80 86.5 129.5t158.5 49.5q120 0 191 -75t71 -202q0 -124 -73 -199.5t-190 -75.5q-100 0 -161 51t-84 134h82q44 -118 163 -118q82 0 130 58t48 151q0 96 -46.5 152.5t-131.5 56.5q-115 0 -163 -112z" />
    <glyph glyph-name="uni0259" unicode="&#x259;" horiz-adv-x="593" 
d="M38 276h429q-4 92 -52.5 143.5t-129.5 51.5q-105 0 -152 -95h-84q26 72 88.5 117t149.5 45q122 0 192.5 -76t70.5 -198q0 -124 -72.5 -201t-191.5 -77q-122 0 -185.5 79t-63.5 193q0 6 0.5 11.5t0.5 6.5zM463 214h-339q8 -75 49 -119t115 -44q73 0 119 44.5t56 118.5z
" />
    <glyph glyph-name="uni025B" unicode="&#x25b;" horiz-adv-x="541" 
d="M427 17h89q-23 -221 -243 -221q-112 0 -177.5 61t-65.5 160q0 79 44.5 127t116.5 62q-125 41 -125 163q0 76 55.5 123.5t148.5 47.5q95 0 154.5 -52.5t60.5 -138.5h-83q-4 61 -39 91.5t-90 30.5q-50 0 -83.5 -30t-33.5 -85q0 -67 39.5 -96t120.5 -29h5v-65h-26
q-79 0 -126.5 -35.5t-47.5 -112.5q0 -67 41 -110.5t110 -43.5q137 0 155 153z" />
    <glyph glyph-name="uni0272" unicode="&#x272;" horiz-adv-x="580" 
d="M77 446q0 55 -1 79h82v-75q55 89 171 89q89 0 134.5 -55t45.5 -156v-328h-83v302q0 170 -129 170q-64 0 -100.5 -45t-36.5 -112v-356q0 -89 -33 -124q-32 -33 -107 -33q-24 0 -40 4v65q8 -1 21 -1q48 0 64 21q12 16 12 53v502z" />
    <glyph glyph-name="uni0275" unicode="&#x275;" horiz-adv-x="618" 
d="M307 -13q-124 0 -194 76t-70 199q0 122 72.5 199.5t193.5 77.5t193.5 -77.5t72.5 -199.5q0 -123 -72 -199t-196 -76zM307 54q77 0 122.5 48t53.5 130h-354q8 -82 54.5 -130t123.5 -48zM307 472q-75 0 -121 -46.5t-56 -123.5h352q-9 77 -55.5 123.5t-119.5 46.5z" />
    <glyph glyph-name="apostrophemod" unicode="&#x2bc;" horiz-adv-x="176" 
d="M160 715l-81 -232h-71l65 232h87z" />
    <glyph glyph-name="circumflex" unicode="&#x2c6;" horiz-adv-x="503" 
d="M211 715h89q15 -17 48 -59t49 -60h-78l-64 68l-62 -68h-79q16 18 49 60t48 59z" />
    <glyph glyph-name="caron" unicode="&#x2c7;" horiz-adv-x="502" 
d="M300 596h-89q-15 17 -48 59t-49 60h79l62 -68l64 68h78q-16 -18 -49 -60t-48 -59z" />
    <glyph glyph-name="breve" unicode="&#x2d8;" horiz-adv-x="465" 
d="M237 659q58 0 73 56h63q-20 -110 -136 -110t-136 110h63q15 -56 73 -56z" />
    <glyph glyph-name="dotaccent" unicode="&#x2d9;" horiz-adv-x="328" 
d="M120 609v90h91v-90h-91z" />
    <glyph glyph-name="ring" unicode="&#x2da;" horiz-adv-x="405" 
d="M240 588q-37 0 -62 25.5t-25 63.5q0 36 25.5 61.5t62.5 25.5t62.5 -25.5t25.5 -61.5q0 -37 -25.5 -63t-63.5 -26zM194 677q0 -20 13.5 -34.5t32.5 -14.5q20 0 33.5 14t13.5 35q0 19 -13.5 33t-33.5 14q-19 0 -32.5 -14t-13.5 -33z" />
    <glyph glyph-name="ogonek" unicode="&#x2db;" horiz-adv-x="331" 
d="M170 -48l94 -115h-102l-75 115h83z" />
    <glyph glyph-name="tilde" unicode="&#x2dc;" horiz-adv-x="470" 
d="M219 613h-58q7 102 84 102q27 0 72 -22q38 -18 54 -18q25 0 33 40h56q-3 -47 -24 -75t-57 -28q-24 0 -67 19q-50 21 -59 21q-29 0 -34 -39z" />
    <glyph glyph-name="hungarumlaut" unicode="&#x2dd;" horiz-adv-x="612" 
d="M355 715l-141 -119h-86l114 119h113zM541 715l-141 -119h-86l114 119h113z" />
    <glyph glyph-name="uni032C" unicode="&#x32c;" horiz-adv-x="503" 
d="M205 -49h89q15 -17 48 -59t49 -60h-78l-64 68l-62 -68h-79q16 18 49 60t48 59z" />
    <glyph glyph-name="uni0394" unicode="&#x394;" horiz-adv-x="689" 
d="M288 715h113l280 -715h-673zM345 651l-230 -585h460z" />
    <glyph glyph-name="uni03A9" unicode="&#x3a9;" horiz-adv-x="803" 
d="M401 729q163 0 255 -98.5t92 -237.5q0 -210 -169 -319v-2q37 1 82 1h89v-73h-276v72q184 115 184 313q0 119 -67 195.5t-190 77.5q-123 0 -189.5 -77t-66.5 -196q0 -198 184 -313v-72h-276v73h89l82 -1v2q-169 109 -169 319q0 139 92 237.5t254 98.5z" />
    <glyph glyph-name="uni03BC" unicode="&#x3bc;" horiz-adv-x="578" 
d="M160 -180h-83v705h83v-303q0 -169 127 -169q62 0 96.5 45t34.5 111v316h83v-445q0 -53 1 -80h-82v72q-24 -40 -67.5 -62t-92.5 -22q-52 0 -100 28v-196z" />
    <glyph glyph-name="pi" unicode="&#x3c0;" horiz-adv-x="638" 
d="M423 463h-218v-463h-81v463h-112v62h593v-62h-100v-335q0 -75 74 -75q8 0 16 1v-62q-18 -2 -28 -2q-70 0 -107 29.5t-37 101.5v342z" />
    <glyph glyph-name="Wgrave" unicode="&#x1e80;" horiz-adv-x="899" 
d="M870 715l-157 -715h-119l-84 391q-7 32 -27 123t-29 138h-2q-9 -46 -65 -290l-82 -362h-123l-151 715h92l84 -440q4 -23 13 -65.5t14 -71t10 -66.5h3q8 44 44 202l102 441h127l95 -433q22 -100 41 -207h2q7 39 21 104.5t21 103.5l84 432h86zM411 761l-138 114h115
l111 -114h-88z" />
    <glyph glyph-name="wgrave" unicode="&#x1e81;" horiz-adv-x="815" 
d="M186 0q-109 355 -162 525h90l78 -272q3 -12 21 -76t30 -109h2q10 43 29 115.5t24 91.5l64 250h103l57 -238q8 -33 25 -106t27 -112h2q11 41 35 119.5t33 110.5l67 226h83l-166 -525h-111l-50 203q-29 118 -54 239h-3q-46 -193 -59 -243l-54 -199h-111zM398 596l-141 119
h115l114 -119h-88z" />
    <glyph glyph-name="Wacute" unicode="&#x1e82;" horiz-adv-x="899" 
d="M870 715l-157 -715h-119l-84 391q-7 32 -27 123t-29 138h-2q-9 -46 -65 -290l-82 -362h-123l-151 715h92l84 -440q4 -23 13 -65.5t14 -71t10 -66.5h3q8 44 44 202l102 441h127l95 -433q22 -100 41 -207h2q7 39 21 104.5t21 103.5l84 432h86zM581 875l-138 -114h-88
l111 114h115z" />
    <glyph glyph-name="wacute" unicode="&#x1e83;" horiz-adv-x="815" 
d="M186 0q-109 355 -162 525h90l78 -272q3 -12 21 -76t30 -109h2q10 43 29 115.5t24 91.5l64 250h103l57 -238q8 -33 25 -106t27 -112h2q11 41 35 119.5t33 110.5l67 226h83l-166 -525h-111l-50 203q-29 118 -54 239h-3q-46 -193 -59 -243l-54 -199h-111zM581 715l-141 -119
h-88l114 119h115z" />
    <glyph glyph-name="Wdieresis" unicode="&#x1e84;" horiz-adv-x="899" 
d="M870 715l-157 -715h-119l-84 391q-7 32 -27 123t-29 138h-2q-9 -46 -65 -290l-82 -362h-123l-151 715h92l84 -440q4 -23 13 -65.5t14 -71t10 -66.5h3q8 44 44 202l102 441h127l95 -433q22 -100 41 -207h2q7 39 21 104.5t21 103.5l84 432h86zM305 766v90h89v-90h-89z
M465 766v90h88v-90h-88z" />
    <glyph glyph-name="wdieresis" unicode="&#x1e85;" horiz-adv-x="815" 
d="M186 0q-109 355 -162 525h90l78 -272q3 -12 21 -76t30 -109h2q10 43 29 115.5t24 91.5l64 250h103l57 -238q8 -33 25 -106t27 -112h2q11 41 35 119.5t33 110.5l67 226h83l-166 -525h-111l-50 203q-29 118 -54 239h-3q-46 -193 -59 -243l-54 -199h-111zM288 609v90h89v-90
h-89zM448 609v90h88v-90h-88z" />
    <glyph glyph-name="uni1EA0" unicode="&#x1ea0;" horiz-adv-x="687" 
d="M-2 0l291 715h110l288 -715h-90l-90 225h-336l-89 -225h-84zM340 649q-20 -53 -61 -153t-54 -134l-28 -68h283l-30 77q-12 31 -50.5 127.5t-57.5 150.5h-2zM296 -153v90h91v-90h-91z" />
    <glyph glyph-name="uni1EA1" unicode="&#x1ea1;" horiz-adv-x="548" 
d="M63 366q0 75 59 124t153 49q104 0 153.5 -53.5t49.5 -173.5q0 -10 -0.5 -38.5t-0.5 -40.5v-129q0 -70 10 -104h-76q-7 38 -7 81q-57 -91 -181 -91q-82 0 -133 40t-51 111t57.5 106.5t164.5 52.5q78 13 138 17q0 83 -30.5 120t-97.5 37q-118 0 -129 -108h-79zM400 233
q0 21 1 26l-44 -6q-45 -7 -70 -11t-56 -11t-46.5 -14t-31 -17.5t-21.5 -24.5t-6 -33q0 -44 31.5 -69t85.5 -25q76 0 116.5 47.5t40.5 137.5zM226 -153v90h91v-90h-91z" />
    <glyph glyph-name="uni1EB8" unicode="&#x1eb8;" horiz-adv-x="589" 
d="M92 0v715h444v-74h-359v-237h335v-74h-335v-256h366v-74h-451zM276 -153v90h91v-90h-91z" />
    <glyph glyph-name="uni1EB9" unicode="&#x1eb9;" horiz-adv-x="593" 
d="M555 249h-429q4 -92 52.5 -143.5t129.5 -51.5q104 0 152 95h84q-26 -72 -88.5 -117t-149.5 -45q-122 0 -192.5 76t-70.5 198q0 124 72.5 201t191.5 77q122 0 185.5 -79t63.5 -193q0 -6 -0.5 -11.5t-0.5 -6.5zM130 311h339q-8 75 -49 119t-115 44q-73 0 -119 -44.5
t-56 -118.5zM260 -153v90h91v-90h-91z" />
    <glyph glyph-name="uni1ECA" unicode="&#x1eca;" horiz-adv-x="269" 
d="M92 0v715h85v-715h-85zM90 -153v90h91v-90h-91z" />
    <glyph glyph-name="uni1ECB" unicode="&#x1ecb;" horiz-adv-x="235" 
d="M160 614h-85v101h85v-101zM77 525h81v-525h-81v525zM72 -153v90h91v-90h-91z" />
    <glyph glyph-name="uni1ECC" unicode="&#x1ecc;" horiz-adv-x="809" 
d="M404 729q160 0 259.5 -103t99.5 -269t-98 -268.5t-260 -102.5q-161 0 -260 103t-99 268t99 268.5t259 103.5zM403 658q-123 0 -194.5 -82.5t-71.5 -217.5q0 -134 72 -217.5t195 -83.5q122 0 193.5 83.5t71.5 217.5q0 136 -71 218t-195 82zM352 -153v90h91v-90h-91z" />
    <glyph glyph-name="uni1ECD" unicode="&#x1ecd;" horiz-adv-x="618" 
d="M307 54q84 0 131 57t47 152q0 93 -47.5 151t-130.5 58q-84 0 -131.5 -58t-47.5 -151q0 -95 47 -152t132 -57zM307 -13q-124 0 -194 76t-70 199q0 122 72.5 199.5t193.5 77.5t193.5 -77.5t72.5 -199.5q0 -123 -72 -199t-196 -76zM261 -153v90h91v-90h-91z" />
    <glyph glyph-name="uni1EE4" unicode="&#x1ee4;" horiz-adv-x="689" 
d="M344 -14q-67 0 -124.5 24.5t-88.5 67.5q-46 65 -46 193v444h85v-437q0 -99 23 -143q20 -38 59.5 -59t91.5 -21t92.5 21.5t59.5 58.5q23 44 23 143v437h85v-444q0 -128 -46 -193q-31 -43 -89.5 -67.5t-124.5 -24.5zM299 -153v90h91v-90h-91z" />
    <glyph glyph-name="uni1EE5" unicode="&#x1ee5;" horiz-adv-x="572" 
d="M495 525v-445q0 -53 1 -80h-82v72q-51 -86 -165 -86q-89 0 -133.5 54.5t-44.5 156.5v328h83v-303q0 -169 127 -169q62 0 96.5 45t34.5 111v316h83zM247 -153v90h91v-90h-91z" />
    <glyph glyph-name="Ygrave" unicode="&#x1ef2;" horiz-adv-x="588" 
d="M251 0v275l-244 440h95q34 -67 111 -207t85 -155q27 50 96.5 176t100.5 186h89l-248 -440v-275h-85zM298 761l-138 114h115l111 -114h-88z" />
    <glyph glyph-name="ygrave" unicode="&#x1ef3;" horiz-adv-x="519" 
d="M228 -180h-83l73 177q-35 93 -111 290.5t-91 237.5h93q43 -123 153 -430q138 375 157 430h86q-29 -73 -125 -320t-152 -385zM259 596l-141 119h115l114 -119h-88z" />
    <glyph glyph-name="enspace" unicode="&#x2002;" horiz-adv-x="500" 
 />
    <glyph glyph-name="emspace" unicode="&#x2003;" horiz-adv-x="1000" 
 />
    <glyph glyph-name="threeperemspace" unicode="&#x2004;" horiz-adv-x="0" 
 />
    <glyph glyph-name="fourperemspace" unicode="&#x2005;" horiz-adv-x="250" 
 />
    <glyph glyph-name="thinspace" unicode="&#x2009;" horiz-adv-x="133" 
 />
    <glyph glyph-name="hairspace" unicode="&#x200a;" horiz-adv-x="75" 
 />
    <glyph glyph-name="endash" unicode="&#x2013;" horiz-adv-x="612" 
d="M68 267v71h476v-71h-476z" />
    <glyph glyph-name="emdash" unicode="&#x2014;" horiz-adv-x="977" 
d="M68 267v71h841v-71h-841z" />
    <glyph glyph-name="quoteleft" unicode="&#x2018;" horiz-adv-x="243" 
d="M51 483l81 232h71l-65 -232h-87z" />
    <glyph glyph-name="quoteright" unicode="&#x2019;" horiz-adv-x="240" 
d="M206 715l-81 -232h-71l65 232h87z" />
    <glyph glyph-name="quotesinglbase" unicode="&#x201a;" horiz-adv-x="242" 
d="M176 111l-81 -232h-71l65 232h87z" />
    <glyph glyph-name="quotedblleft" unicode="&#x201c;" horiz-adv-x="407" 
d="M215 483l81 232h71l-65 -232h-87zM51 483l81 232h71l-65 -232h-87z" />
    <glyph glyph-name="quotedblright" unicode="&#x201d;" horiz-adv-x="404" 
d="M206 715l-81 -232h-71l65 232h87zM370 715l-81 -232h-71l65 232h87z" />
    <glyph glyph-name="quotedblbase" unicode="&#x201e;" horiz-adv-x="406" 
d="M176 111l-81 -232h-71l65 232h87zM340 111l-81 -232h-71l65 232h87z" />
    <glyph glyph-name="dagger" unicode="&#x2020;" horiz-adv-x="513" 
d="M215 -68v517h-180v81h180v185h83v-185h180v-81h-180v-517h-83z" />
    <glyph glyph-name="daggerdbl" unicode="&#x2021;" horiz-adv-x="547" 
d="M232 -68v267h-180v81h180v169h-180v81h180v185h83v-185h180v-81h-180v-169h180v-81h-180v-267h-83z" />
    <glyph glyph-name="bullet" unicode="&#x2022;" horiz-adv-x="413" 
d="M207 206q-54 0 -91.5 37.5t-37.5 90.5t37.5 90t91.5 37q53 0 90.5 -37t37.5 -90t-37.5 -90.5t-90.5 -37.5z" />
    <glyph glyph-name="ellipsis" unicode="&#x2026;" horiz-adv-x="889" 
d="M398 0v111h88v-111h-88zM66 0v111h88v-111h-88zM735 0v111h88v-111h-88z" />
    <glyph glyph-name="perthousand" unicode="&#x2030;" horiz-adv-x="1307" 
d="M199 330q-80 0 -122 53t-42 146q0 92 42 144.5t121 52.5q80 0 122 -53t42 -145q0 -93 -41.5 -145.5t-121.5 -52.5zM105 527q0 -141 93 -141q94 0 94 141q0 69 -21 106.5t-73 37.5q-93 0 -93 -144zM278 0l275 715h61l-275 -715h-61zM690 -15q-80 0 -122 53t-42 146
q0 92 42 144.5t121 52.5q80 0 122 -53t42 -145q0 -93 -41.5 -145.5t-121.5 -52.5zM596 182q0 -141 93 -141q94 0 94 141q0 69 -21 106.5t-73 37.5q-93 0 -93 -144zM1109 -15q-80 0 -122 53t-42 146q0 92 42 144.5t121 52.5q80 0 122 -53t42 -145q0 -93 -41.5 -145.5
t-121.5 -52.5zM1015 182q0 -141 93 -141q94 0 94 141q0 69 -21 106.5t-73 37.5q-93 0 -93 -144z" />
    <glyph glyph-name="guilsinglleft" unicode="&#x2039;" horiz-adv-x="291" 
d="M234 473l-92 -187l92 -188h-77l-107 188l107 187h77z" />
    <glyph glyph-name="guilsinglright" unicode="&#x203a;" horiz-adv-x="291" 
d="M149 286l-92 187h77l107 -187l-107 -188h-77z" />
    <glyph glyph-name="fraction" unicode="&#x2044;" horiz-adv-x="372" 
d="M2 -105l289 820h80l-288 -820h-81z" />
    <glyph glyph-name="Euro" unicode="&#x20ac;" 
d="M6 396l19 66h50q31 267 242 267q199 0 231 -230h-87q-14 78 -47 119.5t-97 41.5q-130 0 -151 -198h256l-19 -66h-242v-80h225l-19 -66h-201q10 -95 46 -146t105 -51q121 0 144 160l86 1q-17 -110 -70.5 -169.5t-159.5 -59.5q-115 0 -171.5 69.5t-70.5 195.5h-74l19 66h51
q-1 13 -1 40q0 26 1 40h-65z" />
    <glyph glyph-name="trademark" unicode="&#x2122;" horiz-adv-x="889" 
d="M642 300h-65q-19 59 -54.5 187t-50.5 177h-3q1 -59 1 -226v-138h-59v415h103q21 -67 59 -207.5t39 -144.5q6 20 44 159.5t54 192.5h101v-415h-60v190q0 27 0.5 92t0.5 84h-3q-71 -253 -107 -366zM327 715v-53h-103v-362h-62v362h-105v53h270z" />
    <glyph glyph-name="Omega" unicode="&#x2126;" horiz-adv-x="803" 
d="M401 729q163 0 255 -98.5t92 -237.5q0 -210 -169 -319v-2q37 1 82 1h89v-73h-276v72q184 115 184 313q0 119 -67 195.5t-190 77.5q-123 0 -189.5 -77t-66.5 -196q0 -198 184 -313v-72h-276v73h89l82 -1v2q-169 109 -169 319q0 139 92 237.5t254 98.5z" />
    <glyph glyph-name="onethird" unicode="&#x2153;" horiz-adv-x="786" 
d="M190 0l275 715h61l-275 -715h-61zM141 608h-107v37q60 1 88 17t36 53h47v-431h-64v324zM565 211v51h2q91 3 91 69q0 28 -18 44t-45 16q-28 0 -45 -17.5t-18 -44.5h-62q0 50 35 81t93 31q57 0 91 -28t34 -76q0 -68 -67 -95q91 -30 91 -116q0 -59 -41.5 -97t-110.5 -38
q-131 0 -148 127h67q6 -34 27 -54t57 -20q37 0 59 24t22 60q0 83 -98 83h-16z" />
    <glyph glyph-name="twothirds" unicode="&#x2154;" horiz-adv-x="863" 
d="M271 0l275 715h61l-275 -715h-61zM646 211v51h2q91 3 91 69q0 28 -18 44t-45 16q-28 0 -45 -17.5t-18 -44.5h-62q0 50 35 81t93 31q57 0 91 -28t34 -76q0 -68 -67 -95q91 -30 91 -116q0 -59 -41.5 -97t-110.5 -38q-131 0 -148 127h67q6 -34 27 -54t57 -20q37 0 59 24
t22 60q0 83 -98 83h-16zM53 284v56q76 65 156 146q53 55 53 107q0 34 -19 54.5t-53 20.5q-35 0 -56 -23t-22 -60h-62v5q0 58 40.5 96t101.5 38q64 0 102 -36.5t38 -91.5q0 -48 -29 -89t-81 -89q-53 -48 -90 -77h200v-57h-279z" />
    <glyph glyph-name="oneeighth" unicode="&#x215b;" horiz-adv-x="815" 
d="M463 121q0 81 76 115q-58 34 -58 96q0 49 36.5 82t100.5 33t101 -33t37 -82q0 -62 -57 -96q36 -18 56 -48.5t20 -66.5q0 -59 -43.5 -95.5t-113.5 -36.5t-112.5 36.5t-42.5 95.5zM618 211q-40 0 -62 -23.5t-22 -61.5q0 -36 22 -60t62 -24t62.5 23.5t22.5 60.5
q0 38 -22.5 61.5t-62.5 23.5zM618 392q-33 0 -52 -18.5t-19 -46.5q0 -30 19 -49.5t52 -19.5t52.5 19.5t19.5 49.5q0 28 -19.5 46.5t-52.5 18.5zM190 0l275 715h61l-275 -715h-61zM141 608h-107v37q60 1 88 17t36 53h47v-431h-64v324z" />
    <glyph glyph-name="threeeighths" unicode="&#x215c;" horiz-adv-x="893" 
d="M544 121q0 81 76 115q-58 34 -58 96q0 49 36.5 82t100.5 33t101 -33t37 -82q0 -62 -57 -96q36 -18 56 -48.5t20 -66.5q0 -59 -43.5 -95.5t-113.5 -36.5t-112.5 36.5t-42.5 95.5zM699 211q-40 0 -62 -23.5t-22 -61.5q0 -36 22 -60t62 -24t62.5 23.5t22.5 60.5
q0 38 -22.5 61.5t-62.5 23.5zM699 392q-33 0 -52 -18.5t-19 -46.5q0 -30 19 -49.5t52 -19.5t52.5 19.5t19.5 49.5q0 28 -19.5 46.5t-52.5 18.5zM154 496v51h2q91 3 91 69q0 28 -18 44t-45 16q-28 0 -45 -17.5t-18 -44.5h-62q0 50 35 81t93 31q57 0 91 -28t34 -76
q0 -68 -67 -95q91 -30 91 -116q0 -59 -41.5 -97t-110.5 -38q-131 0 -148 127h67q6 -34 27 -54t57 -20q37 0 59 24t22 60q0 83 -98 83h-16zM271 0l275 715h61l-275 -715h-61z" />
    <glyph glyph-name="fiveeighths" unicode="&#x215d;" horiz-adv-x="903" 
d="M55 488l26 227h226v-56h-176l-13 -120q33 28 83 28q62 0 100 -37.5t38 -100.5q0 -65 -42.5 -108t-109.5 -43q-62 0 -101.5 35.5t-49.5 92.5h66q7 -33 28.5 -53t54.5 -20q40 0 63 25t23 68q0 40 -22.5 64.5t-61.5 24.5q-50 0 -70 -36zM553 121q0 81 76 115q-58 34 -58 96
q0 49 36.5 82t100.5 33t101 -33t37 -82q0 -62 -57 -96q36 -18 56 -48.5t20 -66.5q0 -59 -43.5 -95.5t-113.5 -36.5t-112.5 36.5t-42.5 95.5zM708 211q-40 0 -62 -23.5t-22 -61.5q0 -36 22 -60t62 -24t62.5 23.5t22.5 60.5q0 38 -22.5 61.5t-62.5 23.5zM708 392
q-33 0 -52 -18.5t-19 -46.5q0 -30 19 -49.5t52 -19.5t52.5 19.5t19.5 49.5q0 28 -19.5 46.5t-52.5 18.5zM280 0l275 715h61l-275 -715h-61z" />
    <glyph glyph-name="seveneighths" unicode="&#x215e;" horiz-adv-x="807" 
d="M150 283h-76q71 178 177 374h-215v58h280v-54q-99 -203 -166 -378zM457 121q0 81 76 115q-58 34 -58 96q0 49 36.5 82t100.5 33t101 -33t37 -82q0 -62 -57 -96q36 -18 56 -48.5t20 -66.5q0 -59 -43.5 -95.5t-113.5 -36.5t-112.5 36.5t-42.5 95.5zM612 211
q-40 0 -62 -23.5t-22 -61.5q0 -36 22 -60t62 -24t62.5 23.5t22.5 60.5q0 38 -22.5 61.5t-62.5 23.5zM612 392q-33 0 -52 -18.5t-19 -46.5q0 -30 19 -49.5t52 -19.5t52.5 19.5t19.5 49.5q0 28 -19.5 46.5t-52.5 18.5zM184 0l275 715h61l-275 -715h-61z" />
    <glyph glyph-name="arrowleft" unicode="&#x2190;" horiz-adv-x="820" 
d="M780 287h-621l282 -287h-112q-18 19 -139 147t-170 178q49 49 172 180t137 145h112q-224 -231 -282 -287h621v-76z" />
    <glyph glyph-name="arrowup" unicode="&#x2191;" horiz-adv-x="720" 
d="M320 0v615l-285 -282v107q19 18 147 139t178 170q49 -49 180 -172t145 -137v-107q-229 224 -285 282v-615h-80z" />
    <glyph glyph-name="arrowright" unicode="&#x2192;" horiz-adv-x="820" 
d="M660 287h-621v76h621l-282 287h112q14 -14 137 -145t172 -180q-49 -50 -170 -178t-139 -147h-112q224 231 282 287z" />
    <glyph glyph-name="arrowdown" unicode="&#x2193;" horiz-adv-x="720" 
d="M320 100v615h80v-615l285 282v-107q-14 -14 -145 -137t-180 -172q-50 49 -178 170t-147 139v107q229 -224 285 -282z" />
    <glyph glyph-name="uni2196" unicode="&#x2196;" horiz-adv-x="750" 
d="M631 -5l-440 441l-2 -402l-73 71q6 294 7 454q142 0 451 6l72 -70l-401 -1l442 -442z" />
    <glyph glyph-name="uni2197" unicode="&#x2197;" horiz-adv-x="750" 
d="M558 436l-440 -441l-56 57l442 442l-401 1l72 70q309 -6 451 -6q1 -160 7 -454l-73 -71z" />
    <glyph glyph-name="uni2198" unicode="&#x2198;" horiz-adv-x="750" 
d="M118 564l440 -441l2 402l73 -71q-6 -294 -7 -454q-296 0 -451 -3l-72 70q320 0 401 -2l-442 442z" />
    <glyph glyph-name="uni2199" unicode="&#x2199;" horiz-adv-x="750" 
d="M191 123l440 441l56 -57l-442 -442l401 2l-72 -70q-155 3 -451 3q-1 160 -7 454l73 71z" />
    <glyph glyph-name="partialdiff" unicode="&#x2202;" horiz-adv-x="618" 
d="M140 715h140q292 -163 292 -440q0 -134 -68 -211t-197 -77q-123 0 -193 73.5t-70 199.5t70.5 200.5t175.5 74.5q81 0 135 -39l3 3q-38 57 -117 115t-171 101zM307 54q84 0 131 57t47 152q0 93 -47.5 151t-130.5 58q-84 0 -131.5 -58t-47.5 -151q0 -95 47 -152t132 -57z
" />
    <glyph glyph-name="Delta" unicode="&#x2206;" horiz-adv-x="725" 
d="M306 715h113l280 -715h-673zM363 651l-230 -585h460z" />
    <glyph glyph-name="product" unicode="&#x220f;" horiz-adv-x="816" 
d="M667 642v-755h-85v755h-348v-755h-85v755h-116v73h750v-73h-116z" />
    <glyph glyph-name="summation" unicode="&#x2211;" horiz-adv-x="632" 
d="M39 -49l276 352l-272 343v69h533v-72h-427l265 -336l-275 -345h448v-75h-548v64z" />
    <glyph glyph-name="minus" unicode="&#x2212;" 
d="M59 289v65h442v-65h-442z" />
    <glyph glyph-name="uni2219" unicode="&#x2219;" horiz-adv-x="220" 
d="M66 261v111h88v-111h-88z" />
    <glyph glyph-name="radical" unicode="&#x221a;" 
d="M9 460v65h149l79 -243q13 -40 35.5 -107t32.5 -97h2q12 47 61 216l123 421h81l-220 -715h-97q-136 385 -160 460h-86z" />
    <glyph glyph-name="infinity" unicode="&#x221e;" horiz-adv-x="850" 
d="M216 502q55 0 102 -31t107 -91q39 39 65.5 61.5t66 41.5t78.5 19q73 0 117 -45.5t44 -121.5q0 -72 -41 -120t-119 -48q-54 0 -101 29t-110 92q-63 -63 -110 -92t-101 -29q-78 0 -119 48t-41 120q0 76 44.5 121.5t117.5 45.5zM219 232q41 0 77 23.5t92 77.5q-4 4 -21 20
t-23.5 22t-22 19t-25 18.5t-24 13t-28 10.5t-27.5 3q-44 0 -69 -29t-25 -74q0 -49 25 -76.5t71 -27.5zM631 232q46 0 71 27.5t25 76.5q0 45 -25 74t-69 29q-14 0 -27.5 -3t-28 -10.5t-24 -13t-25 -18.5t-22 -19t-23.5 -22t-21 -20q56 -54 92 -77.5t77 -23.5z" />
    <glyph glyph-name="integral" unicode="&#x222b;" 
d="M354 496l-61 -426q-21 -145 -63.5 -199t-139.5 -54q-20 0 -42 4l9 65q14 -2 28 -2q64 0 87 38t37 137l64 432q18 124 61 177.5t139 53.5q20 0 38 -3l-9 -67q-10 2 -32 2q-56 0 -80 -38t-36 -120z" />
    <glyph glyph-name="approxequal" unicode="&#x2248;" 
d="M483 491l54 -36q-61 -105 -146 -105q-41 0 -107 31l-42 20q-50 24 -79 24q-57 0 -85 -68l-52 38q60 100 141 100q43 0 100 -27l46 -22q52 -25 77 -25q57 0 93 70zM480 240l54 -36q-61 -105 -146 -105q-41 0 -107 31l-42 20q-50 24 -79 24q-57 0 -85 -68l-52 38
q60 100 141 100q43 0 100 -27l46 -22q52 -25 77 -25q57 0 93 70z" />
    <glyph glyph-name="notequal" unicode="&#x2260;" 
d="M59 382v65h242l55 113h75l-55 -113h125v-65h-156l-56 -116h212v-65h-244l-58 -121h-75l58 121h-123v65h155l56 116h-211z" />
    <glyph glyph-name="lessequal" unicode="&#x2264;" 
d="M78 317v65q62 32 194 96.5t202 101.5v-76q-35 -17 -113.5 -53t-135 -62.5t-70.5 -33.5v-3q34 -17 319 -152v-78q-68 36 -199.5 98.5t-196.5 96.5zM78 0v65h396v-65h-396z" />
    <glyph glyph-name="greaterequal" unicode="&#x2265;" 
d="M481 382v-65q-65 -34 -196.5 -96.5t-199.5 -98.5v78q285 135 319 152v3q-14 7 -70.5 33.5t-135 62.5t-113.5 53v76q70 -37 202 -101.5t194 -96.5zM481 65v-65h-396v65h396z" />
    <glyph glyph-name="dotmath" unicode="&#x22c5;" horiz-adv-x="220" 
d="M66 261v111h88v-111h-88z" />
    <glyph glyph-name="lozenge" unicode="&#x25ca;" 
d="M322 0h-84l-230 356l230 359h84l229 -359zM280 65l184 291l-184 295l-185 -295z" />
    <glyph glyph-name="commaaccent" unicode="&#xf6c3;" horiz-adv-x="369" 
d="M107 -163l94 115h83l-75 -115h-102z" />
    <glyph glyph-name="uniF8FF" unicode="&#xf8ff;" horiz-adv-x="357" 
d="M179 206q-54 0 -91.5 37.5t-37.5 90.5t37.5 90t91.5 37q53 0 90.5 -37t37.5 -90t-37.5 -90.5t-90.5 -37.5z" />
    <glyph glyph-name="glyph5" horiz-adv-x="644" 
d="M50 240v49l309 309q16 -9 26 -23zM50 142v49l347 347v-15q0 -20 -13.5 -37.5t-42 -40t-36.5 -30.5q-23 -22 -36 -54zM104 0h-49l261 261h49l-93 -93h-23v-23zM321 168l273 273v-49l-224 -224h-49zM398 0h-49l33 33h2v2l210 210v-49zM50 338v49l148 148l39 -2q0 29 20 52
t55 23h8zM384 133l210 210v-49l-210 -210v49zM50 44v49l206 206v-38h11zM50 583l196 196h49l-44 -44q-53 -14 -92.5 -53.5t-54.5 -93.5l-54 -54v49zM537 482l57 57v-49l-216 -216v7q0 15 6.5 27.5t11 17.5t25.5 20t27 20q2 1 15.5 11t21.5 17.5t20 20.5t20 30t12 37zM50 681
l98 98h49l-147 -147v49zM496 0h-49l147 147v-49zM459 698l81 81h49l-104 -104q-13 12 -26 23zM50 436v49l56 56l46 -3zM506 647l88 88v-49l-70 -70q-7 15 -18 31zM202 0h-49l96 96v-49zM536 579l58 58v-49l-52 -52q0 15 -6 43zM395 732l47 47h49l-62 -62q-17 9 -34 15z
M307 742l37 37h49l-38 -38q-18 2 -28 2zM300 0h-49l33 33h49zM594 49v-49h-49zM50 779h49l-49 -49v49z" />
    <glyph glyph-name="NULL" horiz-adv-x="0" 
 />
    <glyph glyph-name="NULL" horiz-adv-x="0" 
 />
    <glyph glyph-name="acute.caps" horiz-adv-x="427" 
d="M373 875l-138 -114h-88l111 114h115z" />
    <glyph glyph-name="grave.caps" horiz-adv-x="512" 
d="M295 761l-138 114h115l111 -114h-88z" />
    <glyph glyph-name="circumflex.caps" horiz-adv-x="503" 
d="M210 875h89l97 -114h-78l-64 66l-62 -66h-79z" />
    <glyph glyph-name="caron.caps" horiz-adv-x="502" 
d="M299 761h-89l-97 114h79l62 -66l64 66h78z" />
    <glyph glyph-name="tilde.caps" horiz-adv-x="470" 
d="M155 765h-58q7 102 84 102q27 0 72 -22q38 -18 54 -18q25 0 33 40h56q-3 -47 -24 -75t-57 -28q-24 0 -67 19q-49 21 -59 21q-29 0 -34 -39z" />
    <glyph glyph-name="macron.caps" horiz-adv-x="428" 
d="M123 785v53h244v-53h-244z" />
    <glyph glyph-name="breve.caps" horiz-adv-x="465" 
d="M249 823q58 0 73 56h63q-20 -110 -136 -110t-136 110h63q15 -56 73 -56z" />
    <glyph glyph-name="dotaccent.caps" horiz-adv-x="328" 
d="M119 769v90h91v-90h-91z" />
    <glyph glyph-name="ring.caps" horiz-adv-x="405" 
d="M246 748q-37 0 -62 25.5t-25 63.5q0 36 25.5 61.5t62.5 25.5t62.5 -25.5t25.5 -61.5q0 -37 -25.5 -63t-63.5 -26zM200 837q0 -20 13.5 -34.5t32.5 -14.5q20 0 33.5 14t13.5 35q0 19 -13.5 33t-33.5 14q-19 0 -32.5 -14t-13.5 -33z" />
    <glyph glyph-name="cedilla.caps" horiz-adv-x="369" 
d="M104 -163l94 115h86l-75 -115h-105z" />
    <glyph glyph-name="ogonek.caps" horiz-adv-x="331" 
d="M173 -48l94 -115h-105l-75 115h86z" />
    <glyph glyph-name="hungarumlaut.caps" horiz-adv-x="612" 
d="M378 875l-138 -114h-86l111 114h113zM564 875l-138 -114h-86l111 114h113z" />
    <glyph glyph-name="dieresis.caps" horiz-adv-x="491" 
d="M137 766v90h89v-90h-89zM297 766v90h88v-90h-88z" />
    <glyph glyph-name="horn" horiz-adv-x="264" 
d="M200 715l-75 -191h-69l55 191h89z" />
    <glyph glyph-name="zero.plf" horiz-adv-x="609" 
d="M304 729q248 0 248 -373q0 -84 -11.5 -147.5t-38.5 -116t-77 -80t-121 -27.5q-57 0 -100.5 19t-71 51t-45 80t-24 101.5t-6.5 119.5q0 373 247 373zM304 660q-47 0 -79 -23.5t-48 -68t-22.5 -94.5t-6.5 -117q0 -95 12.5 -158.5t48 -104.5t95.5 -41q88 0 122.5 79
t34.5 225q0 66 -6.5 116.5t-23 95t-48.5 68t-79 23.5z" />
    <glyph glyph-name="one.plf" horiz-adv-x="388" 
d="M201 0v547h-172v55q93 2 137 28t53 85h66v-715h-84z" />
    <glyph glyph-name="two.plf" horiz-adv-x="571" 
d="M518 0h-464v72q117 104 205 182q91 81 126.5 141t35.5 123t-37 102t-101 39q-68 0 -106 -43t-41 -126h-85q0 107 63.5 173t172.5 66q108 0 167 -56t59 -150q0 -43 -15 -86t-34 -74t-56 -70t-60 -59.5t-68 -58.5q-22 -19 -128 -101h366v-74z" />
    <glyph glyph-name="three.plf" horiz-adv-x="578" 
d="M42 206h89q18 -153 155 -153q69 0 110 43.5t41 110.5q0 77 -47.5 112.5t-126.5 35.5h-26v65h5q81 0 120.5 29t39.5 96q0 55 -33.5 85t-83.5 30q-55 0 -90 -30.5t-39 -91.5h-83q1 86 60.5 138.5t154.5 52.5q93 0 148.5 -47.5t55.5 -123.5q0 -122 -125 -163
q72 -14 116.5 -62t44.5 -127q0 -99 -65.5 -160t-177.5 -61q-220 0 -243 221z" />
    <glyph glyph-name="four.plf" horiz-adv-x="585" 
d="M547 230v-66h-99v-164h-81v164h-340v62l228 326q79 113 112 163h81v-485h99zM371 611h-2q-59 -95 -117 -181l-47 -69l-92 -131h254v124q0 121 4 257z" />
    <glyph glyph-name="five.plf" horiz-adv-x="569" 
d="M70 338l43 377h371v-74h-307l-29 -241q63 61 158 61q99 0 159.5 -62.5t60.5 -168.5q0 -108 -66.5 -176.5t-175.5 -68.5q-102 0 -166.5 53t-77.5 158h88q7 -62 45.5 -102.5t108.5 -40.5q74 0 115.5 48t41.5 125q0 72 -41.5 120t-111.5 48q-89 0 -134 -70z" />
    <glyph glyph-name="six.plf" horiz-adv-x="601" 
d="M536 532h-88q-9 53 -42 91t-97 38q-88 0 -125.5 -72t-39.5 -225q59 95 185 95q99 0 160 -63.5t61 -168.5q0 -110 -67.5 -176t-175.5 -66q-128 0 -189.5 88t-61.5 274q0 202 64.5 292t192.5 90q97 0 152.5 -54t70.5 -143zM307 393q-74 0 -113.5 -43.5t-39.5 -121.5
q0 -80 39 -128t112 -48t114.5 47t41.5 123q0 79 -40 125t-114 46z" />
    <glyph glyph-name="seven.plf" horiz-adv-x="487" 
d="M192 0h-97q21 54 45.5 109t61.5 135t49 107q53 117 146 292v1q-19 -1 -55 -1h-311v72h440v-66l-24 -53q-173 -375 -255 -596z" />
    <glyph glyph-name="eight.plf" horiz-adv-x="591" 
d="M188 386q-107 45 -107 163q0 78 58 129t157 51t157 -51.5t58 -128.5q0 -115 -108 -163q138 -57 138 -192q0 -95 -63.5 -152t-181.5 -57q-119 0 -182.5 57t-63.5 152q0 72 38 120t100 72zM296 349q-76 0 -118.5 -40.5t-42.5 -108.5q0 -67 41.5 -107t119.5 -40
q75 0 117 40.5t42 106.5q0 68 -42.5 108.5t-116.5 40.5zM296 660q-61 0 -97.5 -33.5t-36.5 -86.5q0 -54 36.5 -88.5t97.5 -34.5t97.5 34.5t36.5 88.5q0 53 -36.5 86.5t-97.5 33.5z" />
    <glyph glyph-name="nine.plf" horiz-adv-x="602" 
d="M64 184h88q7 -54 41 -92t99 -38q88 0 125.5 73.5t39.5 225.5q-59 -95 -185 -95q-100 0 -160.5 63t-60.5 170t68 172.5t176 65.5q126 0 188 -85t62 -269q0 -208 -64 -298.5t-193 -90.5q-98 0 -153.5 53.5t-70.5 144.5zM294 325q74 0 113.5 43.5t39.5 121.5t-39.5 125.5
t-111.5 47.5q-73 0 -115 -45.5t-42 -121.5q0 -79 40.5 -125t114.5 -46z" />
    <glyph glyph-name="Gtilde" horiz-adv-x="790" 
d="M371 368h358v-368h-79v56l1 60q-29 -50 -94 -90t-165 -40q-152 0 -249 101.5t-97 269.5q0 163 98.5 267.5t260.5 104.5q129 0 211 -62t113 -165h-85q-31 70 -85.5 112.5t-154.5 42.5q-121 0 -193.5 -79.5t-72.5 -218.5q0 -138 72 -219.5t192 -81.5q62 0 111.5 21t79 55.5
t45 75.5t17.5 84h-284v74zM323 765h-58q7 102 84 102q27 0 72 -22q38 -18 54 -18q25 0 33 40h56q-3 -47 -24 -75t-57 -28q-24 0 -67 19q-50 21 -59 21q-29 0 -34 -39z" />
    <glyph glyph-name="gtilde" horiz-adv-x="625" 
d="M299 -122q85 0 127 56t42 157v34q-24 -44 -70.5 -72.5t-112.5 -28.5q-109 0 -175 71.5t-66 184.5q0 116 68.5 187.5t173.5 71.5q122 0 182 -90q-1 44 -1 76h82v-421q0 -137 -64 -215t-193 -78q-89 0 -150 50t-81 122h85q37 -105 153 -105zM301 91q72 0 119.5 52t47.5 141
q0 84 -45 135.5t-122 51.5q-78 0 -122.5 -52.5t-44.5 -137.5q0 -84 44.5 -137t122.5 -53zM224 613h-58q7 102 84 102q27 0 72 -22q38 -18 54 -18q25 0 33 40h56q-3 -47 -24 -75t-57 -28q-24 0 -67 19q-49 21 -59 21q-30 0 -34 -39z" />
    <glyph glyph-name="Mcircumflex" horiz-adv-x="863" 
d="M92 0v715h147l130 -427q8 -24 29 -99.5t31 -106.5h1q11 31 34.5 110.5t30.5 102.5l137 420h139v-715h-85v362q0 40 1.5 152t1.5 139h-1q-71 -233 -88 -283l-123 -370h-108l-142 471q-13 44 -29.5 105.5t-21.5 76.5h-1q2 -116 2 -252v-401h-85zM385 875h89l97 -114h-78
l-64 66l-62 -66h-79z" />
    <glyph glyph-name="mcircumflex" horiz-adv-x="918" 
d="M77 0v446q0 55 -1 79h82v-75q55 89 168 89q116 0 157 -97q63 97 186 97q88 0 132.5 -54.5t44.5 -156.5v-328h-83v302q0 170 -126 170q-62 0 -98 -43.5t-36 -107.5v-321h-83v302q0 170 -126 170q-63 0 -98.5 -45t-35.5 -112v-315h-83zM427 715h89q15 -17 48 -59t49 -60
h-78l-64 68l-62 -68h-79q16 18 49 60t48 59z" />
    <glyph glyph-name="Mmacron" horiz-adv-x="863" 
d="M92 0v715h147l130 -427q8 -24 29 -99.5t31 -106.5h1q11 31 34.5 110.5t30.5 102.5l137 420h139v-715h-85v362q0 40 1.5 152t1.5 139h-1q-71 -233 -88 -283l-123 -370h-108l-142 471q-13 44 -29.5 105.5t-21.5 76.5h-1q2 -116 2 -252v-401h-85zM309 785v53h244v-53h-244z
" />
    <glyph glyph-name="mmacron" horiz-adv-x="918" 
d="M77 0v446q0 55 -1 79h82v-75q55 89 168 89q116 0 157 -97q63 97 186 97q88 0 132.5 -54.5t44.5 -156.5v-328h-83v302q0 170 -126 170q-62 0 -98 -43.5t-36 -107.5v-321h-83v302q0 170 -126 170q-63 0 -98.5 -45t-35.5 -112v-315h-83zM348 628v53h244v-53h-244z" />
    <glyph glyph-name="Ncircumflex" horiz-adv-x="736" 
d="M644 0h-123l-238 428q-100 184 -105 195h-2q0 -17 0.5 -127t0.5 -144v-352h-85v715h129l243 -441l98 -181h2q0 17 -1.5 94t-1.5 115v413h83v-715zM339 875h89l97 -114h-78l-64 66l-62 -66h-79z" />
    <glyph glyph-name="ncircumflex" horiz-adv-x="580" 
d="M77 0v446q0 55 -1 79h82v-75q55 89 171 89q89 0 134.5 -55t45.5 -156v-328h-83v302q0 170 -129 170q-64 0 -100.5 -45t-36.5 -112v-315h-83zM275 715h89q15 -17 48 -59t49 -60h-78l-64 68l-62 -68h-79q16 18 49 60t48 59z" />
    <glyph glyph-name="Ndieresis" horiz-adv-x="736" 
d="M644 0h-123l-238 428q-100 184 -105 195h-2q0 -17 0.5 -127t0.5 -144v-352h-85v715h129l243 -441l98 -181h2q0 17 -1.5 94t-1.5 115v413h83v-715zM251 766v90h89v-90h-89zM411 766v90h88v-90h-88z" />
    <glyph glyph-name="ndieresis" horiz-adv-x="580" 
d="M77 0v446q0 55 -1 79h82v-75q55 89 171 89q89 0 134.5 -55t45.5 -156v-328h-83v302q0 170 -129 170q-64 0 -100.5 -45t-36.5 -112v-315h-83zM193 609v90h89v-90h-89zM353 609v90h88v-90h-88z" />
    <glyph glyph-name="Nmacron" horiz-adv-x="736" 
d="M644 0h-123l-238 428q-100 184 -105 195h-2q0 -17 0.5 -127t0.5 -144v-352h-85v715h129l243 -441l98 -181h2q0 17 -1.5 94t-1.5 115v413h83v-715zM251 785v53h244v-53h-244z" />
    <glyph glyph-name="nmacron" horiz-adv-x="580" 
d="M77 0v446q0 55 -1 79h82v-75q55 89 171 89q89 0 134.5 -55t45.5 -156v-328h-83v302q0 170 -129 170q-64 0 -100.5 -45t-36.5 -112v-315h-83zM194 628v53h244v-53h-244z" />
    <glyph glyph-name="Pmacron" horiz-adv-x="587" 
d="M92 0v715h205q100 0 157 -29q96 -50 96 -177q0 -107 -73 -161q-65 -49 -185 -49h-115v-299h-85zM177 643v-272h116q76 0 120.5 33.5t44.5 104.5q0 134 -171 134h-110zM171 785v53h244v-53h-244z" />
    <glyph glyph-name="pmacron" horiz-adv-x="626" 
d="M77 525l81 -1v-81q26 41 73 68.5t112 27.5q108 0 174 -75.5t66 -197.5q0 -126 -69 -202.5t-177 -76.5q-117 0 -179 87q2 -56 2 -134v-120h-83v705zM325 54q80 0 124 56t44 153q0 94 -44.5 151.5t-123.5 57.5q-80 0 -123.5 -57.5t-43.5 -151.5q0 -97 43.5 -153t123.5 -56z
M208 628v53h244v-53h-244z" />
    <glyph glyph-name="at.case" horiz-adv-x="832" 
d="M564 534h69l-50 -286q-7 -45 37 -45q46 0 80.5 61t34.5 143q0 120 -81 197.5t-216 77.5q-145 0 -236.5 -94t-91.5 -236q0 -147 96 -237.5t244 -90.5q76 0 128.5 21t104.5 62l45 -23q-118 -110 -285 -110q-175 0 -285 104.5t-110 273.5q0 160 110 269.5t280 109.5
q153 0 253 -87.5t100 -222.5q0 -120 -57 -193.5t-146 -73.5q-66 0 -83 48q-43 -49 -119 -49q-72 0 -114.5 43.5t-42.5 121.5q0 91 54.5 158.5t143.5 67.5q87 0 128 -64zM434 489q-62 0 -96 -51.5t-34 -121.5q0 -52 25.5 -83.5t75.5 -31.5q66 0 100 51.5t34 121.5
q0 55 -26.5 85t-78.5 30z" />
    <glyph glyph-name="bar.case" horiz-adv-x="282" 
d="M101 -42v793h80v-793h-80z" />
    <glyph glyph-name="plus.case" 
d="M59 339v65h188v196h65v-196h189v-65h-189v-197h-65v197h-188z" />
    <glyph glyph-name="minus.case" 
d="M59 339v65h442v-65h-442z" />
    <glyph glyph-name="plusminus.case" 
d="M58 360v65h188v176h65v-176h189v-65h-189v-177h-65v177h-188zM59 50v65h442v-65h-442z" />
    <glyph glyph-name="multiply.case" 
d="M115 160l-46 46l164 165l-164 165l46 46l164 -165l166 165l46 -46l-166 -165l166 -165l-46 -46l-166 165z" />
    <glyph glyph-name="divide.case" 
d="M59 339v65h442v-65h-442zM233 145v111h88v-111h-88zM233 487v111h88v-111h-88z" />
    <glyph glyph-name="equal.case" 
d="M59 432v65h442v-65h-442zM59 251v65h442v-65h-442z" />
    <glyph glyph-name="notequal.case" 
d="M59 432v65h242l55 113h75l-55 -113h125v-65h-156l-56 -116h212v-65h-244l-58 -121h-75l58 121h-123v65h155l56 116h-211z" />
    <glyph glyph-name="approxequal.case" 
d="M483 501l54 -36q-61 -105 -146 -105q-41 0 -107 31l-42 20q-50 24 -79 24q-57 0 -85 -68l-52 38q60 100 141 100q43 0 100 -27l46 -22q52 -25 77 -25q57 0 93 70zM480 250l54 -36q-61 -105 -146 -105q-41 0 -107 31l-42 20q-50 24 -79 24q-57 0 -85 -68l-52 38
q60 100 141 100q43 0 100 -27l46 -22q52 -25 77 -25q57 0 93 70z" />
    <glyph glyph-name="logicalnot.case" 
d="M18 445v65h503v-323h-67v258h-436z" />
    <glyph glyph-name="parenleft.case" horiz-adv-x="313" 
d="M45 348q0 145 62 272t162 188v-80q-145 -151 -145 -381q0 -216 145 -371v-82q-99 60 -161.5 185.5t-62.5 268.5z" />
    <glyph glyph-name="parenright.case" horiz-adv-x="313" 
d="M268 348q0 -143 -62.5 -268.5t-161.5 -185.5v82q145 155 145 371q0 230 -145 381v80q100 -61 162 -188t62 -272z" />
    <glyph glyph-name="hyphen.case" horiz-adv-x="410" 
d="M69 327v73h272v-73h-272z" />
    <glyph glyph-name="bracketleft.case" horiz-adv-x="327" 
d="M284 -3v-60h-183v828h183v-60h-103v-708h103z" />
    <glyph glyph-name="bracketright.case" horiz-adv-x="327" 
d="M43 -63v60h103v708h-103v60h183v-828h-183z" />
    <glyph glyph-name="braceleft.case" horiz-adv-x="302" 
d="M42 333v35q36 10 49.5 31t13.5 78v166q0 74 21.5 100t92.5 26l28 -1v-58q-37 -2 -49.5 -16t-12.5 -61v-129q0 -81 -11.5 -107t-55.5 -45v-2q44 -19 55.5 -45t11.5 -107v-130q0 -47 12.5 -61t49.5 -16v-58q-11 -1 -28 -1q-71 0 -92.5 26t-21.5 100v166q0 57 -13.5 78
t-49.5 31z" />
    <glyph glyph-name="braceright.case" horiz-adv-x="302" 
d="M260 368v-35q-36 -10 -49.5 -31t-13.5 -78v-166q0 -74 -21.5 -100t-92.5 -26l-28 1v58q37 2 49.5 16t12.5 61v130q0 81 11.5 107t55.5 45v2q-44 19 -55.5 45t-11.5 107v129q0 47 -12.5 61t-49.5 16v58q11 1 28 1q71 0 92.5 -26t21.5 -100v-166q0 -57 13.5 -78t49.5 -31z
" />
    <glyph glyph-name="guillemotleft.case" horiz-adv-x="493" 
d="M243 533l-97 -187l97 -188h-79l-107 188l107 187h79zM430 533l-92 -187l92 -188h-77l-107 188l107 187h77z" />
    <glyph glyph-name="guillemotright.case" horiz-adv-x="493" 
d="M347 346l-97 187h79l107 -187l-107 -188h-79zM155 346l-92 187h77l107 -187l-107 -188h-77z" />
    <glyph glyph-name="endash.case" horiz-adv-x="614" 
d="M69 327v71h476v-71h-476z" />
    <glyph glyph-name="emdash.case" horiz-adv-x="979" 
d="M69 327v71h841v-71h-841z" />
    <glyph glyph-name="guilsinglleft.case" horiz-adv-x="304" 
d="M241 533l-92 -187l92 -188h-77l-107 188l107 187h77z" />
    <glyph glyph-name="guilsinglright.case" horiz-adv-x="304" 
d="M155 346l-92 187h77l107 -187l-107 -188h-77z" />
    <glyph glyph-name="brokenbar.case" horiz-adv-x="228" 
d="M74 448v303h80v-303h-80zM74 -42v303h80v-303h-80z" />
    <glyph glyph-name="registered.alt" horiz-adv-x="842" 
d="M290 143v429h125q76 0 111 -24q51 -35 51 -101q0 -53 -28.5 -82.5t-75.5 -37.5l113 -184h-73l-103 175h-59v-175h-61zM351 518v-147h63q49 0 70 16q28 19 28 58q0 45 -35 62q-23 11 -63 11h-63zM798 360q0 -158 -110 -267.5t-268 -109.5q-156 0 -265.5 110t-109.5 267
q0 156 109.5 266t267.5 110q157 0 266.5 -110t109.5 -266zM747 360q0 137 -95.5 232.5t-229.5 95.5q-137 0 -231 -95t-94 -233q0 -137 94 -233.5t230 -96.5q135 0 230.5 96t95.5 234z" />
    <glyph glyph-name="less.case" 
d="M63 327v65q56 29 396 208v-75q-118 -56 -325 -160v-3q279 -139 325 -162v-78q-72 38 -204.5 106t-191.5 99z" />
    <glyph glyph-name="greater.case" 
d="M496 392v-65q-59 -31 -191.5 -99t-204.5 -106v78q46 23 325 162v3q-207 104 -325 160v75q340 -179 396 -208z" />
    <glyph glyph-name="lessequal.case" 
d="M78 310v91q28 13 173 78.5t223 100.5v-95q-115 -45 -295 -124v-3q170 -74 295 -127v-97q-366 162 -396 176zM474 0h-396v87h396v-87z" />
    <glyph glyph-name="greaterequal.case" 
d="M481 401v-91q-30 -14 -396 -176v97q125 53 295 127v3q-180 79 -295 124v95q78 -35 223 -100.5t173 -78.5zM481 0h-396v87h396v-87z" />
    <glyph glyph-name="infinity.case" horiz-adv-x="848" 
d="M215 532q55 0 102 -31t107 -91q39 39 65.5 61.5t66 41.5t78.5 19q73 0 117 -45.5t44 -121.5q0 -72 -41 -120t-119 -48q-54 0 -101 29t-110 92q-63 -63 -110 -92t-101 -29q-78 0 -119 48t-41 120q0 76 44.5 121.5t117.5 45.5zM218 262q41 0 77 23.5t92 77.5q-4 4 -21 20
t-23.5 22t-22 19t-25 18.5t-24 13t-28 10.5t-27.5 3q-44 0 -69 -29t-25 -74q0 -49 25 -76.5t71 -27.5zM630 262q46 0 71 27.5t25 76.5q0 45 -25 74t-69 29q-14 0 -27.5 -3t-28 -10.5t-24 -13t-25 -18.5t-22 -19t-23.5 -22t-21 -20q56 -54 92 -77.5t77 -23.5z" />
    <glyph glyph-name="uni00AD.case" horiz-adv-x="410" 
d="M69 327v73h272v-73h-272z" />
    <glyph glyph-name="zero.posf" horiz-adv-x="611" 
d="M305 715q248 0 248 -366q0 -82 -11.5 -144.5t-38.5 -114t-77 -78.5t-121 -27q-57 0 -100.5 18.5t-71 50t-45 78.5t-24 99.5t-6.5 117.5q0 366 247 366zM305 647q-47 0 -79 -23t-48 -66.5t-22.5 -93t-6.5 -114.5q0 -142 34.5 -220t121.5 -78q88 0 122.5 77.5t34.5 220.5
q0 65 -6.5 114.5t-23 93t-48.5 66.5t-79 23z" />
    <glyph glyph-name="one.posf" horiz-adv-x="389" 
d="M202 0v536h-172v54q93 2 137 27.5t53 83.5h66v-701h-84z" />
    <glyph glyph-name="two.posf" horiz-adv-x="573" 
d="M519 0h-464v71q117 102 205 178q91 80 126.5 138.5t35.5 120.5t-37 100t-101 38q-68 0 -106 -42.5t-41 -123.5h-85q0 106 63 170.5t173 64.5q108 0 167 -55t59 -147q0 -43 -15 -84.5t-34 -72t-56 -68.5t-60.5 -58.5t-67.5 -57.5q-13 -11 -128 -99h366v-73z" />
    <glyph glyph-name="three.posf" horiz-adv-x="577" 
d="M41 203h89q18 -150 155 -150q69 0 110 42.5t41 108.5q0 75 -47.5 110t-126.5 35h-26v64h5q81 0 120.5 28t39.5 94q0 54 -33.5 83.5t-83.5 29.5q-55 0 -90 -30t-39 -90h-83q1 85 60.5 136.5t154.5 51.5q93 0 148.5 -46.5t55.5 -121.5q0 -119 -125 -160q72 -14 116.5 -61
t44.5 -124q0 -97 -65.5 -157t-177.5 -60q-220 0 -243 217z" />
    <glyph glyph-name="four.posf" horiz-adv-x="585" 
d="M547 226v-65h-99v-161h-81v161h-340v61l228 319q77 108 112 160h81v-475h99zM371 599h-2q-47 -76 -117 -177l-47 -68l-92 -128h254v121q0 120 4 252z" />
    <glyph glyph-name="five.posf" horiz-adv-x="570" 
d="M70 331l43 370h371v-73h-307l-29 -236q64 60 158 60q99 0 159.5 -61.5t60.5 -165.5q0 -105 -66.5 -172.5t-175.5 -67.5q-102 0 -166.5 52t-77.5 155h88q7 -61 45.5 -100.5t108.5 -39.5q74 0 115.5 46.5t41.5 122.5q0 71 -41.5 118t-111.5 47q-89 0 -134 -68z" />
    <glyph glyph-name="six.posf" horiz-adv-x="601" 
d="M536 522h-88q-9 52 -42 89.5t-97 37.5q-88 0 -125.5 -70.5t-39.5 -220.5q59 93 185 93q99 0 160 -62.5t61 -164.5q0 -108 -67.5 -173t-175.5 -65q-128 0 -189.5 86t-61.5 269q0 199 64.5 287t192.5 88q97 0 152.5 -53t70.5 -141zM307 386q-74 0 -113.5 -42.5
t-39.5 -118.5q0 -79 39 -126t112 -47t114.5 46t41.5 121q0 77 -40 122t-114 45z" />
    <glyph glyph-name="seven.posf" horiz-adv-x="491" 
d="M195 0h-97q21 53 45.5 108t60.5 130.5t50 105.5q56 122 146 286v1q-19 -1 -55 -1h-311v71h440v-65l-24 -52q-171 -364 -255 -584z" />
    <glyph glyph-name="eight.posf" horiz-adv-x="592" 
d="M188 378q-107 45 -107 160q0 76 58 126.5t157 50.5q98 0 156.5 -50.5t58.5 -126.5q0 -112 -108 -160q138 -56 138 -188q0 -93 -63.5 -149t-181.5 -56q-119 0 -182.5 56t-63.5 149q0 71 38 118t100 70zM296 342q-76 0 -118.5 -39.5t-42.5 -106.5q0 -65 41.5 -104.5
t119.5 -39.5q75 0 117 39.5t42 104.5q0 67 -42.5 106.5t-116.5 39.5zM296 647q-61 0 -97.5 -33t-36.5 -85q0 -53 36.5 -86.5t97.5 -33.5t97.5 33.5t36.5 86.5q0 52 -36.5 85t-97.5 33z" />
    <glyph glyph-name="nine.posf" horiz-adv-x="602" 
d="M64 180h88q7 -52 41.5 -89.5t98.5 -37.5q88 0 125.5 72t39.5 221q-59 -93 -185 -93q-100 0 -160.5 61.5t-60.5 166.5q0 104 68 169t176 65q126 0 188 -83.5t62 -263.5q0 -205 -64 -293.5t-193 -88.5q-98 0 -153.5 52.5t-70.5 141.5zM294 319q74 0 113.5 42.5t39.5 118.5
q0 77 -39.5 123.5t-111.5 46.5q-73 0 -115 -45t-42 -119q0 -77 40.5 -122t114.5 -45z" />
    <glyph glyph-name="zero.slashplf" horiz-adv-x="609" 
d="M304 729q248 0 248 -373q0 -84 -11.5 -147.5t-38.5 -116t-77 -80t-121 -27.5q-57 0 -100.5 19t-71 51t-45 80t-24 101.5t-6.5 119.5q0 373 247 373zM304 660q-47 0 -79 -23.5t-48 -68t-22.5 -94.5t-6.5 -117q0 -157 37 -230l185 517q-30 16 -66 16zM461 357
q0 157 -37 228l-184 -518q28 -14 64 -14q88 0 122.5 79t34.5 225z" />
    <glyph glyph-name="zero.tosf" 
d="M279 715q248 0 248 -366q0 -82 -11.5 -144.5t-38.5 -114t-77 -78.5t-121 -27q-57 0 -100.5 18.5t-71 50t-45 78.5t-24 99.5t-6.5 117.5q0 366 247 366zM279 647q-47 0 -79 -23t-48 -66.5t-22.5 -93t-6.5 -114.5q0 -142 34.5 -220t121.5 -78q88 0 122.5 77.5t34.5 220.5
q0 65 -6.5 114.5t-23 93t-48.5 66.5t-79 23z" />
    <glyph glyph-name="one.tosf" 
d="M287 0v536h-172v54q93 2 137 27.5t53 83.5h66v-701h-84z" />
    <glyph glyph-name="two.tosf" 
d="M512 0h-464v71q117 102 205 178q91 80 126.5 138.5t35.5 120.5t-37 100t-101 38q-68 0 -106 -42.5t-41 -123.5h-85q0 106 63 170.5t173 64.5q108 0 167 -55t59 -147q0 -43 -15 -84.5t-34 -72t-56 -68.5t-60.5 -58.5t-67.5 -57.5q-13 -11 -128 -99h366v-73z" />
    <glyph glyph-name="three.tosf" 
d="M33 202h89q18 -150 155 -150q69 0 110 42.5t41 108.5q0 75 -47.5 110t-126.5 35h-26v64h5q81 0 120.5 28t39.5 94q0 54 -33.5 83.5t-83.5 29.5q-55 0 -90 -30t-39 -90h-83q1 85 60.5 136.5t154.5 51.5q93 0 148.5 -46.5t55.5 -121.5q0 -119 -125 -160q72 -14 116.5 -61
t44.5 -124q0 -97 -65.5 -157t-177.5 -60q-220 0 -243 217z" />
    <glyph glyph-name="four.tosf" 
d="M534 226v-65h-99v-161h-81v161h-340v61l228 319q77 108 112 160h81v-475h99zM358 599h-2q-47 -76 -117 -177l-47 -68l-92 -128h254v121q0 120 4 252z" />
    <glyph glyph-name="five.tosf" 
d="M65 331l43 370h371v-73h-307l-29 -236q64 60 158 60q99 0 159.5 -61.5t60.5 -165.5q0 -105 -66.5 -172.5t-175.5 -67.5q-102 0 -166.5 52t-77.5 155h88q7 -61 45.5 -100.5t108.5 -39.5q74 0 115.5 46.5t41.5 122.5q0 71 -41.5 118t-111.5 47q-89 0 -134 -68z" />
    <glyph glyph-name="six.tosf" 
d="M515 522h-88q-9 52 -42 89.5t-97 37.5q-88 0 -125.5 -70.5t-39.5 -220.5q59 93 185 93q99 0 160 -62.5t61 -164.5q0 -108 -67.5 -173t-175.5 -65q-128 0 -189.5 86t-61.5 269q0 199 64.5 287t192.5 88q97 0 152.5 -53t70.5 -141zM286 386q-74 0 -113.5 -42.5
t-39.5 -118.5q0 -79 39 -126t112 -47t114.5 46t41.5 121q0 77 -40 122t-114 45z" />
    <glyph glyph-name="seven.tosf" 
d="M229 0h-97q21 53 45.5 108t60.5 130.5t50 105.5q56 122 146 286v1q-19 -1 -55 -1h-311v71h440v-65l-24 -52q-171 -364 -255 -584z" />
    <glyph glyph-name="eight.tosf" 
d="M172 378q-107 45 -107 160q0 76 58 126.5t157 50.5q98 0 156.5 -50.5t58.5 -126.5q0 -112 -108 -160q138 -56 138 -188q0 -93 -63.5 -149t-181.5 -56q-119 0 -182.5 56t-63.5 149q0 71 38 118t100 70zM280 342q-76 0 -118.5 -39.5t-42.5 -106.5q0 -65 41.5 -104.5
t119.5 -39.5q75 0 117 39.5t42 104.5q0 67 -42.5 106.5t-116.5 39.5zM280 647q-61 0 -97.5 -33t-36.5 -85q0 -53 36.5 -86.5t97.5 -33.5t97.5 33.5t36.5 86.5q0 52 -36.5 85t-97.5 33z" />
    <glyph glyph-name="nine.tosf" 
d="M43 180h88q7 -52 41.5 -89.5t98.5 -37.5q88 0 125.5 72t39.5 221q-59 -93 -185 -93q-100 0 -160.5 61.5t-60.5 166.5q0 104 68 169t176 65q126 0 188 -83.5t62 -263.5q0 -205 -64 -293.5t-193 -88.5q-98 0 -153.5 52.5t-70.5 141.5zM273 319q74 0 113.5 42.5t39.5 118.5
q0 77 -39.5 123.5t-111.5 46.5q-73 0 -115 -45t-42 -119q0 -77 40.5 -122t114.5 -45z" />
    <glyph glyph-name="zero.sub" horiz-adv-x="458" 
d="M229 424q186 0 186 -280q0 -63 -8.5 -110.5t-29 -87t-58 -60t-90.5 -20.5t-90.5 20.5t-57.5 60t-28.5 87t-8.5 110.5q0 280 185 280zM229 372q-35 0 -59 -17.5t-36 -51t-17 -71t-5 -87.5q0 -109 26 -168.5t91 -59.5q46 0 73 31t36 78t9 119q0 50 -5 87.5t-17 71t-36.5 51
t-59.5 17.5z" />
    <glyph glyph-name="one.sub" horiz-adv-x="296" 
d="M154 -123v411h-129v41q70 2 102.5 21t39.5 64h50v-537h-63z" />
    <glyph glyph-name="two.sub" horiz-adv-x="430" 
d="M389 -123h-348v54q88 78 154 137q69 61 95.5 105.5t26.5 92.5q0 47 -28 76t-76 29q-50 0 -78 -30t-32 -87h-65q3 75 50 122.5t127 47.5q82 0 126.5 -42t44.5 -113q0 -40 -14 -76.5t-45 -72.5t-52 -55.5t-64 -56.5q-12 -10 -96 -75h274v-56z" />
    <glyph glyph-name="three.sub" horiz-adv-x="435" 
d="M32 32h66q14 -115 117 -115q51 0 82 32.5t31 82.5q0 57 -36 84t-95 27h-19v49h4q60 0 90 22t30 72q0 41 -25.5 63.5t-62.5 22.5q-41 0 -67.5 -23t-29.5 -68h-62q1 64 45.5 103.5t115.5 39.5q70 0 111.5 -35.5t41.5 -92.5q0 -92 -94 -123q54 -10 87.5 -46t33.5 -95
q0 -74 -49 -120t-133 -46q-165 0 -182 166z" />
    <glyph glyph-name="four.sub" horiz-adv-x="443" 
d="M413 50v-50h-74v-123h-61v123h-255v47l171 244q70 101 84 123h61v-364h74zM281 336h-2q-44 -73 -87 -136l-36 -52l-69 -98h191v93q0 115 3 193z" />
    <glyph glyph-name="five.sub" horiz-adv-x="428" 
d="M53 131l32 283h279v-56h-231l-21 -181q46 46 118 46q74 0 119.5 -47t45.5 -126q0 -81 -49.5 -132.5t-131.5 -51.5q-77 0 -125.5 39.5t-57.5 118.5h66q5 -47 34 -77t81 -30q55 0 86.5 36t31.5 94q0 54 -31 90t-84 36q-67 0 -100 -53z" />
    <glyph glyph-name="six.sub" horiz-adv-x="451" 
d="M403 275h-66q-7 40 -32 68.5t-73 28.5q-65 0 -93 -54.5t-30 -168.5q43 71 138 71q74 0 120 -47.5t46 -126.5q0 -82 -50.5 -131.5t-131.5 -49.5q-96 0 -142 65.5t-46 205.5q0 152 48 219.5t144 67.5q73 0 114.5 -40.5t53.5 -107.5zM231 171q-55 0 -85 -33t-30 -91
q0 -60 29 -96t84 -36t86 35t31 93q0 59 -30 93.5t-85 34.5z" />
    <glyph glyph-name="seven.sub" horiz-adv-x="373" 
d="M148 -123h-73q18 46 117 264q26 57 109 219h-274v54h330v-50l-18 -40q-126 -274 -191 -447z" />
    <glyph glyph-name="eight.sub" horiz-adv-x="447" 
d="M143 167q-80 33 -80 122q0 58 43.5 96.5t117.5 38.5t117.5 -38.5t43.5 -96.5q0 -87 -81 -122q104 -43 104 -144q0 -72 -47.5 -114.5t-136.5 -42.5t-137 42.5t-48 114.5q0 104 104 144zM224 139q-57 0 -89 -30t-32 -82q0 -50 31.5 -80t89.5 -30q56 0 87.5 30.5t31.5 79.5
q0 51 -32 81.5t-87 30.5zM224 372q-46 0 -73.5 -25t-27.5 -65t27.5 -66t73.5 -26q45 0 72.5 26t27.5 66t-27.5 65t-72.5 25z" />
    <glyph glyph-name="nine.sub" horiz-adv-x="453" 
d="M48 14h66q5 -40 31 -68.5t74 -28.5q66 0 94.5 55t29.5 169q-44 -71 -139 -71q-75 0 -120 47.5t-45 127.5t51 129t132 49q94 0 140.5 -63.5t46.5 -201.5q0 -157 -48 -224.5t-145 -67.5q-73 0 -114.5 40t-53.5 108zM221 120q55 0 85 33t30 91q0 59 -29.5 94.5t-84.5 35.5
t-86 -34.5t-31 -91.5q0 -59 30.5 -93.5t85.5 -34.5z" />
    <glyph glyph-name="a.sub" horiz-adv-x="403" 
d="M103 153h-57q0 55 44 91.5t114 36.5q78 0 115 -40t37 -130v-28v-12.5t-0.5 -39.5t-0.5 -76q0 -49 8 -78h-55q-5 27 -5 66q-44 -73 -137 -73q-61 0 -99.5 30t-38.5 83t43.5 79.5t124.5 39.5q10 2 23.5 3.5l36 4t43.5 5.5q0 64 -23 92t-74 28q-89 0 -99 -82zM46 152l-1 1h1
v-1zM300 52v20l-96 -15q-60 -9 -86.5 -24t-26.5 -49q0 -35 24 -54t65 -19q59 0 89.5 36t30.5 105z" />
    <glyph glyph-name="b.sub" horiz-adv-x="464" 
d="M51 -123v536h60v-206q45 74 140 74q80 0 129.5 -56.5t49.5 -148.5q0 -94 -52 -151.5t-132 -57.5q-92 0 -139 74v-64h-56zM237 -85q61 0 94 43t33 116q0 71 -34 115t-93 44q-61 0 -94 -44t-33 -115q0 -74 32.5 -116.5t94.5 -42.5z" />
    <glyph glyph-name="c.sub" horiz-adv-x="440" 
d="M355 0h59q-19 -59 -66 -96t-117 -37q-90 0 -143.5 56.5t-53.5 151.5q0 92 55 149t143 57q71 0 117.5 -39t64.5 -99h-59q-33 90 -123 90q-63 0 -99.5 -44t-36.5 -115q0 -73 35 -116t101 -43q86 0 123 85z" />
    <glyph glyph-name="d.sub" horiz-adv-x="464" 
d="M413 413v-536h-56v64q-47 -74 -138 -74q-82 0 -133.5 55.5t-51.5 151.5q0 90 51 148.5t129 58.5q94 0 137 -71l2 1q-1 27 -1 87v115h61zM228 -85q60 0 93 43t33 116q0 71 -33 114.5t-93 43.5q-61 0 -94.5 -43.5t-33.5 -114.5q0 -73 33.5 -116t94.5 -43z" />
    <glyph glyph-name="e.sub" horiz-adv-x="445" 
d="M417 64h-323q4 -70 40.5 -109.5t98.5 -39.5q78 0 115 72h61q-22 -52 -69 -86t-109 -34q-91 0 -144 57.5t-53 147.5q0 93 54.5 151t143.5 58q91 0 138.5 -59.5t47.5 -144.5q0 -3 -0.5 -6t-0.5 -4v-3zM97 109h258q-6 57 -37 91t-87 34t-91 -34t-43 -91z" />
    <glyph glyph-name="f.sub" horiz-adv-x="216" 
d="M201 416l2 -49q-10 2 -17 2q-51 0 -51 -50v-48h68v-45h-68v-349h-60v349h-52v45h52v34q0 113 101 113q11 0 25 -2z" />
    <glyph glyph-name="g.sub" horiz-adv-x="463" 
d="M226 -219q64 0 96 42t32 118v30h-2q-43 -76 -136 -76q-82 0 -131.5 54t-49.5 138q0 86 51.5 140t130.5 54q91 0 137 -71q-1 40 -1 61h60v-320q0 -102 -48 -160.5t-144 -58.5q-66 0 -112 37t-61 90h62q26 -78 116 -78zM228 -57q55 0 90.5 40t35.5 107q0 64 -34 103t-92 39
q-60 0 -93.5 -39.5t-33.5 -104.5q0 -64 33.5 -104.5t93.5 -40.5z" />
    <glyph glyph-name="h.sub" horiz-adv-x="421" 
d="M51 414h60v-125l-1 -73l2 -1q41 67 128 67q66 0 100 -41.5t34 -117.5v-246h-60v227q0 129 -98 129q-49 0 -77 -34.5t-28 -84.5v-237h-60v537z" />
    <glyph glyph-name="i.sub" horiz-adv-x="161" 
d="M111 340h-61v74h61v-74zM51 271h59v-394h-59v394z" />
    <glyph glyph-name="j.sub" horiz-adv-x="161" 
d="M42 -206q9 12 9 41v436h59v-425q0 -67 -25 -92q-24 -25 -79 -25q-9 0 -27 3q0 6 -0.5 23.5t-0.5 23.5q5 -1 15 -1q37 0 49 16zM111 340h-61v74h61v-74z" />
    <glyph glyph-name="k.sub" horiz-adv-x="359" 
d="M363 -123h-80q-21 27 -63.5 77.5t-74.5 87.5l-32 36q0 -25 -0.5 -100t-0.5 -101h-61v537h61v-325q113 127 161 182h72l-168 -179z" />
    <glyph glyph-name="l.sub" horiz-adv-x="163" 
d="M51 -123v537h61v-537h-61z" />
    <glyph glyph-name="m.sub" horiz-adv-x="675" 
d="M51 -123v336q0 41 -1 58h60v-59q43 70 127 70q86 0 118 -75q47 75 140 75q66 0 99.5 -41.5t33.5 -117.5v-246h-61v227q0 129 -96 129q-48 0 -75 -33t-27 -82v-241h-60v227q0 129 -96 129q-48 0 -75 -34t-27 -85v-237h-60z" />
    <glyph glyph-name="n.sub" horiz-adv-x="421" 
d="M51 -123v336q0 41 -1 58h60v-59q43 70 130 70q66 0 100 -41.5t34 -117.5v-246h-60v227q0 129 -98 129q-49 0 -77 -34.5t-28 -84.5v-237h-60z" />
    <glyph glyph-name="o.sub" horiz-adv-x="466" 
d="M232 -85q64 0 99.5 43t35.5 116q0 71 -36 115t-99 44q-64 0 -100 -44t-36 -115q0 -73 35.5 -116t100.5 -43zM232 -133q-93 0 -145.5 57t-52.5 149q0 91 54.5 149.5t145.5 58.5q89 0 143.5 -58.5t54.5 -149.5q0 -92 -54 -149t-146 -57z" />
    <glyph glyph-name="p.sub" horiz-adv-x="464" 
d="M51 271h59v-65q46 76 141 76q80 0 129.5 -57t49.5 -148q0 -94 -52 -151.5t-132 -57.5q-87 0 -136 68q1 -21 1 -104v-89h-60v528zM237 -84q61 0 94 43t33 116q0 71 -33.5 115t-93.5 44q-61 0 -94 -43.5t-33 -115.5q0 -74 32.5 -116.5t94.5 -42.5z" />
    <glyph glyph-name="q.sub" horiz-adv-x="464" 
d="M354 271h59v-528h-61v93q0 40 2 102q-49 -70 -135 -70q-83 0 -134 55.5t-51 151.5q0 90 51 148.5t129 58.5q94 0 139 -74l2 1q-1 11 -1 62zM228 -84q60 0 93 43t33 116q0 72 -33 115t-93 43q-61 0 -94.5 -43.5t-33.5 -114.5q0 -73 33.5 -116t94.5 -43z" />
    <glyph glyph-name="r.sub" horiz-adv-x="228" 
d="M108 271v-63h2q10 31 38 51.5t61 20.5q8 0 11 -1v-57q-12 2 -24 2q-85 0 -85 -132v-215h-60v336q0 41 -1 58h58z" />
    <glyph glyph-name="s.sub" horiz-adv-x="372" 
d="M26 -6h58q24 -80 106 -80q42 0 67 18t25 49q0 28 -19.5 40.5t-64.5 24.5l-47 13q-53 15 -82 38.5t-29 68.5q0 52 40.5 83t104.5 31q60 0 99.5 -28.5t49.5 -84.5h-57q-21 66 -93 66q-40 0 -62 -16t-22 -43q0 -25 19 -38.5t61 -25.5l50 -15q55 -16 83 -39.5t28 -67.5
q0 -57 -42.5 -89t-110.5 -32q-138 0 -162 127z" />
    <glyph glyph-name="t.sub" horiz-adv-x="232" 
d="M73 226h-61v45h61v106h59v-106h76v-45h-76v-253q0 -58 58 -58q7 0 11 1v-45q-6 -1 -20 -1q-53 0 -80.5 22t-27.5 76v258z" />
    <glyph glyph-name="u.sub" horiz-adv-x="415" 
d="M364 271v-335q0 -41 1 -59h-60v53h-2q-37 -64 -123 -64q-66 0 -99.5 41.5t-33.5 117.5v246h60v-228q0 -128 98 -128q47 0 73 34t26 85v237h60z" />
    <glyph glyph-name="v.sub" horiz-adv-x="388" 
d="M157 -123l-66 178q-11 31 -39 104.5t-41 110.5h68l72 -207l20 -57l25 -75l30 82l21 59q11 32 35 99t35 99h62l-150 -393h-72l1 -1q-1 0 -1 1z" />
    <glyph glyph-name="w.sub" horiz-adv-x="606" 
d="M136 -123l-121 393h66l58 -204l3 -11q12 -40 36 -132l43 160l49 187h75l43 -178l20 -82l19 -83h2l30 102q1 2 9.5 29.5t12.5 42.5l51 169h61l-126 -394q-10 0 -40 0.5t-41 0.5l-38 152q-26 105 -40 180h-2l-11 -40q-22 -92 -36 -143l-41 -149h-82z" />
    <glyph glyph-name="x.sub" horiz-adv-x="360" 
d="M70 -123h-66q98 133 144 200l-137 193h70q7 -10 25.5 -37t27.5 -42l48 -70l36 51l65 98h64q-16 -24 -85 -118l-49 -68q13 -18 66.5 -96t77.5 -111h-69l-52 79l-57 85l-48 -73zM3 -125l-1 2h2z" />
    <glyph glyph-name="y.sub" horiz-adv-x="383" 
d="M166 -258h-60l55 132l-77 201l-75 196h68q32 -94 94 -264l22 -63l26 70q70 191 93 257h63l-78 -201q-86 -222 -131 -328z" />
    <glyph glyph-name="z.sub" horiz-adv-x="367" 
d="M26 -123v44l174 218q49 59 68 85q-27 -1 -121 -1h-113v47h301v-48l-168 -206q-26 -34 -43 -54l-31 -39h54q11 0 32.5 0.5t30.5 0.5h129v-47h-313z" />
    <glyph glyph-name="zero.sup" horiz-adv-x="456" 
d="M228 849q186 0 186 -280q0 -63 -8.5 -110.5t-29 -87t-58 -60t-90.5 -20.5t-90.5 20.5t-57.5 60t-28.5 87t-8.5 110.5q0 280 185 280zM228 797q-35 0 -59 -17.5t-36 -51t-17 -71t-5 -87.5q0 -109 26 -168.5t91 -59.5q46 0 73 31t36 78t9 119q0 50 -5 87.5t-17 71t-36.5 51
t-59.5 17.5z" />
    <glyph glyph-name="one.sup" horiz-adv-x="296" 
d="M154 302v411h-129v41q70 2 102.5 21t39.5 64h50v-537h-63z" />
    <glyph glyph-name="two.sup" horiz-adv-x="430" 
d="M389 302h-348v54q88 78 154 137q69 61 95.5 105.5t26.5 92.5q0 47 -28 76t-76 29q-50 0 -78 -30t-32 -87h-65q3 75 50 122.5t127 47.5q82 0 126.5 -42t44.5 -113q0 -40 -14 -76.5t-45 -72.5t-52 -55.5t-64 -56.5q-12 -10 -96 -75h274v-56z" />
    <glyph glyph-name="three.sup" horiz-adv-x="433" 
d="M31 457h66q14 -115 117 -115q51 0 82 32.5t31 82.5q0 57 -36 84t-95 27h-19v49h4q60 0 90 22t30 72q0 41 -25.5 63.5t-62.5 22.5q-41 0 -67.5 -23t-29.5 -68h-62q1 64 45.5 103.5t115.5 39.5q70 0 111.5 -35.5t41.5 -92.5q0 -92 -94 -123q54 -10 87.5 -46t33.5 -95
q0 -74 -49 -120t-133 -46q-165 0 -182 166z" />
    <glyph glyph-name="four.sup" horiz-adv-x="443" 
d="M413 475v-50h-74v-123h-61v123h-255v47l171 244q70 101 84 123h61v-364h74zM281 761h-2q-44 -73 -87 -136l-36 -52l-69 -98h191v93q0 115 3 193z" />
    <glyph glyph-name="five.sup" horiz-adv-x="427" 
d="M52 556l32 283h279v-56h-231l-21 -181q46 46 118 46q74 0 119.5 -47t45.5 -126q0 -81 -49.5 -132.5t-131.5 -51.5q-77 0 -125.5 39.5t-57.5 118.5h66q5 -47 34 -77t81 -30q55 0 86.5 36t31.5 94q0 54 -31 90t-84 36q-67 0 -100 -53z" />
    <glyph glyph-name="six.sup" horiz-adv-x="452" 
d="M403 700h-66q-7 40 -32 68.5t-73 28.5q-65 0 -93 -54.5t-30 -168.5q43 71 138 71q74 0 120 -47.5t46 -126.5q0 -82 -50.5 -131.5t-131.5 -49.5q-96 0 -142 65.5t-46 205.5q0 152 48 219.5t144 67.5q73 0 114.5 -40.5t53.5 -107.5zM231 596q-55 0 -85 -33t-30 -91
q0 -60 29 -96t84 -36t86 35t31 93q0 59 -30 93.5t-85 34.5z" />
    <glyph glyph-name="seven.sup" horiz-adv-x="371" 
d="M147 302h-73q18 46 117 264q26 57 109 219h-274v54h330v-50l-18 -40q-126 -274 -191 -447z" />
    <glyph glyph-name="eight.sup" horiz-adv-x="447" 
d="M143 592q-80 33 -80 122q0 58 43.5 96.5t117.5 38.5t117.5 -38.5t43.5 -96.5q0 -87 -81 -122q104 -43 104 -144q0 -72 -47.5 -114.5t-136.5 -42.5t-137 42.5t-48 114.5q0 104 104 144zM224 564q-57 0 -89 -30t-32 -82q0 -50 31.5 -80t89.5 -30q56 0 87.5 30.5t31.5 79.5
q0 51 -32 81.5t-87 30.5zM224 797q-46 0 -73.5 -25t-27.5 -65t27.5 -66t73.5 -26q45 0 72.5 26t27.5 66t-27.5 65t-72.5 25z" />
    <glyph glyph-name="nine.sup" horiz-adv-x="451" 
d="M47 439h66q5 -40 31 -68.5t74 -28.5q66 0 94.5 55t29.5 169q-44 -71 -139 -71q-75 0 -120 47.5t-45 127.5t51 129t132 49q94 0 140.5 -63.5t46.5 -201.5q0 -157 -48 -224.5t-145 -67.5q-73 0 -114.5 40t-53.5 108zM220 545q55 0 85 33t30 91q0 59 -29.5 94.5t-84.5 35.5
t-86 -34.5t-31 -91.5q0 -59 30.5 -93.5t85.5 -34.5z" />
    <glyph glyph-name="a.sup" horiz-adv-x="403" 
d="M103 578h-57q0 55 44 91.5t114 36.5q78 0 115 -40t37 -130v-28v-12.5t-0.5 -39.5t-0.5 -76q0 -49 8 -78h-55q-5 27 -5 66q-44 -73 -137 -73q-61 0 -99.5 30t-38.5 83t43.5 79.5t124.5 39.5q10 2 23.5 3.5l36 4t43.5 5.5q0 64 -23 92t-74 28q-89 0 -99 -82zM46 577l-1 1h1
v-1zM300 477v20l-96 -15q-60 -9 -86.5 -24t-26.5 -49q0 -35 24 -54t65 -19q59 0 89.5 36t30.5 105z" />
    <glyph glyph-name="b.sup" horiz-adv-x="464" 
d="M51 302v536h60v-206q45 74 140 74q80 0 129.5 -56.5t49.5 -148.5q0 -94 -52 -151.5t-132 -57.5q-92 0 -139 74v-64h-56zM237 340q61 0 94 43t33 116q0 71 -34 115t-93 44q-61 0 -94 -44t-33 -115q0 -74 32.5 -116.5t94.5 -42.5z" />
    <glyph glyph-name="c.sup" horiz-adv-x="440" 
d="M355 425h59q-19 -59 -66 -96t-117 -37q-90 0 -143.5 56.5t-53.5 151.5q0 92 55 149t143 57q71 0 117.5 -39t64.5 -99h-59q-33 90 -123 90q-63 0 -99.5 -44t-36.5 -115q0 -73 35 -116t101 -43q86 0 123 85z" />
    <glyph glyph-name="d.sup" horiz-adv-x="464" 
d="M413 838v-536h-56v64q-47 -74 -138 -74q-82 0 -133.5 55.5t-51.5 151.5q0 90 51 148.5t129 58.5q94 0 137 -71l2 1q-1 27 -1 87v115h61zM228 340q60 0 93 43t33 116q0 71 -33 114.5t-93 43.5q-61 0 -94.5 -43.5t-33.5 -114.5q0 -73 33.5 -116t94.5 -43z" />
    <glyph glyph-name="e.sup" horiz-adv-x="446" 
d="M417 489h-323q4 -70 40.5 -109.5t98.5 -39.5q78 0 115 72h61q-22 -52 -69 -86t-109 -34q-91 0 -144 57.5t-53 147.5q0 93 54.5 151t143.5 58q91 0 138.5 -59.5t47.5 -144.5q0 -3 -0.5 -6t-0.5 -4v-3zM97 534h258q-6 57 -37 91t-87 34t-91 -34t-43 -91z" />
    <glyph glyph-name="f.sup" horiz-adv-x="217" 
d="M202 841l2 -49q-10 2 -17 2q-51 0 -51 -50v-48h68v-45h-68v-349h-60v349h-52v45h52v34q0 113 101 113q11 0 25 -2z" />
    <glyph glyph-name="g.sup" horiz-adv-x="464" 
d="M226 206q64 0 96 42t32 118v30h-2q-43 -76 -136 -76q-82 0 -131.5 54t-49.5 138q0 86 51.5 140t130.5 54q91 0 137 -71q-1 40 -1 61h60v-320q0 -102 -48 -160.5t-144 -58.5q-66 0 -112 37t-61 90h62q26 -78 116 -78zM228 368q55 0 90.5 40t35.5 107q0 64 -34 103t-92 39
q-60 0 -93.5 -39.5t-33.5 -104.5q0 -64 33.5 -104.5t93.5 -40.5z" />
    <glyph glyph-name="h.sup" horiz-adv-x="421" 
d="M51 839h60v-125l-1 -73l2 -1q41 67 128 67q66 0 100 -41.5t34 -117.5v-246h-60v227q0 129 -98 129q-49 0 -77 -34.5t-28 -84.5v-237h-60v537z" />
    <glyph glyph-name="i.sup" horiz-adv-x="161" 
d="M111 765h-61v74h61v-74zM51 696h59v-394h-59v394z" />
    <glyph glyph-name="j.sup" horiz-adv-x="161" 
d="M42 219q9 12 9 41v436h59v-425q0 -67 -25 -92q-24 -25 -79 -25q-9 0 -27 3q0 6 -0.5 23.5t-0.5 23.5q5 -1 15 -1q37 0 49 16zM111 765h-61v74h61v-74z" />
    <glyph glyph-name="k.sup" horiz-adv-x="359" 
d="M363 302h-80q-21 27 -63.5 77.5t-74.5 86.5l-32 37q0 -25 -0.5 -100t-0.5 -101h-61v537h61v-325q113 127 161 182h72l-168 -179z" />
    <glyph glyph-name="l.sup" horiz-adv-x="163" 
d="M51 302v537h61v-537h-61z" />
    <glyph glyph-name="m.sup" horiz-adv-x="675" 
d="M51 302v336q0 41 -1 58h60v-59q43 70 127 70q86 0 118 -75q47 75 140 75q66 0 99.5 -41.5t33.5 -117.5v-246h-61v227q0 129 -96 129q-48 0 -75 -33t-27 -82v-241h-60v227q0 129 -96 129q-48 0 -75 -34t-27 -85v-237h-60z" />
    <glyph glyph-name="n.sup" horiz-adv-x="421" 
d="M51 302v336q0 41 -1 58h60v-59q43 70 130 70q66 0 100 -41.5t34 -117.5v-246h-60v227q0 129 -98 129q-49 0 -77 -34.5t-28 -84.5v-237h-60z" />
    <glyph glyph-name="o.sup" horiz-adv-x="466" 
d="M232 340q64 0 99.5 43t35.5 116q0 71 -36 115t-99 44q-64 0 -100 -44t-36 -115q0 -73 35.5 -116t100.5 -43zM232 292q-93 0 -145.5 57t-52.5 149q0 91 54.5 149.5t145.5 58.5q89 0 143.5 -58.5t54.5 -149.5q0 -92 -54 -149t-146 -57z" />
    <glyph glyph-name="p.sup" horiz-adv-x="464" 
d="M51 696h59v-65q46 76 141 76q80 0 129.5 -57t49.5 -148q0 -94 -52 -151.5t-132 -57.5q-87 0 -136 68q1 -21 1 -104v-89h-60v528zM237 341q61 0 94 43t33 116q0 71 -33.5 115t-93.5 44q-61 0 -94 -43.5t-33 -115.5q0 -74 32.5 -116.5t94.5 -42.5z" />
    <glyph glyph-name="q.sup" horiz-adv-x="465" 
d="M355 696h59v-528h-61v93q0 40 2 102q-49 -70 -135 -70q-83 0 -134 55.5t-51 151.5q0 90 51 148.5t129 58.5q94 0 139 -74l2 1q-1 11 -1 62zM229 341q60 0 93 43t33 116q0 72 -33 115t-93 43q-61 0 -94.5 -43.5t-33.5 -114.5q0 -73 33.5 -116t94.5 -43z" />
    <glyph glyph-name="r.sup" horiz-adv-x="230" 
d="M108 696v-63h2q10 31 38 51.5t61 20.5q8 0 11 -1v-57q-12 2 -24 2q-85 0 -85 -132v-215h-60v336q0 41 -1 58h58z" />
    <glyph glyph-name="s.sup" horiz-adv-x="372" 
d="M26 419h58q24 -80 106 -80q42 0 67 18t25 49q0 28 -19.5 40.5t-64.5 24.5l-47 13q-53 15 -82 38.5t-29 68.5q0 52 40.5 83t104.5 31q60 0 99.5 -28.5t49.5 -84.5h-57q-21 66 -93 66q-40 0 -62 -16t-22 -43q0 -25 19 -38.5t61 -25.5l50 -15q55 -16 83 -39.5t28 -67.5
q0 -57 -42.5 -89t-110.5 -32q-138 0 -162 127z" />
    <glyph glyph-name="t.sup" horiz-adv-x="235" 
d="M75 651h-61v45h61v106h59v-106h76v-45h-76v-253q0 -58 58 -58q7 0 11 1v-45q-6 -1 -20 -1q-53 0 -80.5 22t-27.5 76v258z" />
    <glyph glyph-name="u.sup" horiz-adv-x="415" 
d="M364 696v-335q0 -41 1 -59h-60v53h-2q-37 -64 -123 -64q-66 0 -99.5 41.5t-33.5 117.5v246h60v-228q0 -128 98 -128q47 0 73 34t26 85v237h60z" />
    <glyph glyph-name="v.sup" horiz-adv-x="386" 
d="M156 302l-66 178q-11 31 -39 104.5t-41 110.5h68l72 -207l20 -57l25 -75l30 82l21 59q11 32 35 99t35 99h62l-150 -393h-72l1 -1q-1 0 -1 1z" />
    <glyph glyph-name="w.sup" horiz-adv-x="605" 
d="M136 302l-121 393h66l58 -204l3 -11q12 -40 36 -132l43 160l49 187h75l43 -178l20 -82l19 -83h2l30 102q1 2 9.5 29.5t12.5 42.5l51 169h61l-126 -394q-10 0 -40 0.5t-41 0.5l-38 152q-26 105 -40 180h-2l-11 -40q-22 -92 -36 -143l-41 -149h-82z" />
    <glyph glyph-name="x.sup" horiz-adv-x="359" 
d="M70 302h-66q98 133 144 200l-137 193h70q7 -10 25.5 -37t27.5 -42l48 -70l36 51l65 98h64q-16 -24 -85 -118l-49 -68q13 -18 66.5 -96t77.5 -111h-69l-52 79l-57 85l-48 -73zM3 300l-1 2h2z" />
    <glyph glyph-name="y.sup" horiz-adv-x="385" 
d="M167 167h-60l55 132l-77 201l-75 196h68q32 -94 94 -264l22 -63l26 70q70 191 93 257h63l-78 -201q-86 -222 -131 -328z" />
    <glyph glyph-name="z.sup" horiz-adv-x="368" 
d="M27 302v44l174 218q49 59 68 85q-27 -1 -121 -1h-113v47h301v-48l-168 -206q-26 -34 -43 -54l-31 -39h54q11 0 32.5 0.5t30.5 0.5h129v-47h-313z" />
    <glyph glyph-name="idotaccent" horiz-adv-x="235" 
d="M160 614h-85v101h85v-101zM77 525h81v-525h-81v525z" />
    <glyph glyph-name="zero.slashtlf" 
d="M279 729q248 0 248 -373q0 -84 -11.5 -147.5t-38.5 -116t-77 -80t-121 -27.5q-57 0 -100.5 19t-71 51t-45 80t-24 101.5t-6.5 119.5q0 373 247 373zM279 660q-47 0 -79 -23.5t-48 -68t-22.5 -94.5t-6.5 -117q0 -157 37 -230l185 517q-30 16 -66 16zM436 357
q0 157 -37 228l-184 -518q28 -14 64 -14q88 0 122.5 79t34.5 225z" />
    <glyph glyph-name="zero.tlf" 
d="M279 729q248 0 248 -373q0 -84 -11.5 -147.5t-38.5 -116t-77 -80t-121 -27.5q-57 0 -100.5 19t-71 51t-45 80t-24 101.5t-6.5 119.5q0 373 247 373zM279 660q-47 0 -79 -23.5t-48 -68t-22.5 -94.5t-6.5 -117q0 -95 12.5 -158.5t48 -104.5t95.5 -41q88 0 122.5 79
t34.5 225q0 66 -6.5 116.5t-23 95t-48.5 68t-79 23.5z" />
    <glyph glyph-name="one.tlf" 
d="M287 0v547h-172v55q93 2 137 28t53 85h66v-715h-84z" />
    <glyph glyph-name="two.tlf" 
d="M512 0h-464v72q117 104 205 182q91 81 126.5 141t35.5 123t-37 102t-101 39q-68 0 -106 -43t-41 -126h-85q0 107 63.5 173t172.5 66q108 0 167 -56t59 -150q0 -43 -15 -86t-34 -74t-56 -70t-60 -59.5t-68 -58.5q-22 -19 -128 -101h366v-74z" />
    <glyph glyph-name="three.tlf" 
d="M33 206h89q18 -153 155 -153q69 0 110 43.5t41 110.5q0 77 -47.5 112.5t-126.5 35.5h-26v65h5q81 0 120.5 29t39.5 96q0 55 -33.5 85t-83.5 30q-55 0 -90 -30.5t-39 -91.5h-83q1 86 60.5 138.5t154.5 52.5q93 0 148.5 -47.5t55.5 -123.5q0 -122 -125 -163
q72 -14 116.5 -62t44.5 -127q0 -99 -65.5 -160t-177.5 -61q-220 0 -243 221z" />
    <glyph glyph-name="four.tlf" 
d="M534 230v-66h-99v-164h-81v164h-340v62l228 326q79 113 112 163h81v-485h99zM358 611h-2q-59 -95 -117 -181l-47 -69l-92 -131h254v124q0 121 4 257z" />
    <glyph glyph-name="five.tlf" 
d="M65 338l43 377h371v-74h-307l-29 -241q63 61 158 61q99 0 159.5 -62.5t60.5 -168.5q0 -108 -66.5 -176.5t-175.5 -68.5q-102 0 -166.5 53t-77.5 158h88q7 -62 45.5 -102.5t108.5 -40.5q74 0 115.5 48t41.5 125q0 72 -41.5 120t-111.5 48q-89 0 -134 -70z" />
    <glyph glyph-name="six.tlf" 
d="M516 532h-88q-9 53 -42 91t-97 38q-88 0 -125.5 -72t-39.5 -225q59 95 185 95q99 0 160 -63.5t61 -168.5q0 -110 -67.5 -176t-175.5 -66q-128 0 -189.5 88t-61.5 274q0 202 64.5 292t192.5 90q97 0 152.5 -54t70.5 -143zM287 393q-74 0 -113.5 -43.5t-39.5 -121.5
q0 -80 39 -128t112 -48t114.5 47t41.5 123q0 79 -40 125t-114 46z" />
    <glyph glyph-name="seven.tlf" 
d="M228 0h-97q21 54 45.5 109t61.5 135t49 107q53 117 146 292v1q-19 -1 -55 -1h-311v72h440v-66l-24 -53q-173 -375 -255 -596z" />
    <glyph glyph-name="eight.tlf" 
d="M172 386q-107 45 -107 163q0 78 58 129t157 51t157 -51.5t58 -128.5q0 -115 -108 -163q138 -57 138 -192q0 -95 -63.5 -152t-181.5 -57q-119 0 -182.5 57t-63.5 152q0 72 38 120t100 72zM280 349q-76 0 -118.5 -40.5t-42.5 -108.5q0 -67 41.5 -107t119.5 -40
q75 0 117 40.5t42 106.5q0 68 -42.5 108.5t-116.5 40.5zM280 660q-61 0 -97.5 -33.5t-36.5 -86.5q0 -54 36.5 -88.5t97.5 -34.5t97.5 34.5t36.5 88.5q0 53 -36.5 86.5t-97.5 33.5z" />
    <glyph glyph-name="nine.tlf" 
d="M43 184h88q7 -54 41 -92t99 -38q88 0 125.5 73.5t39.5 225.5q-59 -95 -185 -95q-100 0 -160.5 63t-60.5 170t68 172.5t176 65.5q126 0 188 -85t62 -269q0 -208 -64 -298.5t-193 -90.5q-98 0 -153.5 53.5t-70.5 144.5zM273 325q74 0 113.5 43.5t39.5 121.5t-39.5 125.5
t-111.5 47.5q-73 0 -115 -45.5t-42 -121.5q0 -79 40.5 -125t114.5 -46z" />
    <glyph glyph-name="zero.slash" horiz-adv-x="609" 
d="M304 729q248 0 248 -373q0 -84 -11.5 -147.5t-38.5 -116t-77 -80t-121 -27.5q-57 0 -100.5 19t-71 51t-45 80t-24 101.5t-6.5 119.5q0 373 247 373zM304 660q-47 0 -79 -23.5t-48 -68t-22.5 -94.5t-6.5 -117q0 -157 37 -230l185 517q-30 16 -66 16zM461 357
q0 157 -37 228l-184 -518q28 -14 64 -14q88 0 122.5 79t34.5 225z" />
    </font>
</defs>
</svg>
